M48
;Layer_Color=9474304
;FILE_FORMAT=2:5
INCH,TZ
;TYPE=PLATED
T1F00S00C0.01181
T2F00S00C0.03150
T4F00S00C0.03937
T5F00S00C0.04724
T6F00S00C0.07874
T7F00S00C0.09843
T8F00S00C0.14567
;TYPE=NON_PLATED
T9F00S00C0.12992
%
T01
X258446Y2873
X278131
X297816
X317501
X337186
X356871
X376556
X390841
Y22258
X375062Y23200
X362200Y23239
X361278Y29435
Y31798
Y34135
Y36498
X358916
X356554
Y34135
Y31798
Y29435
X358916
Y31798
Y34135
X366800Y36900
X352900Y39800
X336300Y36800
X324478Y30200
X312844Y33616
X310440Y43873
X308078
X305740
X303378
Y46235
X305740
X308078
Y48598
X305740
X303378
X310440
Y46235
X316600Y52524
X313500Y59873
X316600Y67300
X312347Y72432
X309984
X305921Y74573
X306400Y66478
X301240Y69892
X296559Y74573
X301240Y79254
X294900Y83400
X289500Y88800
X289600Y96392
X283600Y103761
X278600Y92100
X270502Y83573
X268140
X265802
X263440
Y81211
X265802
X268140
Y78849
X265802
X263440
Y76436
X265802
X268140
X270502
Y74073
X268140
X265802
Y71711
X268140
X270502
X263440
Y74073
X270502Y78849
Y81211
X276200Y68600
X276516Y64426
Y62064
Y59726
Y57364
X278878
Y59726
Y62064
X281240
Y59726
Y57364
X283653
Y59726
Y62064
Y64426
X286016
Y62064
Y59726
X288378
Y62064
Y64426
Y57364
X286016
X291200Y52524
X298936Y59726
X281240Y64426
X278878
X275783Y50400
X266040Y44971
Y42609
X263678
Y44971
X254740Y44935
X252378
Y42573
X254740
X249035Y19256
X290682Y24517
X295276Y22638
X300147Y24656
X302165Y29528
X300147Y34399
X295276Y36417
X290404Y34399
X288484Y29232
X300300Y88934
X302778Y89773
X305140
X307478
X309840
Y92136
Y94498
X307478
X305140
X302778
Y92136
X305140
X307478
X316651Y89540
Y87177
X316600Y77500
X328400Y82883
X345500Y83100
X352836Y71500
Y61800
X364300Y54100
X381957Y54281
X390841Y61628
Y81313
X382336Y80335
X379974
Y77973
Y75635
Y73273
X382336
Y75635
Y77973
X377612
Y75635
Y73273
X375198
X372836
Y75635
Y77973
Y80335
X375198
Y77973
Y75635
X370474
Y77973
Y80335
Y73273
X377612Y80335
X376800Y97600
X376698Y101981
X379060
X378957Y112611
X376595
X370921Y117500
X365300Y112600
X360500Y118800
X352300Y118200
X343349Y118258
X340987
X342500Y127800
X351800Y127600
X361400Y127900
X366060Y133021
X364900Y100400
X353060Y98185
Y95823
Y108400
X345600Y103373
X329309Y108000
X316700Y99300
X317000Y119578
X298400Y121600
X294040Y121373
X291678
X289340
Y123735
X291678
X294040
Y126098
X291678
X289340
X286978
X284640
Y123735
X286978
Y121373
X284640
X284300Y130500
X281432Y133592
X279070
X267800Y131743
X254335Y129796
Y127434
X246400Y122600
X253000Y112700
X252366Y103209
X261900Y102400
X266200Y114700
X277700Y116092
X303300Y131300
X329500Y129569
X329200Y136298
X390841Y120684
Y100998
Y41943
X332492Y60100
X244400Y66500
X244900Y87200
X252312Y92800
X238000Y92700
X227829Y96087
X222535Y91876
Y89514
X217100Y96100
X207600Y96300
X202234Y91876
Y89514
X197000Y96200
X187100Y96300
X181848Y91476
Y89114
X176900Y96300
X165592Y96293
X165629Y99474
X168373Y93400
X160159Y88492
X157900Y76600
X168900Y67500
X175000Y80800
X187400Y76100
X195100Y73678
X205200Y73494
X204978Y55235
Y52873
X207340
Y55235
X195478Y53911
Y51549
X186059
Y53911
X175200Y51006
X172400Y44000
X181400Y44509
X185152Y32770
X179706Y2873
X199391
X219076
X238761
X226500Y35273
X227200Y51900
X223702Y55473
X221340
Y57835
X223702
X216500Y48894
X231409Y69200
X217800Y115000
X207300Y115300
X197053
X186900
X177100Y115403
X164900Y128249
X145790Y122000
X145576Y135900
X135530Y127200
X131996Y127854
X128696
X124296Y128654
X123657Y132000
X126000Y131951
X128746Y138224
X118053Y124654
X113100Y117900
X107600Y127921
X98800Y136543
X96629Y116092
X92098Y113058
X91998Y109812
X91600Y97300
X94317Y83100
X102400Y70300
X116400Y67500
X124433Y65600
X125125Y71132
Y73494
X133577Y74847
X138109Y78173
X116926Y81500
X113471Y53000
X124000Y51900
X126828Y25300
X151500Y25700
X160020Y2873
X140335
X120650
X100965
X103200Y21140
X149717Y60500
X152300Y111000
X160948Y103800
X135729Y115800
X227600Y128524
X79200Y135000
X57400Y137400
X40791Y137024
X36000Y135915
X35900Y138300
X35568Y130900
X36340Y127454
X40740Y126654
X44040
X45400Y131700
X47724Y115577
X58300Y121215
X65200Y110400
X77921Y98573
Y95273
X72203Y87292
X71600Y75700
X50153Y76973
X45621Y73647
X38535Y73518
Y71156
X36300Y66900
X28600Y66500
X28898Y80206
X13700Y82000
X2840Y76298
Y56613
Y36928
Y17243
Y2873
X22225
X23100Y19000
X55600Y20200
X74147Y24517
X78740Y22638
X83612Y24656
X85630Y29528
X83612Y34399
X78740Y36417
X73868Y34399
X71949Y29232
X81280Y2873
X61595
X41910
X37572Y52453
X26700Y53200
X58600Y64511
X83000Y54900
X25000Y116618
X29614Y123400
X27619Y126366
X19500Y126098
X8673Y114892
X2840Y115668
X4143Y111858
X4043Y108612
X2840Y95983
Y135353
Y155038
Y174723
Y194408
Y214093
Y233778
Y253463
Y273148
Y292833
X35100Y286500
X40803Y282273
X43165
X41526Y273100
X43221Y264694
X47400Y257700
X45491Y241800
X57700Y244365
X58000Y236273
X78040Y232473
Y230173
X78625Y223173
X72508Y215173
X72181Y204400
X62300Y211784
X66300Y188700
X72371Y169200
X74900Y162100
X61800Y149073
X53800Y149995
X48502Y149225
X45546
X40000Y149600
X32800Y150800
X28200Y155136
X28049Y160673
Y163630
X30188Y173161
X30225Y176342
X30439Y180600
X41556Y180100
X46340Y174800
X41600Y169600
X24700Y173000
X25581Y143259
X22624
X18000Y143800
X45472Y141705
X34700Y197239
X34500Y211700
X30300Y226100
X38900Y226500
X31471Y248696
X31571Y252498
X28152Y258892
X28700Y268425
X57700Y274700
X64600Y271000
X57400Y285200
X53640Y288973
X72700Y257700
X16583Y245163
Y242800
X89440Y246773
X89340Y256173
X99800Y262312
X100440Y271000
X101634Y277700
X102229Y285600
X115939Y284500
X114340Y277600
X115287Y271000
X119700Y256700
X128747Y256363
X134040Y252358
X134740Y249373
Y246973
Y244673
Y242273
X139640Y250584
Y252946
X151900Y251100
X151350Y267573
X149216Y270800
X145900Y262192
X130183Y266962
X129500Y277924
X138500Y278118
X138000Y290300
X141912Y291623
X145715Y291523
X150200Y290925
X145900Y283500
X161540Y286773
X163400Y282000
X162621Y278373
X163352Y270611
X161312Y267573
X171540
X171600Y271300
X171800Y283600
X180862
X188940Y283700
X185152Y289900
X176300
X194290Y290100
X199983Y285819
X198688Y282200
X197948Y278653
X206367Y278900
Y282341
X208730
X209300Y285754
X208730Y289428
X206367
X218840Y294650
X218741Y278373
X217072Y268700
X206500Y269798
X204004Y260800
X196300Y254974
X188632Y255465
X180500Y255200
X186000Y242900
X185800Y233500
X187700Y226400
X193800Y222800
X182900Y217900
X172062Y215507
X171572Y226100
X176000Y230200
X162400Y226282
X162310Y218500
X162446Y209268
X159297Y203861
X154600
X150100Y204300
X155400Y211500
X152821Y223673
X152912Y226200
X143713Y231712
X141351
X114600Y228373
X112656Y244835
X114500Y251922
X100901Y241700
X93846Y228373
X98000Y215073
X108900Y215600
X121562Y216752
X117171Y200173
X114068Y196058
X113040Y190798
Y188435
Y186073
X115440
Y188435
Y190798
X121259Y188273
X130621
X125940Y192954
X125031Y198358
X132593
X144470Y194373
X146700Y191300
X161100Y193112
X168400Y190800
X171086Y179800
X169500Y171800
X160516Y168600
X152912Y178500
X156300Y184600
X136400Y181571
X125940Y183592
X107637Y180003
X103506Y184604
X101500Y190500
X103440Y196942
X107637Y201627
X91200Y202200
X86769Y208087
X91200Y185900
X92068Y181571
X92031Y178390
X93100Y168800
X93400Y162071
X111092Y160368
Y157411
X114340Y147025
X117297
X119029Y144800
X121502Y145963
X124459
X128589
X131545
X133428Y142905
X126015Y139520
X123600
X106259Y144548
X103303
X120136Y165300
X115600Y171154
X135588Y158100
X150200Y159700
X144893Y165962
X142257Y144900
X164567Y145680
X166929
X171895Y140300
X174246
X192300Y140500
X192447Y149995
Y152357
X203945Y152201
Y149838
X212840Y149995
Y152357
X212734Y140700
X227900Y149300
X242262Y149869
X242040Y176800
X236900Y172600
X224309Y164165
X221128Y164202
X216477Y164165
X203909
X200728Y164202
X201720Y167900
X196800Y162142
X183523Y164165
X180342Y164202
X176700Y156700
X185748Y187400
X190151Y195073
X192513
X190540Y198200
X190051Y202273
X192413
X196316Y204153
X206800Y193700
X203400Y180100
X218400Y187400
X219000Y205100
X214200Y210576
X211933Y218235
X208040Y215073
X209498Y226000
X209800Y239300
X208440Y249584
X210240Y251384
X217327Y252464
X226760Y244500
X236785Y242700
X234200Y256200
X234240Y267100
X240800Y260691
X235000Y281080
X232033Y227900
X232900Y219273
X224233Y230400
X197200Y235822
X200300Y248400
X168002Y204900
X233600Y193778
X134340Y292473
X129600Y290300
X117579Y291878
X248233Y278200
X248367Y264700
X255500Y258479
X272459Y258873
X277140Y263554
X281821Y258873
X277140Y254192
X279011Y239046
Y236684
X271924
Y239046
X267268Y232200
X268340Y224735
X270702
Y222373
Y220035
Y217673
X268340
Y220035
Y222373
Y214878
Y212516
Y210178
X270702
Y212516
Y214878
Y207816
X268340
X262859Y203430
X259678Y203467
X259690Y190226
X262872Y190189
X255616Y188300
X247000Y187456
X256797Y176285
X261582Y171331
X253500Y159514
X252467Y153100
X253533Y149697
X244624Y149869
X262300Y150200
X279070Y144222
X281432
X288200Y146200
X298300Y145200
X298603Y168092
Y170454
Y172792
X300965
Y170454
Y168092
X304932Y173337
X302500Y180654
X299612Y190600
X299600Y200800
Y212200
X303000Y218700
X313848Y218873
X324000Y218900
X333240Y219064
X338184Y217000
X341640Y217667
Y215304
X346640
Y217667
X350602Y218500
X355200Y213100
X355000Y205509
X365116Y206141
X372878Y213073
Y215435
Y217773
Y220135
X375240
X377602
Y217773
Y215435
Y213073
X375240
Y215435
Y217773
X380016
Y215435
Y213073
X382378
X384740
Y215435
Y217773
Y220135
X382378
Y217773
Y215435
X380016Y220135
X390841Y219109
Y238794
Y258479
Y278164
X367040Y270611
X367140Y263173
X370400Y253805
X365600Y243076
X362334Y241373
X357352Y238100
X339366
X334300Y244900
X334340Y250573
Y252911
Y255273
X331978
Y252911
Y250573
X340278Y249573
Y251911
Y254273
X342640
Y251911
Y249573
X347600Y249835
Y252173
Y254535
X349963
Y252173
Y249835
X350553Y258100
X348261Y257124
X348663Y260300
X348792Y263142
X350500Y261600
X350240Y265066
X357040Y276846
X356953Y285400
X341469Y285000
X335800Y279000
X333453Y270200
X330900Y270100
X328127
X325462
X325200Y267260
X327693Y267430
X330600Y267573
X333453Y267500
X313300Y275000
X313848Y279600
X313900Y284600
X314400Y290100
X319400Y292400
X324747Y292300
X303608Y293728
X301308
X295600Y292100
X288460Y294100
X274508Y291000
X278800Y285551
X267500Y273884
X261100Y277273
X262000Y291800
X248254Y243800
X250500Y236500
X255000Y227536
X254447Y213900
X251795Y212100
X251693Y216118
X271924Y227000
X284179Y233800
X284900Y220273
X287100Y203600
X278600
X281597Y188849
X283959
Y186487
X281597
X284340Y178211
Y168849
X289021Y173530
X279659
X276940Y166700
X313913Y163450
X331278Y166111
X333640
X335978
Y168473
X333640
X331278
Y170835
X333640
X335978
X338340
Y168473
Y166111
X343978Y165973
Y168311
Y170673
X346340
Y168311
Y165973
X350600Y165962
X351878Y172111
Y174473
Y176811
Y179173
X354240
Y176811
Y174473
X356602
Y176811
Y179173
X360900Y179100
X361005Y171100
X356602Y172111
X354240
X353906Y181800
X351091Y181400
X349099Y179900
X347603Y181854
X346645Y184447
X349000Y185927
X349700Y183600
X352060Y184045
X355263Y194556
X365432Y190723
X367794
X372532Y187909
X377200Y182452
X377100Y171331
X372519Y160750
X373500Y157000
X362700Y149500
X360500Y165306
X390841Y160054
Y179739
Y199424
X369900Y224273
X342900Y203600
X340440Y203800
X335656Y186073
X333000Y185800
X330700Y185000
X327863Y184800
X325171Y184900
X322512Y185000
X319900
X317300Y185065
X318500Y182452
X321000Y182647
X323602Y182600
X326500
X329500Y182700
X332100Y182744
X334500Y183645
X336943Y183900
X330600Y151151
X390841Y140368
X368900Y289700
X320800Y247773
X316291Y247073
X316201Y242500
X310500Y257627
X303340Y256473
Y254135
Y251773
X300978
Y254135
Y256473
X297458Y248700
X296809Y244455
X314300Y295547
X331278Y297680
X344168Y298223
Y295861
X349168
Y298223
X353405Y296600
X353400Y311835
X346400Y318700
X340221Y318016
Y315654
X347840Y328011
X350202
X352540
Y330373
X350202
X347840
Y332735
X350202
X352540
X358696Y326021
X360856Y318700
X369470Y307900
X377800Y324300
X390841Y317534
Y337219
Y356904
Y376589
X390740Y390858
X371455
X351770
X350400Y377500
X348200Y359400
X362900Y358762
X377800Y347907
X340440Y336000
X319000Y336600
X314066Y330773
X313984Y323169
X319000Y317500
X307300Y327492
X302300Y332400
X294000Y335447
X294067Y326212
X288460Y330900
X288237Y321407
Y319044
X285875
Y321407
X282505Y324500
X273167Y324400
X268519Y318543
Y316181
X266157
Y318543
X269766Y312000
X277700Y307843
Y301765
X277900Y318500
X279100Y332800
X274627Y337900
X275400Y350673
X268600Y365700
X288484Y363878
X290682Y359162
X295276Y357283
X300147Y359301
X302165Y364173
X300147Y369045
X295276Y371063
X290404Y369045
X292715Y390858
X273030
X253345
X250600Y375800
X262700Y335792
X257321Y321996
X256209Y310205
X258572
Y307843
X256209
X244990
Y310205
X290615Y307840
X297848Y315900
X322277Y349500
X310400Y375700
X312400Y390858
X332085
X390841Y297849
X242628Y307843
Y310205
X231409
Y307843
X229047
Y310205
X225600Y308800
X220000Y319473
X214400Y322700
X205303Y326900
X189000Y328300
X195525Y336300
X195290Y355000
X189200Y354869
X176700Y354600
X170540Y355073
X168178
Y357435
X170540
X168400Y348000
X173200Y342611
X168500Y337400
X162675Y336861
Y334499
X160313
Y336861
X158500Y330592
X156300Y343900
X156800Y359600
X156424Y376300
X154920Y390858
X135235
X132555Y377288
X134426Y360376
X125469Y358500
X118700Y358676
X115509Y358725
X112328Y358762
X113210Y362732
X110848
Y365094
X113210
X118621Y369200
X106700Y369400
X104400Y369300
X101600Y359700
X104972Y350421
X107340
X113940Y347520
X119977Y353476
X125300Y339900
X134700Y339617
X133900Y323773
X125469Y323709
X113440Y328573
X118521Y333673
X116673Y306673
X112240Y301764
X103800Y298587
X100400Y315229
X100600Y345798
X96818Y347673
X94456
Y350035
X96818
X90337Y342300
X95865Y390858
X115550
X174605
X194290
X213975
X233660
X223400Y365600
X211400Y353800
X195100Y367534
X186425Y367500
X182000Y360600
X176421Y366141
X171000Y369300
X168633Y369200
X160516Y316900
X152700Y311000
X143700Y310877
X143753Y301800
X137800Y302808
X137900Y306300
X128475Y304300
X152604Y301943
X165071Y307611
X175221Y309201
X175321Y313004
X184121Y307471
X195063Y308754
X202100Y306793
X208885Y304714
X214900Y301892
X224500Y328900
X224800Y335900
X237000Y319328
X174000Y296950
X83600Y301700
X68000Y301600
X67700Y309572
X61663Y315073
X56163Y309673
X55400Y295400
X36089Y295287
X40605Y300049
X40878Y307798
X36135Y312673
X25140Y313700
Y316063
X14956Y312373
X10440Y307611
X10194Y300062
X14956Y295547
X2840Y312518
Y332203
Y351888
Y371573
Y390858
X17124
X36809
X36400Y372800
X56494Y390858
X76179
X78740Y371063
X73868Y369045
X71949Y363878
X74147Y359162
X78740Y357283
X83612Y359301
X85630Y364173
X83612Y369045
X61800Y345325
X54335Y332575
X49902Y327665
X43640Y327535
Y325173
X41278
Y327535
X77200Y327797
T02
X34477Y189399
Y219399
T04
X244555Y29558
X233650
X222744
X211839
X200933
X206386Y18377
X217291
X228197
X239103
X129162Y58892
X119162
X42548
X32548
X105940Y267077
X123657
Y292667
X105940
X226760Y291080
Y281080
Y271080
Y261080
Y251080
X243764Y342288
X253764
X263764
X258764Y352288
X248764
X268764
X338134
X348134
X358134
X368134
X363134Y342288
X353134
X343134
X333134
X233764
X238764Y352288
X55221
X45221
X35221
X25221
X30220Y342288
X20221
X40220
X50221
X76041Y306673
Y296673
T05
X368180Y14881
X381957
X190711Y376993
X176931
X163154
X125750
X111970
X98193
T06
X99162Y38892
X139162
X52548
X12548
T07
X295276Y29528
X78740
X295276Y364173
X78740
T08
X271937Y23967
X173551
T09
X273764Y377288
X328134
X373134
X228764
X60220
X15221
M30
