G04*
G04 #@! TF.GenerationSoftware,Altium Limited,Altium Designer,19.0.10 (269)*
G04*
G04 Layer_Color=8388736*
%FSLAX25Y25*%
%MOIN*%
G70*
G01*
G75*
%ADD25C,0.05512*%
G04:AMPARAMS|DCode=26|XSize=62.99mil|YSize=55.12mil|CornerRadius=15.75mil|HoleSize=0mil|Usage=FLASHONLY|Rotation=270.000|XOffset=0mil|YOffset=0mil|HoleType=Round|Shape=RoundedRectangle|*
%AMROUNDEDRECTD26*
21,1,0.06299,0.02362,0,0,270.0*
21,1,0.03150,0.05512,0,0,270.0*
1,1,0.03150,-0.01181,-0.01575*
1,1,0.03150,-0.01181,0.01575*
1,1,0.03150,0.01181,0.01575*
1,1,0.03150,0.01181,-0.01575*
%
%ADD26ROUNDEDRECTD26*%
%ADD27O,0.03150X0.08268*%
G04:AMPARAMS|DCode=28|XSize=67.87mil|YSize=67.87mil|CornerRadius=18.94mil|HoleSize=0mil|Usage=FLASHONLY|Rotation=90.000|XOffset=0mil|YOffset=0mil|HoleType=Round|Shape=RoundedRectangle|*
%AMROUNDEDRECTD28*
21,1,0.06787,0.03000,0,0,90.0*
21,1,0.03000,0.06787,0,0,90.0*
1,1,0.03787,0.01500,0.01500*
1,1,0.03787,0.01500,-0.01500*
1,1,0.03787,-0.01500,-0.01500*
1,1,0.03787,-0.01500,0.01500*
%
%ADD28ROUNDEDRECTD28*%
G04:AMPARAMS|DCode=29|XSize=62.99mil|YSize=55.12mil|CornerRadius=15.75mil|HoleSize=0mil|Usage=FLASHONLY|Rotation=180.000|XOffset=0mil|YOffset=0mil|HoleType=Round|Shape=RoundedRectangle|*
%AMROUNDEDRECTD29*
21,1,0.06299,0.02362,0,0,180.0*
21,1,0.03150,0.05512,0,0,180.0*
1,1,0.03150,-0.01575,0.01181*
1,1,0.03150,0.01575,0.01181*
1,1,0.03150,0.01575,-0.01181*
1,1,0.03150,-0.01575,-0.01181*
%
%ADD29ROUNDEDRECTD29*%
G04:AMPARAMS|DCode=30|XSize=31.5mil|YSize=53.15mil|CornerRadius=9.84mil|HoleSize=0mil|Usage=FLASHONLY|Rotation=0.000|XOffset=0mil|YOffset=0mil|HoleType=Round|Shape=RoundedRectangle|*
%AMROUNDEDRECTD30*
21,1,0.03150,0.03347,0,0,0.0*
21,1,0.01181,0.05315,0,0,0.0*
1,1,0.01968,0.00591,-0.01673*
1,1,0.01968,-0.00591,-0.01673*
1,1,0.01968,-0.00591,0.01673*
1,1,0.01968,0.00591,0.01673*
%
%ADD30ROUNDEDRECTD30*%
G04:AMPARAMS|DCode=31|XSize=31.5mil|YSize=53.15mil|CornerRadius=9.84mil|HoleSize=0mil|Usage=FLASHONLY|Rotation=90.000|XOffset=0mil|YOffset=0mil|HoleType=Round|Shape=RoundedRectangle|*
%AMROUNDEDRECTD31*
21,1,0.03150,0.03347,0,0,90.0*
21,1,0.01181,0.05315,0,0,90.0*
1,1,0.01968,0.01673,0.00591*
1,1,0.01968,0.01673,-0.00591*
1,1,0.01968,-0.01673,-0.00591*
1,1,0.01968,-0.01673,0.00591*
%
%ADD31ROUNDEDRECTD31*%
G04:AMPARAMS|DCode=32|XSize=67.87mil|YSize=87.87mil|CornerRadius=18.94mil|HoleSize=0mil|Usage=FLASHONLY|Rotation=180.000|XOffset=0mil|YOffset=0mil|HoleType=Round|Shape=RoundedRectangle|*
%AMROUNDEDRECTD32*
21,1,0.06787,0.05000,0,0,180.0*
21,1,0.03000,0.08787,0,0,180.0*
1,1,0.03787,-0.01500,0.02500*
1,1,0.03787,0.01500,0.02500*
1,1,0.03787,0.01500,-0.02500*
1,1,0.03787,-0.01500,-0.02500*
%
%ADD32ROUNDEDRECTD32*%
G04:AMPARAMS|DCode=33|XSize=74.8mil|YSize=51.18mil|CornerRadius=14.76mil|HoleSize=0mil|Usage=FLASHONLY|Rotation=90.000|XOffset=0mil|YOffset=0mil|HoleType=Round|Shape=RoundedRectangle|*
%AMROUNDEDRECTD33*
21,1,0.07480,0.02165,0,0,90.0*
21,1,0.04528,0.05118,0,0,90.0*
1,1,0.02953,0.01083,0.02264*
1,1,0.02953,0.01083,-0.02264*
1,1,0.02953,-0.01083,-0.02264*
1,1,0.02953,-0.01083,0.02264*
%
%ADD33ROUNDEDRECTD33*%
G04:AMPARAMS|DCode=34|XSize=74.8mil|YSize=51.18mil|CornerRadius=14.76mil|HoleSize=0mil|Usage=FLASHONLY|Rotation=0.000|XOffset=0mil|YOffset=0mil|HoleType=Round|Shape=RoundedRectangle|*
%AMROUNDEDRECTD34*
21,1,0.07480,0.02165,0,0,0.0*
21,1,0.04528,0.05118,0,0,0.0*
1,1,0.02953,0.02264,-0.01083*
1,1,0.02953,-0.02264,-0.01083*
1,1,0.02953,-0.02264,0.01083*
1,1,0.02953,0.02264,0.01083*
%
%ADD34ROUNDEDRECTD34*%
G04:AMPARAMS|DCode=35|XSize=177.17mil|YSize=70.87mil|CornerRadius=19.68mil|HoleSize=0mil|Usage=FLASHONLY|Rotation=90.000|XOffset=0mil|YOffset=0mil|HoleType=Round|Shape=RoundedRectangle|*
%AMROUNDEDRECTD35*
21,1,0.17717,0.03150,0,0,90.0*
21,1,0.13780,0.07087,0,0,90.0*
1,1,0.03937,0.01575,0.06890*
1,1,0.03937,0.01575,-0.06890*
1,1,0.03937,-0.01575,-0.06890*
1,1,0.03937,-0.01575,0.06890*
%
%ADD35ROUNDEDRECTD35*%
G04:AMPARAMS|DCode=36|XSize=59.06mil|YSize=55.12mil|CornerRadius=15.75mil|HoleSize=0mil|Usage=FLASHONLY|Rotation=0.000|XOffset=0mil|YOffset=0mil|HoleType=Round|Shape=RoundedRectangle|*
%AMROUNDEDRECTD36*
21,1,0.05906,0.02362,0,0,0.0*
21,1,0.02756,0.05512,0,0,0.0*
1,1,0.03150,0.01378,-0.01181*
1,1,0.03150,-0.01378,-0.01181*
1,1,0.03150,-0.01378,0.01181*
1,1,0.03150,0.01378,0.01181*
%
%ADD36ROUNDEDRECTD36*%
G04:AMPARAMS|DCode=37|XSize=97.87mil|YSize=93.87mil|CornerRadius=25.44mil|HoleSize=0mil|Usage=FLASHONLY|Rotation=270.000|XOffset=0mil|YOffset=0mil|HoleType=Round|Shape=RoundedRectangle|*
%AMROUNDEDRECTD37*
21,1,0.09787,0.04300,0,0,270.0*
21,1,0.04700,0.09387,0,0,270.0*
1,1,0.05087,-0.02150,-0.02350*
1,1,0.05087,-0.02150,0.02350*
1,1,0.05087,0.02150,0.02350*
1,1,0.05087,0.02150,-0.02350*
%
%ADD37ROUNDEDRECTD37*%
%ADD38O,0.08268X0.03150*%
G04:AMPARAMS|DCode=39|XSize=295.28mil|YSize=112.21mil|CornerRadius=30.02mil|HoleSize=0mil|Usage=FLASHONLY|Rotation=90.000|XOffset=0mil|YOffset=0mil|HoleType=Round|Shape=RoundedRectangle|*
%AMROUNDEDRECTD39*
21,1,0.29528,0.05217,0,0,90.0*
21,1,0.23524,0.11221,0,0,90.0*
1,1,0.06004,0.02608,0.11762*
1,1,0.06004,0.02608,-0.11762*
1,1,0.06004,-0.02608,-0.11762*
1,1,0.06004,-0.02608,0.11762*
%
%ADD39ROUNDEDRECTD39*%
G04:AMPARAMS|DCode=40|XSize=97.87mil|YSize=93.87mil|CornerRadius=25.44mil|HoleSize=0mil|Usage=FLASHONLY|Rotation=0.000|XOffset=0mil|YOffset=0mil|HoleType=Round|Shape=RoundedRectangle|*
%AMROUNDEDRECTD40*
21,1,0.09787,0.04300,0,0,0.0*
21,1,0.04700,0.09387,0,0,0.0*
1,1,0.05087,0.02350,-0.02150*
1,1,0.05087,-0.02350,-0.02150*
1,1,0.05087,-0.02350,0.02150*
1,1,0.05087,0.02350,0.02150*
%
%ADD40ROUNDEDRECTD40*%
G04:AMPARAMS|DCode=41|XSize=75.98mil|YSize=73.62mil|CornerRadius=20.37mil|HoleSize=0mil|Usage=FLASHONLY|Rotation=90.000|XOffset=0mil|YOffset=0mil|HoleType=Round|Shape=RoundedRectangle|*
%AMROUNDEDRECTD41*
21,1,0.07598,0.03287,0,0,90.0*
21,1,0.03524,0.07362,0,0,90.0*
1,1,0.04075,0.01644,0.01762*
1,1,0.04075,0.01644,-0.01762*
1,1,0.04075,-0.01644,-0.01762*
1,1,0.04075,-0.01644,0.01762*
%
%ADD41ROUNDEDRECTD41*%
G04:AMPARAMS|DCode=42|XSize=66.93mil|YSize=59.06mil|CornerRadius=16.73mil|HoleSize=0mil|Usage=FLASHONLY|Rotation=0.000|XOffset=0mil|YOffset=0mil|HoleType=Round|Shape=RoundedRectangle|*
%AMROUNDEDRECTD42*
21,1,0.06693,0.02559,0,0,0.0*
21,1,0.03347,0.05906,0,0,0.0*
1,1,0.03346,0.01673,-0.01280*
1,1,0.03346,-0.01673,-0.01280*
1,1,0.03346,-0.01673,0.01280*
1,1,0.03346,0.01673,0.01280*
%
%ADD42ROUNDEDRECTD42*%
%ADD43O,0.06693X0.02756*%
%ADD44O,0.02756X0.06693*%
G04:AMPARAMS|DCode=45|XSize=75.98mil|YSize=73.62mil|CornerRadius=20.37mil|HoleSize=0mil|Usage=FLASHONLY|Rotation=0.000|XOffset=0mil|YOffset=0mil|HoleType=Round|Shape=RoundedRectangle|*
%AMROUNDEDRECTD45*
21,1,0.07598,0.03287,0,0,0.0*
21,1,0.03524,0.07362,0,0,0.0*
1,1,0.04075,0.01762,-0.01644*
1,1,0.04075,-0.01762,-0.01644*
1,1,0.04075,-0.01762,0.01644*
1,1,0.04075,0.01762,0.01644*
%
%ADD45ROUNDEDRECTD45*%
G04:AMPARAMS|DCode=46|XSize=67.87mil|YSize=67.87mil|CornerRadius=18.94mil|HoleSize=0mil|Usage=FLASHONLY|Rotation=0.000|XOffset=0mil|YOffset=0mil|HoleType=Round|Shape=RoundedRectangle|*
%AMROUNDEDRECTD46*
21,1,0.06787,0.03000,0,0,0.0*
21,1,0.03000,0.06787,0,0,0.0*
1,1,0.03787,0.01500,-0.01500*
1,1,0.03787,-0.01500,-0.01500*
1,1,0.03787,-0.01500,0.01500*
1,1,0.03787,0.01500,0.01500*
%
%ADD46ROUNDEDRECTD46*%
G04:AMPARAMS|DCode=47|XSize=94.87mil|YSize=104.87mil|CornerRadius=25.69mil|HoleSize=0mil|Usage=FLASHONLY|Rotation=270.000|XOffset=0mil|YOffset=0mil|HoleType=Round|Shape=RoundedRectangle|*
%AMROUNDEDRECTD47*
21,1,0.09487,0.05350,0,0,270.0*
21,1,0.04350,0.10487,0,0,270.0*
1,1,0.05137,-0.02675,-0.02175*
1,1,0.05137,-0.02675,0.02175*
1,1,0.05137,0.02675,0.02175*
1,1,0.05137,0.02675,-0.02175*
%
%ADD47ROUNDEDRECTD47*%
G04:AMPARAMS|DCode=48|XSize=33.47mil|YSize=51.18mil|CornerRadius=10.34mil|HoleSize=0mil|Usage=FLASHONLY|Rotation=180.000|XOffset=0mil|YOffset=0mil|HoleType=Round|Shape=RoundedRectangle|*
%AMROUNDEDRECTD48*
21,1,0.03347,0.03051,0,0,180.0*
21,1,0.01280,0.05118,0,0,180.0*
1,1,0.02067,-0.00640,0.01526*
1,1,0.02067,0.00640,0.01526*
1,1,0.02067,0.00640,-0.01526*
1,1,0.02067,-0.00640,-0.01526*
%
%ADD48ROUNDEDRECTD48*%
%ADD49O,0.03150X0.09449*%
G04:AMPARAMS|DCode=50|XSize=51.18mil|YSize=82.68mil|CornerRadius=14.76mil|HoleSize=0mil|Usage=FLASHONLY|Rotation=180.000|XOffset=0mil|YOffset=0mil|HoleType=Round|Shape=RoundedRectangle|*
%AMROUNDEDRECTD50*
21,1,0.05118,0.05315,0,0,180.0*
21,1,0.02165,0.08268,0,0,180.0*
1,1,0.02953,-0.01083,0.02657*
1,1,0.02953,0.01083,0.02657*
1,1,0.02953,0.01083,-0.02657*
1,1,0.02953,-0.01083,-0.02657*
%
%ADD50ROUNDEDRECTD50*%
%ADD51C,0.08661*%
%ADD52C,0.20472*%
%ADD53O,0.18504X0.08661*%
%ADD54O,0.08661X0.18504*%
%ADD55O,0.09449X0.16535*%
%ADD56R,0.08661X0.08661*%
%ADD57C,0.24410*%
%ADD58C,0.07874*%
%ADD59C,0.09787*%
%ADD60O,0.08661X0.12598*%
%ADD61C,0.13780*%
%ADD62O,0.12598X0.08661*%
%ADD63C,0.18504*%
D25*
X105940Y232089D02*
D03*
X191200Y162913D02*
D03*
X199681Y175573D02*
D03*
X159900Y163313D02*
D03*
X205840Y331873D02*
D03*
X209740Y324673D02*
D03*
X213340Y317073D02*
D03*
X380421Y38673D02*
D03*
X306959Y168879D02*
D03*
X326172Y315573D02*
D03*
X309334Y252561D02*
D03*
X290340Y187473D02*
D03*
X284340Y173530D02*
D03*
X241735Y171331D02*
D03*
X277140Y258873D02*
D03*
X275640Y312328D02*
D03*
X22140Y292473D02*
D03*
X29540D02*
D03*
X48640Y275173D02*
D03*
X192221Y350673D02*
D03*
X129545Y321073D02*
D03*
X171947Y103273D02*
D03*
X192340D02*
D03*
X212734Y103589D02*
D03*
X249387Y108059D02*
D03*
X301240Y74573D02*
D03*
X233654Y51673D02*
D03*
X139162Y149073D02*
D03*
X103506Y215752D02*
D03*
X52572Y144373D02*
D03*
X333134Y315573D02*
D03*
X291540Y288673D02*
D03*
X333264Y133021D02*
D03*
X275640Y297328D02*
D03*
X76640Y208087D02*
D03*
X330743Y47126D02*
D03*
X294940Y114059D02*
D03*
X125940Y188273D02*
D03*
X349260Y79986D02*
D03*
X157940Y278373D02*
D03*
X53840Y264973D02*
D03*
D26*
X116673Y301765D02*
D03*
X123759D02*
D03*
X347303Y133021D02*
D03*
X340216D02*
D03*
X49551Y332573D02*
D03*
X42465D02*
D03*
X365446Y182661D02*
D03*
X372532D02*
D03*
X372519Y174899D02*
D03*
X365432D02*
D03*
X267497Y332764D02*
D03*
X274584D02*
D03*
X358753Y331373D02*
D03*
X365840D02*
D03*
X355263Y263142D02*
D03*
X362350D02*
D03*
X362336Y255380D02*
D03*
X355250D02*
D03*
X362336Y247618D02*
D03*
X355250D02*
D03*
X279011Y232273D02*
D03*
X271924D02*
D03*
X36102Y300049D02*
D03*
X29016D02*
D03*
X29029Y307811D02*
D03*
X36116D02*
D03*
X22029Y307611D02*
D03*
X14942D02*
D03*
X14956Y300049D02*
D03*
X22042D02*
D03*
X16935Y258892D02*
D03*
X24021D02*
D03*
X168408Y364057D02*
D03*
X161321D02*
D03*
X161316Y342611D02*
D03*
X168402D02*
D03*
X98135Y364257D02*
D03*
X105221D02*
D03*
X125708Y364057D02*
D03*
X118621D02*
D03*
X323844Y93950D02*
D03*
X316757D02*
D03*
X323844Y72326D02*
D03*
X316757D02*
D03*
X323887Y47073D02*
D03*
X316800D02*
D03*
X245755Y51173D02*
D03*
X252842D02*
D03*
X220783Y40640D02*
D03*
X213697D02*
D03*
X96420Y209189D02*
D03*
X103506D02*
D03*
X34577Y174773D02*
D03*
X41664D02*
D03*
X31073Y130849D02*
D03*
X23987D02*
D03*
X31073Y138411D02*
D03*
X23987D02*
D03*
X111943Y139611D02*
D03*
X119029D02*
D03*
X111943Y132049D02*
D03*
X119029D02*
D03*
X40054Y161835D02*
D03*
X47140D02*
D03*
X326172Y330773D02*
D03*
X333134D02*
D03*
X326158Y323011D02*
D03*
X333134D02*
D03*
X319085Y330773D02*
D03*
X340221D02*
D03*
X119528Y227697D02*
D03*
X126615D02*
D03*
X49127Y236273D02*
D03*
X42040D02*
D03*
X74183Y223173D02*
D03*
X67097D02*
D03*
X340221Y323011D02*
D03*
X319072D02*
D03*
X59658Y115418D02*
D03*
X52572D02*
D03*
X67960Y104816D02*
D03*
X60873D02*
D03*
X15773Y87324D02*
D03*
X8687D02*
D03*
X8673Y102649D02*
D03*
X15760D02*
D03*
X147614Y116618D02*
D03*
X140527D02*
D03*
X155916Y106017D02*
D03*
X148829D02*
D03*
X103729Y88524D02*
D03*
X96643D02*
D03*
X96629Y103849D02*
D03*
X103716D02*
D03*
X361379Y133021D02*
D03*
X354292D02*
D03*
X317528Y300775D02*
D03*
X310441D02*
D03*
X317528Y308537D02*
D03*
X310441D02*
D03*
X130183Y158573D02*
D03*
X123097D02*
D03*
X365432Y167136D02*
D03*
X372519D02*
D03*
X125693Y216752D02*
D03*
X132780D02*
D03*
X103506Y201627D02*
D03*
X96420D02*
D03*
X45621Y78328D02*
D03*
X38535D02*
D03*
X8673Y94887D02*
D03*
X15760D02*
D03*
X45472Y137024D02*
D03*
X52558D02*
D03*
X8673Y110211D02*
D03*
X15760D02*
D03*
X40054Y154073D02*
D03*
X47140D02*
D03*
X103506Y180003D02*
D03*
X96420D02*
D03*
X132212Y78305D02*
D03*
X125125D02*
D03*
X96629Y96087D02*
D03*
X103716D02*
D03*
X133428Y138224D02*
D03*
X140514D02*
D03*
X96629Y111411D02*
D03*
X103716D02*
D03*
X123097Y150811D02*
D03*
X130183D02*
D03*
D27*
X380421Y66277D02*
D03*
X375421D02*
D03*
X370421D02*
D03*
X365421D02*
D03*
X380421Y47773D02*
D03*
X375421D02*
D03*
X370421D02*
D03*
X365421D02*
D03*
X351640Y209894D02*
D03*
X346640D02*
D03*
X341640D02*
D03*
X336640D02*
D03*
X351640Y191390D02*
D03*
X346640D02*
D03*
X341640D02*
D03*
X336640D02*
D03*
X354168Y290451D02*
D03*
X349168D02*
D03*
X344168D02*
D03*
X339168D02*
D03*
X354168Y271947D02*
D03*
X349168D02*
D03*
X344168D02*
D03*
X339168D02*
D03*
D28*
X357040Y66277D02*
D03*
Y77277D02*
D03*
X360021Y190723D02*
D03*
Y201723D02*
D03*
X257235Y97059D02*
D03*
Y108059D02*
D03*
D29*
X371784Y95221D02*
D03*
Y88134D02*
D03*
X364022Y88147D02*
D03*
Y95234D02*
D03*
X359721Y216472D02*
D03*
Y209385D02*
D03*
X362249Y291729D02*
D03*
Y284642D02*
D03*
Y277666D02*
D03*
Y270580D02*
D03*
X301647Y237369D02*
D03*
Y244455D02*
D03*
X256797Y164245D02*
D03*
Y171331D02*
D03*
X249035Y164245D02*
D03*
Y171331D02*
D03*
X273059Y126831D02*
D03*
Y119745D02*
D03*
X265297Y119758D02*
D03*
Y126845D02*
D03*
X222740Y159813D02*
D03*
Y152726D02*
D03*
X202340Y159813D02*
D03*
Y152726D02*
D03*
X181955Y159813D02*
D03*
Y152726D02*
D03*
X161702Y356873D02*
D03*
Y349787D02*
D03*
X129845Y343141D02*
D03*
Y336055D02*
D03*
X181955Y103373D02*
D03*
Y96287D02*
D03*
X202340Y103373D02*
D03*
Y96287D02*
D03*
X222642Y103373D02*
D03*
Y96287D02*
D03*
X323457Y79688D02*
D03*
Y86775D02*
D03*
X204740Y47527D02*
D03*
Y40440D02*
D03*
X195478Y47527D02*
D03*
Y40440D02*
D03*
X186059D02*
D03*
Y47527D02*
D03*
X115934Y151873D02*
D03*
Y158960D02*
D03*
X32891Y155135D02*
D03*
Y162222D02*
D03*
X214140Y282341D02*
D03*
Y289428D02*
D03*
X326158Y301087D02*
D03*
Y308173D02*
D03*
X151350Y256045D02*
D03*
Y263132D02*
D03*
X161312Y256045D02*
D03*
Y263132D02*
D03*
X171540D02*
D03*
Y256045D02*
D03*
X67152Y208087D02*
D03*
Y215173D02*
D03*
X67522Y87292D02*
D03*
Y80206D02*
D03*
X59760Y80192D02*
D03*
Y87279D02*
D03*
X52572Y122761D02*
D03*
Y129848D02*
D03*
X42540Y122118D02*
D03*
Y115032D02*
D03*
X155478Y88492D02*
D03*
Y81406D02*
D03*
X147716Y81392D02*
D03*
Y88479D02*
D03*
X140527Y123961D02*
D03*
Y131048D02*
D03*
X130496Y123318D02*
D03*
Y116232D02*
D03*
X96806Y194252D02*
D03*
Y187165D02*
D03*
X168633Y295987D02*
D03*
Y303073D02*
D03*
X16611Y138598D02*
D03*
Y131511D02*
D03*
X104567Y139798D02*
D03*
Y132711D02*
D03*
X136309Y237628D02*
D03*
Y230541D02*
D03*
X185425Y195098D02*
D03*
Y202185D02*
D03*
X132593Y202489D02*
D03*
Y209576D02*
D03*
X128747Y251922D02*
D03*
Y244835D02*
D03*
X302459Y320510D02*
D03*
Y327596D02*
D03*
X160871Y303073D02*
D03*
Y295987D02*
D03*
X125031Y202489D02*
D03*
Y209576D02*
D03*
X34778Y123454D02*
D03*
Y116368D02*
D03*
X119728Y251922D02*
D03*
Y244835D02*
D03*
X122734Y124654D02*
D03*
Y117568D02*
D03*
D30*
X353060Y85834D02*
D03*
X349260Y95334D02*
D03*
X356860D02*
D03*
X353060Y102096D02*
D03*
X349260Y111596D02*
D03*
X356860D02*
D03*
X254335Y133707D02*
D03*
X250535Y143207D02*
D03*
X258135D02*
D03*
X254335Y117445D02*
D03*
X250535Y126945D02*
D03*
X258135D02*
D03*
X25140Y320473D02*
D03*
X21340Y329973D02*
D03*
X28940D02*
D03*
X114068Y200189D02*
D03*
X110268Y209689D02*
D03*
X117868D02*
D03*
X66840Y231290D02*
D03*
X74440D02*
D03*
X70640Y240790D02*
D03*
D31*
X356760Y122058D02*
D03*
X347260Y118258D02*
D03*
Y125858D02*
D03*
X258035Y153669D02*
D03*
X248535Y149869D02*
D03*
Y157469D02*
D03*
D32*
X369421Y29204D02*
D03*
X380421D02*
D03*
X94940Y256077D02*
D03*
X105940D02*
D03*
X244654Y42173D02*
D03*
X233654D02*
D03*
D33*
X331010Y177842D02*
D03*
X341640D02*
D03*
X324478Y168879D02*
D03*
X313848D02*
D03*
X324478Y177842D02*
D03*
X313848D02*
D03*
X333453Y261523D02*
D03*
X344083D02*
D03*
X326921D02*
D03*
X316291D02*
D03*
X326921Y252561D02*
D03*
X316291D02*
D03*
X277898Y324402D02*
D03*
X267268D02*
D03*
X27336Y250530D02*
D03*
X16706D02*
D03*
X106198Y355894D02*
D03*
X95568D02*
D03*
X222555Y48973D02*
D03*
X211925D02*
D03*
X171086Y311035D02*
D03*
X160456D02*
D03*
D34*
X294096Y330924D02*
D03*
Y320294D02*
D03*
X273659Y133592D02*
D03*
Y144222D02*
D03*
X152709Y295758D02*
D03*
Y306388D02*
D03*
X295040Y96458D02*
D03*
Y107088D02*
D03*
X269766Y50558D02*
D03*
Y61188D02*
D03*
X260804Y50558D02*
D03*
Y61188D02*
D03*
X143746Y295758D02*
D03*
Y306388D02*
D03*
X371184Y112611D02*
D03*
Y101981D02*
D03*
D35*
X330184Y281415D02*
D03*
X319553Y281432D02*
D03*
D36*
X309310Y244399D02*
D03*
Y237312D02*
D03*
D37*
X247883Y224723D02*
D03*
Y203223D02*
D03*
D38*
X279011Y208873D02*
D03*
Y213873D02*
D03*
Y218873D02*
D03*
Y223873D02*
D03*
X260507Y208873D02*
D03*
Y213873D02*
D03*
Y218873D02*
D03*
Y223873D02*
D03*
X16888Y277273D02*
D03*
Y272273D02*
D03*
Y267273D02*
D03*
X35392Y282273D02*
D03*
Y277273D02*
D03*
Y272273D02*
D03*
Y267273D02*
D03*
X16888Y282273D02*
D03*
X238064Y88678D02*
D03*
Y83678D02*
D03*
Y78678D02*
D03*
Y73678D02*
D03*
X256568Y88678D02*
D03*
Y83678D02*
D03*
Y78678D02*
D03*
Y73678D02*
D03*
X322895Y102126D02*
D03*
Y107126D02*
D03*
Y112126D02*
D03*
Y117126D02*
D03*
X304391Y102126D02*
D03*
Y107126D02*
D03*
Y112126D02*
D03*
Y117126D02*
D03*
X283922Y312328D02*
D03*
Y307328D02*
D03*
Y302328D02*
D03*
Y297328D02*
D03*
X302425Y312328D02*
D03*
Y307328D02*
D03*
Y302328D02*
D03*
Y297328D02*
D03*
D39*
X307309Y202073D02*
D03*
X325609Y201973D02*
D03*
D40*
X261290Y196897D02*
D03*
X282790D02*
D03*
D41*
X283840Y113496D02*
D03*
Y97697D02*
D03*
X257321Y331864D02*
D03*
Y316064D02*
D03*
X243740Y331864D02*
D03*
Y316064D02*
D03*
X230159Y331864D02*
D03*
Y316064D02*
D03*
X61663Y309573D02*
D03*
Y293773D02*
D03*
D42*
X212734Y110269D02*
D03*
X222734D02*
D03*
Y145584D02*
D03*
X212734D02*
D03*
X192340D02*
D03*
X202340D02*
D03*
Y110269D02*
D03*
X192340D02*
D03*
X171947D02*
D03*
X181947D02*
D03*
Y145584D02*
D03*
X171947D02*
D03*
D43*
X144336Y226200D02*
D03*
Y223051D02*
D03*
Y219901D02*
D03*
Y216752D02*
D03*
Y213602D02*
D03*
Y210452D02*
D03*
Y207303D02*
D03*
Y204153D02*
D03*
X177407D02*
D03*
Y207303D02*
D03*
Y210452D02*
D03*
Y213602D02*
D03*
Y216752D02*
D03*
Y219901D02*
D03*
Y223051D02*
D03*
Y226200D02*
D03*
D44*
X149848Y198641D02*
D03*
X152998D02*
D03*
X156147D02*
D03*
X159297D02*
D03*
X162446D02*
D03*
X165596D02*
D03*
X168746D02*
D03*
X171895D02*
D03*
Y231712D02*
D03*
X168746D02*
D03*
X165596D02*
D03*
X162446D02*
D03*
X159297D02*
D03*
X156147D02*
D03*
X152998D02*
D03*
X149848D02*
D03*
D45*
X192221Y360738D02*
D03*
X176421D02*
D03*
X129845Y353476D02*
D03*
X114045D02*
D03*
D46*
X118545Y328393D02*
D03*
X129545D02*
D03*
X294940Y88934D02*
D03*
X283940D02*
D03*
X202140Y215373D02*
D03*
X191140D02*
D03*
X94940Y246714D02*
D03*
X105940D02*
D03*
X151221Y245290D02*
D03*
X140221D02*
D03*
X72560Y96754D02*
D03*
X61560D02*
D03*
X160516Y97954D02*
D03*
X149516D02*
D03*
D47*
X306270Y59726D02*
D03*
X323869D02*
D03*
X353490Y318711D02*
D03*
X371090D02*
D03*
D48*
X206500Y265062D02*
D03*
X210240D02*
D03*
X213980D02*
D03*
Y255613D02*
D03*
X210240D02*
D03*
X206500D02*
D03*
D49*
X52572Y106222D02*
D03*
X47572D02*
D03*
X42572D02*
D03*
X37572D02*
D03*
X32572D02*
D03*
X27572D02*
D03*
X22572D02*
D03*
X52572Y87324D02*
D03*
X47572D02*
D03*
X42572D02*
D03*
X37572D02*
D03*
X32572D02*
D03*
X27572D02*
D03*
X22572D02*
D03*
X140527Y107422D02*
D03*
X135528D02*
D03*
X130527D02*
D03*
X125528D02*
D03*
X120528D02*
D03*
X115527D02*
D03*
X110528D02*
D03*
X140527Y88524D02*
D03*
X135528D02*
D03*
X130527D02*
D03*
X125528D02*
D03*
X120528D02*
D03*
X115527D02*
D03*
X110528D02*
D03*
D50*
X119378Y236459D02*
D03*
X129278D02*
D03*
D51*
X30220Y342288D02*
D03*
X25221Y352288D02*
D03*
X55221D02*
D03*
X50221Y342288D02*
D03*
X20221D02*
D03*
X40220D02*
D03*
X45221Y352288D02*
D03*
X35221D02*
D03*
X248764D02*
D03*
X258764D02*
D03*
X253764Y342288D02*
D03*
X233764D02*
D03*
X263764D02*
D03*
X268764Y352288D02*
D03*
X238764D02*
D03*
X243764Y342288D02*
D03*
X343134D02*
D03*
X338134Y352288D02*
D03*
X368134D02*
D03*
X363134Y342288D02*
D03*
X333134D02*
D03*
X353134D02*
D03*
X358134Y352288D02*
D03*
X348134D02*
D03*
X200933Y29558D02*
D03*
X206386Y18377D02*
D03*
X211839Y29558D02*
D03*
X217291Y18377D02*
D03*
X222744Y29558D02*
D03*
X228197Y18377D02*
D03*
X233650Y29558D02*
D03*
X239103Y18377D02*
D03*
D52*
X60220Y377288D02*
D03*
X15221D02*
D03*
X228764D02*
D03*
X273764D02*
D03*
X373134D02*
D03*
X328134D02*
D03*
D53*
X323887Y14094D02*
D03*
Y36928D02*
D03*
D54*
X342784Y25117D02*
D03*
D55*
X381957Y14881D02*
D03*
X368180D02*
D03*
X163154Y376993D02*
D03*
X176931D02*
D03*
X190711D02*
D03*
X125750D02*
D03*
X111970D02*
D03*
X98193D02*
D03*
D56*
X244555Y29558D02*
D03*
D57*
X271937Y23967D02*
D03*
X173551D02*
D03*
D58*
X123657Y292667D02*
D03*
Y267077D02*
D03*
X105940D02*
D03*
Y292667D02*
D03*
D59*
X34477Y219399D02*
D03*
Y189399D02*
D03*
D60*
X119162Y58892D02*
D03*
X129162D02*
D03*
X42548D02*
D03*
X32548D02*
D03*
D61*
X139162Y38892D02*
D03*
X99162D02*
D03*
X12548D02*
D03*
X52548D02*
D03*
D62*
X226760Y291080D02*
D03*
Y281080D02*
D03*
Y271080D02*
D03*
Y261080D02*
D03*
Y251080D02*
D03*
X76041Y306673D02*
D03*
Y296673D02*
D03*
D63*
X295276Y364173D02*
D03*
X78740Y29528D02*
D03*
Y364173D02*
D03*
X295276Y29528D02*
D03*
M02*
