G04*
G04 #@! TF.GenerationSoftware,Altium Limited,Altium Designer,19.0.10 (269)*
G04*
G04 Layer_Physical_Order=3*
G04 Layer_Color=128*
%FSLAX25Y25*%
%MOIN*%
G70*
G01*
G75*
%ADD11C,0.02362*%
%ADD13C,0.01181*%
%ADD30C,0.05512*%
%ADD92C,0.03937*%
%ADD131C,0.07087*%
%ADD145C,0.04000*%
%ADD153C,0.06299*%
%ADD154C,0.15354*%
%ADD155C,0.10236*%
%ADD156O,0.14961X0.05512*%
%ADD157O,0.05512X0.14173*%
%ADD158C,0.03543*%
%ADD159R,0.10600X0.15400*%
%ADD160R,0.06097X0.08500*%
%ADD161R,0.06900X0.07200*%
%ADD162R,0.13300X0.09100*%
D11*
X128696Y127854D02*
X134876D01*
D13*
X183500Y307471D02*
X184784Y308754D01*
X172343Y307471D02*
X183500D01*
X169840Y309973D02*
X172343Y307471D01*
X211707Y301892D02*
X215948D01*
X204844Y308754D02*
X211707Y301892D01*
X142361Y226200D02*
X154610D01*
X140188Y228373D02*
X142361Y226200D01*
X103440Y228373D02*
X120036D01*
X138000Y290300D02*
X141973Y294273D01*
X138000Y286424D02*
Y290300D01*
X115553Y267077D02*
X122352Y273876D01*
X125451D01*
X213640Y228546D02*
Y235148D01*
X211933Y214833D02*
Y222633D01*
X213640Y224340D01*
Y270898D02*
Y288773D01*
Y224340D02*
Y228546D01*
X30300Y223576D02*
X44840Y209036D01*
X30300Y223576D02*
Y226100D01*
X12840Y243560D02*
X23364Y233036D01*
X41526Y273031D02*
X43200Y271357D01*
X41526Y273031D02*
Y280884D01*
X43200Y239313D02*
Y250514D01*
X207381Y355073D02*
X208654Y353800D01*
X222252D01*
X168178Y355073D02*
X181378D01*
X149694D02*
X168178D01*
X148096Y353476D02*
X149694Y355073D01*
X94240D02*
X112725D01*
X114322Y353476D01*
X160400Y348000D02*
X169015D01*
X156300Y343900D02*
X160400Y348000D01*
X92340Y345873D02*
X100525D01*
X102498Y343900D01*
X209503Y322700D02*
X216552D01*
X232604Y306648D02*
X241179Y298073D01*
X199830Y332373D02*
X209503Y322700D01*
X27340Y167173D02*
X29867Y169700D01*
X34267D01*
X54860D02*
X55360Y169200D01*
X111727Y167173D02*
X118111D01*
X109700Y169200D02*
X111727Y167173D01*
X34267Y169700D02*
X54860D01*
X144893Y165962D02*
X150938D01*
X144231Y165300D02*
X144893Y165962D01*
X119985Y165300D02*
X128499D01*
X144231D01*
X150938Y165962D02*
X154758Y162142D01*
X205942D01*
X207900Y164100D01*
X216542D01*
X219442Y161200D01*
X224867D01*
X304932Y173337D02*
X307800Y176205D01*
X316291Y247355D02*
X317700Y248763D01*
Y277930D02*
Y292513D01*
X316291Y232771D02*
Y247355D01*
X366800Y68908D02*
Y81800D01*
X364300Y66408D02*
X366800Y68908D01*
Y30233D02*
Y43125D01*
X364300Y45625D02*
X366800Y43125D01*
X212840Y149995D02*
Y152357D01*
Y149995D02*
X230540Y132295D01*
X228694Y166700D02*
X282191D01*
X183756Y152357D02*
X212840D01*
X110456D02*
X183756D01*
X137784Y149373D02*
X168540Y118617D01*
Y91673D02*
Y118617D01*
X144472Y67605D02*
X168540Y91673D01*
X124708Y67605D02*
X144472D01*
X122340Y69973D02*
X124708Y67605D01*
X122340Y69973D02*
Y114537D01*
X128640Y120836D01*
Y132861D01*
Y141782D01*
X124584Y145838D02*
X128640Y141782D01*
X124584Y145838D02*
Y148501D01*
X125456Y149373D01*
X137784D01*
X43446Y151841D02*
X48240D01*
X41416Y149812D02*
X43446Y151841D01*
X41416Y145761D02*
Y149812D01*
Y145761D02*
X45472Y141705D01*
Y133329D02*
Y141705D01*
X44040Y131898D02*
X45472Y133329D01*
X44040Y119873D02*
Y131898D01*
X35540Y111373D02*
X44040Y119873D01*
X35540Y70873D02*
Y111373D01*
Y70873D02*
X38340Y68073D01*
X52984D01*
X80540Y95629D01*
Y120873D01*
X49572Y151841D02*
X80540Y120873D01*
X48240Y151841D02*
X49572D01*
X230540Y83773D02*
Y132295D01*
X218340Y71573D02*
X230540Y83773D01*
X266867Y154400D02*
X292767D01*
X238540Y126073D02*
X266867Y154400D01*
X238540Y81173D02*
Y126073D01*
X226540Y69173D02*
X238540Y81173D01*
X226540Y54373D02*
Y69173D01*
X224640Y52473D02*
X226540Y54373D01*
X220140Y52473D02*
X224640D01*
X218340Y54273D02*
X220140Y52473D01*
X218340Y54273D02*
Y71573D01*
X273267Y324500D02*
X282505D01*
X273267Y318867D02*
Y324500D01*
X268900Y314500D02*
X273267Y318867D01*
X256500Y314500D02*
X268900D01*
X248427Y322573D02*
X256500Y314500D01*
X238127Y322573D02*
X248427D01*
X216527Y344173D02*
X238127Y322573D01*
X172842Y344173D02*
X216527D01*
X169015Y348000D02*
X172842Y344173D01*
X102498Y343900D02*
X156300D01*
X90940Y347273D02*
X92340Y345873D01*
X90940Y347273D02*
Y351773D01*
X94240Y355073D01*
X114322Y353476D02*
X148096D01*
X181378Y355073D02*
X207381D01*
X222252Y353800D02*
X242388Y333664D01*
X263918D01*
X272727Y342473D01*
X286974D01*
X294171Y335276D01*
X299424D01*
X302300Y332400D01*
Y307913D02*
Y332400D01*
Y307913D02*
X317700Y292513D01*
Y248763D02*
Y277930D01*
X307800Y224280D02*
X316291Y232771D01*
X307800Y176205D02*
Y224280D01*
X304932Y166565D02*
Y173337D01*
X277140Y231073D02*
Y244473D01*
Y231073D02*
X288940Y219273D01*
Y173449D02*
Y219273D01*
X282191Y166700D02*
X288940Y173449D01*
X292767Y154400D02*
X304932Y166565D01*
X105540Y157273D02*
X110456Y152357D01*
X26740Y157273D02*
X105540D01*
X25140Y158873D02*
X26740Y157273D01*
X25140Y158873D02*
Y164973D01*
X27340Y167173D01*
X263749Y235882D02*
X272322Y244455D01*
X154610Y226200D02*
X180737Y200073D01*
X120036Y228373D02*
X140188D01*
X86340Y245473D02*
X103440Y228373D01*
X86340Y245473D02*
Y258273D01*
X95144Y267077D01*
X115553D01*
X125451Y273876D02*
X138000Y286424D01*
X141973Y294273D02*
X208140D01*
X213640Y288773D01*
Y235148D02*
Y270898D01*
X197173Y200073D02*
X211933Y214833D01*
X193840Y200073D02*
X197173D01*
X180737D02*
X193840D01*
X233940Y187827D02*
X263749Y217636D01*
X305740Y258173D02*
Y291596D01*
X303608Y293728D02*
X305740Y291596D01*
X301308Y293728D02*
X303608D01*
X291940Y303096D02*
X301308Y293728D01*
X291940Y303096D02*
Y320212D01*
X287652Y324500D02*
X291940Y320212D01*
X282505Y324500D02*
X287652D01*
X282505Y312649D02*
Y324500D01*
X267930Y298073D02*
X282505Y312649D01*
X241179Y298073D02*
X267930D01*
X216552Y322700D02*
X232604Y306648D01*
X173527Y332373D02*
X199830D01*
X166800Y339100D02*
X173527Y332373D01*
X160120Y339100D02*
X166800D01*
X156940Y335920D02*
X160120Y339100D01*
X156940Y332373D02*
Y335920D01*
Y332373D02*
X169840Y319473D01*
Y309973D02*
Y319473D01*
X184784Y308754D02*
X204844D01*
X215948Y301892D02*
X226760Y291080D01*
Y221393D02*
Y291080D01*
X199740Y194373D02*
X226760Y221393D01*
X127359Y194373D02*
X199740D01*
X125940Y192954D02*
X127359Y194373D01*
X117621Y192954D02*
X125940D01*
X115465Y190798D02*
X117621Y192954D01*
X91716Y190798D02*
X115465D01*
X43200Y239313D02*
X91716Y190798D01*
X43200Y250514D02*
Y271357D01*
X41526Y280884D02*
X43040Y282398D01*
Y301573D01*
X40878Y303735D02*
X43040Y301573D01*
X40878Y303735D02*
Y307798D01*
Y311011D01*
X59140Y329273D01*
Y333173D01*
X56240Y336073D02*
X59140Y333173D01*
X52178Y336073D02*
X56240D01*
X43640Y327535D02*
X52178Y336073D01*
X38975Y327535D02*
X43640D01*
X23567Y312127D02*
X38975Y327535D01*
X14956Y312127D02*
X23567D01*
X7340Y304511D02*
X14956Y312127D01*
X7340Y295973D02*
Y304511D01*
Y295973D02*
X12840Y290473D01*
Y243560D02*
Y290473D01*
X23364Y233036D02*
X30300Y226100D01*
X44840Y189740D02*
Y209036D01*
X35700Y180600D02*
X44840Y189740D01*
X30567Y180600D02*
X35700D01*
X28040Y178073D02*
X30567Y180600D01*
X28040Y170873D02*
Y178073D01*
Y170873D02*
X29540Y169373D01*
X55360Y169200D02*
X109700D01*
X118111Y167173D02*
X119985Y165300D01*
X224867Y161200D02*
X228694Y165027D01*
Y169027D01*
X233940Y174273D01*
Y187827D01*
X263749Y217636D02*
Y235882D01*
X272322Y244455D02*
X301522D01*
X305740Y248673D01*
Y258173D01*
X347840Y328035D02*
X352540Y332735D01*
X347840Y328011D02*
Y328035D01*
X352540Y332735D02*
X353134Y333329D01*
Y342288D01*
X352540Y332735D02*
X353134Y333329D01*
X342302Y322473D02*
X347840Y328011D01*
X353134Y342288D02*
Y353467D01*
X356740Y357073D01*
X368634D01*
X387540Y338167D01*
X337940Y322473D02*
X342302D01*
X335240Y319773D02*
X337940Y322473D01*
X335240Y292973D02*
Y319773D01*
Y292973D02*
X337700Y290513D01*
Y239766D02*
Y290513D01*
Y239766D02*
X344040Y233425D01*
X356602Y172111D02*
Y179173D01*
X344040Y205779D02*
Y233425D01*
Y205779D02*
X356602Y193217D01*
Y179173D02*
Y193217D01*
X349102Y172111D02*
X356602D01*
X347238Y173975D02*
X349102Y172111D01*
X342342Y173975D02*
X347238D01*
X341140Y172773D02*
X342342Y173975D01*
X341140Y155873D02*
Y172773D01*
X321740Y136473D02*
X341140Y155873D01*
X275640Y136473D02*
X321740D01*
X272800Y133633D02*
X275640Y136473D01*
X272800Y56813D02*
Y133633D01*
Y56813D02*
X277140Y52473D01*
X328340D01*
X354340Y26473D01*
X363040D01*
X366800Y30233D01*
X364300Y45625D02*
Y66408D01*
X366800Y81800D02*
X387540Y102540D01*
X387540Y338167D02*
X387540Y102540D01*
D30*
X34477Y219399D02*
D03*
Y189399D02*
D03*
D92*
X134340Y292473D02*
X136513Y290300D01*
X138000D01*
X190151Y195073D02*
X192513D01*
X144470Y194373D02*
X146700Y192143D01*
Y191300D02*
Y192143D01*
X144470Y193530D02*
X146700Y191300D01*
X144470Y193530D02*
Y194373D01*
X251693Y216118D02*
X251795Y216016D01*
Y212100D02*
Y216016D01*
Y212100D02*
X253595Y213900D01*
X254447D01*
X252229Y216118D02*
X254447Y213900D01*
X251693Y216118D02*
X252229D01*
X208440Y249584D02*
X210240Y251384D01*
X139640Y250584D02*
Y252946D01*
X134740Y242273D02*
Y251658D01*
X134040Y252358D02*
X134740Y251658D01*
X197948Y283784D02*
X199983Y285819D01*
X197948Y278653D02*
Y283784D01*
X206367Y278900D02*
Y282341D01*
X208730D01*
X209300Y282911D01*
Y285754D01*
X31571Y248796D02*
Y252498D01*
X40803Y282273D02*
X43165D01*
X104972Y350421D02*
X107340D01*
X229047Y310205D02*
X231409Y307843D01*
X227642Y308800D02*
X229047Y310205D01*
X225600Y308800D02*
X227642D01*
X225600D02*
X226557Y307843D01*
X231409D01*
X352540Y332711D02*
Y332735D01*
X347840Y328011D02*
X352540Y332711D01*
X347840Y328011D02*
X352540D01*
Y332735D01*
X344168Y295861D02*
Y298223D01*
X363897Y241373D02*
X365600Y243076D01*
X362334Y241373D02*
X363897D01*
X348261Y263087D02*
X350240Y265066D01*
X348261Y257124D02*
Y263087D01*
X347600Y256463D02*
X348261Y257124D01*
X347600Y249835D02*
Y256463D01*
Y249835D02*
X349963D01*
X350240Y250113D01*
Y265066D01*
X301308Y293728D02*
X303608D01*
X308062Y72432D02*
X309984D01*
X305921Y74573D02*
X308062Y72432D01*
X309984D02*
X312347D01*
X316651Y87177D02*
Y89540D01*
X340987Y118258D02*
X343349D01*
X353060Y95823D02*
Y98185D01*
X376595Y112611D02*
X378957D01*
X372519Y157981D02*
X373500Y157000D01*
X372519Y157981D02*
Y160750D01*
X358788Y174296D02*
Y179100D01*
X356602Y172111D02*
X359994D01*
X356676Y179100D02*
X360900D01*
X361005Y171100D02*
Y178995D01*
X365432Y190723D02*
X367794D01*
X356602Y172111D02*
Y179173D01*
X351878Y172111D02*
X356602D01*
X242262Y149869D02*
X244624D01*
X253533Y149697D02*
Y152034D01*
X252467Y153100D02*
X253533Y152034D01*
X203945Y149838D02*
Y152201D01*
X212840Y149995D02*
Y152357D01*
X103303Y144548D02*
X106259D01*
D131*
X163154Y376993D02*
D03*
X190711D02*
D03*
X125750D02*
D03*
X98193D02*
D03*
X368180Y14881D02*
D03*
X381957D02*
D03*
D145*
X0Y0D02*
X393701Y0D01*
X393701Y393701D02*
X393701Y0D01*
X-0Y393701D02*
X393701D01*
X-0D02*
X0Y0D01*
D153*
X123657Y292667D02*
D03*
Y267077D02*
D03*
X105940D02*
D03*
Y292667D02*
D03*
X200933Y29558D02*
D03*
X206386Y18377D02*
D03*
X217291D02*
D03*
X222744Y29558D02*
D03*
X228197Y18377D02*
D03*
X233650Y29558D02*
D03*
X239103Y18377D02*
D03*
X244555Y29558D02*
D03*
X20221Y342288D02*
D03*
X30220D02*
D03*
X55221Y352288D02*
D03*
X50221Y342288D02*
D03*
X253764D02*
D03*
X233764D02*
D03*
X263764D02*
D03*
X268764Y352288D02*
D03*
X243764Y342288D02*
D03*
X338134Y352288D02*
D03*
X333134Y342288D02*
D03*
X353134D02*
D03*
X226760Y291080D02*
D03*
Y281080D02*
D03*
Y271080D02*
D03*
Y261080D02*
D03*
Y251080D02*
D03*
X76041Y296673D02*
D03*
X32548Y58892D02*
D03*
X119162D02*
D03*
D154*
X60220Y377288D02*
D03*
X15221D02*
D03*
X228764D02*
D03*
X273764D02*
D03*
X373134D02*
D03*
X328134D02*
D03*
D155*
X52548Y38892D02*
D03*
X12548D02*
D03*
X99162D02*
D03*
X139162D02*
D03*
D156*
X323887Y36928D02*
D03*
D157*
X342784Y25117D02*
D03*
D158*
X109998Y262057D02*
D03*
X100340Y251200D02*
D03*
X25240Y277000D02*
D03*
X16969Y292500D02*
D03*
X21121Y284900D02*
D03*
X28900Y284000D02*
D03*
X24840Y313727D02*
D03*
X138500Y278118D02*
D03*
X26384Y242227D02*
D03*
X33300Y250427D02*
D03*
X31000Y250527D02*
D03*
X26384Y244627D02*
D03*
X129200Y67605D02*
D03*
X45400Y131700D02*
D03*
X211400Y353800D02*
D03*
X350602Y218500D02*
D03*
X355200Y213100D02*
D03*
X355000Y205509D02*
D03*
X355263Y194556D02*
D03*
X356953Y285400D02*
D03*
X357040Y276846D02*
D03*
X341469Y285000D02*
D03*
X313848Y279600D02*
D03*
X313900Y284600D02*
D03*
X314400Y290100D02*
D03*
X101500Y190500D02*
D03*
X151900Y251100D02*
D03*
X276200Y68600D02*
D03*
X238000Y92700D02*
D03*
X291200Y52524D02*
D03*
X362700Y149500D02*
D03*
X376800Y97600D02*
D03*
X352836Y61800D02*
D03*
X352900Y39800D02*
D03*
X364300Y54100D02*
D03*
X352836Y71500D02*
D03*
X370921Y117500D02*
D03*
X365300Y112600D02*
D03*
X360500Y118800D02*
D03*
X353060Y108400D02*
D03*
X352300Y118200D02*
D03*
X361400Y127900D02*
D03*
X364900Y100400D02*
D03*
X373500Y157000D02*
D03*
X377100Y171331D02*
D03*
X372532Y187909D02*
D03*
X377200Y182452D02*
D03*
X350600Y165962D02*
D03*
X360500Y165306D02*
D03*
X360900Y179100D02*
D03*
X361005Y171100D02*
D03*
X345600Y103373D02*
D03*
X329309Y108000D02*
D03*
X317000Y119578D02*
D03*
X316700Y99300D02*
D03*
X252467Y153100D02*
D03*
X253533Y149697D02*
D03*
X276940Y166700D02*
D03*
X329200Y136298D02*
D03*
X348792Y263142D02*
D03*
X350500Y261600D02*
D03*
X350240Y265066D02*
D03*
X348663Y260300D02*
D03*
X350553Y258100D02*
D03*
X348261Y257124D02*
D03*
X368900Y289700D02*
D03*
X370400Y253805D02*
D03*
X369900Y224273D02*
D03*
X365116Y206141D02*
D03*
X351800Y127600D02*
D03*
X342500Y127800D02*
D03*
X329500Y129569D02*
D03*
X303300Y131300D02*
D03*
X298400Y121600D02*
D03*
X284300Y130500D02*
D03*
X278600Y92100D02*
D03*
X277700Y116092D02*
D03*
X283600Y103761D02*
D03*
X289600Y96392D02*
D03*
X289500Y88800D02*
D03*
X300300Y88934D02*
D03*
X294900Y83400D02*
D03*
X313500Y59873D02*
D03*
X298936Y59726D02*
D03*
X306400Y66478D02*
D03*
X316600Y77500D02*
D03*
Y67300D02*
D03*
X316600Y52524D02*
D03*
X332492Y60100D02*
D03*
X328400Y82883D02*
D03*
X345500Y83100D02*
D03*
X366800Y36900D02*
D03*
X168373Y93400D02*
D03*
X145576Y135900D02*
D03*
X160948Y103800D02*
D03*
X253500Y159514D02*
D03*
X262300Y150200D02*
D03*
X185748Y187400D02*
D03*
X218400D02*
D03*
X227900Y149300D02*
D03*
X216477Y164165D02*
D03*
X203400Y180100D02*
D03*
X176700Y354600D02*
D03*
X168500Y337400D02*
D03*
X168400Y348000D02*
D03*
X34200Y286527D02*
D03*
X40626Y273127D02*
D03*
X66300Y188700D02*
D03*
X91200Y185900D02*
D03*
X72181Y204400D02*
D03*
X62300Y211784D02*
D03*
X115600Y171154D02*
D03*
X93100Y168800D02*
D03*
X72371Y169200D02*
D03*
X30439Y180600D02*
D03*
X65200Y110400D02*
D03*
X57400Y137400D02*
D03*
X150200Y159700D02*
D03*
X142257Y144900D02*
D03*
X152300Y111000D02*
D03*
X145790Y122000D02*
D03*
X135588Y158100D02*
D03*
X144893Y165962D02*
D03*
X136400Y181571D02*
D03*
X201720Y167900D02*
D03*
X196800Y162142D02*
D03*
X176700Y156700D02*
D03*
X160516Y168600D02*
D03*
X169500Y171800D02*
D03*
X171086Y179800D02*
D03*
X224800Y335900D02*
D03*
X377800Y347907D02*
D03*
Y324300D02*
D03*
X353405Y296600D02*
D03*
X369470Y307900D02*
D03*
X358696Y326021D02*
D03*
X346400Y318700D02*
D03*
X360856D02*
D03*
X353400Y311835D02*
D03*
X365600Y243076D02*
D03*
X316201Y242500D02*
D03*
X357352Y238100D02*
D03*
X339366D02*
D03*
X314300Y295547D02*
D03*
X313300Y275000D02*
D03*
X310500Y257627D02*
D03*
X255000Y227536D02*
D03*
X284179Y233800D02*
D03*
X251795Y212100D02*
D03*
X251693Y216118D02*
D03*
X254447Y213900D02*
D03*
X233600Y193778D02*
D03*
X206800Y193700D02*
D03*
X196316Y204153D02*
D03*
X219000Y205100D02*
D03*
X232900Y219273D02*
D03*
X250500Y236500D02*
D03*
X255500Y258479D02*
D03*
X267500Y273884D02*
D03*
X278800Y285551D02*
D03*
X295600Y292100D02*
D03*
X290615Y307840D02*
D03*
X297848Y315900D02*
D03*
X302300Y332400D02*
D03*
X294067Y326212D02*
D03*
X294000Y335447D02*
D03*
X288460Y330900D02*
D03*
X274627Y337900D02*
D03*
X279100Y332800D02*
D03*
X273167Y324400D02*
D03*
X282505Y324500D02*
D03*
X257321Y321996D02*
D03*
X180500Y255200D02*
D03*
X150200Y290925D02*
D03*
X119700Y256700D02*
D03*
X114500Y251922D02*
D03*
X112656Y244835D02*
D03*
X114600Y228373D02*
D03*
X100901Y241700D02*
D03*
X99800Y262312D02*
D03*
X130183Y266962D02*
D03*
X27800Y268452D02*
D03*
X42321Y264721D02*
D03*
X38900Y226500D02*
D03*
X30300Y226100D02*
D03*
X41556Y180100D02*
D03*
X46340Y174800D02*
D03*
X41600Y169600D02*
D03*
X58300Y121215D02*
D03*
X47724Y115577D02*
D03*
X185152Y289900D02*
D03*
X176300D02*
D03*
X297458Y248700D02*
D03*
X100600Y345798D02*
D03*
X113940Y347520D02*
D03*
X119977Y353476D02*
D03*
X158500Y330592D02*
D03*
X156300Y343900D02*
D03*
X138000Y290300D02*
D03*
X145900Y283500D02*
D03*
X163352Y270611D02*
D03*
X149216Y270800D02*
D03*
X145900Y262192D02*
D03*
X129500Y277924D02*
D03*
X214900Y301892D02*
D03*
X195063Y308754D02*
D03*
X208885Y304714D02*
D03*
X194290Y290100D02*
D03*
X188940Y283700D02*
D03*
X180862Y283600D02*
D03*
X171800D02*
D03*
X163400Y282000D02*
D03*
X184121Y307471D02*
D03*
X189000Y328300D02*
D03*
X189200Y354869D02*
D03*
X195290Y355000D02*
D03*
X205303Y326900D02*
D03*
X214400Y322700D02*
D03*
X171600Y271300D02*
D03*
X235000Y281080D02*
D03*
X234240Y267100D02*
D03*
X234200Y256200D02*
D03*
X162310Y218500D02*
D03*
X162446Y209268D02*
D03*
X162400Y226282D02*
D03*
X172062Y215507D02*
D03*
X171572Y226100D02*
D03*
X135530Y127200D02*
D03*
X135729Y115800D02*
D03*
X120136Y165300D02*
D03*
X93400Y162071D02*
D03*
X74900Y162100D02*
D03*
X232033Y227900D02*
D03*
X248254Y243800D02*
D03*
X248367Y264700D02*
D03*
X261100Y277273D02*
D03*
X274508Y291000D02*
D03*
X288460Y294100D02*
D03*
X277700Y301765D02*
D03*
Y307843D02*
D03*
X262000Y291800D02*
D03*
X248233Y278200D02*
D03*
X240800Y260691D02*
D03*
X236785Y242700D02*
D03*
X211933Y218235D02*
D03*
X209800Y239300D02*
D03*
X209498Y226000D02*
D03*
X193800Y222800D02*
D03*
X182900Y217900D02*
D03*
X226760Y244500D02*
D03*
X225600Y308800D02*
D03*
X220000Y319473D02*
D03*
X199983Y285819D02*
D03*
X209300Y285754D02*
D03*
X206367Y278900D02*
D03*
X206500Y269798D02*
D03*
X197948Y278653D02*
D03*
X204004Y260800D02*
D03*
X196300Y254974D02*
D03*
X200300Y248400D02*
D03*
X186000Y242900D02*
D03*
X185800Y233500D02*
D03*
X188632Y255465D02*
D03*
X152912Y226200D02*
D03*
X168400Y190800D02*
D03*
X161100Y193112D02*
D03*
X156300Y184600D02*
D03*
X152912Y178500D02*
D03*
X146700Y191300D02*
D03*
X176000Y230200D02*
D03*
X197200Y235822D02*
D03*
X187700Y226400D02*
D03*
X86769Y208087D02*
D03*
X106259Y144548D02*
D03*
X103303D02*
D03*
X25581Y143259D02*
D03*
X22624D02*
D03*
X124459Y145963D02*
D03*
X138109Y78173D02*
D03*
X133577Y74847D02*
D03*
X133428Y142905D02*
D03*
X128746Y138224D02*
D03*
X160159Y88492D02*
D03*
X128696Y127854D02*
D03*
X131996D02*
D03*
X44040Y126654D02*
D03*
X283959Y188849D02*
D03*
X281597D02*
D03*
Y186487D02*
D03*
X283959D02*
D03*
X344168Y295861D02*
D03*
Y298223D02*
D03*
X130621Y188273D02*
D03*
X125940Y192954D02*
D03*
X121259Y188273D02*
D03*
X125940Y183592D02*
D03*
X107340Y350421D02*
D03*
X104972D02*
D03*
X231409Y307843D02*
D03*
X229047Y310205D02*
D03*
Y307843D02*
D03*
X35835Y312700D02*
D03*
X40578Y307824D02*
D03*
X14656Y312400D02*
D03*
X10140Y307638D02*
D03*
X27252Y258919D02*
D03*
X42265Y282300D02*
D03*
X39903D02*
D03*
X115440Y190798D02*
D03*
Y188435D02*
D03*
Y186073D02*
D03*
X113040Y190798D02*
D03*
Y188435D02*
D03*
Y186073D02*
D03*
X349963Y249835D02*
D03*
X347600D02*
D03*
Y252173D02*
D03*
X349963D02*
D03*
X347600Y254535D02*
D03*
X349963D02*
D03*
X301308Y293728D02*
D03*
X303608D02*
D03*
X206367Y282341D02*
D03*
X208730D02*
D03*
X347840Y328011D02*
D03*
X350202D02*
D03*
Y330373D02*
D03*
X352540Y332735D02*
D03*
Y330373D02*
D03*
Y328011D02*
D03*
X296559Y74573D02*
D03*
X305921D02*
D03*
X301240Y79254D02*
D03*
Y69892D02*
D03*
X353060Y95823D02*
D03*
Y98185D02*
D03*
X340987Y118258D02*
D03*
X343349D02*
D03*
X366060Y133021D02*
D03*
X284340Y168849D02*
D03*
X289021Y173530D02*
D03*
X272459Y258873D02*
D03*
X277140Y263554D02*
D03*
X281821Y258873D02*
D03*
X277140Y254192D02*
D03*
X72203Y87292D02*
D03*
X50153Y76973D02*
D03*
X45621Y73647D02*
D03*
X45472Y141705D02*
D03*
X203945Y152201D02*
D03*
Y149838D02*
D03*
X244624Y149869D02*
D03*
X242262D02*
D03*
X376595Y112611D02*
D03*
X378957D02*
D03*
X365432Y190723D02*
D03*
X367794D02*
D03*
X367040Y270611D02*
D03*
X367140Y263173D02*
D03*
X296809Y244455D02*
D03*
X103506Y184604D02*
D03*
X107637Y180003D02*
D03*
X43640Y325173D02*
D03*
Y327535D02*
D03*
X41278D02*
D03*
Y325173D02*
D03*
X168178Y355073D02*
D03*
X170540D02*
D03*
X134040Y252358D02*
D03*
X128747Y256363D02*
D03*
X139640Y252946D02*
D03*
Y250584D02*
D03*
X190151Y195073D02*
D03*
X192513D02*
D03*
X192447Y152357D02*
D03*
X316651Y87177D02*
D03*
Y89540D02*
D03*
X309984Y72432D02*
D03*
X312347D02*
D03*
X212840Y149995D02*
D03*
Y152357D02*
D03*
X303000Y218700D02*
D03*
X299600Y212200D02*
D03*
Y200800D02*
D03*
X299612Y190600D02*
D03*
X302500Y180654D02*
D03*
X304932Y173337D02*
D03*
X356602Y174473D02*
D03*
X351878Y172111D02*
D03*
X356602D02*
D03*
X354240D02*
D03*
X356602Y176811D02*
D03*
Y179173D02*
D03*
X302778Y89773D02*
D03*
Y92136D02*
D03*
Y94498D02*
D03*
X305140Y89773D02*
D03*
Y94498D02*
D03*
Y92136D02*
D03*
X309840D02*
D03*
Y94498D02*
D03*
Y89773D02*
D03*
X307478Y94498D02*
D03*
Y92136D02*
D03*
Y89773D02*
D03*
X159297Y203861D02*
D03*
X53640Y288973D02*
D03*
X144470Y194373D02*
D03*
X208440Y249584D02*
D03*
X210240Y251384D02*
D03*
X161540Y286773D02*
D03*
X134340Y292473D02*
D03*
X198688Y282200D02*
D03*
X134740Y249373D02*
D03*
Y246973D02*
D03*
Y244673D02*
D03*
Y242273D02*
D03*
X362334Y241373D02*
D03*
X316291Y247073D02*
D03*
X372519Y160750D02*
D03*
X313913Y163450D02*
D03*
D159*
X137400Y247500D02*
D03*
D160*
X114248Y188450D02*
D03*
D161*
X145750Y192800D02*
D03*
D162*
X305150Y91650D02*
D03*
M02*
