G04*
G04 #@! TF.GenerationSoftware,Altium Limited,Altium Designer,19.0.10 (269)*
G04*
G04 Layer_Physical_Order=4*
G04 Layer_Color=16711680*
%FSLAX25Y25*%
%MOIN*%
G70*
G01*
G75*
%ADD11C,0.02362*%
%ADD13C,0.01181*%
%ADD90C,0.03150*%
%ADD93C,0.01575*%
%ADD109R,0.14899X0.09917*%
%ADD112R,0.04800X0.04825*%
%ADD113R,0.11000X0.08200*%
%ADD116R,0.04825X0.04800*%
%ADD119R,0.07477X0.07400*%
%ADD120R,0.07137X0.09917*%
%ADD121R,0.07775X0.09917*%
%ADD126R,0.09917X0.07775*%
%ADD131C,0.07087*%
%ADD132C,0.09000*%
%ADD133C,0.07874*%
%ADD134R,0.07874X0.07874*%
%ADD135C,0.23622*%
%ADD136C,0.19685*%
%ADD137O,0.11811X0.07874*%
%ADD138O,0.08661X0.15748*%
%ADD139O,0.07874X0.11811*%
%ADD140C,0.12992*%
%ADD141O,0.17717X0.07874*%
%ADD142O,0.07874X0.17717*%
%ADD143C,0.17717*%
%ADD144C,0.02362*%
%ADD163R,0.12640X0.08761*%
%ADD164R,0.12476X0.07775*%
%ADD165R,0.05537X0.07623*%
%ADD166R,0.14841X0.09917*%
%ADD167R,0.09917X0.07137*%
G36*
X392095Y1606D02*
X1606Y1606D01*
X1606Y392095D01*
X392095D01*
X392095Y1606D01*
D02*
G37*
%LPC*%
G36*
X177916Y385966D02*
Y377977D01*
X182491D01*
Y380536D01*
X182301Y381975D01*
X181746Y383316D01*
X180862Y384467D01*
X179711Y385351D01*
X178370Y385906D01*
X177916Y385966D01*
D02*
G37*
G36*
X175947D02*
X175493Y385906D01*
X174152Y385351D01*
X173000Y384467D01*
X172117Y383316D01*
X171561Y381975D01*
X171372Y380536D01*
Y377977D01*
X175947D01*
Y385966D01*
D02*
G37*
G36*
X112955D02*
Y377977D01*
X117530D01*
Y380536D01*
X117341Y381975D01*
X116785Y383316D01*
X115902Y384467D01*
X114750Y385351D01*
X113409Y385906D01*
X112955Y385966D01*
D02*
G37*
G36*
X110986D02*
X110532Y385906D01*
X109191Y385351D01*
X108039Y384467D01*
X107156Y383316D01*
X106601Y381975D01*
X106411Y380536D01*
Y377977D01*
X110986D01*
Y385966D01*
D02*
G37*
G36*
X182491Y376009D02*
X177916D01*
Y368020D01*
X178370Y368080D01*
X179711Y368635D01*
X180862Y369518D01*
X181746Y370670D01*
X182301Y372011D01*
X182491Y373450D01*
Y376009D01*
D02*
G37*
G36*
X175947D02*
X171372D01*
Y373450D01*
X171561Y372011D01*
X172117Y370670D01*
X173000Y369518D01*
X174152Y368635D01*
X175493Y368080D01*
X175947Y368020D01*
Y376009D01*
D02*
G37*
G36*
X190711Y386096D02*
X189272Y385906D01*
X187931Y385351D01*
X186780Y384467D01*
X185896Y383316D01*
X185341Y381975D01*
X185152Y380536D01*
Y373450D01*
X185341Y372011D01*
X185896Y370670D01*
X186780Y369518D01*
X187931Y368635D01*
X189272Y368080D01*
X190711Y367890D01*
X192150Y368080D01*
X193491Y368635D01*
X194642Y369518D01*
X195525Y370670D01*
X196081Y372011D01*
X196270Y373450D01*
Y380536D01*
X196081Y381975D01*
X195525Y383316D01*
X194642Y384467D01*
X193491Y385351D01*
X192150Y385906D01*
X190711Y386096D01*
D02*
G37*
G36*
X163154D02*
X161715Y385906D01*
X160374Y385351D01*
X159223Y384467D01*
X158339Y383316D01*
X157784Y381975D01*
X157594Y380536D01*
Y373450D01*
X157784Y372011D01*
X158339Y370670D01*
X159223Y369518D01*
X160374Y368635D01*
X161715Y368080D01*
X163154Y367890D01*
X164593Y368080D01*
X165934Y368635D01*
X167085Y369518D01*
X167968Y370670D01*
X168524Y372011D01*
X168713Y373450D01*
Y380536D01*
X168524Y381975D01*
X167968Y383316D01*
X167085Y384467D01*
X165934Y385351D01*
X164593Y385906D01*
X163154Y386096D01*
D02*
G37*
G36*
X125750D02*
X124311Y385906D01*
X122970Y385351D01*
X121819Y384467D01*
X120935Y383316D01*
X120380Y381975D01*
X120191Y380536D01*
Y373450D01*
X120380Y372011D01*
X120935Y370670D01*
X121819Y369518D01*
X122970Y368635D01*
X124311Y368080D01*
X125750Y367890D01*
X127189Y368080D01*
X128530Y368635D01*
X129681Y369518D01*
X130565Y370670D01*
X131120Y372011D01*
X131309Y373450D01*
Y380536D01*
X131120Y381975D01*
X130565Y383316D01*
X129681Y384467D01*
X128530Y385351D01*
X127189Y385906D01*
X125750Y386096D01*
D02*
G37*
G36*
X98193D02*
X96754Y385906D01*
X95413Y385351D01*
X94262Y384467D01*
X93378Y383316D01*
X92823Y381975D01*
X92634Y380536D01*
Y373450D01*
X92823Y372011D01*
X93378Y370670D01*
X94262Y369518D01*
X95413Y368635D01*
X96754Y368080D01*
X98193Y367890D01*
X99632Y368080D01*
X100973Y368635D01*
X102124Y369518D01*
X103007Y370670D01*
X103563Y372011D01*
X103752Y373450D01*
Y380536D01*
X103563Y381975D01*
X103007Y383316D01*
X102124Y384467D01*
X100973Y385351D01*
X99632Y385906D01*
X98193Y386096D01*
D02*
G37*
G36*
X373134Y388346D02*
X371404Y388210D01*
X369717Y387805D01*
X368114Y387141D01*
X366634Y386234D01*
X365315Y385107D01*
X364188Y383788D01*
X363282Y382308D01*
X362618Y380705D01*
X362212Y379018D01*
X362076Y377288D01*
X362212Y375558D01*
X362618Y373871D01*
X363282Y372268D01*
X364188Y370789D01*
X365315Y369469D01*
X366634Y368342D01*
X368114Y367436D01*
X369717Y366772D01*
X371404Y366367D01*
X373134Y366230D01*
X374864Y366367D01*
X376551Y366772D01*
X378154Y367436D01*
X379634Y368342D01*
X380953Y369469D01*
X382080Y370789D01*
X382987Y372268D01*
X383651Y373871D01*
X384056Y375558D01*
X384192Y377288D01*
X384056Y379018D01*
X383651Y380705D01*
X382987Y382308D01*
X382080Y383788D01*
X380953Y385107D01*
X379634Y386234D01*
X378154Y387141D01*
X376551Y387805D01*
X374864Y388210D01*
X373134Y388346D01*
D02*
G37*
G36*
X328134D02*
X326404Y388210D01*
X324717Y387805D01*
X323114Y387141D01*
X321635Y386234D01*
X320315Y385107D01*
X319188Y383788D01*
X318282Y382308D01*
X317618Y380705D01*
X317213Y379018D01*
X317076Y377288D01*
X317213Y375558D01*
X317618Y373871D01*
X318282Y372268D01*
X319188Y370789D01*
X320315Y369469D01*
X321635Y368342D01*
X323114Y367436D01*
X324717Y366772D01*
X326404Y366367D01*
X328134Y366230D01*
X329864Y366367D01*
X331551Y366772D01*
X333154Y367436D01*
X334634Y368342D01*
X335953Y369469D01*
X337080Y370789D01*
X337987Y372268D01*
X338651Y373871D01*
X339056Y375558D01*
X339192Y377288D01*
X339056Y379018D01*
X338651Y380705D01*
X337987Y382308D01*
X337080Y383788D01*
X335953Y385107D01*
X334634Y386234D01*
X333154Y387141D01*
X331551Y387805D01*
X329864Y388210D01*
X328134Y388346D01*
D02*
G37*
G36*
X273764D02*
X272034Y388210D01*
X270347Y387805D01*
X268744Y387141D01*
X267265Y386234D01*
X265945Y385107D01*
X264818Y383788D01*
X263912Y382308D01*
X263247Y380705D01*
X262842Y379018D01*
X262706Y377288D01*
X262842Y375558D01*
X263247Y373871D01*
X263912Y372268D01*
X264818Y370789D01*
X265945Y369469D01*
X267265Y368342D01*
X268744Y367436D01*
X270347Y366772D01*
X272034Y366367D01*
X273764Y366230D01*
X275494Y366367D01*
X277181Y366772D01*
X278784Y367436D01*
X280264Y368342D01*
X281583Y369469D01*
X282710Y370789D01*
X283616Y372268D01*
X284280Y373871D01*
X284686Y375558D01*
X284822Y377288D01*
X284686Y379018D01*
X284280Y380705D01*
X283616Y382308D01*
X282710Y383788D01*
X281583Y385107D01*
X280264Y386234D01*
X278784Y387141D01*
X277181Y387805D01*
X275494Y388210D01*
X273764Y388346D01*
D02*
G37*
G36*
X228764D02*
X227034Y388210D01*
X225347Y387805D01*
X223744Y387141D01*
X222265Y386234D01*
X220945Y385107D01*
X219818Y383788D01*
X218912Y382308D01*
X218248Y380705D01*
X217843Y379018D01*
X217706Y377288D01*
X217843Y375558D01*
X218248Y373871D01*
X218912Y372268D01*
X219818Y370789D01*
X220945Y369469D01*
X222265Y368342D01*
X223744Y367436D01*
X225347Y366772D01*
X227034Y366367D01*
X228764Y366230D01*
X230494Y366367D01*
X232181Y366772D01*
X233784Y367436D01*
X235264Y368342D01*
X236583Y369469D01*
X237710Y370789D01*
X238616Y372268D01*
X239281Y373871D01*
X239686Y375558D01*
X239822Y377288D01*
X239686Y379018D01*
X239281Y380705D01*
X238616Y382308D01*
X237710Y383788D01*
X236583Y385107D01*
X235264Y386234D01*
X233784Y387141D01*
X232181Y387805D01*
X230494Y388210D01*
X228764Y388346D01*
D02*
G37*
G36*
X60220D02*
X58491Y388210D01*
X56804Y387805D01*
X55200Y387141D01*
X53721Y386234D01*
X52402Y385107D01*
X51275Y383788D01*
X50368Y382308D01*
X49704Y380705D01*
X49299Y379018D01*
X49163Y377288D01*
X49299Y375558D01*
X49704Y373871D01*
X50368Y372268D01*
X51275Y370789D01*
X52402Y369469D01*
X53721Y368342D01*
X55200Y367436D01*
X56804Y366772D01*
X58491Y366367D01*
X60220Y366230D01*
X61950Y366367D01*
X63638Y366772D01*
X65241Y367436D01*
X66720Y368342D01*
X68040Y369469D01*
X69166Y370789D01*
X70073Y372268D01*
X70737Y373871D01*
X71142Y375558D01*
X71278Y377288D01*
X71142Y379018D01*
X70737Y380705D01*
X70073Y382308D01*
X69166Y383788D01*
X68040Y385107D01*
X66720Y386234D01*
X65241Y387141D01*
X63638Y387805D01*
X61950Y388210D01*
X60220Y388346D01*
D02*
G37*
G36*
X15221D02*
X13491Y388210D01*
X11804Y387805D01*
X10200Y387141D01*
X8721Y386234D01*
X7401Y385107D01*
X6275Y383788D01*
X5368Y382308D01*
X4704Y380705D01*
X4299Y379018D01*
X4163Y377288D01*
X4299Y375558D01*
X4704Y373871D01*
X5368Y372268D01*
X6275Y370789D01*
X7401Y369469D01*
X8721Y368342D01*
X10200Y367436D01*
X11804Y366772D01*
X13491Y366367D01*
X15221Y366230D01*
X16950Y366367D01*
X18638Y366772D01*
X20241Y367436D01*
X21720Y368342D01*
X23040Y369469D01*
X24166Y370789D01*
X25073Y372268D01*
X25737Y373871D01*
X26142Y375558D01*
X26278Y377288D01*
X26142Y379018D01*
X25737Y380705D01*
X25073Y382308D01*
X24166Y383788D01*
X23040Y385107D01*
X21720Y386234D01*
X20241Y387141D01*
X18638Y387805D01*
X16950Y388210D01*
X15221Y388346D01*
D02*
G37*
G36*
X117530Y376009D02*
X106411D01*
Y373450D01*
X106601Y372011D01*
X107156Y370670D01*
X108039Y369518D01*
X109191Y368635D01*
X110532Y368080D01*
X111133Y368001D01*
X111100Y367500D01*
X109610D01*
X109149Y367409D01*
X108758Y367148D01*
X108497Y366757D01*
X108406Y366296D01*
Y361496D01*
X108497Y361035D01*
X108758Y360645D01*
X109149Y360384D01*
X109610Y360292D01*
X114435D01*
X114896Y360384D01*
X115287Y360645D01*
X115548Y361035D01*
X115639Y361496D01*
Y366296D01*
X115548Y366757D01*
X115287Y367148D01*
X114896Y367409D01*
X114435Y367500D01*
X112841D01*
X112808Y368001D01*
X113409Y368080D01*
X114750Y368635D01*
X115902Y369518D01*
X116785Y370670D01*
X117341Y372011D01*
X117530Y373450D01*
Y376009D01*
D02*
G37*
G36*
X368134Y357450D02*
X366798Y357275D01*
X365553Y356759D01*
X364484Y355938D01*
X363663Y354869D01*
X363405Y354245D01*
X362863D01*
X362605Y354869D01*
X361784Y355938D01*
X360715Y356759D01*
X359470Y357275D01*
X358134Y357450D01*
X356798Y357275D01*
X355553Y356759D01*
X354484Y355938D01*
X353663Y354869D01*
X353405Y354245D01*
X352864D01*
X352605Y354869D01*
X351784Y355938D01*
X350715Y356759D01*
X349470Y357275D01*
X349118Y357321D01*
Y352288D01*
Y347255D01*
X349470Y347302D01*
X350715Y347817D01*
X351784Y348638D01*
X352605Y349707D01*
X352864Y350332D01*
X353405D01*
X353663Y349707D01*
X354484Y348638D01*
X355553Y347817D01*
X356798Y347302D01*
X358134Y347126D01*
X359470Y347302D01*
X360715Y347817D01*
X361784Y348638D01*
X362605Y349707D01*
X362863Y350332D01*
X363405D01*
X363663Y349707D01*
X364484Y348638D01*
X365553Y347817D01*
X366798Y347302D01*
X368134Y347126D01*
X369470Y347302D01*
X370715Y347817D01*
X371784Y348638D01*
X372605Y349707D01*
X373120Y350952D01*
X373296Y352288D01*
X373120Y353624D01*
X372605Y354869D01*
X371784Y355938D01*
X370715Y356759D01*
X369470Y357275D01*
X368134Y357450D01*
D02*
G37*
G36*
X268764D02*
X267428Y357275D01*
X266183Y356759D01*
X265114Y355938D01*
X264293Y354869D01*
X264035Y354245D01*
X263493D01*
X263235Y354869D01*
X262414Y355938D01*
X261345Y356759D01*
X260100Y357275D01*
X259748Y357321D01*
Y352288D01*
Y347255D01*
X260100Y347302D01*
X261345Y347817D01*
X262414Y348638D01*
X263235Y349707D01*
X263493Y350332D01*
X264035D01*
X264293Y349707D01*
X265114Y348638D01*
X266183Y347817D01*
X267428Y347302D01*
X268764Y347126D01*
X270100Y347302D01*
X271345Y347817D01*
X272414Y348638D01*
X273235Y349707D01*
X273750Y350952D01*
X273926Y352288D01*
X273750Y353624D01*
X273235Y354869D01*
X272414Y355938D01*
X271345Y356759D01*
X270100Y357275D01*
X268764Y357450D01*
D02*
G37*
G36*
X55221D02*
X53884Y357275D01*
X52639Y356759D01*
X51570Y355938D01*
X50750Y354869D01*
X50491Y354245D01*
X49950D01*
X49691Y354869D01*
X48871Y355938D01*
X47802Y356759D01*
X46557Y357275D01*
X46205Y357321D01*
Y352288D01*
Y347255D01*
X46557Y347302D01*
X47802Y347817D01*
X48871Y348638D01*
X49691Y349707D01*
X49950Y350332D01*
X50491D01*
X50750Y349707D01*
X51570Y348638D01*
X52639Y347817D01*
X53884Y347302D01*
X55221Y347126D01*
X56557Y347302D01*
X57802Y347817D01*
X58871Y348638D01*
X59691Y349707D01*
X60207Y350952D01*
X60383Y352288D01*
X60207Y353624D01*
X59691Y354869D01*
X58871Y355938D01*
X57802Y356759D01*
X56557Y357275D01*
X55221Y357450D01*
D02*
G37*
G36*
X24236Y357321D02*
X23884Y357275D01*
X22639Y356759D01*
X21570Y355938D01*
X20750Y354869D01*
X20234Y353624D01*
X20188Y353272D01*
X24236D01*
Y357321D01*
D02*
G37*
G36*
X237780D02*
X237428Y357275D01*
X236183Y356759D01*
X235114Y355938D01*
X234293Y354869D01*
X233778Y353624D01*
X233731Y353272D01*
X237780D01*
Y357321D01*
D02*
G37*
G36*
X171765Y359842D02*
X166940D01*
X166479Y359750D01*
X166089Y359489D01*
X165828Y359099D01*
X165736Y358638D01*
Y353838D01*
X165828Y353377D01*
X166089Y352986D01*
X166479Y352725D01*
X166940Y352633D01*
X171765D01*
X172226Y352725D01*
X172617Y352986D01*
X172878Y353377D01*
X172970Y353838D01*
Y358638D01*
X172878Y359099D01*
X172617Y359489D01*
X172226Y359750D01*
X171765Y359842D01*
D02*
G37*
G36*
X96818Y352444D02*
X96808Y352442D01*
X94466D01*
X94456Y352444D01*
X94446Y352442D01*
X93218D01*
X92757Y352350D01*
X92367Y352089D01*
X92106Y351698D01*
X92014Y351238D01*
Y346438D01*
X92106Y345977D01*
X92367Y345586D01*
X92757Y345325D01*
X93218Y345233D01*
X98043D01*
X98504Y345325D01*
X98895Y345586D01*
X99156Y345977D01*
X99248Y346438D01*
Y351238D01*
X99156Y351698D01*
X98895Y352089D01*
X98504Y352350D01*
X98043Y352442D01*
X96829D01*
X96818Y352444D01*
D02*
G37*
G36*
X36205Y357321D02*
Y352288D01*
Y347255D01*
X36557Y347302D01*
X37802Y347817D01*
X38871Y348638D01*
X39691Y349707D01*
X39950Y350332D01*
X40491D01*
X40750Y349707D01*
X41570Y348638D01*
X42639Y347817D01*
X43884Y347302D01*
X44236Y347255D01*
Y352288D01*
Y357321D01*
X43884Y357275D01*
X42639Y356759D01*
X41570Y355938D01*
X40750Y354869D01*
X40491Y354245D01*
X39950D01*
X39691Y354869D01*
X38871Y355938D01*
X37802Y356759D01*
X36557Y357275D01*
X36205Y357321D01*
D02*
G37*
G36*
X26205D02*
Y352288D01*
Y347255D01*
X26557Y347302D01*
X27802Y347817D01*
X28871Y348638D01*
X29691Y349707D01*
X29950Y350332D01*
X30491D01*
X30750Y349707D01*
X31570Y348638D01*
X32639Y347817D01*
X33884Y347302D01*
X34236Y347255D01*
Y352288D01*
Y357321D01*
X33884Y357275D01*
X32639Y356759D01*
X31570Y355938D01*
X30750Y354869D01*
X30491Y354245D01*
X29950D01*
X29691Y354869D01*
X28871Y355938D01*
X27802Y356759D01*
X26557Y357275D01*
X26205Y357321D01*
D02*
G37*
G36*
X24236Y351304D02*
X20188D01*
X20234Y350952D01*
X20750Y349707D01*
X21570Y348638D01*
X22639Y347817D01*
X23884Y347302D01*
X24236Y347255D01*
Y351304D01*
D02*
G37*
G36*
X338134Y357450D02*
X336798Y357275D01*
X335553Y356759D01*
X334484Y355938D01*
X333663Y354869D01*
X333148Y353624D01*
X332972Y352288D01*
X333148Y350952D01*
X333663Y349707D01*
X334484Y348638D01*
X335553Y347817D01*
X336798Y347302D01*
X338134Y347126D01*
X339470Y347302D01*
X340715Y347817D01*
X341784Y348638D01*
X342605Y349707D01*
X342863Y350332D01*
X343405D01*
X343663Y349707D01*
X344484Y348638D01*
X345553Y347817D01*
X346798Y347302D01*
X347150Y347255D01*
Y352288D01*
Y357321D01*
X346798Y357275D01*
X345553Y356759D01*
X344484Y355938D01*
X343663Y354869D01*
X343405Y354245D01*
X342863D01*
X342605Y354869D01*
X341784Y355938D01*
X340715Y356759D01*
X339470Y357275D01*
X338134Y357450D01*
D02*
G37*
G36*
X249748Y357321D02*
Y352288D01*
Y347255D01*
X250100Y347302D01*
X251345Y347817D01*
X252414Y348638D01*
X253235Y349707D01*
X253493Y350332D01*
X254035D01*
X254293Y349707D01*
X255114Y348638D01*
X256183Y347817D01*
X257428Y347302D01*
X257780Y347255D01*
Y352288D01*
Y357321D01*
X257428Y357275D01*
X256183Y356759D01*
X255114Y355938D01*
X254293Y354869D01*
X254035Y354245D01*
X253493D01*
X253235Y354869D01*
X252414Y355938D01*
X251345Y356759D01*
X250100Y357275D01*
X249748Y357321D01*
D02*
G37*
G36*
X239748D02*
Y352288D01*
Y347255D01*
X240100Y347302D01*
X241345Y347817D01*
X242414Y348638D01*
X243235Y349707D01*
X243493Y350332D01*
X244035D01*
X244293Y349707D01*
X245114Y348638D01*
X246183Y347817D01*
X247428Y347302D01*
X247780Y347255D01*
Y352288D01*
Y357321D01*
X247428Y357275D01*
X246183Y356759D01*
X245114Y355938D01*
X244293Y354869D01*
X244035Y354245D01*
X243493D01*
X243235Y354869D01*
X242414Y355938D01*
X241345Y356759D01*
X240100Y357275D01*
X239748Y357321D01*
D02*
G37*
G36*
X237780Y351304D02*
X233731D01*
X233778Y350952D01*
X234293Y349707D01*
X235114Y348638D01*
X236183Y347817D01*
X237428Y347302D01*
X237780Y347255D01*
Y351304D01*
D02*
G37*
G36*
X363134Y347450D02*
X361798Y347274D01*
X360553Y346759D01*
X359484Y345938D01*
X358663Y344869D01*
X358405Y344245D01*
X357863D01*
X357605Y344869D01*
X356784Y345938D01*
X355715Y346759D01*
X354470Y347274D01*
X354118Y347321D01*
Y342288D01*
Y337255D01*
X354470Y337302D01*
X355715Y337818D01*
X356784Y338638D01*
X357605Y339707D01*
X357863Y340332D01*
X358405D01*
X358663Y339707D01*
X359484Y338638D01*
X360553Y337818D01*
X361798Y337302D01*
X363134Y337126D01*
X364470Y337302D01*
X365715Y337818D01*
X366784Y338638D01*
X367605Y339707D01*
X368121Y340952D01*
X368296Y342288D01*
X368121Y343624D01*
X367605Y344869D01*
X366784Y345938D01*
X365715Y346759D01*
X364470Y347274D01*
X363134Y347450D01*
D02*
G37*
G36*
X263764D02*
X262428Y347274D01*
X261183Y346759D01*
X260114Y345938D01*
X259293Y344869D01*
X259035Y344245D01*
X258493D01*
X258235Y344869D01*
X257414Y345938D01*
X256345Y346759D01*
X255100Y347274D01*
X253764Y347450D01*
X252428Y347274D01*
X251183Y346759D01*
X250114Y345938D01*
X249293Y344869D01*
X249035Y344245D01*
X248493D01*
X248235Y344869D01*
X247414Y345938D01*
X246345Y346759D01*
X245100Y347274D01*
X243764Y347450D01*
X242428Y347274D01*
X241183Y346759D01*
X240114Y345938D01*
X239293Y344869D01*
X239035Y344245D01*
X238493D01*
X238235Y344869D01*
X237414Y345938D01*
X236345Y346759D01*
X235100Y347274D01*
X233764Y347450D01*
X232428Y347274D01*
X231183Y346759D01*
X230114Y345938D01*
X229293Y344869D01*
X228778Y343624D01*
X228602Y342288D01*
X228778Y340952D01*
X229293Y339707D01*
X230114Y338638D01*
X231183Y337818D01*
X232428Y337302D01*
X233764Y337126D01*
X235100Y337302D01*
X236345Y337818D01*
X237414Y338638D01*
X238235Y339707D01*
X238493Y340332D01*
X239035D01*
X239293Y339707D01*
X240114Y338638D01*
X241183Y337818D01*
X242428Y337302D01*
X243764Y337126D01*
X245100Y337302D01*
X246345Y337818D01*
X247414Y338638D01*
X248235Y339707D01*
X248493Y340332D01*
X249035D01*
X249293Y339707D01*
X250114Y338638D01*
X251183Y337818D01*
X252428Y337302D01*
X253764Y337126D01*
X255100Y337302D01*
X256345Y337818D01*
X257414Y338638D01*
X258235Y339707D01*
X258493Y340332D01*
X259035D01*
X259293Y339707D01*
X260114Y338638D01*
X261183Y337818D01*
X262428Y337302D01*
X263764Y337126D01*
X265100Y337302D01*
X266345Y337818D01*
X267414Y338638D01*
X268235Y339707D01*
X268750Y340952D01*
X268926Y342288D01*
X268750Y343624D01*
X268235Y344869D01*
X267414Y345938D01*
X266345Y346759D01*
X265100Y347274D01*
X263764Y347450D01*
D02*
G37*
G36*
X50221D02*
X48884Y347274D01*
X47639Y346759D01*
X46570Y345938D01*
X45750Y344869D01*
X45491Y344245D01*
X44950D01*
X44691Y344869D01*
X43871Y345938D01*
X42802Y346759D01*
X41557Y347274D01*
X41205Y347321D01*
Y342288D01*
Y337255D01*
X41557Y337302D01*
X42802Y337818D01*
X43871Y338638D01*
X44691Y339707D01*
X44950Y340332D01*
X45491D01*
X45750Y339707D01*
X46570Y338638D01*
X47639Y337818D01*
X48884Y337302D01*
X50221Y337126D01*
X51557Y337302D01*
X52802Y337818D01*
X53871Y338638D01*
X54691Y339707D01*
X55207Y340952D01*
X55383Y342288D01*
X55207Y343624D01*
X54691Y344869D01*
X53871Y345938D01*
X52802Y346759D01*
X51557Y347274D01*
X50221Y347450D01*
D02*
G37*
G36*
X30220D02*
X28884Y347274D01*
X27639Y346759D01*
X26570Y345938D01*
X25750Y344869D01*
X25491Y344245D01*
X24950D01*
X24691Y344869D01*
X23871Y345938D01*
X22802Y346759D01*
X21557Y347274D01*
X20221Y347450D01*
X18884Y347274D01*
X17639Y346759D01*
X16570Y345938D01*
X15750Y344869D01*
X15234Y343624D01*
X15058Y342288D01*
X15234Y340952D01*
X15750Y339707D01*
X16570Y338638D01*
X17639Y337818D01*
X18884Y337302D01*
X20221Y337126D01*
X21557Y337302D01*
X22802Y337818D01*
X23871Y338638D01*
X24691Y339707D01*
X24950Y340332D01*
X25491D01*
X25750Y339707D01*
X26570Y338638D01*
X27639Y337818D01*
X28884Y337302D01*
X30220Y337126D01*
X31557Y337302D01*
X32802Y337818D01*
X33871Y338638D01*
X34691Y339707D01*
X34950Y340332D01*
X35491D01*
X35750Y339707D01*
X36570Y338638D01*
X37639Y337818D01*
X38884Y337302D01*
X39236Y337256D01*
Y342288D01*
Y347321D01*
X38884Y347274D01*
X37639Y346759D01*
X36570Y345938D01*
X35750Y344869D01*
X35491Y344245D01*
X34950D01*
X34691Y344869D01*
X33871Y345938D01*
X32802Y346759D01*
X31557Y347274D01*
X30220Y347450D01*
D02*
G37*
G36*
X162675Y339270D02*
X162665Y339268D01*
X160323D01*
X160313Y339270D01*
X160303Y339268D01*
X159075D01*
X158614Y339176D01*
X158224Y338915D01*
X157963Y338524D01*
X157871Y338063D01*
Y333263D01*
X157963Y332803D01*
X158224Y332412D01*
X158614Y332151D01*
X159075Y332059D01*
X163900D01*
X164361Y332151D01*
X164752Y332412D01*
X165013Y332803D01*
X165105Y333263D01*
Y338063D01*
X165013Y338524D01*
X164752Y338915D01*
X164361Y339176D01*
X163900Y339268D01*
X162686D01*
X162675Y339270D01*
D02*
G37*
G36*
X344118Y347321D02*
Y342288D01*
Y337255D01*
X344470Y337302D01*
X345715Y337818D01*
X346784Y338638D01*
X347605Y339707D01*
X347864Y340332D01*
X348405D01*
X348663Y339707D01*
X349484Y338638D01*
X350553Y337818D01*
X351798Y337302D01*
X352150Y337256D01*
Y342288D01*
Y347321D01*
X351798Y347274D01*
X350553Y346759D01*
X349484Y345938D01*
X348663Y344869D01*
X348405Y344245D01*
X347864D01*
X347605Y344869D01*
X346784Y345938D01*
X345715Y346759D01*
X344470Y347274D01*
X344118Y347321D01*
D02*
G37*
G36*
X333134Y347450D02*
X331798Y347274D01*
X330553Y346759D01*
X329484Y345938D01*
X328663Y344869D01*
X328148Y343624D01*
X327972Y342288D01*
X328148Y340952D01*
X328663Y339707D01*
X329484Y338638D01*
X330553Y337818D01*
X331798Y337302D01*
X333134Y337126D01*
X334470Y337302D01*
X335715Y337818D01*
X336784Y338638D01*
X337605Y339707D01*
X337863Y340332D01*
X338405D01*
X338663Y339707D01*
X339484Y338638D01*
X340553Y337818D01*
X341798Y337302D01*
X342150Y337256D01*
Y342288D01*
Y347321D01*
X341798Y347274D01*
X340553Y346759D01*
X339484Y345938D01*
X338663Y344869D01*
X338405Y344245D01*
X337863D01*
X337605Y344869D01*
X336784Y345938D01*
X335715Y346759D01*
X334470Y347274D01*
X333134Y347450D01*
D02*
G37*
G36*
X54335Y334983D02*
X53413Y334800D01*
X52632Y334278D01*
X52109Y333496D01*
X51926Y332575D01*
X52109Y331653D01*
X52632Y330872D01*
X53413Y330349D01*
X54335Y330166D01*
X55256Y330349D01*
X56038Y330872D01*
X56560Y331653D01*
X56743Y332575D01*
X56560Y333496D01*
X56038Y334278D01*
X55256Y334800D01*
X54335Y334983D01*
D02*
G37*
G36*
X353940Y335278D02*
X346463D01*
X346002Y335186D01*
X345611Y334925D01*
X345350Y334534D01*
X345259Y334073D01*
Y326673D01*
X345350Y326212D01*
X345611Y325822D01*
X346002Y325561D01*
X346463Y325469D01*
X353940D01*
X354401Y325561D01*
X354792Y325822D01*
X355053Y326212D01*
X355144Y326673D01*
Y334073D01*
X355053Y334534D01*
X354792Y334925D01*
X354401Y335186D01*
X353940Y335278D01*
D02*
G37*
G36*
X49902Y330074D02*
X48981Y329891D01*
X48199Y329369D01*
X47677Y328587D01*
X47494Y327665D01*
X47677Y326744D01*
X48199Y325962D01*
X48981Y325440D01*
X49902Y325257D01*
X50824Y325440D01*
X51605Y325962D01*
X52127Y326744D01*
X52311Y327665D01*
X52127Y328587D01*
X51605Y329369D01*
X50824Y329891D01*
X49902Y330074D01*
D02*
G37*
G36*
X44865Y329942D02*
X40040D01*
X39579Y329850D01*
X39189Y329589D01*
X38928Y329199D01*
X38836Y328738D01*
Y323938D01*
X38928Y323477D01*
X39189Y323086D01*
X39579Y322825D01*
X40040Y322733D01*
X44865D01*
X45326Y322825D01*
X45717Y323086D01*
X45978Y323477D01*
X46070Y323938D01*
Y328738D01*
X45978Y329199D01*
X45717Y329589D01*
X45326Y329850D01*
X44865Y329942D01*
D02*
G37*
G36*
X268519Y320952D02*
X268508Y320950D01*
X266167D01*
X266157Y320952D01*
X266146Y320950D01*
X264919D01*
X264458Y320858D01*
X264067Y320597D01*
X263806Y320206D01*
X263715Y319745D01*
Y314945D01*
X263806Y314484D01*
X264067Y314094D01*
X264458Y313833D01*
X264919Y313741D01*
X269744D01*
X270205Y313833D01*
X270595Y314094D01*
X270856Y314484D01*
X270948Y314945D01*
Y319745D01*
X270856Y320206D01*
X270595Y320597D01*
X270205Y320858D01*
X269744Y320950D01*
X268529D01*
X268519Y320952D01*
D02*
G37*
G36*
X289440Y323849D02*
X284640D01*
X284179Y323757D01*
X283788Y323496D01*
X283527Y323105D01*
X283435Y322644D01*
Y317819D01*
X283527Y317358D01*
X283788Y316968D01*
X284179Y316706D01*
X284640Y316615D01*
X289440D01*
X289900Y316706D01*
X290291Y316968D01*
X290552Y317358D01*
X290644Y317819D01*
Y319034D01*
X290646Y319044D01*
X290644Y319055D01*
Y321396D01*
X290646Y321407D01*
X290644Y321417D01*
Y322644D01*
X290552Y323105D01*
X290291Y323496D01*
X289900Y323757D01*
X289440Y323849D01*
D02*
G37*
G36*
X340221Y320796D02*
X339501Y320701D01*
X338831Y320423D01*
X338255Y319982D01*
X337813Y319406D01*
X337536Y318735D01*
X337441Y318016D01*
Y315654D01*
X337536Y314934D01*
X337813Y314264D01*
X338255Y313688D01*
X338831Y313246D01*
X339501Y312969D01*
X340221Y312874D01*
X340940Y312969D01*
X341611Y313246D01*
X342186Y313688D01*
X342628Y314264D01*
X342906Y314934D01*
X343000Y315654D01*
Y318016D01*
X342906Y318735D01*
X342628Y319406D01*
X342186Y319982D01*
X341611Y320423D01*
X340940Y320701D01*
X340221Y320796D01*
D02*
G37*
G36*
X78010Y311835D02*
X77025D01*
Y307657D01*
X83042D01*
X82996Y308009D01*
X82480Y309254D01*
X81660Y310323D01*
X80591Y311143D01*
X79346Y311659D01*
X78010Y311835D01*
D02*
G37*
G36*
X75057D02*
X74073D01*
X72737Y311659D01*
X71491Y311143D01*
X70422Y310323D01*
X69602Y309254D01*
X69086Y308009D01*
X69040Y307657D01*
X75057D01*
Y311835D01*
D02*
G37*
G36*
X175321Y315412D02*
X174399Y315229D01*
X173618Y314707D01*
X173096Y313926D01*
X172912Y313004D01*
X173096Y312082D01*
X173492Y311489D01*
X173518Y310904D01*
X172996Y310123D01*
X172812Y309201D01*
X172996Y308280D01*
X173518Y307498D01*
X174299Y306976D01*
X175221Y306793D01*
X176143Y306976D01*
X176924Y307498D01*
X177446Y308280D01*
X177629Y309201D01*
X177446Y310123D01*
X177049Y310717D01*
X177024Y311301D01*
X177546Y312082D01*
X177729Y313004D01*
X177546Y313926D01*
X177024Y314707D01*
X176242Y315229D01*
X175321Y315412D01*
D02*
G37*
G36*
X259797Y312612D02*
X254972D01*
X254511Y312520D01*
X254120Y312259D01*
X253859Y311868D01*
X253767Y311407D01*
Y306608D01*
X253859Y306147D01*
X254120Y305756D01*
X254511Y305495D01*
X254972Y305403D01*
X259797D01*
X260258Y305495D01*
X260648Y305756D01*
X260909Y306147D01*
X261001Y306608D01*
Y311407D01*
X260909Y311868D01*
X260648Y312259D01*
X260258Y312520D01*
X259797Y312612D01*
D02*
G37*
G36*
X246216D02*
X241390D01*
X240930Y312520D01*
X240539Y312259D01*
X240278Y311868D01*
X240186Y311407D01*
Y306608D01*
X240278Y306147D01*
X240539Y305756D01*
X240930Y305495D01*
X241390Y305403D01*
X246216D01*
X246676Y305495D01*
X247067Y305756D01*
X247328Y306147D01*
X247420Y306608D01*
Y311407D01*
X247328Y311868D01*
X247067Y312259D01*
X246676Y312520D01*
X246216Y312612D01*
D02*
G37*
G36*
X232634D02*
X227809D01*
X227348Y312520D01*
X226958Y312259D01*
X226697Y311868D01*
X226605Y311407D01*
Y306608D01*
X226697Y306147D01*
X226958Y305756D01*
X227348Y305495D01*
X227809Y305403D01*
X232634D01*
X233095Y305495D01*
X233486Y305756D01*
X233747Y306147D01*
X233839Y306608D01*
Y311407D01*
X233747Y311868D01*
X233486Y312259D01*
X233095Y312520D01*
X232634Y312612D01*
D02*
G37*
G36*
X9894Y302498D02*
X8972Y302314D01*
X8191Y301792D01*
X7669Y301011D01*
X7485Y300089D01*
X7669Y299167D01*
X8191Y298386D01*
X8972Y297864D01*
X9894Y297680D01*
X10815Y297864D01*
X11597Y298386D01*
X12119Y299167D01*
X12302Y300089D01*
X12119Y301011D01*
X11597Y301792D01*
X10815Y302314D01*
X9894Y302498D01*
D02*
G37*
G36*
X40305Y302484D02*
X39383Y302301D01*
X38602Y301779D01*
X38080Y300997D01*
X37896Y300076D01*
X38080Y299154D01*
X38602Y298373D01*
X39383Y297850D01*
X40305Y297667D01*
X41226Y297850D01*
X42008Y298373D01*
X42530Y299154D01*
X42713Y300076D01*
X42530Y300997D01*
X42008Y301779D01*
X41226Y302301D01*
X40305Y302484D01*
D02*
G37*
G36*
X14656Y297982D02*
X13734Y297798D01*
X12953Y297276D01*
X12431Y296495D01*
X12247Y295573D01*
X12431Y294652D01*
X12953Y293870D01*
X13734Y293348D01*
X14656Y293165D01*
X15578Y293348D01*
X16359Y293870D01*
X16881Y294652D01*
X17064Y295573D01*
X16881Y296495D01*
X16359Y297276D01*
X15578Y297798D01*
X14656Y297982D01*
D02*
G37*
G36*
X349168Y301003D02*
X348449Y300908D01*
X347779Y300631D01*
X347203Y300189D01*
X346761Y299613D01*
X346483Y298943D01*
X346389Y298223D01*
Y295861D01*
X346483Y295142D01*
X346761Y294472D01*
X347203Y293896D01*
X347779Y293454D01*
X348449Y293176D01*
X349168Y293082D01*
X349888Y293176D01*
X350558Y293454D01*
X351134Y293896D01*
X351576Y294472D01*
X351853Y295142D01*
X351948Y295861D01*
Y298223D01*
X351853Y298943D01*
X351576Y299613D01*
X351134Y300189D01*
X350558Y300631D01*
X349888Y300908D01*
X349168Y301003D01*
D02*
G37*
G36*
X35789Y297722D02*
X34867Y297538D01*
X34086Y297016D01*
X33564Y296235D01*
X33380Y295313D01*
X33564Y294392D01*
X34086Y293610D01*
X34867Y293088D01*
X35789Y292905D01*
X36711Y293088D01*
X37492Y293610D01*
X38014Y294392D01*
X38197Y295313D01*
X38014Y296235D01*
X37492Y297016D01*
X36711Y297538D01*
X35789Y297722D01*
D02*
G37*
G36*
X83042Y305688D02*
X76041D01*
X69040D01*
X69086Y305336D01*
X69602Y304092D01*
X70422Y303022D01*
X71491Y302202D01*
X72116Y301943D01*
Y301402D01*
X71491Y301143D01*
X70422Y300323D01*
X69602Y299254D01*
X69086Y298009D01*
X68910Y296673D01*
X69086Y295337D01*
X69602Y294092D01*
X70422Y293022D01*
X71491Y292202D01*
X72737Y291686D01*
X74073Y291510D01*
X78010D01*
X79346Y291686D01*
X80591Y292202D01*
X81660Y293022D01*
X82480Y294092D01*
X82996Y295337D01*
X83172Y296673D01*
X82996Y298009D01*
X82480Y299254D01*
X81660Y300323D01*
X80591Y301143D01*
X79966Y301402D01*
Y301943D01*
X80591Y302202D01*
X81660Y303022D01*
X82480Y304092D01*
X82996Y305336D01*
X83042Y305688D01*
D02*
G37*
G36*
X303608Y296508D02*
X301308D01*
X300589Y296413D01*
X299918Y296136D01*
X299343Y295694D01*
X298901Y295118D01*
X298623Y294448D01*
X298529Y293728D01*
X298623Y293009D01*
X298901Y292338D01*
X299343Y291763D01*
X299918Y291321D01*
X300589Y291043D01*
X301308Y290949D01*
X303608D01*
X304328Y291043D01*
X304998Y291321D01*
X305574Y291763D01*
X306015Y292338D01*
X306293Y293009D01*
X306388Y293728D01*
X306293Y294448D01*
X306015Y295118D01*
X305574Y295694D01*
X304998Y296136D01*
X304328Y296413D01*
X303608Y296508D01*
D02*
G37*
G36*
X141912Y294032D02*
X140991Y293848D01*
X140209Y293326D01*
X139687Y292545D01*
X139504Y291623D01*
X139687Y290702D01*
X140209Y289920D01*
X140991Y289398D01*
X141912Y289215D01*
X142834Y289398D01*
X143615Y289920D01*
X144107Y289756D01*
X144793Y289298D01*
X145715Y289115D01*
X146637Y289298D01*
X147418Y289820D01*
X147940Y290602D01*
X148124Y291523D01*
X147940Y292445D01*
X147418Y293226D01*
X146637Y293748D01*
X145715Y293932D01*
X144793Y293748D01*
X144012Y293226D01*
X143520Y293390D01*
X142834Y293848D01*
X141912Y294032D01*
D02*
G37*
G36*
X208730Y291836D02*
X206367D01*
X205446Y291653D01*
X204664Y291131D01*
X204142Y290349D01*
X203959Y289428D01*
X204142Y288506D01*
X204664Y287724D01*
X205446Y287202D01*
X206367Y287019D01*
X208730D01*
X209651Y287202D01*
X210433Y287724D01*
X210955Y288506D01*
X211138Y289428D01*
X210955Y290349D01*
X210433Y291131D01*
X209651Y291653D01*
X208730Y291836D01*
D02*
G37*
G36*
X228728Y296242D02*
X224791D01*
X223455Y296067D01*
X222210Y295551D01*
X221141Y294730D01*
X220321Y293661D01*
X219805Y292416D01*
X219629Y291080D01*
X219805Y289744D01*
X220321Y288499D01*
X221141Y287430D01*
X222210Y286610D01*
X222835Y286351D01*
Y285810D01*
X222210Y285551D01*
X221141Y284731D01*
X220321Y283661D01*
X219805Y282416D01*
X219759Y282065D01*
X226760D01*
X233761D01*
X233715Y282416D01*
X233199Y283661D01*
X232379Y284731D01*
X231310Y285551D01*
X230685Y285810D01*
Y286351D01*
X231310Y286610D01*
X232379Y287430D01*
X233199Y288499D01*
X233715Y289744D01*
X233891Y291080D01*
X233715Y292416D01*
X233199Y293661D01*
X232379Y294730D01*
X231310Y295551D01*
X230065Y296067D01*
X228728Y296242D01*
D02*
G37*
G36*
X161540Y289182D02*
X160618Y288998D01*
X159837Y288476D01*
X159315Y287695D01*
X159132Y286773D01*
X159315Y285852D01*
X159837Y285070D01*
X160618Y284548D01*
X161540Y284365D01*
X162462Y284548D01*
X163089Y284967D01*
X193366D01*
X196316Y282018D01*
X196463Y281278D01*
X196985Y280497D01*
X197766Y279975D01*
X198688Y279791D01*
X199609Y279975D01*
X200391Y280497D01*
X200913Y281278D01*
X201096Y282200D01*
X200913Y283122D01*
X200391Y283903D01*
X199609Y284425D01*
X198870Y284572D01*
X195392Y288051D01*
X194806Y288442D01*
X194114Y288580D01*
X163089D01*
X162462Y288998D01*
X161540Y289182D01*
D02*
G37*
G36*
X162621Y280782D02*
X161700Y280598D01*
X160918Y280076D01*
X160396Y279295D01*
X160213Y278373D01*
X160396Y277451D01*
X160918Y276670D01*
X161700Y276148D01*
X162621Y275965D01*
X163543Y276148D01*
X164324Y276670D01*
X164846Y277451D01*
X165030Y278373D01*
X164846Y279295D01*
X164324Y280076D01*
X163543Y280598D01*
X162621Y280782D01*
D02*
G37*
G36*
X171540Y269982D02*
X170618Y269798D01*
X169837Y269276D01*
X169315Y268495D01*
X169132Y267573D01*
X169315Y266652D01*
X169837Y265870D01*
X170618Y265348D01*
X171540Y265165D01*
X172462Y265348D01*
X173243Y265870D01*
X173765Y266652D01*
X173949Y267573D01*
X173765Y268495D01*
X173243Y269276D01*
X172462Y269798D01*
X171540Y269982D01*
D02*
G37*
G36*
X161312D02*
X160391Y269798D01*
X159609Y269276D01*
X159087Y268495D01*
X158904Y267573D01*
X159087Y266652D01*
X159609Y265870D01*
X160391Y265348D01*
X161312Y265165D01*
X162234Y265348D01*
X163015Y265870D01*
X163537Y266652D01*
X163721Y267573D01*
X163537Y268495D01*
X163015Y269276D01*
X162234Y269798D01*
X161312Y269982D01*
D02*
G37*
G36*
X151350D02*
X150428Y269798D01*
X149647Y269276D01*
X149125Y268495D01*
X148942Y267573D01*
X149125Y266652D01*
X149647Y265870D01*
X150428Y265348D01*
X151350Y265165D01*
X152272Y265348D01*
X153053Y265870D01*
X153575Y266652D01*
X153759Y267573D01*
X153575Y268495D01*
X153053Y269276D01*
X152272Y269798D01*
X151350Y269982D01*
D02*
G37*
G36*
X123657Y297432D02*
X122423Y297270D01*
X121274Y296794D01*
X120287Y296037D01*
X119530Y295050D01*
X119054Y293901D01*
X118892Y292667D01*
X119054Y291434D01*
X119530Y290285D01*
X120287Y289298D01*
X121274Y288541D01*
X121650Y288385D01*
Y271359D01*
X121274Y271203D01*
X120287Y270446D01*
X119530Y269459D01*
X119054Y268310D01*
X118892Y267077D01*
X119054Y265843D01*
X119530Y264694D01*
X120287Y263707D01*
X121274Y262950D01*
X122423Y262474D01*
X123657Y262312D01*
X124890Y262474D01*
X126039Y262950D01*
X127026Y263707D01*
X127784Y264694D01*
X128260Y265843D01*
X128422Y267077D01*
X128260Y268310D01*
X127784Y269459D01*
X127026Y270446D01*
X126039Y271203D01*
X125664Y271359D01*
Y288385D01*
X126039Y288541D01*
X127026Y289298D01*
X127784Y290285D01*
X128260Y291434D01*
X128422Y292667D01*
X128260Y293901D01*
X127784Y295050D01*
X127026Y296037D01*
X126039Y296794D01*
X124890Y297270D01*
X123657Y297432D01*
D02*
G37*
G36*
X105940D02*
X104707Y297270D01*
X103558Y296794D01*
X102571Y296037D01*
X101813Y295050D01*
X101337Y293901D01*
X101175Y292667D01*
X101337Y291434D01*
X101813Y290285D01*
X102571Y289298D01*
X103558Y288541D01*
X103933Y288385D01*
Y271359D01*
X103558Y271203D01*
X102571Y270446D01*
X101813Y269459D01*
X101337Y268310D01*
X101175Y267077D01*
X101337Y265843D01*
X101813Y264694D01*
X102571Y263707D01*
X103558Y262950D01*
X104707Y262474D01*
X105940Y262312D01*
X107174Y262474D01*
X108323Y262950D01*
X109310Y263707D01*
X110067Y264694D01*
X110543Y265843D01*
X110705Y267077D01*
X110543Y268310D01*
X110067Y269459D01*
X109310Y270446D01*
X108323Y271203D01*
X107947Y271359D01*
Y288385D01*
X108323Y288541D01*
X109310Y289298D01*
X110067Y290285D01*
X110543Y291434D01*
X110705Y292667D01*
X110543Y293901D01*
X110067Y295050D01*
X109310Y296037D01*
X108323Y296794D01*
X107174Y297270D01*
X105940Y297432D01*
D02*
G37*
G36*
X351537Y257216D02*
X346000D01*
X345539Y257124D01*
X345149Y256863D01*
X345010Y256656D01*
X344701Y256862D01*
X344240Y256954D01*
X338703D01*
X338242Y256862D01*
X337852Y256601D01*
X337591Y256210D01*
X337499Y255750D01*
Y248127D01*
X337591Y247666D01*
X337852Y247275D01*
X338242Y247014D01*
X338703Y246922D01*
X344240D01*
X344701Y247014D01*
X345092Y247275D01*
X345231Y247483D01*
X345539Y247276D01*
X346000Y247184D01*
X351537D01*
X351998Y247276D01*
X352389Y247537D01*
X352650Y247928D01*
X352742Y248389D01*
Y256012D01*
X352650Y256473D01*
X352389Y256863D01*
X351998Y257124D01*
X351537Y257216D01*
D02*
G37*
G36*
X89340Y258582D02*
X88419Y258398D01*
X87637Y257876D01*
X87115Y257095D01*
X86932Y256173D01*
X87115Y255252D01*
X87637Y254470D01*
X88419Y253948D01*
X89340Y253765D01*
X90262Y253948D01*
X91043Y254470D01*
X91565Y255252D01*
X91749Y256173D01*
X91565Y257095D01*
X91043Y257876D01*
X90262Y258398D01*
X89340Y258582D01*
D02*
G37*
G36*
X304940Y259124D02*
X299403D01*
X298942Y259033D01*
X298552Y258771D01*
X298290Y258381D01*
X298199Y257920D01*
Y250297D01*
X298290Y249836D01*
X298552Y249445D01*
X298942Y249184D01*
X299403Y249093D01*
X304940D01*
X305401Y249184D01*
X305792Y249445D01*
X306053Y249836D01*
X306144Y250297D01*
Y257920D01*
X306053Y258381D01*
X305792Y258771D01*
X305401Y259033D01*
X304940Y259124D01*
D02*
G37*
G36*
X210240Y253793D02*
X209318Y253609D01*
X208537Y253087D01*
X206737Y251287D01*
X206215Y250506D01*
X206032Y249584D01*
X206215Y248663D01*
X206737Y247881D01*
X207519Y247359D01*
X208440Y247176D01*
X209362Y247359D01*
X210143Y247881D01*
X211943Y249681D01*
X212465Y250463D01*
X212649Y251384D01*
X212465Y252306D01*
X211943Y253087D01*
X211162Y253609D01*
X210240Y253793D01*
D02*
G37*
G36*
X233761Y280096D02*
X226760D01*
X219759D01*
X219805Y279744D01*
X220321Y278499D01*
X221141Y277430D01*
X222210Y276610D01*
X222835Y276351D01*
Y275810D01*
X222210Y275551D01*
X221141Y274730D01*
X220321Y273661D01*
X219805Y272416D01*
X219629Y271080D01*
X219805Y269744D01*
X220321Y268499D01*
X221141Y267430D01*
X222210Y266610D01*
X222835Y266351D01*
Y265810D01*
X222210Y265551D01*
X221141Y264731D01*
X220321Y263661D01*
X219805Y262416D01*
X219629Y261080D01*
X219805Y259744D01*
X220321Y258499D01*
X221141Y257430D01*
X222210Y256610D01*
X222835Y256351D01*
Y255810D01*
X222210Y255551D01*
X221141Y254731D01*
X220321Y253661D01*
X219805Y252416D01*
X219629Y251080D01*
X219805Y249744D01*
X220321Y248499D01*
X221141Y247430D01*
X222210Y246610D01*
X223455Y246094D01*
X224791Y245918D01*
X228728D01*
X230065Y246094D01*
X231310Y246610D01*
X232379Y247430D01*
X233199Y248499D01*
X233715Y249744D01*
X233891Y251080D01*
X233715Y252416D01*
X233199Y253661D01*
X232379Y254731D01*
X231310Y255551D01*
X230685Y255810D01*
Y256351D01*
X231310Y256610D01*
X232379Y257430D01*
X233199Y258499D01*
X233715Y259744D01*
X233891Y261080D01*
X233715Y262416D01*
X233199Y263661D01*
X232379Y264731D01*
X231310Y265551D01*
X230685Y265810D01*
Y266351D01*
X231310Y266610D01*
X232379Y267430D01*
X233199Y268499D01*
X233715Y269744D01*
X233891Y271080D01*
X233715Y272416D01*
X233199Y273661D01*
X232379Y274730D01*
X231310Y275551D01*
X230685Y275810D01*
Y276351D01*
X231310Y276610D01*
X232379Y277430D01*
X233199Y278499D01*
X233715Y279744D01*
X233761Y280096D01*
D02*
G37*
G36*
X89440Y249182D02*
X88519Y248998D01*
X87737Y248476D01*
X87215Y247695D01*
X87032Y246773D01*
X87215Y245851D01*
X87737Y245070D01*
X88519Y244548D01*
X89440Y244365D01*
X90362Y244548D01*
X91143Y245070D01*
X91665Y245851D01*
X91849Y246773D01*
X91665Y247695D01*
X91143Y248476D01*
X90362Y248998D01*
X89440Y249182D01*
D02*
G37*
G36*
X15684Y247598D02*
X14762Y247414D01*
X13980Y246892D01*
X13458Y246111D01*
X13275Y245189D01*
X13458Y244268D01*
X13632Y244008D01*
X13458Y243749D01*
X13275Y242827D01*
X13458Y241905D01*
X13980Y241124D01*
X14762Y240602D01*
X15684Y240419D01*
X16605Y240602D01*
X17387Y241124D01*
X17909Y241905D01*
X18092Y242827D01*
X17909Y243749D01*
X17735Y244008D01*
X17909Y244268D01*
X18092Y245189D01*
X17909Y246111D01*
X17387Y246892D01*
X16605Y247414D01*
X15684Y247598D01*
D02*
G37*
G36*
X316291Y249482D02*
X315370Y249298D01*
X314588Y248776D01*
X314066Y247995D01*
X313883Y247073D01*
X314066Y246151D01*
X314588Y245370D01*
X315370Y244848D01*
X315755Y244772D01*
X320572Y239954D01*
X321223Y239519D01*
X321991Y239366D01*
X361086D01*
X361412Y239148D01*
X362334Y238965D01*
X363256Y239148D01*
X364037Y239670D01*
X364559Y240452D01*
X364743Y241373D01*
X364559Y242295D01*
X364037Y243076D01*
X363256Y243598D01*
X362334Y243782D01*
X361412Y243598D01*
X361086Y243380D01*
X322823D01*
X318593Y247610D01*
X318516Y247995D01*
X317994Y248776D01*
X317213Y249298D01*
X316291Y249482D01*
D02*
G37*
G36*
X279011Y241826D02*
X278292Y241731D01*
X277621Y241453D01*
X277045Y241012D01*
X276604Y240436D01*
X276326Y239766D01*
X276231Y239046D01*
Y236684D01*
X276326Y235964D01*
X276604Y235294D01*
X277045Y234718D01*
X277621Y234277D01*
X278292Y233999D01*
X279011Y233904D01*
X279731Y233999D01*
X280401Y234277D01*
X280977Y234718D01*
X281418Y235294D01*
X281696Y235964D01*
X281791Y236684D01*
Y239046D01*
X281696Y239766D01*
X281418Y240436D01*
X280977Y241012D01*
X280401Y241453D01*
X279731Y241731D01*
X279011Y241826D01*
D02*
G37*
G36*
X143713Y234121D02*
X141351D01*
X140429Y233937D01*
X139648Y233415D01*
X139126Y232634D01*
X138942Y231712D01*
X139126Y230790D01*
X139648Y230009D01*
X140429Y229487D01*
X141351Y229304D01*
X143713D01*
X144635Y229487D01*
X145416Y230009D01*
X145938Y230790D01*
X146122Y231712D01*
X145938Y232634D01*
X145416Y233415D01*
X144635Y233937D01*
X143713Y234121D01*
D02*
G37*
G36*
X34477Y225129D02*
X32994Y224934D01*
X31612Y224362D01*
X30425Y223451D01*
X29515Y222264D01*
X28942Y220882D01*
X28747Y219399D01*
X28942Y217916D01*
X29515Y216534D01*
X30425Y215347D01*
X31612Y214437D01*
X32994Y213864D01*
X34477Y213669D01*
X35960Y213864D01*
X37342Y214437D01*
X38529Y215347D01*
X39440Y216534D01*
X40012Y217916D01*
X40207Y219399D01*
X40012Y220882D01*
X39440Y222264D01*
X38529Y223451D01*
X37342Y224362D01*
X35960Y224934D01*
X34477Y225129D01*
D02*
G37*
G36*
X208040Y217482D02*
X207119Y217298D01*
X206337Y216776D01*
X205815Y215995D01*
X205632Y215073D01*
X205815Y214152D01*
X206337Y213370D01*
X207119Y212848D01*
X208040Y212665D01*
X208962Y212848D01*
X209743Y213370D01*
X210265Y214152D01*
X210449Y215073D01*
X210265Y215995D01*
X209743Y216776D01*
X208962Y217298D01*
X208040Y217482D01*
D02*
G37*
G36*
X346640Y220446D02*
X345921Y220352D01*
X345250Y220074D01*
X344675Y219632D01*
X344233Y219056D01*
X343955Y218386D01*
X343861Y217667D01*
Y215304D01*
X343955Y214585D01*
X344233Y213915D01*
X344675Y213339D01*
X345250Y212897D01*
X345921Y212619D01*
X346640Y212525D01*
X347360Y212619D01*
X348030Y212897D01*
X348606Y213339D01*
X349047Y213915D01*
X349325Y214585D01*
X349420Y215304D01*
Y217667D01*
X349325Y218386D01*
X349047Y219056D01*
X348606Y219632D01*
X348030Y220074D01*
X347360Y220352D01*
X346640Y220446D01*
D02*
G37*
G36*
X379079Y222816D02*
X371303D01*
X370842Y222724D01*
X370452Y222463D01*
X370191Y222073D01*
X370099Y221612D01*
Y211695D01*
X370191Y211234D01*
X370452Y210844D01*
X370842Y210583D01*
X371303Y210491D01*
X379041D01*
X379041Y210491D01*
X386178D01*
X386639Y210583D01*
X387030Y210844D01*
X387291Y211234D01*
X387382Y211695D01*
Y221612D01*
X387291Y222073D01*
X387030Y222463D01*
X386639Y222724D01*
X386178Y222816D01*
X379079D01*
X379079Y222816D01*
D02*
G37*
G36*
X134340Y294882D02*
X133419Y294698D01*
X132637Y294176D01*
X132115Y293395D01*
X131932Y292473D01*
X132115Y291551D01*
X132534Y290925D01*
Y264277D01*
X132671Y263585D01*
X133063Y262999D01*
X147976Y248087D01*
Y221932D01*
X148113Y221240D01*
X148505Y220654D01*
X160073Y209085D01*
X160221Y208346D01*
X160743Y207565D01*
X161524Y207043D01*
X162446Y206859D01*
X163367Y207043D01*
X164149Y207565D01*
X164671Y208346D01*
X164854Y209268D01*
X164671Y210189D01*
X164149Y210971D01*
X163367Y211493D01*
X162628Y211640D01*
X151588Y222680D01*
Y248835D01*
X151451Y249526D01*
X151059Y250112D01*
X136146Y265025D01*
Y290925D01*
X136565Y291551D01*
X136749Y292473D01*
X136565Y293395D01*
X136043Y294176D01*
X135262Y294698D01*
X134340Y294882D01*
D02*
G37*
G36*
X86769Y210495D02*
X85848Y210312D01*
X85066Y209790D01*
X84544Y209008D01*
X84361Y208087D01*
X84544Y207165D01*
X85066Y206384D01*
X85848Y205861D01*
X86769Y205678D01*
X87691Y205861D01*
X88318Y206280D01*
X154323D01*
X156925Y203679D01*
X157072Y202940D01*
X157594Y202158D01*
X158375Y201636D01*
X159297Y201453D01*
X160219Y201636D01*
X161000Y202158D01*
X161522Y202940D01*
X161705Y203861D01*
X161522Y204783D01*
X161000Y205564D01*
X160219Y206086D01*
X159479Y206234D01*
X156349Y209364D01*
X155763Y209755D01*
X155072Y209893D01*
X88318D01*
X87691Y210312D01*
X86769Y210495D01*
D02*
G37*
G36*
X192413Y204682D02*
X190051D01*
X189129Y204498D01*
X188348Y203976D01*
X187826Y203195D01*
X187642Y202273D01*
X187826Y201351D01*
X188348Y200570D01*
X189129Y200048D01*
X190051Y199865D01*
X192413D01*
X193335Y200048D01*
X194116Y200570D01*
X194638Y201351D01*
X194822Y202273D01*
X194638Y203195D01*
X194116Y203976D01*
X193335Y204498D01*
X192413Y204682D01*
D02*
G37*
G36*
X285195Y191278D02*
X280395D01*
X279934Y191187D01*
X279543Y190926D01*
X279282Y190535D01*
X279212Y190182D01*
X276540D01*
X275619Y189998D01*
X274837Y189476D01*
X271543Y186182D01*
X168940D01*
X168018Y185998D01*
X167237Y185476D01*
X136042Y154282D01*
X112045Y154282D01*
X111946Y154782D01*
X112482Y155004D01*
X113058Y155446D01*
X113499Y156021D01*
X113777Y156692D01*
X113872Y157411D01*
Y160368D01*
X113777Y161087D01*
X113499Y161758D01*
X113058Y162333D01*
X112482Y162775D01*
X111812Y163053D01*
X111092Y163147D01*
X110373Y163053D01*
X109702Y162775D01*
X109127Y162333D01*
X108685Y161758D01*
X108407Y161087D01*
X108312Y160368D01*
Y157411D01*
X108407Y156692D01*
X108685Y156021D01*
X109127Y155446D01*
X109702Y155004D01*
X110238Y154782D01*
X110139Y154282D01*
X104840D01*
X74740D01*
X73818Y154098D01*
X73037Y153576D01*
X67343Y147882D01*
X50975D01*
X50743Y148382D01*
X50911Y149225D01*
X50727Y150147D01*
X50205Y150928D01*
X49424Y151450D01*
X48502Y151634D01*
X47581Y151450D01*
X47024Y151078D01*
X46467Y151450D01*
X45546Y151634D01*
X44624Y151450D01*
X43843Y150928D01*
X43321Y150147D01*
X43137Y149225D01*
X43305Y148382D01*
X43073Y147882D01*
X34540D01*
X33619Y147698D01*
X32837Y147176D01*
X31328Y145668D01*
X22624D01*
X21703Y145484D01*
X20921Y144962D01*
X20399Y144181D01*
X20216Y143259D01*
X20399Y142337D01*
X20921Y141556D01*
X21703Y141034D01*
X22624Y140851D01*
X32326D01*
X33248Y141034D01*
X34029Y141556D01*
X35538Y143065D01*
X68340D01*
X69262Y143248D01*
X70043Y143770D01*
X75738Y149465D01*
X102332D01*
Y147129D01*
X101913Y146955D01*
X101337Y146513D01*
X100895Y145938D01*
X100618Y145267D01*
X100523Y144548D01*
X100618Y143828D01*
X100895Y143158D01*
X101337Y142582D01*
X101913Y142140D01*
X102583Y141863D01*
X103303Y141768D01*
X106259D01*
X106979Y141863D01*
X107649Y142140D01*
X108225Y142582D01*
X108667Y143158D01*
X108944Y143828D01*
X109039Y144548D01*
X108944Y145267D01*
X108667Y145938D01*
X108225Y146513D01*
X107649Y146955D01*
X107149Y147162D01*
Y149279D01*
X107335Y149465D01*
X137040Y149465D01*
X137962Y149648D01*
X138743Y150170D01*
X169938Y181365D01*
X272540D01*
X273462Y181548D01*
X274243Y182070D01*
X277538Y185365D01*
X279190D01*
Y185249D01*
X279282Y184788D01*
X279543Y184397D01*
X279934Y184136D01*
X280395Y184045D01*
X285195D01*
X285655Y184136D01*
X286046Y184397D01*
X286307Y184788D01*
X286399Y185249D01*
Y190074D01*
X286307Y190535D01*
X286046Y190926D01*
X285655Y191187D01*
X285195Y191278D01*
D02*
G37*
G36*
X34477Y195129D02*
X32994Y194934D01*
X31612Y194362D01*
X30425Y193451D01*
X29515Y192264D01*
X28942Y190882D01*
X28747Y189399D01*
X28942Y187916D01*
X29515Y186534D01*
X30425Y185347D01*
X31612Y184437D01*
X32994Y183864D01*
X34477Y183669D01*
X35960Y183864D01*
X37342Y184437D01*
X38529Y185347D01*
X39440Y186534D01*
X40012Y187916D01*
X40207Y189399D01*
X40012Y190882D01*
X39440Y192264D01*
X38529Y193451D01*
X37342Y194362D01*
X35960Y194934D01*
X34477Y195129D01*
D02*
G37*
G36*
X358079Y181854D02*
X350303D01*
X349842Y181762D01*
X349452Y181501D01*
X349191Y181110D01*
X349099Y180650D01*
Y173373D01*
X348599Y173130D01*
X348401Y173262D01*
X347940Y173354D01*
X342403D01*
X341942Y173262D01*
X341552Y173001D01*
X341445Y172841D01*
X341158Y172858D01*
X340896Y172920D01*
X340668Y173262D01*
X340277Y173523D01*
X339816Y173615D01*
X329900D01*
X329439Y173523D01*
X329048Y173262D01*
X328787Y172871D01*
X328696Y172410D01*
Y164635D01*
X328787Y164174D01*
X329048Y163783D01*
X329439Y163522D01*
X329900Y163431D01*
X339816D01*
X340277Y163522D01*
X340668Y163783D01*
X340798Y163978D01*
X340965Y164008D01*
X341358Y163964D01*
X341552Y163675D01*
X341942Y163414D01*
X342403Y163322D01*
X347940D01*
X348401Y163414D01*
X348792Y163675D01*
X349053Y164066D01*
X349144Y164526D01*
Y169510D01*
X349644Y169753D01*
X349842Y169621D01*
X350303Y169529D01*
X358079D01*
X358540Y169621D01*
X358930Y169881D01*
X359191Y170272D01*
X359283Y170733D01*
Y180650D01*
X359191Y181110D01*
X358930Y181501D01*
X358540Y181762D01*
X358079Y181854D01*
D02*
G37*
G36*
X53640Y291382D02*
X52719Y291198D01*
X51937Y290676D01*
X51415Y289895D01*
X51232Y288973D01*
X51415Y288052D01*
X51834Y287425D01*
Y206373D01*
X51971Y205682D01*
X52363Y205096D01*
X84063Y173396D01*
X84649Y173004D01*
X85340Y172867D01*
X124636D01*
X124979Y172935D01*
X125322Y173002D01*
X125324Y173004D01*
X125328Y173004D01*
X125618Y173199D01*
X125909Y173392D01*
X144643Y191999D01*
X145391Y192148D01*
X146173Y192670D01*
X146695Y193451D01*
X146878Y194373D01*
X146695Y195295D01*
X146173Y196076D01*
X145391Y196598D01*
X144470Y196782D01*
X143548Y196598D01*
X142767Y196076D01*
X142245Y195295D01*
X142099Y194565D01*
X123892Y176480D01*
X94196D01*
X93929Y176980D01*
X94256Y177468D01*
X94439Y178390D01*
X94256Y179312D01*
X93827Y179953D01*
X94293Y180649D01*
X94476Y181571D01*
X94293Y182493D01*
X93771Y183274D01*
X92989Y183796D01*
X92068Y183980D01*
X91146Y183796D01*
X90365Y183274D01*
X89843Y182493D01*
X89659Y181571D01*
X89843Y180649D01*
X90271Y180008D01*
X89806Y179312D01*
X89622Y178390D01*
X89806Y177468D01*
X90132Y176980D01*
X89865Y176480D01*
X86088D01*
X55446Y207121D01*
Y287425D01*
X55865Y288052D01*
X56049Y288973D01*
X55865Y289895D01*
X55343Y290676D01*
X54562Y291198D01*
X53640Y291382D01*
D02*
G37*
G36*
X30225Y178750D02*
X29304Y178567D01*
X28522Y178045D01*
X28000Y177263D01*
X27817Y176342D01*
X28000Y175420D01*
X28429Y174779D01*
X27963Y174082D01*
X27780Y173161D01*
X27963Y172239D01*
X28485Y171458D01*
X29267Y170935D01*
X30188Y170752D01*
X31110Y170935D01*
X31891Y171458D01*
X32413Y172239D01*
X32597Y173161D01*
X32413Y174082D01*
X31985Y174723D01*
X32450Y175420D01*
X32634Y176342D01*
X32450Y177263D01*
X31928Y178045D01*
X31147Y178567D01*
X30225Y178750D01*
D02*
G37*
G36*
X302565Y175443D02*
X297028D01*
X296568Y175352D01*
X296177Y175091D01*
X295916Y174700D01*
X295824Y174239D01*
Y166616D01*
X295916Y166155D01*
X296177Y165764D01*
X296568Y165503D01*
X297028Y165412D01*
X302565D01*
X303026Y165503D01*
X303417Y165764D01*
X303678Y166155D01*
X303770Y166616D01*
Y174239D01*
X303678Y174700D01*
X303417Y175091D01*
X303026Y175352D01*
X302565Y175443D01*
D02*
G37*
G36*
X221128Y166611D02*
X220206Y166427D01*
X219425Y165905D01*
X218902Y165124D01*
X218719Y164202D01*
X218902Y163280D01*
X219425Y162499D01*
X220206Y161977D01*
X221128Y161794D01*
X222049Y161977D01*
X222690Y162405D01*
X223387Y161940D01*
X224309Y161757D01*
X225230Y161940D01*
X226012Y162462D01*
X226534Y163243D01*
X226717Y164165D01*
X226534Y165087D01*
X226012Y165868D01*
X225230Y166390D01*
X224309Y166574D01*
X223387Y166390D01*
X222746Y165962D01*
X222049Y166427D01*
X221128Y166611D01*
D02*
G37*
G36*
X200728D02*
X199806Y166427D01*
X199024Y165905D01*
X198502Y165124D01*
X198319Y164202D01*
X198502Y163280D01*
X199024Y162499D01*
X199806Y161977D01*
X200728Y161794D01*
X201649Y161977D01*
X202290Y162405D01*
X202987Y161940D01*
X203909Y161757D01*
X204830Y161940D01*
X205612Y162462D01*
X206134Y163243D01*
X206317Y164165D01*
X206134Y165087D01*
X205612Y165868D01*
X204830Y166390D01*
X203909Y166574D01*
X202987Y166390D01*
X202346Y165962D01*
X201649Y166427D01*
X200728Y166611D01*
D02*
G37*
G36*
X180342D02*
X179420Y166427D01*
X178639Y165905D01*
X178117Y165124D01*
X177934Y164202D01*
X178117Y163280D01*
X178639Y162499D01*
X179420Y161977D01*
X180342Y161794D01*
X181264Y161977D01*
X181905Y162405D01*
X182601Y161940D01*
X183523Y161757D01*
X184445Y161940D01*
X185226Y162462D01*
X185748Y163243D01*
X185932Y164165D01*
X185748Y165087D01*
X185226Y165868D01*
X184445Y166390D01*
X183523Y166574D01*
X182601Y166390D01*
X181960Y165962D01*
X181264Y166427D01*
X180342Y166611D01*
D02*
G37*
G36*
X313913Y165859D02*
X312991Y165676D01*
X312210Y165154D01*
X311687Y164372D01*
X311504Y163450D01*
X311687Y162529D01*
X312210Y161747D01*
X312991Y161225D01*
X313376Y161149D01*
X315193Y159331D01*
X315844Y158896D01*
X316613Y158743D01*
X371271D01*
X371597Y158525D01*
X372519Y158342D01*
X373441Y158525D01*
X374222Y159047D01*
X374744Y159829D01*
X374927Y160750D01*
X374744Y161672D01*
X374222Y162453D01*
X373441Y162976D01*
X372519Y163159D01*
X371597Y162976D01*
X371271Y162758D01*
X317444D01*
X316214Y163987D01*
X316138Y164372D01*
X315616Y165154D01*
X314834Y165676D01*
X313913Y165859D01*
D02*
G37*
G36*
X28049Y166410D02*
X27330Y166315D01*
X26659Y166037D01*
X26084Y165595D01*
X25642Y165020D01*
X25364Y164349D01*
X25269Y163630D01*
Y160673D01*
X25364Y159954D01*
X25642Y159283D01*
X26084Y158708D01*
X26659Y158266D01*
X27330Y157988D01*
X28049Y157894D01*
X28769Y157988D01*
X29439Y158266D01*
X30015Y158708D01*
X30456Y159283D01*
X30734Y159954D01*
X30829Y160673D01*
Y163630D01*
X30734Y164349D01*
X30456Y165020D01*
X30015Y165595D01*
X29439Y166037D01*
X28769Y166315D01*
X28049Y166410D01*
D02*
G37*
G36*
X131545Y148372D02*
X130624Y148188D01*
X130067Y147816D01*
X129510Y148188D01*
X128589Y148372D01*
X127667Y148188D01*
X126886Y147666D01*
X126364Y146885D01*
X126180Y145963D01*
X126364Y145041D01*
X126886Y144260D01*
X127667Y143738D01*
X128589Y143554D01*
X129510Y143738D01*
X130067Y144110D01*
X130624Y143738D01*
X131545Y143554D01*
X132467Y143738D01*
X133248Y144260D01*
X133771Y145041D01*
X133954Y145963D01*
X133771Y146885D01*
X133248Y147666D01*
X132467Y148188D01*
X131545Y148372D01*
D02*
G37*
G36*
X203945Y154609D02*
X203023Y154426D01*
X202242Y153904D01*
X201720Y153122D01*
X201536Y152201D01*
X201720Y151279D01*
X201893Y151020D01*
X201720Y150760D01*
X201536Y149838D01*
X201720Y148917D01*
X202242Y148135D01*
X203023Y147613D01*
X203945Y147430D01*
X204867Y147613D01*
X205648Y148135D01*
X206170Y148917D01*
X206353Y149838D01*
X206170Y150760D01*
X205997Y151020D01*
X206170Y151279D01*
X206353Y152201D01*
X206170Y153122D01*
X205648Y153904D01*
X204867Y154426D01*
X203945Y154609D01*
D02*
G37*
G36*
X281432Y136372D02*
X279070D01*
X278350Y136277D01*
X277680Y135999D01*
X277104Y135557D01*
X276662Y134982D01*
X276385Y134311D01*
X276290Y133592D01*
X276385Y132872D01*
X276662Y132202D01*
X277104Y131626D01*
X277680Y131184D01*
X278350Y130907D01*
X279070Y130812D01*
X281432D01*
X282151Y130907D01*
X282822Y131184D01*
X283398Y131626D01*
X283839Y132202D01*
X284117Y132872D01*
X284212Y133592D01*
X284117Y134311D01*
X283839Y134982D01*
X283398Y135557D01*
X282822Y135999D01*
X282151Y136277D01*
X281432Y136372D01*
D02*
G37*
G36*
X295517Y128877D02*
X283040D01*
X282579Y128785D01*
X282189Y128524D01*
X281928Y128133D01*
X281836Y127673D01*
Y119897D01*
X281928Y119436D01*
X282189Y119045D01*
X282579Y118784D01*
X283040Y118693D01*
X295517D01*
X295977Y118784D01*
X296368Y119045D01*
X296629Y119436D01*
X296721Y119897D01*
Y127673D01*
X296629Y128133D01*
X296368Y128524D01*
X295977Y128785D01*
X295517Y128877D01*
D02*
G37*
G36*
X379060Y104761D02*
X376698D01*
X375979Y104666D01*
X375308Y104388D01*
X374732Y103947D01*
X374291Y103371D01*
X374013Y102701D01*
X373918Y101981D01*
X374013Y101262D01*
X374291Y100591D01*
X374732Y100016D01*
X375308Y99574D01*
X375979Y99296D01*
X376698Y99202D01*
X379060D01*
X379780Y99296D01*
X380450Y99574D01*
X381026Y100016D01*
X381468Y100591D01*
X381745Y101262D01*
X381840Y101981D01*
X381745Y102701D01*
X381468Y103371D01*
X381026Y103947D01*
X380450Y104388D01*
X379780Y104666D01*
X379060Y104761D01*
D02*
G37*
G36*
X165629Y101883D02*
X164707Y101699D01*
X163926Y101177D01*
X163404Y100396D01*
X163221Y99474D01*
X163404Y98552D01*
X163832Y97911D01*
X163367Y97215D01*
X163184Y96293D01*
X163367Y95371D01*
X163889Y94590D01*
X164670Y94068D01*
X165592Y93884D01*
X166514Y94068D01*
X167295Y94590D01*
X167817Y95371D01*
X168001Y96293D01*
X167817Y97215D01*
X167389Y97856D01*
X167854Y98552D01*
X168038Y99474D01*
X167854Y100396D01*
X167332Y101177D01*
X166551Y101699D01*
X165629Y101883D01*
D02*
G37*
G36*
X77921Y100982D02*
X77000Y100798D01*
X76218Y100276D01*
X75696Y99495D01*
X75513Y98573D01*
X75696Y97651D01*
X76183Y96923D01*
X75696Y96195D01*
X75513Y95273D01*
X75696Y94352D01*
X76218Y93570D01*
X77000Y93048D01*
X77921Y92865D01*
X78843Y93048D01*
X79624Y93570D01*
X80146Y94352D01*
X80330Y95273D01*
X80146Y96195D01*
X79660Y96923D01*
X80146Y97651D01*
X80330Y98573D01*
X80146Y99495D01*
X79624Y100276D01*
X78843Y100798D01*
X77921Y100982D01*
D02*
G37*
G36*
X311640Y97465D02*
X299000D01*
X298539Y97373D01*
X298148Y97112D01*
X297887Y96722D01*
X297796Y96261D01*
Y87500D01*
X297887Y87039D01*
X298148Y86648D01*
X298539Y86387D01*
X299000Y86296D01*
X311640D01*
X312101Y86387D01*
X312492Y86648D01*
X312753Y87039D01*
X312844Y87500D01*
Y96261D01*
X312753Y96722D01*
X312492Y97112D01*
X312101Y97373D01*
X311640Y97465D01*
D02*
G37*
G36*
X383740Y83016D02*
X368899D01*
X368438Y82924D01*
X368048Y82663D01*
X367787Y82273D01*
X367695Y81812D01*
Y71895D01*
X367787Y71434D01*
X368048Y71044D01*
X368438Y70783D01*
X368899Y70691D01*
X383740D01*
X384201Y70783D01*
X384592Y71044D01*
X384853Y71434D01*
X384944Y71895D01*
Y81812D01*
X384853Y82273D01*
X384592Y82663D01*
X384201Y82924D01*
X383740Y83016D01*
D02*
G37*
G36*
X271979Y86352D02*
X262062D01*
X261601Y86261D01*
X261211Y86000D01*
X260950Y85609D01*
X260858Y85148D01*
Y77410D01*
X260858Y77410D01*
Y70273D01*
X260950Y69812D01*
X261211Y69422D01*
X261601Y69161D01*
X262062Y69069D01*
X271979D01*
X272440Y69161D01*
X272830Y69422D01*
X273091Y69812D01*
X273183Y70273D01*
Y77372D01*
X273183Y77373D01*
Y85148D01*
X273091Y85609D01*
X272830Y86000D01*
X272440Y86261D01*
X271979Y86352D01*
D02*
G37*
G36*
X38535Y75926D02*
X37613Y75743D01*
X36832Y75221D01*
X36309Y74439D01*
X36126Y73518D01*
X36309Y72596D01*
X36483Y72337D01*
X36309Y72077D01*
X36126Y71156D01*
X36309Y70234D01*
X36832Y69452D01*
X37613Y68930D01*
X38535Y68747D01*
X39456Y68930D01*
X40238Y69452D01*
X40760Y70234D01*
X40943Y71156D01*
X40760Y72077D01*
X40587Y72337D01*
X40760Y72596D01*
X40943Y73518D01*
X40760Y74439D01*
X40238Y75221D01*
X39456Y75743D01*
X38535Y75926D01*
D02*
G37*
G36*
X125125Y75902D02*
X124203Y75719D01*
X123422Y75197D01*
X122900Y74416D01*
X122717Y73494D01*
X122900Y72572D01*
X123073Y72313D01*
X122900Y72053D01*
X122717Y71132D01*
X122900Y70210D01*
X123422Y69429D01*
X124203Y68907D01*
X125125Y68723D01*
X126047Y68907D01*
X126828Y69429D01*
X127350Y70210D01*
X127534Y71132D01*
X127350Y72053D01*
X127177Y72313D01*
X127350Y72572D01*
X127534Y73494D01*
X127350Y74416D01*
X126828Y75197D01*
X126047Y75719D01*
X125125Y75902D01*
D02*
G37*
G36*
X223702Y60244D02*
X223692Y60242D01*
X221350D01*
X221340Y60244D01*
X221329Y60242D01*
X220102D01*
X219641Y60150D01*
X219250Y59889D01*
X218989Y59499D01*
X218898Y59038D01*
Y54238D01*
X218989Y53777D01*
X219250Y53386D01*
X219641Y53125D01*
X220102Y53033D01*
X224927D01*
X225388Y53125D01*
X225779Y53386D01*
X226040Y53777D01*
X226132Y54238D01*
Y59038D01*
X226040Y59499D01*
X225779Y59889D01*
X225388Y60150D01*
X224927Y60242D01*
X223712D01*
X223702Y60244D01*
D02*
G37*
G36*
X43532Y65893D02*
Y59876D01*
X47710D01*
Y60861D01*
X47534Y62197D01*
X47019Y63442D01*
X46198Y64511D01*
X45129Y65331D01*
X43884Y65847D01*
X43532Y65893D01*
D02*
G37*
G36*
X130146Y65893D02*
Y59876D01*
X134324D01*
Y60861D01*
X134149Y62197D01*
X133633Y63442D01*
X132812Y64511D01*
X131743Y65331D01*
X130498Y65847D01*
X130146Y65893D01*
D02*
G37*
G36*
X289840Y67107D02*
X274941D01*
X274480Y67015D01*
X274089Y66754D01*
X273828Y66363D01*
X273737Y65902D01*
Y55986D01*
X273828Y55525D01*
X274089Y55134D01*
X274480Y54873D01*
X274941Y54782D01*
X289840D01*
X290301Y54873D01*
X290692Y55134D01*
X290953Y55525D01*
X291044Y55986D01*
Y65902D01*
X290953Y66363D01*
X290692Y66754D01*
X290301Y67015D01*
X289840Y67107D01*
D02*
G37*
G36*
X32548Y66023D02*
X31212Y65847D01*
X29967Y65331D01*
X28898Y64511D01*
X28077Y63442D01*
X27562Y62197D01*
X27386Y60861D01*
Y56924D01*
X27562Y55588D01*
X28077Y54343D01*
X28898Y53273D01*
X29967Y52453D01*
X31212Y51937D01*
X32548Y51761D01*
X33884Y51937D01*
X35129Y52453D01*
X36198Y53273D01*
X37019Y54343D01*
X37277Y54967D01*
X37819D01*
X38077Y54343D01*
X38898Y53273D01*
X39967Y52453D01*
X41212Y51937D01*
X41564Y51891D01*
Y58892D01*
Y65893D01*
X41212Y65847D01*
X39967Y65331D01*
X38898Y64511D01*
X38077Y63442D01*
X37819Y62817D01*
X37277D01*
X37019Y63442D01*
X36198Y64511D01*
X35129Y65331D01*
X33884Y65847D01*
X32548Y66023D01*
D02*
G37*
G36*
X119162D02*
X117826Y65847D01*
X116581Y65331D01*
X115512Y64511D01*
X114691Y63442D01*
X114176Y62197D01*
X114000Y60861D01*
Y56924D01*
X114176Y55588D01*
X114691Y54343D01*
X115512Y53273D01*
X116581Y52453D01*
X117826Y51937D01*
X119162Y51761D01*
X120498Y51937D01*
X121743Y52453D01*
X122812Y53273D01*
X123633Y54343D01*
X123892Y54967D01*
X124433D01*
X124691Y54343D01*
X125512Y53273D01*
X126581Y52453D01*
X127826Y51937D01*
X128178Y51891D01*
Y58892D01*
Y65893D01*
X127826Y65847D01*
X126581Y65331D01*
X125512Y64511D01*
X124691Y63442D01*
X124433Y62817D01*
X123892D01*
X123633Y63442D01*
X122812Y64511D01*
X121743Y65331D01*
X120498Y65847D01*
X119162Y66023D01*
D02*
G37*
G36*
X134324Y57908D02*
X130146D01*
Y51891D01*
X130498Y51937D01*
X131743Y52453D01*
X132812Y53273D01*
X133633Y54343D01*
X134149Y55588D01*
X134324Y56924D01*
Y57908D01*
D02*
G37*
G36*
X47710Y57908D02*
X43532D01*
Y51891D01*
X43884Y51937D01*
X45129Y52453D01*
X46198Y53273D01*
X47019Y54343D01*
X47534Y55588D01*
X47710Y56924D01*
Y57908D01*
D02*
G37*
G36*
X208565Y57642D02*
X203740D01*
X203279Y57550D01*
X202889Y57289D01*
X202628Y56898D01*
X202536Y56438D01*
Y51638D01*
X202628Y51177D01*
X202889Y50786D01*
X203279Y50525D01*
X203740Y50433D01*
X208565D01*
X209026Y50525D01*
X209417Y50786D01*
X209678Y51177D01*
X209770Y51638D01*
Y56438D01*
X209678Y56898D01*
X209417Y57289D01*
X209026Y57550D01*
X208565Y57642D01*
D02*
G37*
G36*
X312540Y51477D02*
X301540D01*
X301079Y51386D01*
X300689Y51125D01*
X300428Y50734D01*
X300336Y50273D01*
Y42073D01*
X300428Y41612D01*
X300689Y41222D01*
X301079Y40961D01*
X301540Y40869D01*
X312540D01*
X313001Y40961D01*
X313392Y41222D01*
X313653Y41612D01*
X313744Y42073D01*
Y50273D01*
X313653Y50734D01*
X313392Y51125D01*
X313001Y51386D01*
X312540Y51477D01*
D02*
G37*
G36*
X267265Y47377D02*
X262440D01*
X261979Y47286D01*
X261589Y47025D01*
X261328Y46634D01*
X261236Y46173D01*
Y41373D01*
X261328Y40912D01*
X261589Y40522D01*
X261979Y40261D01*
X262440Y40169D01*
X267265D01*
X267726Y40261D01*
X268117Y40522D01*
X268378Y40912D01*
X268470Y41373D01*
Y46173D01*
X268378Y46634D01*
X268117Y47025D01*
X267726Y47286D01*
X267265Y47377D01*
D02*
G37*
G36*
X255965Y47342D02*
X251140D01*
X250679Y47250D01*
X250289Y46989D01*
X250028Y46599D01*
X249936Y46138D01*
Y41338D01*
X250028Y40877D01*
X250289Y40486D01*
X250679Y40225D01*
X251140Y40133D01*
X255965D01*
X256426Y40225D01*
X256817Y40486D01*
X257078Y40877D01*
X257170Y41338D01*
Y46138D01*
X257078Y46599D01*
X256817Y46989D01*
X256426Y47250D01*
X255965Y47342D01*
D02*
G37*
G36*
X328808Y42090D02*
X318965D01*
X317629Y41915D01*
X316384Y41399D01*
X315315Y40578D01*
X314495Y39509D01*
X313979Y38264D01*
X313803Y36928D01*
X313979Y35592D01*
X314495Y34347D01*
X315315Y33278D01*
X316384Y32458D01*
X317629Y31942D01*
X318965Y31766D01*
X328808D01*
X330144Y31942D01*
X331389Y32458D01*
X332458Y33278D01*
X333279Y34347D01*
X333794Y35592D01*
X333970Y36928D01*
X333794Y38264D01*
X333279Y39509D01*
X332458Y40578D01*
X331389Y41399D01*
X330144Y41915D01*
X328808Y42090D01*
D02*
G37*
G36*
X139162Y46606D02*
X137657Y46458D01*
X136210Y46019D01*
X134876Y45306D01*
X133707Y44347D01*
X132748Y43178D01*
X132035Y41844D01*
X131596Y40397D01*
X131448Y38892D01*
X131596Y37387D01*
X132035Y35940D01*
X132748Y34606D01*
X133707Y33437D01*
X134876Y32478D01*
X136210Y31765D01*
X137657Y31326D01*
X139162Y31178D01*
X140667Y31326D01*
X142114Y31765D01*
X143448Y32478D01*
X144617Y33437D01*
X145576Y34606D01*
X146289Y35940D01*
X146728Y37387D01*
X146877Y38892D01*
X146728Y40397D01*
X146289Y41844D01*
X145576Y43178D01*
X144617Y44347D01*
X143448Y45306D01*
X142114Y46019D01*
X140667Y46458D01*
X139162Y46606D01*
D02*
G37*
G36*
X99162D02*
X97657Y46458D01*
X96210Y46019D01*
X94876Y45306D01*
X93707Y44347D01*
X92748Y43178D01*
X92035Y41844D01*
X91596Y40397D01*
X91448Y38892D01*
X91596Y37387D01*
X92035Y35940D01*
X92748Y34606D01*
X93707Y33437D01*
X94876Y32478D01*
X96210Y31765D01*
X97657Y31326D01*
X99162Y31178D01*
X100667Y31326D01*
X102114Y31765D01*
X103448Y32478D01*
X104617Y33437D01*
X105576Y34606D01*
X106289Y35940D01*
X106728Y37387D01*
X106877Y38892D01*
X106728Y40397D01*
X106289Y41844D01*
X105576Y43178D01*
X104617Y44347D01*
X103448Y45306D01*
X102114Y46019D01*
X100667Y46458D01*
X99162Y46606D01*
D02*
G37*
G36*
X52548D02*
X51043Y46458D01*
X49596Y46019D01*
X48262Y45306D01*
X47093Y44347D01*
X46134Y43178D01*
X45421Y41844D01*
X44982Y40397D01*
X44834Y38892D01*
X44982Y37387D01*
X45421Y35940D01*
X46134Y34606D01*
X47093Y33437D01*
X48262Y32478D01*
X49596Y31765D01*
X51043Y31326D01*
X52548Y31178D01*
X54053Y31326D01*
X55500Y31765D01*
X56834Y32478D01*
X58003Y33437D01*
X58962Y34606D01*
X59675Y35940D01*
X60114Y37387D01*
X60262Y38892D01*
X60114Y40397D01*
X59675Y41844D01*
X58962Y43178D01*
X58003Y44347D01*
X56834Y45306D01*
X55500Y46019D01*
X54053Y46458D01*
X52548Y46606D01*
D02*
G37*
G36*
X12548D02*
X11043Y46458D01*
X9596Y46019D01*
X8262Y45306D01*
X7093Y44347D01*
X6134Y43178D01*
X5421Y41844D01*
X4982Y40397D01*
X4834Y38892D01*
X4982Y37387D01*
X5421Y35940D01*
X6134Y34606D01*
X7093Y33437D01*
X8262Y32478D01*
X9596Y31765D01*
X11043Y31326D01*
X12548Y31178D01*
X14053Y31326D01*
X15500Y31765D01*
X16834Y32478D01*
X18003Y33437D01*
X18962Y34606D01*
X19675Y35940D01*
X20114Y37387D01*
X20262Y38892D01*
X20114Y40397D01*
X19675Y41844D01*
X18962Y43178D01*
X18003Y44347D01*
X16834Y45306D01*
X15500Y46019D01*
X14053Y46458D01*
X12548Y46606D01*
D02*
G37*
G36*
X212823Y34590D02*
Y30542D01*
X216871D01*
X216825Y30894D01*
X216309Y32139D01*
X215489Y33208D01*
X214420Y34028D01*
X213175Y34544D01*
X212823Y34590D01*
D02*
G37*
G36*
X210854Y34590D02*
X210503Y34544D01*
X209258Y34028D01*
X208188Y33208D01*
X207368Y32139D01*
X206852Y30894D01*
X206806Y30542D01*
X210854D01*
Y34590D01*
D02*
G37*
G36*
X362853Y39080D02*
X355077D01*
X354616Y38988D01*
X354226Y38727D01*
X353965Y38337D01*
X353873Y37876D01*
Y27959D01*
X353965Y27498D01*
X354226Y27108D01*
X354616Y26847D01*
X355077Y26755D01*
X362853D01*
X363314Y26847D01*
X363704Y27108D01*
X363965Y27498D01*
X364057Y27959D01*
Y37876D01*
X363965Y38337D01*
X363704Y38727D01*
X363314Y38988D01*
X362853Y39080D01*
D02*
G37*
G36*
X174536Y36922D02*
Y24951D01*
X186506D01*
X186423Y26006D01*
X185946Y27994D01*
X185163Y29884D01*
X184095Y31627D01*
X182766Y33182D01*
X181211Y34510D01*
X179468Y35579D01*
X177578Y36362D01*
X175590Y36839D01*
X174536Y36922D01*
D02*
G37*
G36*
X272921Y36922D02*
Y24951D01*
X284892D01*
X284809Y26006D01*
X284332Y27994D01*
X283549Y29884D01*
X282481Y31627D01*
X281152Y33182D01*
X279597Y34510D01*
X277854Y35579D01*
X275964Y36362D01*
X273976Y36839D01*
X272921Y36922D01*
D02*
G37*
G36*
X270953Y36922D02*
X269898Y36839D01*
X267910Y36362D01*
X266021Y35579D01*
X264277Y34510D01*
X262722Y33182D01*
X261394Y31627D01*
X260325Y29884D01*
X259543Y27994D01*
X259065Y26006D01*
X258982Y24951D01*
X270953D01*
Y36922D01*
D02*
G37*
G36*
X172567Y36922D02*
X171513Y36839D01*
X169524Y36362D01*
X167635Y35579D01*
X165891Y34510D01*
X164336Y33182D01*
X163008Y31627D01*
X161940Y29884D01*
X161157Y27994D01*
X160679Y26006D01*
X160597Y24951D01*
X172567D01*
Y36922D01*
D02*
G37*
G36*
X210854Y28573D02*
X206806D01*
X206852Y28222D01*
X207368Y26976D01*
X208188Y25907D01*
X209258Y25087D01*
X210503Y24571D01*
X210854Y24525D01*
Y28573D01*
D02*
G37*
G36*
X216871D02*
X212823D01*
Y24525D01*
X213175Y24571D01*
X214420Y25087D01*
X215489Y25907D01*
X216309Y26976D01*
X216825Y28222D01*
X216871Y28573D01*
D02*
G37*
G36*
X249673Y34676D02*
X239437D01*
Y24440D01*
X249673D01*
Y34676D01*
D02*
G37*
G36*
X233650Y34720D02*
X232314Y34544D01*
X231069Y34028D01*
X229999Y33208D01*
X229179Y32139D01*
X228663Y30894D01*
X228487Y29558D01*
X228663Y28222D01*
X229179Y26976D01*
X229999Y25907D01*
X231069Y25087D01*
X232314Y24571D01*
X233650Y24395D01*
X234986Y24571D01*
X236231Y25087D01*
X237300Y25907D01*
X238120Y26976D01*
X238636Y28222D01*
X238812Y29558D01*
X238636Y30894D01*
X238120Y32139D01*
X237300Y33208D01*
X236231Y34028D01*
X234986Y34544D01*
X233650Y34720D01*
D02*
G37*
G36*
X222744D02*
X221408Y34544D01*
X220163Y34028D01*
X219094Y33208D01*
X218274Y32139D01*
X217758Y30894D01*
X217582Y29558D01*
X217758Y28222D01*
X218274Y26977D01*
X219094Y25907D01*
X220163Y25087D01*
X221408Y24571D01*
X222744Y24395D01*
X224080Y24571D01*
X225325Y25087D01*
X226395Y25907D01*
X227215Y26977D01*
X227731Y28222D01*
X227906Y29558D01*
X227731Y30894D01*
X227215Y32139D01*
X226395Y33208D01*
X225325Y34028D01*
X224080Y34544D01*
X222744Y34720D01*
D02*
G37*
G36*
X200933D02*
X199597Y34544D01*
X198352Y34028D01*
X197283Y33208D01*
X196463Y32139D01*
X195947Y30894D01*
X195771Y29558D01*
X195947Y28222D01*
X196463Y26977D01*
X197283Y25907D01*
X198352Y25087D01*
X199597Y24571D01*
X200933Y24395D01*
X202269Y24571D01*
X203514Y25087D01*
X204584Y25907D01*
X205404Y26977D01*
X205920Y28222D01*
X206096Y29558D01*
X205920Y30894D01*
X205404Y32139D01*
X204584Y33208D01*
X203514Y34028D01*
X202269Y34544D01*
X200933Y34720D01*
D02*
G37*
G36*
X328808Y19256D02*
X325462D01*
Y15668D01*
X333695D01*
X333279Y16675D01*
X332458Y17744D01*
X331389Y18564D01*
X330144Y19080D01*
X328808Y19256D01*
D02*
G37*
G36*
X322312D02*
X318965D01*
X317629Y19080D01*
X316384Y18564D01*
X315315Y17744D01*
X314495Y16675D01*
X314078Y15668D01*
X322312D01*
Y19256D01*
D02*
G37*
G36*
X342784Y35201D02*
X341448Y35025D01*
X340203Y34509D01*
X339134Y33689D01*
X338314Y32620D01*
X337798Y31374D01*
X337622Y30038D01*
Y20196D01*
X337798Y18860D01*
X338314Y17615D01*
X339134Y16546D01*
X340203Y15725D01*
X341448Y15210D01*
X342784Y15034D01*
X344120Y15210D01*
X345366Y15725D01*
X346435Y16546D01*
X347255Y17615D01*
X347771Y18860D01*
X347947Y20196D01*
Y30038D01*
X347771Y31374D01*
X347255Y32620D01*
X346435Y33689D01*
X345366Y34509D01*
X344120Y35025D01*
X342784Y35201D01*
D02*
G37*
G36*
X239103Y23539D02*
X237766Y23363D01*
X236521Y22847D01*
X235452Y22027D01*
X234632Y20958D01*
X234116Y19713D01*
X233940Y18377D01*
X234116Y17041D01*
X234632Y15795D01*
X235452Y14726D01*
X236521Y13906D01*
X237766Y13390D01*
X239103Y13214D01*
X240439Y13390D01*
X241684Y13906D01*
X242753Y14726D01*
X243573Y15795D01*
X244089Y17041D01*
X244265Y18377D01*
X244089Y19713D01*
X243573Y20958D01*
X242753Y22027D01*
X241684Y22847D01*
X240439Y23363D01*
X239103Y23539D01*
D02*
G37*
G36*
X228197D02*
X226861Y23363D01*
X225616Y22847D01*
X224547Y22027D01*
X223726Y20958D01*
X223211Y19713D01*
X223035Y18377D01*
X223211Y17041D01*
X223726Y15795D01*
X224547Y14726D01*
X225616Y13906D01*
X226861Y13390D01*
X228197Y13214D01*
X229533Y13390D01*
X230778Y13906D01*
X231847Y14726D01*
X232668Y15795D01*
X233183Y17041D01*
X233359Y18377D01*
X233183Y19713D01*
X232668Y20958D01*
X231847Y22027D01*
X230778Y22847D01*
X229533Y23363D01*
X228197Y23539D01*
D02*
G37*
G36*
X217291D02*
X215955Y23363D01*
X214710Y22847D01*
X213641Y22027D01*
X212821Y20958D01*
X212305Y19713D01*
X212129Y18377D01*
X212305Y17041D01*
X212821Y15795D01*
X213641Y14726D01*
X214710Y13906D01*
X215955Y13390D01*
X217291Y13214D01*
X218628Y13390D01*
X219873Y13906D01*
X220942Y14726D01*
X221762Y15795D01*
X222278Y17041D01*
X222454Y18377D01*
X222278Y19713D01*
X221762Y20958D01*
X220942Y22027D01*
X219873Y22847D01*
X218628Y23363D01*
X217291Y23539D01*
D02*
G37*
G36*
X206386D02*
X205050Y23363D01*
X203805Y22847D01*
X202736Y22027D01*
X201915Y20958D01*
X201400Y19713D01*
X201224Y18377D01*
X201400Y17041D01*
X201915Y15795D01*
X202736Y14726D01*
X203805Y13906D01*
X205050Y13390D01*
X206386Y13214D01*
X207722Y13390D01*
X208967Y13906D01*
X210036Y14726D01*
X210857Y15795D01*
X211372Y17041D01*
X211548Y18377D01*
X211372Y19713D01*
X210857Y20958D01*
X210036Y22027D01*
X208967Y22847D01*
X207722Y23363D01*
X206386Y23539D01*
D02*
G37*
G36*
X270953Y22983D02*
X258982D01*
X259065Y21928D01*
X259543Y19940D01*
X260325Y18051D01*
X261394Y16307D01*
X262722Y14752D01*
X264277Y13424D01*
X266021Y12355D01*
X267910Y11573D01*
X269898Y11095D01*
X270953Y11012D01*
Y22983D01*
D02*
G37*
G36*
X186506D02*
X174536D01*
Y11012D01*
X175590Y11095D01*
X177578Y11573D01*
X179468Y12355D01*
X181211Y13424D01*
X182766Y14752D01*
X184095Y16307D01*
X185163Y18051D01*
X185946Y19940D01*
X186423Y21928D01*
X186506Y22983D01*
D02*
G37*
G36*
X172567D02*
X160597D01*
X160679Y21928D01*
X161157Y19940D01*
X161940Y18051D01*
X163008Y16307D01*
X164336Y14752D01*
X165891Y13424D01*
X167635Y12355D01*
X169524Y11573D01*
X171513Y11095D01*
X172567Y11012D01*
Y22983D01*
D02*
G37*
G36*
X284892D02*
X272921D01*
Y11012D01*
X273976Y11095D01*
X275964Y11573D01*
X277854Y12355D01*
X279597Y13424D01*
X281152Y14752D01*
X282481Y16307D01*
X283549Y18051D01*
X284332Y19940D01*
X284809Y21928D01*
X284892Y22983D01*
D02*
G37*
G36*
X333695Y12519D02*
X325462D01*
Y8931D01*
X328808D01*
X330144Y9107D01*
X331389Y9623D01*
X332458Y10443D01*
X333279Y11512D01*
X333695Y12519D01*
D02*
G37*
G36*
X322312D02*
X314078D01*
X314495Y11512D01*
X315315Y10443D01*
X316384Y9623D01*
X317629Y9107D01*
X318965Y8931D01*
X322312D01*
Y12519D01*
D02*
G37*
G36*
X381957Y23984D02*
X380519Y23794D01*
X379178Y23239D01*
X378026Y22355D01*
X377143Y21204D01*
X376588Y19863D01*
X376398Y18424D01*
Y11338D01*
X376588Y9899D01*
X377143Y8558D01*
X378026Y7407D01*
X379178Y6523D01*
X380519Y5968D01*
X381957Y5778D01*
X383396Y5968D01*
X384737Y6523D01*
X385889Y7407D01*
X386772Y8558D01*
X387327Y9899D01*
X387517Y11338D01*
Y18424D01*
X387327Y19863D01*
X386772Y21204D01*
X385889Y22355D01*
X384737Y23239D01*
X383396Y23794D01*
X381957Y23984D01*
D02*
G37*
G36*
X368180D02*
X366741Y23794D01*
X365400Y23239D01*
X364249Y22355D01*
X363365Y21204D01*
X362810Y19863D01*
X362620Y18424D01*
Y11338D01*
X362810Y9899D01*
X363365Y8558D01*
X364249Y7407D01*
X365400Y6523D01*
X366741Y5968D01*
X368180Y5778D01*
X369619Y5968D01*
X370959Y6523D01*
X372111Y7407D01*
X372994Y8558D01*
X373550Y9899D01*
X373739Y11338D01*
Y18424D01*
X373550Y19863D01*
X372994Y21204D01*
X372111Y22355D01*
X370959Y23239D01*
X369619Y23794D01*
X368180Y23984D01*
D02*
G37*
%LPD*%
G36*
X107140Y150973D02*
X105240Y149073D01*
X104740D01*
X104640Y148973D01*
X102540Y151073D01*
Y151873D01*
X107140Y150973D01*
D02*
G37*
D11*
X74740Y151873D02*
X104840D01*
X68340Y145473D02*
X74740Y151873D01*
X104740Y151773D02*
X104840Y151873D01*
X349168Y295861D02*
Y298223D01*
X141351Y231712D02*
X143713D01*
X190051Y202273D02*
X192413D01*
X206367Y289428D02*
X208730D01*
X104740Y144548D02*
Y151773D01*
X104840Y151873D02*
X137040Y151873D01*
X276540Y187773D02*
X282740D01*
X25581Y143259D02*
X32326D01*
X22624D02*
X25581D01*
X32326D02*
X34540Y145473D01*
X68340D01*
X137040Y151873D02*
X168940Y183773D01*
X272540D01*
X276540Y187773D01*
X208440Y249584D02*
X210240Y251384D01*
D13*
X149782Y221932D02*
X162446Y209268D01*
X149782Y221932D02*
Y248835D01*
X155072Y208087D02*
X159297Y203861D01*
X86769Y208087D02*
X155072D01*
X161540Y286773D02*
X194114D01*
X134340Y264277D02*
X149782Y248835D01*
X134340Y264277D02*
Y292473D01*
X85340Y174673D02*
X124636D01*
X53640Y206373D02*
X85340Y174673D01*
X53640Y206373D02*
Y288973D01*
X124636Y174673D02*
X144470Y194373D01*
X194114Y286773D02*
X198688Y282200D01*
D90*
X111092Y157411D02*
Y160368D01*
X28049Y160673D02*
Y163630D01*
X279011Y236684D02*
Y239046D01*
X346640Y215304D02*
Y217667D01*
X376698Y101981D02*
X379060D01*
X279070Y133592D02*
X281432D01*
X349168Y295861D02*
Y298223D01*
X104740Y144548D02*
X106259D01*
X103303D02*
X104740D01*
X301308Y293728D02*
X303608D01*
X340221Y315654D02*
Y318016D01*
D93*
X316613Y160750D02*
X372519D01*
X313913Y163450D02*
X316613Y160750D01*
X105940Y267077D02*
Y292667D01*
X123657Y267077D02*
Y292667D01*
X321991Y241373D02*
X362334D01*
X316291Y247073D02*
X321991Y241373D01*
D109*
X282390Y60944D02*
D03*
D112*
X282795Y187661D02*
D03*
X287039Y320232D02*
D03*
D113*
X307040Y46173D02*
D03*
D116*
X267331Y317345D02*
D03*
X257384Y309007D02*
D03*
X243803D02*
D03*
X230222D02*
D03*
X161488Y335663D02*
D03*
X42453Y326338D02*
D03*
X95631Y348838D02*
D03*
X112022Y363896D02*
D03*
X169353Y356238D02*
D03*
X222515Y56638D02*
D03*
X206153Y54038D02*
D03*
X253553Y43738D02*
D03*
X264853Y43773D02*
D03*
D119*
X350202Y330373D02*
D03*
D120*
X382610Y216653D02*
D03*
D121*
X375191Y216654D02*
D03*
X354191Y175691D02*
D03*
X358965Y32917D02*
D03*
D126*
X334858Y168523D02*
D03*
X267021Y81260D02*
D03*
D131*
X123657Y292667D02*
D03*
Y267077D02*
D03*
X105940D02*
D03*
Y292667D02*
D03*
D132*
X34477Y219399D02*
D03*
Y189399D02*
D03*
D133*
X200933Y29558D02*
D03*
X206386Y18377D02*
D03*
X211839Y29558D02*
D03*
X217291Y18377D02*
D03*
X222744Y29558D02*
D03*
X228197Y18377D02*
D03*
X233650Y29558D02*
D03*
X239103Y18377D02*
D03*
X20221Y342288D02*
D03*
X30220D02*
D03*
X25221Y352288D02*
D03*
X55221D02*
D03*
X50221Y342288D02*
D03*
X40220D02*
D03*
X45221Y352288D02*
D03*
X35221D02*
D03*
X248764D02*
D03*
X258764D02*
D03*
X253764Y342288D02*
D03*
X233764D02*
D03*
X263764D02*
D03*
X268764Y352288D02*
D03*
X238764D02*
D03*
X243764Y342288D02*
D03*
X343134D02*
D03*
X338134Y352288D02*
D03*
X368134D02*
D03*
X363134Y342288D02*
D03*
X333134D02*
D03*
X353134D02*
D03*
X358134Y352288D02*
D03*
X348134D02*
D03*
D134*
X244555Y29558D02*
D03*
D135*
X271937Y23967D02*
D03*
X173551D02*
D03*
D136*
X60220Y377288D02*
D03*
X15221D02*
D03*
X228764D02*
D03*
X273764D02*
D03*
X373134D02*
D03*
X328134D02*
D03*
D137*
X226760Y291080D02*
D03*
Y281080D02*
D03*
Y271080D02*
D03*
Y261080D02*
D03*
Y251080D02*
D03*
X76041Y306673D02*
D03*
Y296673D02*
D03*
D138*
X163154Y376993D02*
D03*
X176931D02*
D03*
X190711D02*
D03*
X125750D02*
D03*
X111970D02*
D03*
X98193D02*
D03*
X368180Y14881D02*
D03*
X381957D02*
D03*
D139*
X32548Y58892D02*
D03*
X42548D02*
D03*
X129162D02*
D03*
X119162D02*
D03*
D140*
X52548Y38892D02*
D03*
X12548D02*
D03*
X99162D02*
D03*
X139162D02*
D03*
D141*
X323887Y14094D02*
D03*
Y36928D02*
D03*
D142*
X342784Y25117D02*
D03*
D143*
X295276Y364173D02*
D03*
X78740Y29528D02*
D03*
Y364173D02*
D03*
X295276Y29528D02*
D03*
D144*
X90423Y211900D02*
D03*
X106400Y226621D02*
D03*
X109998Y262057D02*
D03*
X100340Y251200D02*
D03*
X11600Y255252D02*
D03*
X10000Y274600D02*
D03*
X25240Y277000D02*
D03*
X16969Y292500D02*
D03*
X21121Y284900D02*
D03*
X28900Y284000D02*
D03*
X17910Y325100D02*
D03*
X28900Y335600D02*
D03*
X21500Y335900D02*
D03*
X24900Y331040D02*
D03*
X24840Y316089D02*
D03*
Y313727D02*
D03*
X138500Y278118D02*
D03*
X57400Y285200D02*
D03*
X26384Y242227D02*
D03*
X33300Y250427D02*
D03*
X31000Y250527D02*
D03*
X26384Y244627D02*
D03*
X149400Y215073D02*
D03*
X59100Y358000D02*
D03*
X45100Y359400D02*
D03*
X35491Y359300D02*
D03*
X25235Y359500D02*
D03*
X19300Y348900D02*
D03*
X31440Y326200D02*
D03*
X42540Y50400D02*
D03*
X42572Y67258D02*
D03*
X48900Y58800D02*
D03*
X129200Y67605D02*
D03*
X135588Y58892D02*
D03*
X300965Y170454D02*
D03*
X45400Y131700D02*
D03*
X36000Y135915D02*
D03*
X35900Y138300D02*
D03*
X35568Y130900D02*
D03*
X250600Y375800D02*
D03*
X36400Y372800D02*
D03*
X211400Y353800D02*
D03*
X340440Y336000D02*
D03*
X350602Y218500D02*
D03*
X355200Y213100D02*
D03*
X342900Y203600D02*
D03*
X340440Y203800D02*
D03*
X355000Y205509D02*
D03*
X355263Y194556D02*
D03*
X356953Y285400D02*
D03*
X357040Y276846D02*
D03*
X341469Y285000D02*
D03*
X335800Y279000D02*
D03*
X313848Y279600D02*
D03*
X313900Y284600D02*
D03*
X314400Y290100D02*
D03*
X319400Y292400D02*
D03*
X338184Y217000D02*
D03*
X318500Y182452D02*
D03*
X321000Y182647D02*
D03*
X323602Y182600D02*
D03*
X326500D02*
D03*
X329500Y182700D02*
D03*
X332100Y182744D02*
D03*
X334500Y183645D02*
D03*
X336943Y183900D02*
D03*
X335656Y186073D02*
D03*
X333000Y185800D02*
D03*
X330700Y185000D02*
D03*
X327863Y184800D02*
D03*
X325171Y184900D02*
D03*
X322512Y185000D02*
D03*
X319900D02*
D03*
X317300Y185065D02*
D03*
X34500Y211700D02*
D03*
X29614Y123400D02*
D03*
X101500Y190500D02*
D03*
X151900Y251100D02*
D03*
X350400Y377500D02*
D03*
X310400Y375700D02*
D03*
X275400Y350673D02*
D03*
X268600Y365700D02*
D03*
X223400Y365600D02*
D03*
X276200Y68600D02*
D03*
X244900Y87200D02*
D03*
X238000Y92700D02*
D03*
X216500Y48894D02*
D03*
X227829Y96087D02*
D03*
X207600Y96300D02*
D03*
X197000Y96200D02*
D03*
X187100Y96300D02*
D03*
X176900D02*
D03*
X291200Y52524D02*
D03*
X275783Y50400D02*
D03*
X362700Y149500D02*
D03*
X330600Y151151D02*
D03*
X376800Y97600D02*
D03*
X352836Y61800D02*
D03*
X352900Y39800D02*
D03*
X381957Y54281D02*
D03*
X364300Y54100D02*
D03*
X352836Y71500D02*
D03*
X370921Y117500D02*
D03*
X365300Y112600D02*
D03*
X360500Y118800D02*
D03*
X353060Y108400D02*
D03*
X352300Y118200D02*
D03*
X361400Y127900D02*
D03*
X364900Y100400D02*
D03*
X373500Y157000D02*
D03*
X377100Y171331D02*
D03*
X372532Y187909D02*
D03*
X377200Y182452D02*
D03*
X349000Y185927D02*
D03*
X346645Y184447D02*
D03*
X347603Y181854D02*
D03*
X349700Y183600D02*
D03*
X352060Y184045D02*
D03*
X353906Y181800D02*
D03*
X351091Y181400D02*
D03*
X349099Y179900D02*
D03*
X350600Y165962D02*
D03*
X360500Y165306D02*
D03*
X360900Y179100D02*
D03*
X361005Y171100D02*
D03*
X324478Y30200D02*
D03*
X312844Y33616D02*
D03*
X345600Y103373D02*
D03*
X329309Y108000D02*
D03*
X317000Y119578D02*
D03*
X316700Y99300D02*
D03*
X252467Y153100D02*
D03*
X253533Y149697D02*
D03*
X276940Y166700D02*
D03*
X298300Y145200D02*
D03*
X329200Y136298D02*
D03*
X348792Y263142D02*
D03*
X350500Y261600D02*
D03*
X350240Y265066D02*
D03*
X348663Y260300D02*
D03*
X350553Y258100D02*
D03*
X348261Y257124D02*
D03*
X333453Y267500D02*
D03*
X330600Y267573D02*
D03*
X327693Y267430D02*
D03*
X325200Y267260D02*
D03*
X333453Y270200D02*
D03*
X330900Y270100D02*
D03*
X328127D02*
D03*
X325462D02*
D03*
X368900Y289700D02*
D03*
X370400Y253805D02*
D03*
X369900Y224273D02*
D03*
X365116Y206141D02*
D03*
X351800Y127600D02*
D03*
X342500Y127800D02*
D03*
X329500Y129569D02*
D03*
X303300Y131300D02*
D03*
X288200Y146200D02*
D03*
X298400Y121600D02*
D03*
X284300Y130500D02*
D03*
X244400Y66500D02*
D03*
X252312Y92800D02*
D03*
X278600Y92100D02*
D03*
X261900Y102400D02*
D03*
X277700Y116092D02*
D03*
X266200Y114700D02*
D03*
X253000Y112700D02*
D03*
X283600Y103761D02*
D03*
X289600Y96392D02*
D03*
X289500Y88800D02*
D03*
X300300Y88934D02*
D03*
X294900Y83400D02*
D03*
X313500Y59873D02*
D03*
X298936Y59726D02*
D03*
X306400Y66478D02*
D03*
X316600Y77500D02*
D03*
Y67300D02*
D03*
X316600Y52524D02*
D03*
X336300Y36800D02*
D03*
X332492Y60100D02*
D03*
X328400Y82883D02*
D03*
X345500Y83100D02*
D03*
X366800Y36900D02*
D03*
X375062Y23200D02*
D03*
X362200Y23239D02*
D03*
X249035Y19256D02*
D03*
X227200Y51900D02*
D03*
X226500Y35273D02*
D03*
X231409Y69200D02*
D03*
X217100Y96100D02*
D03*
X195100Y73678D02*
D03*
X205200Y73494D02*
D03*
X227600Y128524D02*
D03*
X164900Y128249D02*
D03*
X55600Y20200D02*
D03*
X23100Y19000D02*
D03*
X83000Y54900D02*
D03*
X58600Y64511D02*
D03*
X102400Y70300D02*
D03*
X126828Y25300D02*
D03*
X103200Y21140D02*
D03*
X151500Y25700D02*
D03*
X149717Y60500D02*
D03*
X185152Y32770D02*
D03*
X172400Y44000D02*
D03*
X168900Y67500D02*
D03*
X157900Y76600D02*
D03*
X168373Y93400D02*
D03*
X175000Y80800D02*
D03*
X187400Y76100D02*
D03*
X181400Y44509D02*
D03*
X175200Y51006D02*
D03*
X177100Y115403D02*
D03*
X186900Y115300D02*
D03*
X197053D02*
D03*
X207300D02*
D03*
X217800Y115000D02*
D03*
X145576Y135900D02*
D03*
X160948Y103800D02*
D03*
X252366Y103209D02*
D03*
X246400Y122600D02*
D03*
X253500Y159514D02*
D03*
X262300Y150200D02*
D03*
X267800Y131743D02*
D03*
X247000Y187456D02*
D03*
X185748Y187400D02*
D03*
X218400D02*
D03*
X242040Y176800D02*
D03*
X227900Y149300D02*
D03*
X174246Y140300D02*
D03*
X171895D02*
D03*
X192300Y140500D02*
D03*
X216477Y164165D02*
D03*
X236900Y172600D02*
D03*
X203400Y180100D02*
D03*
X118621Y369200D02*
D03*
X106700Y369400D02*
D03*
X104400Y369300D02*
D03*
X171000D02*
D03*
X168633Y369200D02*
D03*
X176421Y366141D02*
D03*
X182000Y360600D02*
D03*
X176700Y354600D02*
D03*
X168500Y337400D02*
D03*
X173200Y342611D02*
D03*
X168400Y348000D02*
D03*
X77200Y327797D02*
D03*
X90337Y342300D02*
D03*
X100400Y315229D02*
D03*
X61800Y345325D02*
D03*
X83600Y301700D02*
D03*
X67700Y309572D02*
D03*
X68000Y301600D02*
D03*
X55400Y295400D02*
D03*
X34200Y286527D02*
D03*
X40626Y273127D02*
D03*
X46500Y257727D02*
D03*
X72700Y257700D02*
D03*
X66300Y188700D02*
D03*
X91200Y185900D02*
D03*
Y202200D02*
D03*
X72181Y204400D02*
D03*
X62300Y211784D02*
D03*
X115600Y171154D02*
D03*
X93100Y168800D02*
D03*
X72371Y169200D02*
D03*
X24700Y173000D02*
D03*
X30439Y180600D02*
D03*
X18000Y143800D02*
D03*
X19500Y126098D02*
D03*
X25000Y116618D02*
D03*
X13700Y82000D02*
D03*
X28898Y80206D02*
D03*
X37572Y52453D02*
D03*
X26700Y53200D02*
D03*
X28600Y66500D02*
D03*
X36300Y66900D02*
D03*
X124433Y65600D02*
D03*
X124000Y51900D02*
D03*
X113471Y53000D02*
D03*
X71600Y75700D02*
D03*
X94317Y83100D02*
D03*
X116400Y67500D02*
D03*
X116926Y81500D02*
D03*
X91600Y97300D02*
D03*
X79200Y135000D02*
D03*
X98800Y136543D02*
D03*
X65200Y110400D02*
D03*
X57400Y137400D02*
D03*
X212734Y140700D02*
D03*
X150200Y159700D02*
D03*
X142257Y144900D02*
D03*
X152300Y111000D02*
D03*
X107600Y127921D02*
D03*
X113100Y117900D02*
D03*
X145790Y122000D02*
D03*
X126015Y139520D02*
D03*
X126000Y131951D02*
D03*
X123657Y132000D02*
D03*
X123600Y139520D02*
D03*
X119029Y144800D02*
D03*
X135588Y158100D02*
D03*
X144893Y165962D02*
D03*
X136400Y181571D02*
D03*
X201720Y167900D02*
D03*
X196800Y162142D02*
D03*
X176700Y156700D02*
D03*
X160516Y168600D02*
D03*
X169500Y171800D02*
D03*
X171086Y179800D02*
D03*
X224800Y335900D02*
D03*
X319000Y317500D02*
D03*
X313984Y323169D02*
D03*
X314066Y330773D02*
D03*
X319000Y336600D02*
D03*
X322277Y349500D02*
D03*
X348200Y359400D02*
D03*
X362900Y358762D02*
D03*
X377800Y347907D02*
D03*
Y324300D02*
D03*
X353405Y296600D02*
D03*
X369470Y307900D02*
D03*
X358696Y326021D02*
D03*
X346400Y318700D02*
D03*
X360856D02*
D03*
X353400Y311835D02*
D03*
X365600Y243076D02*
D03*
X316201Y242500D02*
D03*
X357352Y238100D02*
D03*
X339366D02*
D03*
X334300Y244900D02*
D03*
X320800Y247773D02*
D03*
X314300Y295547D02*
D03*
X331278Y297680D02*
D03*
X324747Y292300D02*
D03*
X313300Y275000D02*
D03*
X310500Y257627D02*
D03*
X255000Y227536D02*
D03*
X271924Y227000D02*
D03*
X267268Y232200D02*
D03*
X284179Y233800D02*
D03*
X284900Y220273D02*
D03*
X287100Y203600D02*
D03*
X278600D02*
D03*
X251795Y212100D02*
D03*
X251693Y216118D02*
D03*
X254447Y213900D02*
D03*
X255616Y188300D02*
D03*
X233600Y193778D02*
D03*
X206800Y193700D02*
D03*
X190540Y198200D02*
D03*
X196316Y204153D02*
D03*
X219000Y205100D02*
D03*
X232900Y219273D02*
D03*
X250500Y236500D02*
D03*
X255500Y258479D02*
D03*
X267500Y273884D02*
D03*
X278800Y285551D02*
D03*
X295600Y292100D02*
D03*
X290615Y307840D02*
D03*
X297848Y315900D02*
D03*
X307300Y327492D02*
D03*
X302300Y332400D02*
D03*
X294067Y326212D02*
D03*
X294000Y335447D02*
D03*
X288460Y330900D02*
D03*
X274627Y337900D02*
D03*
X279100Y332800D02*
D03*
X273167Y324400D02*
D03*
X277900Y318500D02*
D03*
X282505Y324500D02*
D03*
X269766Y312000D02*
D03*
X257321Y321996D02*
D03*
X262700Y335792D02*
D03*
X180500Y255200D02*
D03*
X150200Y290925D02*
D03*
X160516Y316900D02*
D03*
X165071Y307611D02*
D03*
X152604Y301943D02*
D03*
X143753Y301800D02*
D03*
X137900Y306300D02*
D03*
X143700Y310877D02*
D03*
X152700Y311000D02*
D03*
X93846Y228373D02*
D03*
X72508Y215173D02*
D03*
X119700Y256700D02*
D03*
X114500Y251922D02*
D03*
X112656Y244835D02*
D03*
X114600Y228373D02*
D03*
X98000Y215073D02*
D03*
X108900Y215600D02*
D03*
X100901Y241700D02*
D03*
X58000Y236273D02*
D03*
X99800Y262312D02*
D03*
X130183Y266962D02*
D03*
X115287Y271000D02*
D03*
X100440D02*
D03*
X63700Y271027D02*
D03*
X27800Y268452D02*
D03*
X56800Y274727D02*
D03*
X42321Y264721D02*
D03*
X57700Y244365D02*
D03*
X45491Y241800D02*
D03*
X38900Y226500D02*
D03*
X30300Y226100D02*
D03*
X34700Y197239D02*
D03*
X41556Y180100D02*
D03*
X46340Y174800D02*
D03*
X41600Y169600D02*
D03*
X53800Y149995D02*
D03*
X28200Y155136D02*
D03*
X32800Y150800D02*
D03*
X40000Y149600D02*
D03*
X58300Y121215D02*
D03*
X47724Y115577D02*
D03*
X27619Y126366D02*
D03*
X185152Y289900D02*
D03*
X176300D02*
D03*
X297458Y248700D02*
D03*
X100600Y345798D02*
D03*
X101600Y359700D02*
D03*
X113940Y347520D02*
D03*
X119977Y353476D02*
D03*
X118700Y358676D02*
D03*
X125469Y358500D02*
D03*
X125300Y339900D02*
D03*
X125469Y323709D02*
D03*
X158500Y330592D02*
D03*
X156300Y343900D02*
D03*
X156800Y359600D02*
D03*
X156424Y376300D02*
D03*
X132555Y377288D02*
D03*
X134426Y360376D02*
D03*
X134700Y339617D02*
D03*
X133900Y323773D02*
D03*
X137800Y302808D02*
D03*
X138000Y290300D02*
D03*
X128475Y304300D02*
D03*
X129600Y290300D02*
D03*
X103800Y298587D02*
D03*
X117579Y291878D02*
D03*
X102229Y285600D02*
D03*
X115939Y284500D02*
D03*
X145900Y283500D02*
D03*
X163352Y270611D02*
D03*
X149216Y270800D02*
D03*
X145900Y262192D02*
D03*
X101634Y277700D02*
D03*
X114340Y277600D02*
D03*
X129500Y277924D02*
D03*
X214900Y301892D02*
D03*
X195063Y308754D02*
D03*
X202100Y306793D02*
D03*
X208885Y304714D02*
D03*
X194290Y290100D02*
D03*
X188940Y283700D02*
D03*
X180862Y283600D02*
D03*
X171800D02*
D03*
X163400Y282000D02*
D03*
X174000Y296950D02*
D03*
X184121Y307471D02*
D03*
X189000Y328300D02*
D03*
X189200Y354869D02*
D03*
X186425Y367500D02*
D03*
X195100Y367534D02*
D03*
X195290Y355000D02*
D03*
X195525Y336300D02*
D03*
X224500Y328900D02*
D03*
X205303Y326900D02*
D03*
X214400Y322700D02*
D03*
X171600Y271300D02*
D03*
X235000Y281080D02*
D03*
X234240Y267100D02*
D03*
X234200Y256200D02*
D03*
X162310Y218500D02*
D03*
X154600Y203861D02*
D03*
X168002Y204900D02*
D03*
X162446Y209268D02*
D03*
X162400Y226282D02*
D03*
X155400Y211500D02*
D03*
X172062Y215507D02*
D03*
X171572Y226100D02*
D03*
X135530Y127200D02*
D03*
X135729Y115800D02*
D03*
X120136Y165300D02*
D03*
X93400Y162071D02*
D03*
X74900Y162100D02*
D03*
X61800Y149073D02*
D03*
X214200Y210576D02*
D03*
X232033Y227900D02*
D03*
X248254Y243800D02*
D03*
X248367Y264700D02*
D03*
X261100Y277273D02*
D03*
X274508Y291000D02*
D03*
X288460Y294100D02*
D03*
X277700Y301765D02*
D03*
Y307843D02*
D03*
X262000Y291800D02*
D03*
X248233Y278200D02*
D03*
X240800Y260691D02*
D03*
X236785Y242700D02*
D03*
X224233Y230400D02*
D03*
X211933Y218235D02*
D03*
X209800Y239300D02*
D03*
X209498Y226000D02*
D03*
X193800Y222800D02*
D03*
X182900Y217900D02*
D03*
X226760Y244500D02*
D03*
X217327Y252464D02*
D03*
X218840Y294650D02*
D03*
X225600Y308800D02*
D03*
X237000Y319328D02*
D03*
X220000Y319473D02*
D03*
X199983Y285819D02*
D03*
X209300Y285754D02*
D03*
X206367Y278900D02*
D03*
X218741Y278373D02*
D03*
X217072Y268700D02*
D03*
X206500Y269798D02*
D03*
X197948Y278653D02*
D03*
X204004Y260800D02*
D03*
X196300Y254974D02*
D03*
X200300Y248400D02*
D03*
X186000Y242900D02*
D03*
X185800Y233500D02*
D03*
X188632Y255465D02*
D03*
X152821Y223673D02*
D03*
X152912Y226200D02*
D03*
X168400Y190800D02*
D03*
X161100Y193112D02*
D03*
X156300Y184600D02*
D03*
X152912Y178500D02*
D03*
X146700Y191300D02*
D03*
X150100Y204300D02*
D03*
X176000Y230200D02*
D03*
X197200Y235822D02*
D03*
X187700Y226400D02*
D03*
X2840Y17243D02*
D03*
Y36928D02*
D03*
Y56613D02*
D03*
Y76298D02*
D03*
Y95983D02*
D03*
Y115668D02*
D03*
Y135353D02*
D03*
Y155038D02*
D03*
Y174723D02*
D03*
Y194408D02*
D03*
Y214093D02*
D03*
Y233778D02*
D03*
Y253463D02*
D03*
Y273148D02*
D03*
Y292833D02*
D03*
Y312518D02*
D03*
Y332203D02*
D03*
Y351888D02*
D03*
Y371573D02*
D03*
Y390858D02*
D03*
X17124D02*
D03*
X36809D02*
D03*
X56494D02*
D03*
X76179D02*
D03*
X95865D02*
D03*
X115550D02*
D03*
X135235D02*
D03*
X154920D02*
D03*
X174605D02*
D03*
X194290D02*
D03*
X213975D02*
D03*
X233660D02*
D03*
X253345D02*
D03*
X273030D02*
D03*
X292715D02*
D03*
X312400D02*
D03*
X332085D02*
D03*
X351770D02*
D03*
X371455D02*
D03*
X390740D02*
D03*
X390841Y376589D02*
D03*
Y356904D02*
D03*
Y337219D02*
D03*
Y317534D02*
D03*
Y297849D02*
D03*
Y278164D02*
D03*
Y258479D02*
D03*
Y238794D02*
D03*
Y219109D02*
D03*
Y199424D02*
D03*
Y179739D02*
D03*
Y160054D02*
D03*
Y140368D02*
D03*
Y120684D02*
D03*
Y100998D02*
D03*
Y81313D02*
D03*
Y61628D02*
D03*
Y41943D02*
D03*
Y22258D02*
D03*
Y2873D02*
D03*
X376556D02*
D03*
X356871D02*
D03*
X337186D02*
D03*
X317501D02*
D03*
X297816D02*
D03*
X278131D02*
D03*
X258446D02*
D03*
X238761D02*
D03*
X219076D02*
D03*
X199391D02*
D03*
X179706D02*
D03*
X160020D02*
D03*
X140335D02*
D03*
X120650D02*
D03*
X100965D02*
D03*
X81280D02*
D03*
X61595D02*
D03*
X41910D02*
D03*
X22225D02*
D03*
X2840D02*
D03*
X111092Y157411D02*
D03*
X221128Y164202D02*
D03*
X224309Y164165D02*
D03*
X200728Y164202D02*
D03*
X203909Y164165D02*
D03*
X180342Y164202D02*
D03*
X183523Y164165D02*
D03*
X283653Y59726D02*
D03*
X286016D02*
D03*
X288378D02*
D03*
X283653Y57364D02*
D03*
X288378D02*
D03*
X286016D02*
D03*
Y62064D02*
D03*
X288378D02*
D03*
X283653D02*
D03*
X288378Y64426D02*
D03*
X286016D02*
D03*
X283653D02*
D03*
X276516Y59726D02*
D03*
X278878D02*
D03*
X281240D02*
D03*
X276516Y57364D02*
D03*
X281240D02*
D03*
X278878D02*
D03*
Y62064D02*
D03*
X281240D02*
D03*
X276516D02*
D03*
X281240Y64426D02*
D03*
X278878D02*
D03*
X276516D02*
D03*
X261582Y171331D02*
D03*
X256797Y176285D02*
D03*
X145715Y291523D02*
D03*
X141912Y291623D02*
D03*
X175321Y313004D02*
D03*
X175221Y309201D02*
D03*
X162621Y278373D02*
D03*
X125125Y73494D02*
D03*
Y71132D02*
D03*
X165592Y96293D02*
D03*
X165629Y99474D02*
D03*
X92068Y181571D02*
D03*
X92031Y178390D02*
D03*
X86769Y208087D02*
D03*
X106259Y144548D02*
D03*
X103303D02*
D03*
X25581Y143259D02*
D03*
X22624D02*
D03*
X48502Y149225D02*
D03*
X45546D02*
D03*
X28049Y160673D02*
D03*
Y163630D02*
D03*
X111092Y160368D02*
D03*
X128589Y145963D02*
D03*
X131545D02*
D03*
X121502D02*
D03*
X124459D02*
D03*
X114340Y147025D02*
D03*
X117297D02*
D03*
X138109Y78173D02*
D03*
X133577Y74847D02*
D03*
X133428Y142905D02*
D03*
X128746Y138224D02*
D03*
X96629Y116092D02*
D03*
X92098Y113058D02*
D03*
X91998Y109812D02*
D03*
X124296Y128654D02*
D03*
X118053Y124654D02*
D03*
X160159Y88492D02*
D03*
X128696Y127854D02*
D03*
X131996D02*
D03*
X4143Y111858D02*
D03*
X4043Y108612D02*
D03*
X36340Y127454D02*
D03*
X44040Y126654D02*
D03*
X40740D02*
D03*
X283959Y188849D02*
D03*
X281597D02*
D03*
Y186487D02*
D03*
X283959D02*
D03*
X284640Y123735D02*
D03*
Y121373D02*
D03*
Y126098D02*
D03*
X289340D02*
D03*
Y123735D02*
D03*
Y121373D02*
D03*
X286978Y126098D02*
D03*
Y121373D02*
D03*
Y123735D02*
D03*
X291678D02*
D03*
Y121373D02*
D03*
Y126098D02*
D03*
X294040Y121373D02*
D03*
Y123735D02*
D03*
Y126098D02*
D03*
X298603Y168092D02*
D03*
X300965D02*
D03*
X298603Y170454D02*
D03*
X300965Y172792D02*
D03*
X298603D02*
D03*
X340278Y254273D02*
D03*
X342640D02*
D03*
X340278Y251911D02*
D03*
X342640D02*
D03*
Y249573D02*
D03*
X340278D02*
D03*
X344168Y295861D02*
D03*
Y298223D02*
D03*
X349168D02*
D03*
Y295861D02*
D03*
X130621Y188273D02*
D03*
X125940Y192954D02*
D03*
X121259Y188273D02*
D03*
X125940Y183592D02*
D03*
X107340Y350421D02*
D03*
X104972D02*
D03*
X285875Y319044D02*
D03*
X288237D02*
D03*
Y321407D02*
D03*
X285875D02*
D03*
X268519Y316181D02*
D03*
Y318543D02*
D03*
X266157D02*
D03*
Y316181D02*
D03*
X258572Y307843D02*
D03*
Y310205D02*
D03*
X256209D02*
D03*
Y307843D02*
D03*
X244990D02*
D03*
Y310205D02*
D03*
X242628D02*
D03*
Y307843D02*
D03*
X231409D02*
D03*
Y310205D02*
D03*
X229047D02*
D03*
Y307843D02*
D03*
X162675Y334499D02*
D03*
Y336861D02*
D03*
X160313D02*
D03*
Y334499D02*
D03*
X14656Y295573D02*
D03*
X9894Y300089D02*
D03*
X40305Y300076D02*
D03*
X35789Y295313D02*
D03*
X35835Y312700D02*
D03*
X40578Y307824D02*
D03*
X14656Y312400D02*
D03*
X10140Y307638D02*
D03*
X15684Y242827D02*
D03*
Y245189D02*
D03*
X27252Y258919D02*
D03*
X42265Y282300D02*
D03*
X39903D02*
D03*
X115440Y190798D02*
D03*
Y188435D02*
D03*
Y186073D02*
D03*
X113040Y190798D02*
D03*
Y188435D02*
D03*
Y186073D02*
D03*
X38535Y71156D02*
D03*
Y73518D02*
D03*
X300978Y256473D02*
D03*
X303340D02*
D03*
Y254135D02*
D03*
X300978D02*
D03*
X303340Y251773D02*
D03*
X300978D02*
D03*
X349963Y249835D02*
D03*
X347600D02*
D03*
Y252173D02*
D03*
X349963D02*
D03*
X347600Y254535D02*
D03*
X349963D02*
D03*
X334340Y250573D02*
D03*
X331978D02*
D03*
Y252911D02*
D03*
X334340D02*
D03*
X331978Y255273D02*
D03*
X334340D02*
D03*
X301308Y293728D02*
D03*
X303608D02*
D03*
X259678Y203467D02*
D03*
X262859Y203430D02*
D03*
X262872Y190189D02*
D03*
X259690Y190226D02*
D03*
X30188Y173161D02*
D03*
X30225Y176342D02*
D03*
X112328Y358762D02*
D03*
X115509Y358725D02*
D03*
X206367Y289428D02*
D03*
X208730D02*
D03*
X206367Y282341D02*
D03*
X208730D02*
D03*
X340221Y315654D02*
D03*
Y318016D02*
D03*
X347840Y328011D02*
D03*
Y330373D02*
D03*
Y332735D02*
D03*
X350202Y328011D02*
D03*
Y332735D02*
D03*
Y330373D02*
D03*
X352540Y332735D02*
D03*
Y330373D02*
D03*
Y328011D02*
D03*
X372878Y220135D02*
D03*
X375240D02*
D03*
X377602D02*
D03*
X372878Y217773D02*
D03*
X377602D02*
D03*
X375240D02*
D03*
Y213073D02*
D03*
X377602D02*
D03*
X372878D02*
D03*
X377602Y215435D02*
D03*
X375240D02*
D03*
X372878D02*
D03*
X380016Y220135D02*
D03*
X382378D02*
D03*
X384740D02*
D03*
X380016Y217773D02*
D03*
X384740D02*
D03*
X382378D02*
D03*
Y213073D02*
D03*
X384740D02*
D03*
X380016D02*
D03*
X384740Y215435D02*
D03*
X382378D02*
D03*
X380016D02*
D03*
X296559Y74573D02*
D03*
X305921D02*
D03*
X301240Y79254D02*
D03*
Y69892D02*
D03*
X254335Y127434D02*
D03*
Y129796D02*
D03*
X353060Y95823D02*
D03*
Y98185D02*
D03*
X340987Y118258D02*
D03*
X343349D02*
D03*
X366060Y133021D02*
D03*
X284340Y168849D02*
D03*
Y178211D02*
D03*
X289021Y173530D02*
D03*
X279659D02*
D03*
X272459Y258873D02*
D03*
X277140Y263554D02*
D03*
X281821Y258873D02*
D03*
X277140Y254192D02*
D03*
X77921Y95273D02*
D03*
Y98573D02*
D03*
X72203Y87292D02*
D03*
X50153Y76973D02*
D03*
X45621Y73647D02*
D03*
X8673Y114892D02*
D03*
X45472Y141705D02*
D03*
X40791Y137024D02*
D03*
X203945Y152201D02*
D03*
Y149838D02*
D03*
X268340Y210178D02*
D03*
X270702D02*
D03*
Y207816D02*
D03*
X268340D02*
D03*
Y212516D02*
D03*
X270702D02*
D03*
Y214878D02*
D03*
X268340D02*
D03*
X271924Y239046D02*
D03*
Y236684D02*
D03*
X279011Y239046D02*
D03*
Y236684D02*
D03*
X268340Y224735D02*
D03*
X270702D02*
D03*
Y222373D02*
D03*
X268340D02*
D03*
Y217673D02*
D03*
X270702D02*
D03*
Y220035D02*
D03*
X268340D02*
D03*
X244624Y149869D02*
D03*
X242262D02*
D03*
X279070Y133592D02*
D03*
X281432D02*
D03*
X376698Y101981D02*
D03*
X379060D02*
D03*
X376595Y112611D02*
D03*
X378957D02*
D03*
X279070Y144222D02*
D03*
X281432D02*
D03*
X365432Y190723D02*
D03*
X367794D02*
D03*
X346640Y215304D02*
D03*
Y217667D02*
D03*
X341640D02*
D03*
Y215304D02*
D03*
X367040Y270611D02*
D03*
X367140Y263173D02*
D03*
X296809Y244455D02*
D03*
X103440Y196942D02*
D03*
X103506Y184604D02*
D03*
X107637Y180003D02*
D03*
Y201627D02*
D03*
X117171Y200173D02*
D03*
X114068Y196058D02*
D03*
X125031Y198358D02*
D03*
X132593D02*
D03*
X121562Y216752D02*
D03*
X43640Y325173D02*
D03*
Y327535D02*
D03*
X41278D02*
D03*
Y325173D02*
D03*
X94456Y347673D02*
D03*
Y350035D02*
D03*
X96818D02*
D03*
Y347673D02*
D03*
X110848Y362732D02*
D03*
Y365094D02*
D03*
X113210D02*
D03*
Y362732D02*
D03*
X168178Y355073D02*
D03*
Y357435D02*
D03*
X170540D02*
D03*
Y355073D02*
D03*
X118521Y333673D02*
D03*
X113440Y328573D02*
D03*
X54335Y332575D02*
D03*
X49902Y327665D02*
D03*
X61663Y315073D02*
D03*
X56163Y309673D02*
D03*
X116673Y306673D02*
D03*
X112240Y301764D02*
D03*
X78040Y232473D02*
D03*
Y230173D02*
D03*
X78625Y223173D02*
D03*
X89440Y246773D02*
D03*
X89340Y256173D02*
D03*
X134040Y252358D02*
D03*
X128747Y256363D02*
D03*
X151350Y267573D02*
D03*
X161312D02*
D03*
X171540D02*
D03*
X208040Y215073D02*
D03*
X370474Y80335D02*
D03*
X372836D02*
D03*
X375198D02*
D03*
X370474Y77973D02*
D03*
X375198D02*
D03*
X372836D02*
D03*
Y73273D02*
D03*
X375198D02*
D03*
X370474D02*
D03*
X375198Y75635D02*
D03*
X372836D02*
D03*
X370474D02*
D03*
X377612Y80335D02*
D03*
X379974D02*
D03*
X382336D02*
D03*
X377612Y77973D02*
D03*
X382336D02*
D03*
X379974D02*
D03*
Y73273D02*
D03*
X382336D02*
D03*
X377612D02*
D03*
X382336Y75635D02*
D03*
X379974D02*
D03*
X377612D02*
D03*
X221340Y55473D02*
D03*
Y57835D02*
D03*
X223702D02*
D03*
Y55473D02*
D03*
X192413Y202273D02*
D03*
X190051D02*
D03*
X143713Y231712D02*
D03*
X141351D02*
D03*
X139640Y252946D02*
D03*
Y250584D02*
D03*
X190151Y195073D02*
D03*
X192513D02*
D03*
X164567Y145680D02*
D03*
X166929D02*
D03*
X192447Y152357D02*
D03*
Y149995D02*
D03*
X316651Y87177D02*
D03*
Y89540D02*
D03*
X309984Y72432D02*
D03*
X312347D02*
D03*
X222535Y89514D02*
D03*
Y91876D02*
D03*
X202234Y89514D02*
D03*
Y91876D02*
D03*
X181848Y89114D02*
D03*
Y91476D02*
D03*
X212840Y149995D02*
D03*
Y152357D02*
D03*
X186059Y51549D02*
D03*
Y53911D02*
D03*
X195478D02*
D03*
Y51549D02*
D03*
X207340Y52873D02*
D03*
X204978Y55235D02*
D03*
Y52873D02*
D03*
X207340Y55235D02*
D03*
X252378Y42573D02*
D03*
Y44935D02*
D03*
X254740D02*
D03*
Y42573D02*
D03*
X266040Y42609D02*
D03*
Y44971D02*
D03*
X263678D02*
D03*
Y42609D02*
D03*
X333240Y219064D02*
D03*
X324000Y218900D02*
D03*
X313848Y218873D02*
D03*
X303000Y218700D02*
D03*
X299600Y212200D02*
D03*
Y200800D02*
D03*
X299612Y190600D02*
D03*
X302500Y180654D02*
D03*
X304932Y173337D02*
D03*
X351878Y174473D02*
D03*
X354240D02*
D03*
X356602D02*
D03*
X351878Y172111D02*
D03*
X356602D02*
D03*
X354240D02*
D03*
Y176811D02*
D03*
X356602D02*
D03*
X351878D02*
D03*
X356602Y179173D02*
D03*
X354240D02*
D03*
X351878D02*
D03*
X343978Y165973D02*
D03*
X346340D02*
D03*
Y168311D02*
D03*
X343978D02*
D03*
X346340Y170673D02*
D03*
X343978D02*
D03*
X333640Y170835D02*
D03*
Y168473D02*
D03*
Y166111D02*
D03*
X331278Y170835D02*
D03*
Y166111D02*
D03*
Y168473D02*
D03*
X335978D02*
D03*
Y166111D02*
D03*
Y170835D02*
D03*
X338340Y166111D02*
D03*
Y168473D02*
D03*
Y170835D02*
D03*
X265802Y76436D02*
D03*
Y74073D02*
D03*
Y71711D02*
D03*
X263440Y76436D02*
D03*
Y71711D02*
D03*
Y74073D02*
D03*
X268140D02*
D03*
Y71711D02*
D03*
Y76436D02*
D03*
X270502Y71711D02*
D03*
Y74073D02*
D03*
Y76436D02*
D03*
X265802Y83573D02*
D03*
Y81211D02*
D03*
Y78849D02*
D03*
X263440Y83573D02*
D03*
Y78849D02*
D03*
Y81211D02*
D03*
X268140D02*
D03*
Y78849D02*
D03*
Y83573D02*
D03*
X270502Y78849D02*
D03*
Y81211D02*
D03*
Y83573D02*
D03*
X361278Y29435D02*
D03*
X358916D02*
D03*
X356554D02*
D03*
X361278Y31798D02*
D03*
X356554D02*
D03*
X358916D02*
D03*
Y36498D02*
D03*
X356554D02*
D03*
X361278D02*
D03*
X356554Y34135D02*
D03*
X358916D02*
D03*
X361278D02*
D03*
X302778Y89773D02*
D03*
Y92136D02*
D03*
Y94498D02*
D03*
X305140Y89773D02*
D03*
Y94498D02*
D03*
Y92136D02*
D03*
X309840D02*
D03*
Y94498D02*
D03*
Y89773D02*
D03*
X307478Y94498D02*
D03*
Y92136D02*
D03*
Y89773D02*
D03*
X308078Y43873D02*
D03*
Y46235D02*
D03*
Y48598D02*
D03*
X310440Y43873D02*
D03*
Y48598D02*
D03*
Y46235D02*
D03*
X305740D02*
D03*
Y48598D02*
D03*
Y43873D02*
D03*
X303378Y48598D02*
D03*
Y46235D02*
D03*
Y43873D02*
D03*
X159297Y203861D02*
D03*
X53640Y288973D02*
D03*
X144470Y194373D02*
D03*
X208440Y249584D02*
D03*
X210240Y251384D02*
D03*
X161540Y286773D02*
D03*
X134340Y292473D02*
D03*
X198688Y282200D02*
D03*
X134740Y249373D02*
D03*
Y246973D02*
D03*
Y244673D02*
D03*
Y242273D02*
D03*
X362334Y241373D02*
D03*
X316291Y247073D02*
D03*
X372519Y160750D02*
D03*
X313913Y163450D02*
D03*
X302165Y364173D02*
D03*
X288484Y363878D02*
D03*
X295276Y357283D02*
D03*
Y371063D02*
D03*
X290404Y369045D02*
D03*
X300147Y359301D02*
D03*
X290682Y359162D02*
D03*
X300147Y369045D02*
D03*
X85630Y29528D02*
D03*
X71949Y29232D02*
D03*
X78740Y22638D02*
D03*
Y36417D02*
D03*
X73868Y34399D02*
D03*
X83612Y24656D02*
D03*
X74147Y24517D02*
D03*
X83612Y34399D02*
D03*
X85630Y364173D02*
D03*
X71949Y363878D02*
D03*
X78740Y357283D02*
D03*
Y371063D02*
D03*
X73868Y369045D02*
D03*
X83612Y359301D02*
D03*
X74147Y359162D02*
D03*
X83612Y369045D02*
D03*
X300147Y34399D02*
D03*
X290682Y24517D02*
D03*
X300147Y24656D02*
D03*
X290404Y34399D02*
D03*
X295276Y36417D02*
D03*
Y22638D02*
D03*
X288484Y29232D02*
D03*
X302165Y29528D02*
D03*
D163*
X305320Y91880D02*
D03*
D164*
X289278Y123785D02*
D03*
D165*
X299797Y170427D02*
D03*
X341472Y251938D02*
D03*
X302172Y254108D02*
D03*
X348769Y252200D02*
D03*
X345172Y168338D02*
D03*
D166*
X376320Y76854D02*
D03*
D167*
X267021Y73842D02*
D03*
M02*
