G04*
G04 #@! TF.GenerationSoftware,Altium Limited,Altium Designer,19.0.10 (269)*
G04*
G04 Layer_Color=16711935*
%FSLAX25Y25*%
%MOIN*%
G70*
G01*
G75*
%ADD51C,0.08661*%
%ADD52C,0.20472*%
%ADD53O,0.18504X0.08661*%
%ADD54O,0.08661X0.18504*%
%ADD55O,0.09449X0.16535*%
%ADD56R,0.08661X0.08661*%
%ADD57C,0.24410*%
%ADD58C,0.07874*%
%ADD59C,0.09787*%
%ADD60O,0.08661X0.12598*%
%ADD61C,0.13780*%
%ADD62O,0.12598X0.08661*%
%ADD63C,0.18504*%
D51*
X30220Y342288D02*
D03*
X25221Y352288D02*
D03*
X55221D02*
D03*
X50221Y342288D02*
D03*
X20221D02*
D03*
X40220D02*
D03*
X45221Y352288D02*
D03*
X35221D02*
D03*
X248764D02*
D03*
X258764D02*
D03*
X253764Y342288D02*
D03*
X233764D02*
D03*
X263764D02*
D03*
X268764Y352288D02*
D03*
X238764D02*
D03*
X243764Y342288D02*
D03*
X343134D02*
D03*
X338134Y352288D02*
D03*
X368134D02*
D03*
X363134Y342288D02*
D03*
X333134D02*
D03*
X353134D02*
D03*
X358134Y352288D02*
D03*
X348134D02*
D03*
X200933Y29558D02*
D03*
X206386Y18377D02*
D03*
X211839Y29558D02*
D03*
X217291Y18377D02*
D03*
X222744Y29558D02*
D03*
X228197Y18377D02*
D03*
X233650Y29558D02*
D03*
X239103Y18377D02*
D03*
D52*
X60220Y377288D02*
D03*
X15221D02*
D03*
X228764D02*
D03*
X273764D02*
D03*
X373134D02*
D03*
X328134D02*
D03*
D53*
X323887Y14094D02*
D03*
Y36928D02*
D03*
D54*
X342784Y25117D02*
D03*
D55*
X381957Y14881D02*
D03*
X368180D02*
D03*
X163154Y376993D02*
D03*
X176931D02*
D03*
X190711D02*
D03*
X125750D02*
D03*
X111970D02*
D03*
X98193D02*
D03*
D56*
X244555Y29558D02*
D03*
D57*
X271937Y23967D02*
D03*
X173551D02*
D03*
D58*
X123657Y292667D02*
D03*
Y267077D02*
D03*
X105940D02*
D03*
Y292667D02*
D03*
D59*
X34477Y219399D02*
D03*
Y189399D02*
D03*
D60*
X119162Y58892D02*
D03*
X129162D02*
D03*
X42548D02*
D03*
X32548D02*
D03*
D61*
X139162Y38892D02*
D03*
X99162D02*
D03*
X12548D02*
D03*
X52548D02*
D03*
D62*
X226760Y291080D02*
D03*
Y281080D02*
D03*
Y271080D02*
D03*
Y261080D02*
D03*
Y251080D02*
D03*
X76041Y306673D02*
D03*
Y296673D02*
D03*
D63*
X295276Y364173D02*
D03*
X78740Y29528D02*
D03*
Y364173D02*
D03*
X295276Y29528D02*
D03*
M02*
