%TF.GenerationSoftware,Altium Limited,Altium Designer,19.0.10 (269)*%
G04 Layer_Color=32896*
%FSLAX45Y45*%
%MOMM*%
%TF.FileFunction,Legend,Bot*%
%TF.Part,Single*%
G01*
G75*
%TA.AperFunction,NonConductor*%
%ADD100C,0.40000*%
D100*
X9250003Y8182038D02*
X9449938D01*
Y8082070D01*
X9416616Y8048747D01*
X9283326D01*
X9250003Y8082070D01*
Y8182038D01*
X9449938Y7982102D02*
X9316648D01*
X9250003Y7915457D01*
X9316648Y7848812D01*
X9449938D01*
X9349971D01*
Y7982102D01*
X9449938Y7782167D02*
X9250003D01*
X9316648Y7715522D01*
X9250003Y7648876D01*
X9449938D01*
X9250003Y7582231D02*
Y7515586D01*
Y7548908D01*
X9449938D01*
Y7582231D01*
Y7515586D01*
Y7415618D02*
X9316648D01*
X9250003Y7348973D01*
X9316648Y7282328D01*
X9449938D01*
X9349971D01*
Y7415618D01*
X9449938Y7215683D02*
X9250003D01*
X9449938Y7082392D01*
X9250003D01*
Y6815811D02*
X9449938D01*
Y6715844D01*
X9416616Y6682521D01*
X9283326D01*
X9250003Y6715844D01*
Y6815811D01*
Y6515908D02*
Y6582553D01*
X9283326Y6615876D01*
X9416616D01*
X9449938Y6582553D01*
Y6515908D01*
X9416616Y6482585D01*
X9283326D01*
X9250003Y6515908D01*
Y6415940D02*
X9449938D01*
Y6282650D01*
X9250003Y6082714D02*
Y6216005D01*
X9449938D01*
Y6082714D01*
X9349971Y6216005D02*
Y6149360D01*
X9250003Y6016069D02*
X9449938D01*
X9383293Y5949424D01*
X9449938Y5882779D01*
X9250003D01*
X9283326Y5682843D02*
X9250003Y5716166D01*
Y5782811D01*
X9283326Y5816133D01*
X9316648D01*
X9349971Y5782811D01*
Y5716166D01*
X9383293Y5682843D01*
X9416616D01*
X9449938Y5716166D01*
Y5782811D01*
X9416616Y5816133D01*
X9250003Y5616198D02*
X9449938D01*
X9383293D01*
X9250003Y5482908D01*
X9349971Y5582875D01*
X9449938Y5482908D01*
X9250003Y5416262D02*
Y5349617D01*
Y5382940D01*
X9449938D01*
Y5416262D01*
Y5349617D01*
X9548584Y8178800D02*
X9748520D01*
Y8078832D01*
X9715197Y8045510D01*
X9681875D01*
X9648552Y8078832D01*
Y8178800D01*
Y8078832D01*
X9615230Y8045510D01*
X9581907D01*
X9548584Y8078832D01*
Y8178800D01*
Y7878897D02*
Y7945542D01*
X9581907Y7978864D01*
X9715197D01*
X9748520Y7945542D01*
Y7878897D01*
X9715197Y7845574D01*
X9581907D01*
X9548584Y7878897D01*
Y7778929D02*
X9748520Y7645639D01*
X9548584D02*
X9748520Y7778929D01*
X9548584Y7445703D02*
Y7578993D01*
X9748520D01*
Y7445703D01*
X9648552Y7578993D02*
Y7512348D01*
X9748520Y7379058D02*
X9548584D01*
Y7279090D01*
X9581907Y7245767D01*
X9648552D01*
X9681875Y7279090D01*
Y7379058D01*
Y7312413D02*
X9748520Y7245767D01*
X9781843Y7179122D02*
Y7045832D01*
X9581907Y6979186D02*
X9548584Y6945864D01*
Y6879219D01*
X9581907Y6845896D01*
X9615230D01*
X9648552Y6879219D01*
Y6912541D01*
Y6879219D01*
X9681875Y6845896D01*
X9715197D01*
X9748520Y6879219D01*
Y6945864D01*
X9715197Y6979186D01*
X9748520Y6779251D02*
X9715197D01*
Y6745928D01*
X9748520D01*
Y6779251D01*
X9581907Y6612638D02*
X9548584Y6579316D01*
Y6512670D01*
X9581907Y6479348D01*
X9715197D01*
X9748520Y6512670D01*
Y6579316D01*
X9715197Y6612638D01*
X9581907D01*
%TF.MD5,6d22666c9dc73c377631b802d203f585*%
M02*
