%TF.GenerationSoftware,Altium Limited,Altium Designer,19.0.10 (269)*%
G04 Layer_Color=8421504*
%FSLAX45Y45*%
%MOMM*%
%TF.FileFunction,Paste,Top*%
%TF.Part,Single*%
G01*
G75*
%TA.AperFunction,SMDPad,CuDef*%
%ADD11C,1.20000*%
G04:AMPARAMS|DCode=12|XSize=1.4mm|YSize=1.2mm|CornerRadius=0.3mm|HoleSize=0mm|Usage=FLASHONLY|Rotation=270.000|XOffset=0mm|YOffset=0mm|HoleType=Round|Shape=RoundedRectangle|*
%AMROUNDEDRECTD12*
21,1,1.40000,0.60000,0,0,270.0*
21,1,0.80000,1.20000,0,0,270.0*
1,1,0.60000,-0.30000,-0.40000*
1,1,0.60000,-0.30000,0.40000*
1,1,0.60000,0.30000,0.40000*
1,1,0.60000,0.30000,-0.40000*
%
%ADD12ROUNDEDRECTD12*%
%ADD13O,0.60000X1.90000*%
G04:AMPARAMS|DCode=14|XSize=1.524mm|YSize=1.524mm|CornerRadius=0.381mm|HoleSize=0mm|Usage=FLASHONLY|Rotation=90.000|XOffset=0mm|YOffset=0mm|HoleType=Round|Shape=RoundedRectangle|*
%AMROUNDEDRECTD14*
21,1,1.52400,0.76200,0,0,90.0*
21,1,0.76200,1.52400,0,0,90.0*
1,1,0.76200,0.38100,0.38100*
1,1,0.76200,0.38100,-0.38100*
1,1,0.76200,-0.38100,-0.38100*
1,1,0.76200,-0.38100,0.38100*
%
%ADD14ROUNDEDRECTD14*%
G04:AMPARAMS|DCode=15|XSize=1.4mm|YSize=1.2mm|CornerRadius=0.3mm|HoleSize=0mm|Usage=FLASHONLY|Rotation=180.000|XOffset=0mm|YOffset=0mm|HoleType=Round|Shape=RoundedRectangle|*
%AMROUNDEDRECTD15*
21,1,1.40000,0.60000,0,0,180.0*
21,1,0.80000,1.20000,0,0,180.0*
1,1,0.60000,-0.40000,0.30000*
1,1,0.60000,0.40000,0.30000*
1,1,0.60000,0.40000,-0.30000*
1,1,0.60000,-0.40000,-0.30000*
%
%ADD15ROUNDEDRECTD15*%
G04:AMPARAMS|DCode=16|XSize=0.6mm|YSize=1.15mm|CornerRadius=0.15mm|HoleSize=0mm|Usage=FLASHONLY|Rotation=0.000|XOffset=0mm|YOffset=0mm|HoleType=Round|Shape=RoundedRectangle|*
%AMROUNDEDRECTD16*
21,1,0.60000,0.85000,0,0,0.0*
21,1,0.30000,1.15000,0,0,0.0*
1,1,0.30000,0.15000,-0.42500*
1,1,0.30000,-0.15000,-0.42500*
1,1,0.30000,-0.15000,0.42500*
1,1,0.30000,0.15000,0.42500*
%
%ADD16ROUNDEDRECTD16*%
G04:AMPARAMS|DCode=17|XSize=0.6mm|YSize=1.15mm|CornerRadius=0.15mm|HoleSize=0mm|Usage=FLASHONLY|Rotation=90.000|XOffset=0mm|YOffset=0mm|HoleType=Round|Shape=RoundedRectangle|*
%AMROUNDEDRECTD17*
21,1,0.60000,0.85000,0,0,90.0*
21,1,0.30000,1.15000,0,0,90.0*
1,1,0.30000,0.42500,0.15000*
1,1,0.30000,0.42500,-0.15000*
1,1,0.30000,-0.42500,-0.15000*
1,1,0.30000,-0.42500,0.15000*
%
%ADD17ROUNDEDRECTD17*%
G04:AMPARAMS|DCode=18|XSize=1.524mm|YSize=2.032mm|CornerRadius=0.381mm|HoleSize=0mm|Usage=FLASHONLY|Rotation=180.000|XOffset=0mm|YOffset=0mm|HoleType=Round|Shape=RoundedRectangle|*
%AMROUNDEDRECTD18*
21,1,1.52400,1.27000,0,0,180.0*
21,1,0.76200,2.03200,0,0,180.0*
1,1,0.76200,-0.38100,0.63500*
1,1,0.76200,0.38100,0.63500*
1,1,0.76200,0.38100,-0.63500*
1,1,0.76200,-0.38100,-0.63500*
%
%ADD18ROUNDEDRECTD18*%
G04:AMPARAMS|DCode=19|XSize=1.7mm|YSize=1.1mm|CornerRadius=0.275mm|HoleSize=0mm|Usage=FLASHONLY|Rotation=90.000|XOffset=0mm|YOffset=0mm|HoleType=Round|Shape=RoundedRectangle|*
%AMROUNDEDRECTD19*
21,1,1.70000,0.55000,0,0,90.0*
21,1,1.15000,1.10000,0,0,90.0*
1,1,0.55000,0.27500,0.57500*
1,1,0.55000,0.27500,-0.57500*
1,1,0.55000,-0.27500,-0.57500*
1,1,0.55000,-0.27500,0.57500*
%
%ADD19ROUNDEDRECTD19*%
G04:AMPARAMS|DCode=20|XSize=1.7mm|YSize=1.1mm|CornerRadius=0.275mm|HoleSize=0mm|Usage=FLASHONLY|Rotation=0.000|XOffset=0mm|YOffset=0mm|HoleType=Round|Shape=RoundedRectangle|*
%AMROUNDEDRECTD20*
21,1,1.70000,0.55000,0,0,0.0*
21,1,1.15000,1.10000,0,0,0.0*
1,1,0.55000,0.57500,-0.27500*
1,1,0.55000,-0.57500,-0.27500*
1,1,0.55000,-0.57500,0.27500*
1,1,0.55000,0.57500,0.27500*
%
%ADD20ROUNDEDRECTD20*%
G04:AMPARAMS|DCode=21|XSize=4.3mm|YSize=1.6mm|CornerRadius=0.4mm|HoleSize=0mm|Usage=FLASHONLY|Rotation=90.000|XOffset=0mm|YOffset=0mm|HoleType=Round|Shape=RoundedRectangle|*
%AMROUNDEDRECTD21*
21,1,4.30000,0.80000,0,0,90.0*
21,1,3.50000,1.60000,0,0,90.0*
1,1,0.80000,0.40000,1.75000*
1,1,0.80000,0.40000,-1.75000*
1,1,0.80000,-0.40000,-1.75000*
1,1,0.80000,-0.40000,1.75000*
%
%ADD21ROUNDEDRECTD21*%
G04:AMPARAMS|DCode=22|XSize=1.3mm|YSize=1.2mm|CornerRadius=0.3mm|HoleSize=0mm|Usage=FLASHONLY|Rotation=0.000|XOffset=0mm|YOffset=0mm|HoleType=Round|Shape=RoundedRectangle|*
%AMROUNDEDRECTD22*
21,1,1.30000,0.60000,0,0,0.0*
21,1,0.70000,1.20000,0,0,0.0*
1,1,0.60000,0.35000,-0.30000*
1,1,0.60000,-0.35000,-0.30000*
1,1,0.60000,-0.35000,0.30000*
1,1,0.60000,0.35000,0.30000*
%
%ADD22ROUNDEDRECTD22*%
G04:AMPARAMS|DCode=23|XSize=2.286mm|YSize=2.1844mm|CornerRadius=0.5461mm|HoleSize=0mm|Usage=FLASHONLY|Rotation=270.000|XOffset=0mm|YOffset=0mm|HoleType=Round|Shape=RoundedRectangle|*
%AMROUNDEDRECTD23*
21,1,2.28600,1.09220,0,0,270.0*
21,1,1.19380,2.18440,0,0,270.0*
1,1,1.09220,-0.54610,-0.59690*
1,1,1.09220,-0.54610,0.59690*
1,1,1.09220,0.54610,0.59690*
1,1,1.09220,0.54610,-0.59690*
%
%ADD23ROUNDEDRECTD23*%
%ADD24O,1.90000X0.60000*%
G04:AMPARAMS|DCode=25|XSize=7.3mm|YSize=2.65mm|CornerRadius=0.6625mm|HoleSize=0mm|Usage=FLASHONLY|Rotation=90.000|XOffset=0mm|YOffset=0mm|HoleType=Round|Shape=RoundedRectangle|*
%AMROUNDEDRECTD25*
21,1,7.30000,1.32500,0,0,90.0*
21,1,5.97500,2.65000,0,0,90.0*
1,1,1.32500,0.66250,2.98750*
1,1,1.32500,0.66250,-2.98750*
1,1,1.32500,-0.66250,-2.98750*
1,1,1.32500,-0.66250,2.98750*
%
%ADD25ROUNDEDRECTD25*%
G04:AMPARAMS|DCode=26|XSize=2.286mm|YSize=2.1844mm|CornerRadius=0.5461mm|HoleSize=0mm|Usage=FLASHONLY|Rotation=0.000|XOffset=0mm|YOffset=0mm|HoleType=Round|Shape=RoundedRectangle|*
%AMROUNDEDRECTD26*
21,1,2.28600,1.09220,0,0,0.0*
21,1,1.19380,2.18440,0,0,0.0*
1,1,1.09220,0.59690,-0.54610*
1,1,1.09220,-0.59690,-0.54610*
1,1,1.09220,-0.59690,0.54610*
1,1,1.09220,0.59690,0.54610*
%
%ADD26ROUNDEDRECTD26*%
G04:AMPARAMS|DCode=27|XSize=1.73mm|YSize=1.67mm|CornerRadius=0.4175mm|HoleSize=0mm|Usage=FLASHONLY|Rotation=90.000|XOffset=0mm|YOffset=0mm|HoleType=Round|Shape=RoundedRectangle|*
%AMROUNDEDRECTD27*
21,1,1.73000,0.83500,0,0,90.0*
21,1,0.89500,1.67000,0,0,90.0*
1,1,0.83500,0.41750,0.44750*
1,1,0.83500,0.41750,-0.44750*
1,1,0.83500,-0.41750,-0.44750*
1,1,0.83500,-0.41750,0.44750*
%
%ADD27ROUNDEDRECTD27*%
G04:AMPARAMS|DCode=28|XSize=1.5mm|YSize=1.3mm|CornerRadius=0.325mm|HoleSize=0mm|Usage=FLASHONLY|Rotation=0.000|XOffset=0mm|YOffset=0mm|HoleType=Round|Shape=RoundedRectangle|*
%AMROUNDEDRECTD28*
21,1,1.50000,0.65000,0,0,0.0*
21,1,0.85000,1.30000,0,0,0.0*
1,1,0.65000,0.42500,-0.32500*
1,1,0.65000,-0.42500,-0.32500*
1,1,0.65000,-0.42500,0.32500*
1,1,0.65000,0.42500,0.32500*
%
%ADD28ROUNDEDRECTD28*%
%ADD29O,1.50000X0.50000*%
%ADD30O,0.50000X1.50000*%
G04:AMPARAMS|DCode=31|XSize=1.73mm|YSize=1.67mm|CornerRadius=0.4175mm|HoleSize=0mm|Usage=FLASHONLY|Rotation=0.000|XOffset=0mm|YOffset=0mm|HoleType=Round|Shape=RoundedRectangle|*
%AMROUNDEDRECTD31*
21,1,1.73000,0.83500,0,0,0.0*
21,1,0.89500,1.67000,0,0,0.0*
1,1,0.83500,0.44750,-0.41750*
1,1,0.83500,-0.44750,-0.41750*
1,1,0.83500,-0.44750,0.41750*
1,1,0.83500,0.44750,0.41750*
%
%ADD31ROUNDEDRECTD31*%
G04:AMPARAMS|DCode=32|XSize=1.524mm|YSize=1.524mm|CornerRadius=0.381mm|HoleSize=0mm|Usage=FLASHONLY|Rotation=0.000|XOffset=0mm|YOffset=0mm|HoleType=Round|Shape=RoundedRectangle|*
%AMROUNDEDRECTD32*
21,1,1.52400,0.76200,0,0,0.0*
21,1,0.76200,1.52400,0,0,0.0*
1,1,0.76200,0.38100,-0.38100*
1,1,0.76200,-0.38100,-0.38100*
1,1,0.76200,-0.38100,0.38100*
1,1,0.76200,0.38100,0.38100*
%
%ADD32ROUNDEDRECTD32*%
G04:AMPARAMS|DCode=33|XSize=2.2098mm|YSize=2.4638mm|CornerRadius=0.55245mm|HoleSize=0mm|Usage=FLASHONLY|Rotation=270.000|XOffset=0mm|YOffset=0mm|HoleType=Round|Shape=RoundedRectangle|*
%AMROUNDEDRECTD33*
21,1,2.20980,1.35890,0,0,270.0*
21,1,1.10490,2.46380,0,0,270.0*
1,1,1.10490,-0.67945,-0.55245*
1,1,1.10490,-0.67945,0.55245*
1,1,1.10490,0.67945,0.55245*
1,1,1.10490,0.67945,-0.55245*
%
%ADD33ROUNDEDRECTD33*%
G04:AMPARAMS|DCode=34|XSize=0.65mm|YSize=1.1mm|CornerRadius=0.1625mm|HoleSize=0mm|Usage=FLASHONLY|Rotation=180.000|XOffset=0mm|YOffset=0mm|HoleType=Round|Shape=RoundedRectangle|*
%AMROUNDEDRECTD34*
21,1,0.65000,0.77500,0,0,180.0*
21,1,0.32500,1.10000,0,0,180.0*
1,1,0.32500,-0.16250,0.38750*
1,1,0.32500,0.16250,0.38750*
1,1,0.32500,0.16250,-0.38750*
1,1,0.32500,-0.16250,-0.38750*
%
%ADD34ROUNDEDRECTD34*%
%ADD35O,0.60000X2.20000*%
G04:AMPARAMS|DCode=36|XSize=1.1mm|YSize=1.9mm|CornerRadius=0.275mm|HoleSize=0mm|Usage=FLASHONLY|Rotation=180.000|XOffset=0mm|YOffset=0mm|HoleType=Round|Shape=RoundedRectangle|*
%AMROUNDEDRECTD36*
21,1,1.10000,1.35000,0,0,180.0*
21,1,0.55000,1.90000,0,0,180.0*
1,1,0.55000,-0.27500,0.67500*
1,1,0.55000,0.27500,0.67500*
1,1,0.55000,0.27500,-0.67500*
1,1,0.55000,-0.27500,-0.67500*
%
%ADD36ROUNDEDRECTD36*%
D11*
X2690880Y5895053D02*
D03*
X4856480Y4138000D02*
D03*
X5071902Y4459560D02*
D03*
X4061460Y4148160D02*
D03*
X5228340Y8429580D02*
D03*
X5327400Y8246700D02*
D03*
X5418840Y8053660D02*
D03*
X9662700Y982300D02*
D03*
X7796766Y4289541D02*
D03*
X8284766Y8015560D02*
D03*
X7857086Y6415039D02*
D03*
X7374640Y4761820D02*
D03*
X7222240Y4407661D02*
D03*
X6140060Y4351811D02*
D03*
X7039360Y6575380D02*
D03*
X7001260Y7933140D02*
D03*
X562360Y7428820D02*
D03*
X750320D02*
D03*
X1235460Y6989400D02*
D03*
X4882420Y8907100D02*
D03*
X3290446Y8155260D02*
D03*
X4367444Y2623140D02*
D03*
X4885440D02*
D03*
X5403436Y2631154D02*
D03*
X6334420Y2744690D02*
D03*
X7651500Y1894160D02*
D03*
X5934820Y1312500D02*
D03*
X3534719Y3786460D02*
D03*
X2629060Y5480089D02*
D03*
X1335320Y3667080D02*
D03*
X8461606Y8015560D02*
D03*
X7405120Y7332300D02*
D03*
X8464902Y3378722D02*
D03*
X7001260Y7552140D02*
D03*
X1946660Y5285400D02*
D03*
X8400881Y1197000D02*
D03*
X7491479Y2897102D02*
D03*
X3198880Y4782140D02*
D03*
X8871200Y2031640D02*
D03*
X4011680Y7070680D02*
D03*
X1367540Y6730320D02*
D03*
D12*
X2963480Y7664829D02*
D03*
X3143480D02*
D03*
X8821500Y3378722D02*
D03*
X8641500D02*
D03*
X1258601Y8447360D02*
D03*
X1078601D02*
D03*
X9282320Y4639581D02*
D03*
X9462320D02*
D03*
X9461980Y4442421D02*
D03*
X9281980D02*
D03*
X6794420Y8452213D02*
D03*
X6974420D02*
D03*
X9112340Y8416880D02*
D03*
X9292340D02*
D03*
X9023678Y6683807D02*
D03*
X9203678D02*
D03*
X9203338Y6486647D02*
D03*
X9023338D02*
D03*
X9203338Y6289487D02*
D03*
X9023338D02*
D03*
X7086880Y5899740D02*
D03*
X6906880D02*
D03*
X917000Y7621241D02*
D03*
X737000D02*
D03*
X737340Y7818400D02*
D03*
X917340D02*
D03*
X559540Y7813320D02*
D03*
X379540D02*
D03*
X379880Y7621241D02*
D03*
X559880D02*
D03*
X430140Y6575860D02*
D03*
X610140D02*
D03*
X4277560Y9247039D02*
D03*
X4097560D02*
D03*
X4097420Y8702320D02*
D03*
X4277420D02*
D03*
X2492620Y9252119D02*
D03*
X2672620D02*
D03*
X3192980Y9247039D02*
D03*
X3012980D02*
D03*
X8225631Y2386339D02*
D03*
X8045631D02*
D03*
X8225631Y1837080D02*
D03*
X8045631D02*
D03*
X8226721Y1195660D02*
D03*
X8046722D02*
D03*
X6242183Y1299800D02*
D03*
X6422183D02*
D03*
X5607900Y1032265D02*
D03*
X5427900D02*
D03*
X2449060Y5313409D02*
D03*
X2629060D02*
D03*
X878260Y4439240D02*
D03*
X1058260D02*
D03*
X789260Y3323561D02*
D03*
X609260D02*
D03*
X789260Y3515640D02*
D03*
X609260D02*
D03*
X2843338Y3546120D02*
D03*
X3023338D02*
D03*
X2843338Y3354041D02*
D03*
X3023338D02*
D03*
X1017360Y4110620D02*
D03*
X1197360D02*
D03*
X8284766Y8401640D02*
D03*
X8461606D02*
D03*
X8284426Y8204480D02*
D03*
X8461606D02*
D03*
X8104766Y8401640D02*
D03*
X8641606D02*
D03*
X3036020Y5783507D02*
D03*
X3216020D02*
D03*
X1247820Y6001340D02*
D03*
X1067820D02*
D03*
X1884260Y5668600D02*
D03*
X1704260D02*
D03*
X8641606Y8204480D02*
D03*
X8104426D02*
D03*
X1515320Y2931620D02*
D03*
X1335320D02*
D03*
X1726180Y2662340D02*
D03*
X1546180D02*
D03*
X400640Y2218040D02*
D03*
X220640D02*
D03*
X220300Y2607280D02*
D03*
X400300D02*
D03*
X3749398Y2962100D02*
D03*
X3569398D02*
D03*
X3960259Y2692820D02*
D03*
X3780259D02*
D03*
X2634718Y2248520D02*
D03*
X2454718D02*
D03*
X2454378Y2637760D02*
D03*
X2634378D02*
D03*
X9179020Y3378722D02*
D03*
X8999020D02*
D03*
X8065199Y7639686D02*
D03*
X7885199D02*
D03*
X8065199Y7836846D02*
D03*
X7885199D02*
D03*
X3306653Y4027760D02*
D03*
X3126653D02*
D03*
X9281980Y4245261D02*
D03*
X9461980D02*
D03*
X3192600Y5505489D02*
D03*
X3372600D02*
D03*
X2629060Y5121329D02*
D03*
X2449060D02*
D03*
X1158780Y1989540D02*
D03*
X978780D02*
D03*
X220300Y2410120D02*
D03*
X400300D02*
D03*
X1154980Y3480401D02*
D03*
X1334980D02*
D03*
X220300Y2799360D02*
D03*
X400300D02*
D03*
X1017360Y3913460D02*
D03*
X1197360D02*
D03*
X2629060Y4572069D02*
D03*
X2449060D02*
D03*
X3358178Y1988939D02*
D03*
X3178179D02*
D03*
X2454378Y2440600D02*
D03*
X2634378D02*
D03*
X3389058Y3510881D02*
D03*
X3569058D02*
D03*
X2454378Y2829840D02*
D03*
X2634378D02*
D03*
X3126653Y3830600D02*
D03*
X3306653D02*
D03*
D13*
X9662700Y1683440D02*
D03*
X9535700D02*
D03*
X9408700D02*
D03*
X9281700D02*
D03*
X9662700Y1213440D02*
D03*
X9535700D02*
D03*
X9408700D02*
D03*
X9281700D02*
D03*
X8931660Y5331300D02*
D03*
X8804660D02*
D03*
X8677660D02*
D03*
X8550660D02*
D03*
X8931660Y4861300D02*
D03*
X8804660D02*
D03*
X8677660D02*
D03*
X8550660D02*
D03*
X8995878Y7377447D02*
D03*
X8868878D02*
D03*
X8741878D02*
D03*
X8614878D02*
D03*
X8995878Y6907447D02*
D03*
X8868878D02*
D03*
X8741878D02*
D03*
X8614878D02*
D03*
D14*
X9068820Y1683440D02*
D03*
Y1962840D02*
D03*
X9144540Y4844360D02*
D03*
Y5123760D02*
D03*
X6533760Y2465290D02*
D03*
Y2744690D02*
D03*
D15*
X9443320Y2418602D02*
D03*
Y2238603D02*
D03*
X9246160Y2238943D02*
D03*
Y2418943D02*
D03*
X9136920Y5498380D02*
D03*
Y5318380D02*
D03*
X9201138Y7409907D02*
D03*
Y7229907D02*
D03*
Y7052727D02*
D03*
Y6872727D02*
D03*
X7661847Y6029168D02*
D03*
Y6209167D02*
D03*
X6522640Y4171812D02*
D03*
Y4351811D02*
D03*
X6325480Y4171812D02*
D03*
Y4351811D02*
D03*
X6935700Y3221512D02*
D03*
Y3041512D02*
D03*
X6738540Y3041852D02*
D03*
Y3221852D02*
D03*
X5657600Y4059252D02*
D03*
Y3879253D02*
D03*
X5139440Y4059252D02*
D03*
Y3879253D02*
D03*
X4621646Y4059252D02*
D03*
Y3879253D02*
D03*
X4107240Y9064580D02*
D03*
Y8884580D02*
D03*
X3298066Y8715790D02*
D03*
Y8535790D02*
D03*
X4621646Y2625680D02*
D03*
Y2445680D02*
D03*
X5139440Y2625680D02*
D03*
Y2445680D02*
D03*
X5655099Y2625680D02*
D03*
Y2445680D02*
D03*
X8215811Y2024080D02*
D03*
Y2204079D02*
D03*
X5200400Y1207185D02*
D03*
Y1027185D02*
D03*
X4965140Y1207185D02*
D03*
Y1027185D02*
D03*
X4725900D02*
D03*
Y1207185D02*
D03*
X2944733Y3857580D02*
D03*
Y4037580D02*
D03*
X835440Y3940440D02*
D03*
Y4120440D02*
D03*
X5439160Y7171460D02*
D03*
Y7351460D02*
D03*
X8284426Y7647600D02*
D03*
Y7827600D02*
D03*
X3844292Y6503549D02*
D03*
Y6683548D02*
D03*
X4097332Y6503549D02*
D03*
Y6683548D02*
D03*
X4357120D02*
D03*
Y6503549D02*
D03*
X1705660Y5285400D02*
D03*
Y5465400D02*
D03*
X1715060Y2217220D02*
D03*
Y2037220D02*
D03*
X1517900Y2036880D02*
D03*
Y2216880D02*
D03*
X1335320Y3118141D02*
D03*
Y3298141D02*
D03*
X1080520Y3101800D02*
D03*
Y2921800D02*
D03*
X3949138Y2247700D02*
D03*
Y2067700D02*
D03*
X3751979Y2067360D02*
D03*
Y2247360D02*
D03*
X3569398Y3148621D02*
D03*
Y3328621D02*
D03*
X3314598Y3132280D02*
D03*
Y2952280D02*
D03*
X2458880Y4933989D02*
D03*
Y4753989D02*
D03*
X4283280Y7518060D02*
D03*
Y7698060D02*
D03*
X421920Y3520380D02*
D03*
Y3340380D02*
D03*
X2655998Y3550860D02*
D03*
Y3370860D02*
D03*
X3462260Y6035747D02*
D03*
Y5855747D02*
D03*
X4709799Y4955489D02*
D03*
Y5135489D02*
D03*
X3367860Y5143229D02*
D03*
Y5323229D02*
D03*
X3270180Y6398807D02*
D03*
Y6218807D02*
D03*
X7682446Y8140940D02*
D03*
Y8320940D02*
D03*
X4086120Y7698060D02*
D03*
Y7518060D02*
D03*
X3175780Y5143229D02*
D03*
Y5323229D02*
D03*
X883360Y3135740D02*
D03*
Y2955740D02*
D03*
X3041100Y6398807D02*
D03*
Y6218807D02*
D03*
X3117439Y3166220D02*
D03*
Y2986220D02*
D03*
D16*
X8967720Y2180183D02*
D03*
X8871200Y2421483D02*
D03*
X9064240D02*
D03*
X8967720Y2593242D02*
D03*
X8871200Y2834542D02*
D03*
X9064240D02*
D03*
X6460100Y3396152D02*
D03*
X6363580Y3637452D02*
D03*
X6556620D02*
D03*
X6460100Y2983092D02*
D03*
X6363580Y3224392D02*
D03*
X6556620D02*
D03*
X638560Y8140020D02*
D03*
X542040Y8381320D02*
D03*
X735080D02*
D03*
X2897340Y5084809D02*
D03*
X2800820Y5326109D02*
D03*
X2993860D02*
D03*
X1697740Y5874777D02*
D03*
X1890780D02*
D03*
X1794260Y6116077D02*
D03*
D17*
X9061700Y3100282D02*
D03*
X8820400Y3003762D02*
D03*
Y3196802D02*
D03*
X6554080Y3903192D02*
D03*
X6312780Y3806672D02*
D03*
Y3999712D02*
D03*
D18*
X9383300Y741781D02*
D03*
X9662700D02*
D03*
X2411480Y6504349D02*
D03*
X2690880D02*
D03*
X6214220Y1071200D02*
D03*
X5934820D02*
D03*
D19*
X8407660Y4517180D02*
D03*
X8677660D02*
D03*
X8241740Y4289541D02*
D03*
X7971740D02*
D03*
X8241740Y4517180D02*
D03*
X7971740D02*
D03*
X8469718Y6642687D02*
D03*
X8739718D02*
D03*
X8303798D02*
D03*
X8033799D02*
D03*
X8303798Y6415047D02*
D03*
X8033799D02*
D03*
X7058620Y8239813D02*
D03*
X6788620D02*
D03*
X694340Y6363460D02*
D03*
X424340D02*
D03*
X2697426Y9039720D02*
D03*
X2427426D02*
D03*
X5652900Y1243920D02*
D03*
X5382900D02*
D03*
X4345580Y7900300D02*
D03*
X4075580D02*
D03*
D20*
X7470046Y8405480D02*
D03*
Y8135480D02*
D03*
X6950940Y3393232D02*
D03*
Y3663232D02*
D03*
X3878800Y7512260D02*
D03*
Y7782260D02*
D03*
X7494020Y2450040D02*
D03*
Y2720040D02*
D03*
X6852063Y1284180D02*
D03*
Y1554180D02*
D03*
X6624423Y1284180D02*
D03*
Y1554180D02*
D03*
X3651160Y7512260D02*
D03*
Y7782260D02*
D03*
X9428080Y2860322D02*
D03*
Y2590322D02*
D03*
D21*
X8386668Y7147935D02*
D03*
X8116648Y7148359D02*
D03*
D22*
X7856466Y6207727D02*
D03*
Y6027727D02*
D03*
D23*
X6296222Y5707970D02*
D03*
Y5161870D02*
D03*
D24*
X7086880Y5305380D02*
D03*
Y5432380D02*
D03*
Y5559380D02*
D03*
Y5686380D02*
D03*
X6616880Y5305380D02*
D03*
Y5432380D02*
D03*
Y5559380D02*
D03*
Y5686380D02*
D03*
X428960Y7042740D02*
D03*
Y6915740D02*
D03*
Y6788740D02*
D03*
X898960Y7169740D02*
D03*
Y7042740D02*
D03*
Y6915740D02*
D03*
Y6788740D02*
D03*
X428960Y7169740D02*
D03*
X6046820Y2252411D02*
D03*
Y2125411D02*
D03*
Y1998411D02*
D03*
Y1871411D02*
D03*
X6516820Y2252411D02*
D03*
Y2125411D02*
D03*
Y1998411D02*
D03*
Y1871411D02*
D03*
X8201541Y2594000D02*
D03*
Y2721000D02*
D03*
Y2848000D02*
D03*
Y2975000D02*
D03*
X7731541Y2594000D02*
D03*
Y2721000D02*
D03*
Y2848000D02*
D03*
Y2975000D02*
D03*
X7211606Y7933140D02*
D03*
Y7806140D02*
D03*
Y7679140D02*
D03*
Y7552140D02*
D03*
X7681606Y7933140D02*
D03*
Y7806140D02*
D03*
Y7679140D02*
D03*
Y7552140D02*
D03*
D25*
X7805650Y5132650D02*
D03*
X8270470Y5130110D02*
D03*
D26*
X6636770Y5001182D02*
D03*
X7182870D02*
D03*
D27*
X7209540Y2882811D02*
D03*
Y2481491D02*
D03*
X6535960Y8429353D02*
D03*
Y8028033D02*
D03*
X6191000Y8429353D02*
D03*
Y8028033D02*
D03*
X5846040Y8429353D02*
D03*
Y8028033D02*
D03*
X1566244Y7863154D02*
D03*
Y7461834D02*
D03*
D28*
X5403436Y2800845D02*
D03*
X5657436D02*
D03*
Y3697845D02*
D03*
X5403436D02*
D03*
X4885440D02*
D03*
X5139440D02*
D03*
Y2800845D02*
D03*
X4885440D02*
D03*
X4367444D02*
D03*
X4621444D02*
D03*
Y3697845D02*
D03*
X4367444D02*
D03*
D29*
X3666140Y5745489D02*
D03*
Y5665489D02*
D03*
Y5585489D02*
D03*
Y5505489D02*
D03*
Y5425489D02*
D03*
Y5345489D02*
D03*
Y5265489D02*
D03*
Y5185488D02*
D03*
X4506140D02*
D03*
Y5265489D02*
D03*
Y5345489D02*
D03*
Y5425489D02*
D03*
Y5505489D02*
D03*
Y5585489D02*
D03*
Y5665489D02*
D03*
Y5745489D02*
D03*
D30*
X3806140Y5045489D02*
D03*
X3886140D02*
D03*
X3966140D02*
D03*
X4046140D02*
D03*
X4126140D02*
D03*
X4206140D02*
D03*
X4286140D02*
D03*
X4366140D02*
D03*
Y5885489D02*
D03*
X4286140D02*
D03*
X4206140D02*
D03*
X4126140D02*
D03*
X4046140D02*
D03*
X3966140D02*
D03*
X3886140D02*
D03*
X3806140D02*
D03*
D31*
X4882420Y9162739D02*
D03*
X4481100D02*
D03*
X3298066Y8978279D02*
D03*
X2896746D02*
D03*
D32*
X3011046Y8341170D02*
D03*
X3290446D02*
D03*
X7491479Y2258923D02*
D03*
X7212079D02*
D03*
X5134360Y5470480D02*
D03*
X4854960D02*
D03*
X2411480Y6266549D02*
D03*
X2690880D02*
D03*
X3841020Y6230367D02*
D03*
X3561620D02*
D03*
X1843020Y2457560D02*
D03*
X1563620D02*
D03*
X4077099Y2488040D02*
D03*
X3797699D02*
D03*
D33*
X7779247Y1517040D02*
D03*
X8226287D02*
D03*
X8978650Y8095260D02*
D03*
X9425690D02*
D03*
D34*
X5245100Y6732579D02*
D03*
X5340100D02*
D03*
X5435100D02*
D03*
Y6492579D02*
D03*
X5340100D02*
D03*
X5245100D02*
D03*
D35*
X1335320Y2698040D02*
D03*
X1208320D02*
D03*
X1081320D02*
D03*
X954320D02*
D03*
X827320D02*
D03*
X700320D02*
D03*
X573320D02*
D03*
X1335320Y2218040D02*
D03*
X1208320D02*
D03*
X1081320D02*
D03*
X954320D02*
D03*
X827320D02*
D03*
X700320D02*
D03*
X573320D02*
D03*
X3569399Y2728520D02*
D03*
X3442399D02*
D03*
X3315399D02*
D03*
X3188399D02*
D03*
X3061399D02*
D03*
X2934399D02*
D03*
X2807399D02*
D03*
X3569399Y2248520D02*
D03*
X3442399D02*
D03*
X3315399D02*
D03*
X3188399D02*
D03*
X3061399D02*
D03*
X2934399D02*
D03*
X2807399D02*
D03*
D36*
X3032210Y6006067D02*
D03*
X3283670D02*
D03*
%TF.MD5,ebabecb4c81b9ea8be0f985efd2efcd7*%
M02*
