%TF.GenerationSoftware,Altium Limited,Altium Designer,19.0.10 (269)*%
G04 Layer_Physical_Order=4*
G04 Layer_Color=16711680*
%FSLAX45Y45*%
%MOMM*%
%TF.FileFunction,Copper,L4,Bot,Signal*%
%TF.Part,Single*%
G01*
G75*
%TA.AperFunction,Conductor*%
%ADD10C,0.30000*%
%ADD38C,0.80000*%
%ADD41C,0.60000*%
%ADD42C,0.40000*%
%ADD59R,3.78441X2.51880*%
%ADD62R,1.21920X1.22560*%
%ADD63R,2.79400X2.08280*%
%ADD66R,1.22560X1.21920*%
%ADD69R,1.89922X1.87960*%
%ADD70R,1.81281X2.51880*%
%ADD71R,1.97498X2.51880*%
%ADD76R,2.51880X1.97498*%
%TA.AperFunction,ComponentPad*%
%ADD81C,2.00000*%
%ADD82C,5.00000*%
%ADD83O,4.50000X2.00000*%
%ADD84O,2.00000X4.50000*%
%ADD85O,2.20000X4.00000*%
%ADD86R,2.00000X2.00000*%
%ADD87C,6.00000*%
%ADD88C,1.80000*%
%ADD89C,2.28600*%
%ADD90O,2.00000X3.00000*%
%ADD91C,3.30000*%
%ADD92O,3.00000X2.00000*%
%ADD93C,4.50000*%
%TA.AperFunction,ViaPad*%
%ADD94C,0.60000*%
%TA.AperFunction,Conductor*%
%ADD95R,3.21060X2.22525*%
%ADD96R,3.16900X1.97498*%
%ADD97R,1.40641X1.93627*%
%ADD98R,3.76961X2.51880*%
%ADD99R,2.51880X1.81280*%
G36*
X9959217Y40784D02*
X40784Y40784D01*
X40783Y9959217D01*
X9959216D01*
X9959217Y40784D01*
D02*
G37*
%LPC*%
G36*
X4519056Y9803536D02*
Y9600619D01*
X4635264D01*
Y9665619D01*
X4630453Y9702167D01*
X4616346Y9736223D01*
X4593905Y9765468D01*
X4564660Y9787909D01*
X4530603Y9802016D01*
X4519056Y9803536D01*
D02*
G37*
G36*
X4469056D02*
X4457509Y9802016D01*
X4423452Y9787909D01*
X4394207Y9765468D01*
X4371766Y9736223D01*
X4357660Y9702167D01*
X4352848Y9665619D01*
Y9600619D01*
X4469056D01*
Y9803536D01*
D02*
G37*
G36*
X2869051D02*
Y9600619D01*
X2985259D01*
Y9665619D01*
X2980447Y9702167D01*
X2966341Y9736223D01*
X2943900Y9765468D01*
X2914655Y9787909D01*
X2880598Y9802016D01*
X2869051Y9803536D01*
D02*
G37*
G36*
X2819051D02*
X2807504Y9802016D01*
X2773447Y9787909D01*
X2744202Y9765468D01*
X2721761Y9736223D01*
X2707654Y9702167D01*
X2702843Y9665619D01*
Y9600619D01*
X2819051D01*
Y9803536D01*
D02*
G37*
G36*
X4635264Y9550619D02*
X4519056D01*
Y9347703D01*
X4530603Y9349223D01*
X4564660Y9363330D01*
X4593905Y9385770D01*
X4616346Y9415015D01*
X4630453Y9449072D01*
X4635264Y9485620D01*
Y9550619D01*
D02*
G37*
G36*
X4469056D02*
X4352848D01*
Y9485620D01*
X4357660Y9449072D01*
X4371766Y9415015D01*
X4394207Y9385770D01*
X4423452Y9363330D01*
X4457509Y9349223D01*
X4469056Y9347703D01*
Y9550619D01*
D02*
G37*
G36*
X4844056Y9806827D02*
X4807509Y9802016D01*
X4773452Y9787909D01*
X4744207Y9765468D01*
X4721766Y9736223D01*
X4707660Y9702167D01*
X4702848Y9665619D01*
Y9485620D01*
X4707660Y9449072D01*
X4721766Y9415015D01*
X4744207Y9385770D01*
X4773452Y9363330D01*
X4807509Y9349223D01*
X4844056Y9344412D01*
X4880603Y9349223D01*
X4914660Y9363330D01*
X4943905Y9385770D01*
X4966346Y9415015D01*
X4980453Y9449072D01*
X4985264Y9485620D01*
Y9665619D01*
X4980453Y9702167D01*
X4966346Y9736223D01*
X4943905Y9765468D01*
X4914660Y9787909D01*
X4880603Y9802016D01*
X4844056Y9806827D01*
D02*
G37*
G36*
X4144106D02*
X4107559Y9802016D01*
X4073502Y9787909D01*
X4044257Y9765468D01*
X4021816Y9736223D01*
X4007710Y9702167D01*
X4002898Y9665619D01*
Y9485620D01*
X4007710Y9449072D01*
X4021816Y9415015D01*
X4044257Y9385770D01*
X4073502Y9363330D01*
X4107559Y9349223D01*
X4144106Y9344412D01*
X4180653Y9349223D01*
X4214710Y9363330D01*
X4243955Y9385770D01*
X4266396Y9415015D01*
X4280502Y9449072D01*
X4285314Y9485620D01*
Y9665619D01*
X4280502Y9702167D01*
X4266396Y9736223D01*
X4243955Y9765468D01*
X4214710Y9787909D01*
X4180653Y9802016D01*
X4144106Y9806827D01*
D02*
G37*
G36*
X3194051D02*
X3157504Y9802016D01*
X3123447Y9787909D01*
X3094202Y9765468D01*
X3071761Y9736223D01*
X3057655Y9702167D01*
X3052843Y9665619D01*
Y9485620D01*
X3057655Y9449072D01*
X3071761Y9415015D01*
X3094202Y9385770D01*
X3123447Y9363330D01*
X3157504Y9349223D01*
X3194051Y9344412D01*
X3230598Y9349223D01*
X3264655Y9363330D01*
X3293900Y9385770D01*
X3316341Y9415015D01*
X3330447Y9449072D01*
X3335259Y9485620D01*
Y9665619D01*
X3330447Y9702167D01*
X3316341Y9736223D01*
X3293900Y9765468D01*
X3264655Y9787909D01*
X3230598Y9802016D01*
X3194051Y9806827D01*
D02*
G37*
G36*
X2494101D02*
X2457554Y9802016D01*
X2423497Y9787909D01*
X2394252Y9765468D01*
X2371811Y9736223D01*
X2357704Y9702167D01*
X2352893Y9665619D01*
Y9485620D01*
X2357704Y9449072D01*
X2371811Y9415015D01*
X2394252Y9385770D01*
X2423497Y9363330D01*
X2457554Y9349223D01*
X2494101Y9344412D01*
X2530648Y9349223D01*
X2564705Y9363330D01*
X2593950Y9385770D01*
X2616391Y9415015D01*
X2630497Y9449072D01*
X2635309Y9485620D01*
Y9665619D01*
X2630497Y9702167D01*
X2616391Y9736223D01*
X2593950Y9765468D01*
X2564705Y9787909D01*
X2530648Y9802016D01*
X2494101Y9806827D01*
D02*
G37*
G36*
X9477606Y9863984D02*
X9433669Y9860526D01*
X9390814Y9850238D01*
X9350096Y9833371D01*
X9312517Y9810344D01*
X9279004Y9781720D01*
X9250381Y9748207D01*
X9227353Y9710629D01*
X9210487Y9669911D01*
X9200198Y9627055D01*
X9196740Y9583118D01*
X9200198Y9539181D01*
X9210487Y9496326D01*
X9227353Y9455608D01*
X9250381Y9418029D01*
X9279004Y9384516D01*
X9312517Y9355893D01*
X9350096Y9332865D01*
X9390814Y9315999D01*
X9433669Y9305710D01*
X9477606Y9302252D01*
X9521543Y9305710D01*
X9564398Y9315999D01*
X9605117Y9332865D01*
X9642695Y9355893D01*
X9676208Y9384516D01*
X9704831Y9418029D01*
X9727859Y9455608D01*
X9744725Y9496326D01*
X9755014Y9539181D01*
X9758472Y9583118D01*
X9755014Y9627055D01*
X9744725Y9669911D01*
X9727859Y9710629D01*
X9704831Y9748207D01*
X9676208Y9781720D01*
X9642695Y9810344D01*
X9605117Y9833371D01*
X9564398Y9850238D01*
X9521543Y9860526D01*
X9477606Y9863984D01*
D02*
G37*
G36*
X8334606D02*
X8290669Y9860526D01*
X8247814Y9850238D01*
X8207096Y9833371D01*
X8169517Y9810344D01*
X8136004Y9781720D01*
X8107381Y9748207D01*
X8084353Y9710629D01*
X8067487Y9669911D01*
X8057198Y9627055D01*
X8053740Y9583118D01*
X8057198Y9539181D01*
X8067487Y9496326D01*
X8084353Y9455608D01*
X8107381Y9418029D01*
X8136004Y9384516D01*
X8169517Y9355893D01*
X8207096Y9332865D01*
X8247814Y9315999D01*
X8290669Y9305710D01*
X8334606Y9302252D01*
X8378543Y9305710D01*
X8421398Y9315999D01*
X8462117Y9332865D01*
X8499695Y9355893D01*
X8533208Y9384516D01*
X8561831Y9418029D01*
X8584859Y9455608D01*
X8601725Y9496326D01*
X8612014Y9539181D01*
X8615472Y9583118D01*
X8612014Y9627055D01*
X8601725Y9669911D01*
X8584859Y9710629D01*
X8561831Y9748207D01*
X8533208Y9781720D01*
X8499695Y9810344D01*
X8462117Y9833371D01*
X8421398Y9850238D01*
X8378543Y9860526D01*
X8334606Y9863984D01*
D02*
G37*
G36*
X6953606D02*
X6909669Y9860526D01*
X6866814Y9850238D01*
X6826096Y9833371D01*
X6788517Y9810344D01*
X6755004Y9781720D01*
X6726381Y9748207D01*
X6703353Y9710629D01*
X6686487Y9669911D01*
X6676198Y9627055D01*
X6672740Y9583118D01*
X6676198Y9539181D01*
X6686487Y9496326D01*
X6703353Y9455608D01*
X6726381Y9418029D01*
X6755004Y9384516D01*
X6788517Y9355893D01*
X6826096Y9332865D01*
X6866814Y9315999D01*
X6909669Y9305710D01*
X6953606Y9302252D01*
X6997543Y9305710D01*
X7040398Y9315999D01*
X7081117Y9332865D01*
X7118695Y9355893D01*
X7152208Y9384516D01*
X7180831Y9418029D01*
X7203859Y9455608D01*
X7220725Y9496326D01*
X7231014Y9539181D01*
X7234472Y9583118D01*
X7231014Y9627055D01*
X7220725Y9669911D01*
X7203859Y9710629D01*
X7180831Y9748207D01*
X7152208Y9781720D01*
X7118695Y9810344D01*
X7081117Y9833371D01*
X7040398Y9850238D01*
X6997543Y9860526D01*
X6953606Y9863984D01*
D02*
G37*
G36*
X5810606D02*
X5766669Y9860526D01*
X5723814Y9850238D01*
X5683096Y9833371D01*
X5645517Y9810344D01*
X5612004Y9781720D01*
X5583381Y9748207D01*
X5560353Y9710629D01*
X5543487Y9669911D01*
X5533198Y9627055D01*
X5529740Y9583118D01*
X5533198Y9539181D01*
X5543487Y9496326D01*
X5560353Y9455608D01*
X5583381Y9418029D01*
X5612004Y9384516D01*
X5645517Y9355893D01*
X5683096Y9332865D01*
X5723814Y9315999D01*
X5766669Y9305710D01*
X5810606Y9302252D01*
X5854543Y9305710D01*
X5897398Y9315999D01*
X5938117Y9332865D01*
X5975695Y9355893D01*
X6009208Y9384516D01*
X6037831Y9418029D01*
X6060859Y9455608D01*
X6077725Y9496326D01*
X6088014Y9539181D01*
X6091472Y9583118D01*
X6088014Y9627055D01*
X6077725Y9669911D01*
X6060859Y9710629D01*
X6037831Y9748207D01*
X6009208Y9781720D01*
X5975695Y9810344D01*
X5938117Y9833371D01*
X5897398Y9850238D01*
X5854543Y9860526D01*
X5810606Y9863984D01*
D02*
G37*
G36*
X1529601D02*
X1485664Y9860526D01*
X1442809Y9850238D01*
X1402090Y9833371D01*
X1364512Y9810344D01*
X1330999Y9781720D01*
X1302376Y9748207D01*
X1279348Y9710629D01*
X1262482Y9669911D01*
X1252193Y9627055D01*
X1248735Y9583118D01*
X1252193Y9539181D01*
X1262482Y9496326D01*
X1279348Y9455608D01*
X1302376Y9418029D01*
X1330999Y9384516D01*
X1364512Y9355893D01*
X1402090Y9332865D01*
X1442809Y9315999D01*
X1485664Y9305710D01*
X1529601Y9302252D01*
X1573538Y9305710D01*
X1616393Y9315999D01*
X1657111Y9332865D01*
X1694690Y9355893D01*
X1728203Y9384516D01*
X1756826Y9418029D01*
X1779854Y9455608D01*
X1796720Y9496326D01*
X1807009Y9539181D01*
X1810467Y9583118D01*
X1807009Y9627055D01*
X1796720Y9669911D01*
X1779854Y9710629D01*
X1756826Y9748207D01*
X1728203Y9781720D01*
X1694690Y9810344D01*
X1657111Y9833371D01*
X1616393Y9850238D01*
X1573538Y9860526D01*
X1529601Y9863984D01*
D02*
G37*
G36*
X386601D02*
X342664Y9860526D01*
X299809Y9850238D01*
X259090Y9833371D01*
X221512Y9810344D01*
X187999Y9781720D01*
X159376Y9748207D01*
X136348Y9710629D01*
X119482Y9669911D01*
X109193Y9627055D01*
X105735Y9583118D01*
X109193Y9539181D01*
X119482Y9496326D01*
X136348Y9455608D01*
X159376Y9418029D01*
X187999Y9384516D01*
X221512Y9355893D01*
X259090Y9332865D01*
X299809Y9315999D01*
X342664Y9305710D01*
X386601Y9302252D01*
X430538Y9305710D01*
X473393Y9315999D01*
X514111Y9332865D01*
X551690Y9355893D01*
X585203Y9384516D01*
X613826Y9418029D01*
X636854Y9455608D01*
X653720Y9496326D01*
X664009Y9539181D01*
X667467Y9583118D01*
X664009Y9627055D01*
X653720Y9669911D01*
X636854Y9710629D01*
X613826Y9748207D01*
X585203Y9781720D01*
X551690Y9810344D01*
X514111Y9833371D01*
X473393Y9850238D01*
X430538Y9860526D01*
X386601Y9863984D01*
D02*
G37*
G36*
X2985259Y9550619D02*
X2702843D01*
Y9485620D01*
X2707654Y9449072D01*
X2721761Y9415015D01*
X2744202Y9385770D01*
X2773447Y9363330D01*
X2807504Y9349223D01*
X2822772Y9347213D01*
X2821940Y9334513D01*
X2784089D01*
X2772384Y9332185D01*
X2762460Y9325554D01*
X2755830Y9315631D01*
X2753501Y9303925D01*
Y9182005D01*
X2755830Y9170300D01*
X2762460Y9160376D01*
X2772384Y9153746D01*
X2784089Y9151418D01*
X2906650D01*
X2918355Y9153746D01*
X2928278Y9160376D01*
X2934909Y9170300D01*
X2937237Y9182005D01*
Y9303925D01*
X2934909Y9315631D01*
X2928278Y9325554D01*
X2918355Y9332185D01*
X2906650Y9334513D01*
X2866162D01*
X2865330Y9347213D01*
X2880598Y9349223D01*
X2914655Y9363330D01*
X2943900Y9385770D01*
X2966341Y9415015D01*
X2980447Y9449072D01*
X2985259Y9485620D01*
Y9550619D01*
D02*
G37*
G36*
X9350606Y9079240D02*
X9316669Y9074772D01*
X9285045Y9061673D01*
X9257889Y9040835D01*
X9237051Y9013679D01*
X9230479Y8997813D01*
X9216733D01*
X9210161Y9013679D01*
X9189323Y9040835D01*
X9162167Y9061673D01*
X9130543Y9074772D01*
X9096606Y9079240D01*
X9062669Y9074772D01*
X9031045Y9061673D01*
X9003889Y9040835D01*
X8983051Y9013679D01*
X8976479Y8997813D01*
X8962733D01*
X8956161Y9013679D01*
X8935323Y9040835D01*
X8908167Y9061673D01*
X8876543Y9074772D01*
X8867603Y9075949D01*
Y8948117D01*
Y8820287D01*
X8876543Y8821464D01*
X8908167Y8834563D01*
X8935323Y8855401D01*
X8956161Y8882557D01*
X8962733Y8898424D01*
X8976479D01*
X8983051Y8882557D01*
X9003889Y8855401D01*
X9031045Y8834563D01*
X9062669Y8821464D01*
X9096606Y8816997D01*
X9130543Y8821464D01*
X9162167Y8834563D01*
X9189323Y8855401D01*
X9210161Y8882557D01*
X9216733Y8898424D01*
X9230479D01*
X9237051Y8882557D01*
X9257889Y8855401D01*
X9285045Y8834563D01*
X9316669Y8821464D01*
X9350606Y8816997D01*
X9384543Y8821464D01*
X9416167Y8834563D01*
X9443323Y8855401D01*
X9464161Y8882557D01*
X9477260Y8914182D01*
X9481728Y8948118D01*
X9477260Y8982055D01*
X9464161Y9013679D01*
X9443323Y9040835D01*
X9416167Y9061673D01*
X9384543Y9074772D01*
X9350606Y9079240D01*
D02*
G37*
G36*
X6826606D02*
X6792669Y9074772D01*
X6761045Y9061673D01*
X6733889Y9040835D01*
X6713051Y9013679D01*
X6706479Y8997813D01*
X6692733D01*
X6686161Y9013679D01*
X6665323Y9040835D01*
X6638167Y9061673D01*
X6606543Y9074772D01*
X6597603Y9075949D01*
Y8948117D01*
Y8820287D01*
X6606543Y8821464D01*
X6638167Y8834563D01*
X6665323Y8855401D01*
X6686161Y8882557D01*
X6692733Y8898424D01*
X6706479D01*
X6713051Y8882557D01*
X6733889Y8855401D01*
X6761045Y8834563D01*
X6792669Y8821464D01*
X6826606Y8816997D01*
X6860543Y8821464D01*
X6892167Y8834563D01*
X6919323Y8855401D01*
X6940161Y8882557D01*
X6953260Y8914182D01*
X6957728Y8948118D01*
X6953260Y8982055D01*
X6940161Y9013679D01*
X6919323Y9040835D01*
X6892167Y9061673D01*
X6860543Y9074772D01*
X6826606Y9079240D01*
D02*
G37*
G36*
X1402601D02*
X1368664Y9074772D01*
X1337040Y9061673D01*
X1309884Y9040835D01*
X1289046Y9013679D01*
X1282474Y8997813D01*
X1268728D01*
X1262156Y9013679D01*
X1241318Y9040835D01*
X1214162Y9061673D01*
X1182538Y9074772D01*
X1173597Y9075949D01*
Y8948117D01*
Y8820287D01*
X1182538Y8821464D01*
X1214162Y8834563D01*
X1241318Y8855401D01*
X1262156Y8882557D01*
X1268728Y8898424D01*
X1282474D01*
X1289046Y8882557D01*
X1309884Y8855401D01*
X1337040Y8834563D01*
X1368664Y8821464D01*
X1402601Y8816997D01*
X1436538Y8821464D01*
X1468162Y8834563D01*
X1495318Y8855401D01*
X1516156Y8882557D01*
X1529255Y8914182D01*
X1533723Y8948118D01*
X1529255Y8982055D01*
X1516156Y9013679D01*
X1495318Y9040835D01*
X1468162Y9061673D01*
X1436538Y9074772D01*
X1402601Y9079240D01*
D02*
G37*
G36*
X615597Y9075948D02*
X606664Y9074772D01*
X575040Y9061673D01*
X547884Y9040835D01*
X527046Y9013679D01*
X513947Y8982055D01*
X512770Y8973117D01*
X615597D01*
Y9075948D01*
D02*
G37*
G36*
X6039603D02*
X6030669Y9074772D01*
X5999045Y9061673D01*
X5971889Y9040835D01*
X5951051Y9013679D01*
X5937952Y8982055D01*
X5936776Y8973117D01*
X6039603D01*
Y9075948D01*
D02*
G37*
G36*
X4362840Y9139983D02*
X4240280D01*
X4228575Y9137655D01*
X4218651Y9131024D01*
X4212021Y9121101D01*
X4209692Y9109395D01*
Y8987475D01*
X4212021Y8975770D01*
X4218651Y8965846D01*
X4228575Y8959216D01*
X4240280Y8956888D01*
X4362840D01*
X4374546Y8959216D01*
X4384469Y8965846D01*
X4391100Y8975770D01*
X4393428Y8987475D01*
Y9109395D01*
X4391100Y9121101D01*
X4384469Y9131024D01*
X4374546Y9137655D01*
X4362840Y9139983D01*
D02*
G37*
G36*
X2459181Y8952076D02*
X2458917Y8952023D01*
X2399446D01*
X2399181Y8952076D01*
X2398917Y8952023D01*
X2367741D01*
X2356036Y8949695D01*
X2346112Y8943064D01*
X2339482Y8933141D01*
X2337153Y8921435D01*
Y8799515D01*
X2339482Y8787810D01*
X2346112Y8777886D01*
X2356036Y8771256D01*
X2367741Y8768928D01*
X2490301D01*
X2502007Y8771256D01*
X2511930Y8777886D01*
X2518561Y8787810D01*
X2520889Y8799515D01*
Y8921435D01*
X2518561Y8933141D01*
X2511930Y8943064D01*
X2502007Y8949695D01*
X2490301Y8952023D01*
X2459445D01*
X2459181Y8952076D01*
D02*
G37*
G36*
X919597Y9075949D02*
Y8948117D01*
Y8820287D01*
X928538Y8821464D01*
X960162Y8834563D01*
X987318Y8855401D01*
X1008156Y8882557D01*
X1014728Y8898424D01*
X1028474D01*
X1035046Y8882557D01*
X1055884Y8855401D01*
X1083040Y8834563D01*
X1114664Y8821464D01*
X1123597Y8820288D01*
Y8948117D01*
Y9075948D01*
X1114664Y9074772D01*
X1083040Y9061673D01*
X1055884Y9040835D01*
X1035046Y9013679D01*
X1028474Y8997813D01*
X1014728D01*
X1008156Y9013679D01*
X987318Y9040835D01*
X960162Y9061673D01*
X928538Y9074772D01*
X919597Y9075949D01*
D02*
G37*
G36*
X665597D02*
Y8948117D01*
Y8820287D01*
X674538Y8821464D01*
X706162Y8834563D01*
X733318Y8855401D01*
X754156Y8882557D01*
X760728Y8898424D01*
X774474D01*
X781046Y8882557D01*
X801884Y8855401D01*
X829040Y8834563D01*
X860664Y8821464D01*
X869597Y8820288D01*
Y8948117D01*
Y9075948D01*
X860664Y9074772D01*
X829040Y9061673D01*
X801884Y9040835D01*
X781046Y9013679D01*
X774474Y8997813D01*
X760728D01*
X754156Y9013679D01*
X733318Y9040835D01*
X706162Y9061673D01*
X674538Y9074772D01*
X665597Y9075949D01*
D02*
G37*
G36*
X615597Y8923117D02*
X512771D01*
X513947Y8914182D01*
X527046Y8882557D01*
X547884Y8855401D01*
X575040Y8834563D01*
X606664Y8821464D01*
X615597Y8820288D01*
Y8923117D01*
D02*
G37*
G36*
X8588606Y9079240D02*
X8554669Y9074772D01*
X8523045Y9061673D01*
X8495889Y9040835D01*
X8475051Y9013679D01*
X8461952Y8982055D01*
X8457484Y8948118D01*
X8461952Y8914182D01*
X8475051Y8882557D01*
X8495889Y8855401D01*
X8523045Y8834563D01*
X8554669Y8821464D01*
X8588606Y8816997D01*
X8622543Y8821464D01*
X8654167Y8834563D01*
X8681323Y8855401D01*
X8702161Y8882557D01*
X8708733Y8898424D01*
X8722479D01*
X8729051Y8882557D01*
X8749889Y8855401D01*
X8777045Y8834563D01*
X8808669Y8821464D01*
X8817603Y8820288D01*
Y8948117D01*
Y9075948D01*
X8808669Y9074772D01*
X8777045Y9061673D01*
X8749889Y9040835D01*
X8729051Y9013679D01*
X8722479Y8997813D01*
X8708733D01*
X8702161Y9013679D01*
X8681323Y9040835D01*
X8654167Y9061673D01*
X8622543Y9074772D01*
X8588606Y9079240D01*
D02*
G37*
G36*
X6343603Y9075949D02*
Y8948117D01*
Y8820287D01*
X6352543Y8821464D01*
X6384167Y8834563D01*
X6411323Y8855401D01*
X6432161Y8882557D01*
X6438733Y8898424D01*
X6452479D01*
X6459051Y8882557D01*
X6479889Y8855401D01*
X6507045Y8834563D01*
X6538669Y8821464D01*
X6547603Y8820288D01*
Y8948117D01*
Y9075948D01*
X6538669Y9074772D01*
X6507045Y9061673D01*
X6479889Y9040835D01*
X6459051Y9013679D01*
X6452479Y8997813D01*
X6438733D01*
X6432161Y9013679D01*
X6411323Y9040835D01*
X6384167Y9061673D01*
X6352543Y9074772D01*
X6343603Y9075949D01*
D02*
G37*
G36*
X6089603D02*
Y8948117D01*
Y8820287D01*
X6098543Y8821464D01*
X6130167Y8834563D01*
X6157323Y8855401D01*
X6178161Y8882557D01*
X6184733Y8898424D01*
X6198479D01*
X6205051Y8882557D01*
X6225889Y8855401D01*
X6253045Y8834563D01*
X6284669Y8821464D01*
X6293603Y8820288D01*
Y8948117D01*
Y9075948D01*
X6284669Y9074772D01*
X6253045Y9061673D01*
X6225889Y9040835D01*
X6205051Y9013679D01*
X6198479Y8997813D01*
X6184733D01*
X6178161Y9013679D01*
X6157323Y9040835D01*
X6130167Y9061673D01*
X6098543Y9074772D01*
X6089603Y9075949D01*
D02*
G37*
G36*
X6039603Y8923117D02*
X5936776D01*
X5937952Y8914182D01*
X5951051Y8882557D01*
X5971889Y8855401D01*
X5999045Y8834563D01*
X6030669Y8821464D01*
X6039603Y8820288D01*
Y8923117D01*
D02*
G37*
G36*
X9223606Y8825240D02*
X9189669Y8820772D01*
X9158045Y8807673D01*
X9130889Y8786835D01*
X9110051Y8759679D01*
X9103479Y8743813D01*
X9089733D01*
X9083161Y8759679D01*
X9062323Y8786835D01*
X9035167Y8807673D01*
X9003543Y8820772D01*
X8994603Y8821949D01*
Y8694117D01*
Y8566287D01*
X9003543Y8567464D01*
X9035167Y8580563D01*
X9062323Y8601401D01*
X9083161Y8628557D01*
X9089733Y8644424D01*
X9103479D01*
X9110051Y8628557D01*
X9130889Y8601401D01*
X9158045Y8580563D01*
X9189669Y8567464D01*
X9223606Y8562997D01*
X9257543Y8567464D01*
X9289167Y8580563D01*
X9316323Y8601401D01*
X9337161Y8628557D01*
X9350260Y8660182D01*
X9354728Y8694118D01*
X9350260Y8728055D01*
X9337161Y8759679D01*
X9316323Y8786835D01*
X9289167Y8807673D01*
X9257543Y8820772D01*
X9223606Y8825240D01*
D02*
G37*
G36*
X6699606D02*
X6665669Y8820772D01*
X6634045Y8807673D01*
X6606889Y8786835D01*
X6586051Y8759679D01*
X6579479Y8743813D01*
X6565733D01*
X6559161Y8759679D01*
X6538323Y8786835D01*
X6511167Y8807673D01*
X6479543Y8820772D01*
X6445606Y8825240D01*
X6411669Y8820772D01*
X6380045Y8807673D01*
X6352889Y8786835D01*
X6332051Y8759679D01*
X6325479Y8743813D01*
X6311733D01*
X6305161Y8759679D01*
X6284323Y8786835D01*
X6257167Y8807673D01*
X6225543Y8820772D01*
X6191606Y8825240D01*
X6157669Y8820772D01*
X6126045Y8807673D01*
X6098889Y8786835D01*
X6078051Y8759679D01*
X6071479Y8743813D01*
X6057733D01*
X6051161Y8759679D01*
X6030323Y8786835D01*
X6003167Y8807673D01*
X5971543Y8820772D01*
X5937606Y8825240D01*
X5903669Y8820772D01*
X5872045Y8807673D01*
X5844889Y8786835D01*
X5824051Y8759679D01*
X5810952Y8728055D01*
X5806484Y8694118D01*
X5810952Y8660182D01*
X5824051Y8628557D01*
X5844889Y8601401D01*
X5872045Y8580563D01*
X5903669Y8567464D01*
X5937606Y8562997D01*
X5971543Y8567464D01*
X6003167Y8580563D01*
X6030323Y8601401D01*
X6051161Y8628557D01*
X6057733Y8644424D01*
X6071479D01*
X6078051Y8628557D01*
X6098889Y8601401D01*
X6126045Y8580563D01*
X6157669Y8567464D01*
X6191606Y8562997D01*
X6225543Y8567464D01*
X6257167Y8580563D01*
X6284323Y8601401D01*
X6305161Y8628557D01*
X6311733Y8644424D01*
X6325479D01*
X6332051Y8628557D01*
X6352889Y8601401D01*
X6380045Y8580563D01*
X6411669Y8567464D01*
X6445606Y8562997D01*
X6479543Y8567464D01*
X6511167Y8580563D01*
X6538323Y8601401D01*
X6559161Y8628557D01*
X6565733Y8644424D01*
X6579479D01*
X6586051Y8628557D01*
X6606889Y8601401D01*
X6634045Y8580563D01*
X6665669Y8567464D01*
X6699606Y8562997D01*
X6733543Y8567464D01*
X6765167Y8580563D01*
X6792323Y8601401D01*
X6813161Y8628557D01*
X6826260Y8660182D01*
X6830728Y8694118D01*
X6826260Y8728055D01*
X6813161Y8759679D01*
X6792323Y8786835D01*
X6765167Y8807673D01*
X6733543Y8820772D01*
X6699606Y8825240D01*
D02*
G37*
G36*
X1275601D02*
X1241664Y8820772D01*
X1210040Y8807673D01*
X1182884Y8786835D01*
X1162046Y8759679D01*
X1155474Y8743813D01*
X1141728D01*
X1135156Y8759679D01*
X1114318Y8786835D01*
X1087162Y8807673D01*
X1055538Y8820772D01*
X1046597Y8821949D01*
Y8694117D01*
Y8566287D01*
X1055538Y8567464D01*
X1087162Y8580563D01*
X1114318Y8601401D01*
X1135156Y8628557D01*
X1141728Y8644424D01*
X1155474D01*
X1162046Y8628557D01*
X1182884Y8601401D01*
X1210040Y8580563D01*
X1241664Y8567464D01*
X1275601Y8562997D01*
X1309538Y8567464D01*
X1341162Y8580563D01*
X1368318Y8601401D01*
X1389156Y8628557D01*
X1402255Y8660182D01*
X1406723Y8694118D01*
X1402255Y8728055D01*
X1389156Y8759679D01*
X1368318Y8786835D01*
X1341162Y8807673D01*
X1309538Y8820772D01*
X1275601Y8825240D01*
D02*
G37*
G36*
X767601D02*
X733664Y8820772D01*
X702040Y8807673D01*
X674884Y8786835D01*
X654046Y8759679D01*
X647474Y8743813D01*
X633728D01*
X627156Y8759679D01*
X606318Y8786835D01*
X579162Y8807673D01*
X547538Y8820772D01*
X513601Y8825240D01*
X479664Y8820772D01*
X448040Y8807673D01*
X420884Y8786835D01*
X400046Y8759679D01*
X386947Y8728055D01*
X382479Y8694118D01*
X386947Y8660182D01*
X400046Y8628557D01*
X420884Y8601401D01*
X448040Y8580563D01*
X479664Y8567464D01*
X513601Y8562997D01*
X547538Y8567464D01*
X579162Y8580563D01*
X606318Y8601401D01*
X627156Y8628557D01*
X633728Y8644424D01*
X647474D01*
X654046Y8628557D01*
X674884Y8601401D01*
X702040Y8580563D01*
X733664Y8567464D01*
X767601Y8562997D01*
X801538Y8567464D01*
X833162Y8580563D01*
X860318Y8601401D01*
X881156Y8628557D01*
X887728Y8644424D01*
X901474D01*
X908046Y8628557D01*
X928884Y8601401D01*
X956040Y8580563D01*
X987664Y8567464D01*
X996597Y8566288D01*
Y8694117D01*
Y8821948D01*
X987664Y8820772D01*
X956040Y8807673D01*
X928884Y8786835D01*
X908046Y8759679D01*
X901474Y8743813D01*
X887728D01*
X881156Y8759679D01*
X860318Y8786835D01*
X833162Y8807673D01*
X801538Y8820772D01*
X767601Y8825240D01*
D02*
G37*
G36*
X4131950Y8617451D02*
X4131687Y8617399D01*
X4072213D01*
X4071950Y8617451D01*
X4071687Y8617399D01*
X4040510D01*
X4028805Y8615071D01*
X4018881Y8608440D01*
X4012251Y8598517D01*
X4009923Y8586811D01*
Y8464891D01*
X4012251Y8453186D01*
X4018881Y8443263D01*
X4028805Y8436632D01*
X4040510Y8434304D01*
X4163071D01*
X4174776Y8436632D01*
X4184700Y8443263D01*
X4191330Y8453186D01*
X4193658Y8464891D01*
Y8586811D01*
X4191330Y8598517D01*
X4184700Y8608440D01*
X4174776Y8615071D01*
X4163071Y8617399D01*
X4132213D01*
X4131950Y8617451D01*
D02*
G37*
G36*
X8740603Y8821949D02*
Y8694117D01*
Y8566287D01*
X8749543Y8567464D01*
X8781167Y8580563D01*
X8808323Y8601401D01*
X8829161Y8628557D01*
X8835733Y8644424D01*
X8849479D01*
X8856051Y8628557D01*
X8876889Y8601401D01*
X8904045Y8580563D01*
X8935669Y8567464D01*
X8944603Y8566288D01*
Y8694117D01*
Y8821948D01*
X8935669Y8820772D01*
X8904045Y8807673D01*
X8876889Y8786835D01*
X8856051Y8759679D01*
X8849479Y8743813D01*
X8835733D01*
X8829161Y8759679D01*
X8808323Y8786835D01*
X8781167Y8807673D01*
X8749543Y8820772D01*
X8740603Y8821949D01*
D02*
G37*
G36*
X8461606Y8825240D02*
X8427669Y8820772D01*
X8396045Y8807673D01*
X8368889Y8786835D01*
X8348051Y8759679D01*
X8334952Y8728055D01*
X8330484Y8694118D01*
X8334952Y8660182D01*
X8348051Y8628557D01*
X8368889Y8601401D01*
X8396045Y8580563D01*
X8427669Y8567464D01*
X8461606Y8562997D01*
X8495543Y8567464D01*
X8527167Y8580563D01*
X8554323Y8601401D01*
X8575161Y8628557D01*
X8581733Y8644424D01*
X8595479D01*
X8602051Y8628557D01*
X8622889Y8601401D01*
X8650045Y8580563D01*
X8681669Y8567464D01*
X8690603Y8566288D01*
Y8694117D01*
Y8821948D01*
X8681669Y8820772D01*
X8650045Y8807673D01*
X8622889Y8786835D01*
X8602051Y8759679D01*
X8595479Y8743813D01*
X8581733D01*
X8575161Y8759679D01*
X8554323Y8786835D01*
X8527167Y8807673D01*
X8495543Y8820772D01*
X8461606Y8825240D01*
D02*
G37*
G36*
X1380100Y8508568D02*
X1356689Y8503912D01*
X1336843Y8490650D01*
X1323582Y8470804D01*
X1318925Y8447393D01*
X1323582Y8423982D01*
X1336843Y8404135D01*
X1356689Y8390874D01*
X1380100Y8386217D01*
X1403511Y8390874D01*
X1423358Y8404135D01*
X1436619Y8423982D01*
X1441276Y8447393D01*
X1436619Y8470804D01*
X1423358Y8490650D01*
X1403511Y8503912D01*
X1380100Y8508568D01*
D02*
G37*
G36*
X8990080Y8516048D02*
X8800158D01*
X8788453Y8513720D01*
X8778530Y8507089D01*
X8771899Y8497166D01*
X8769571Y8485460D01*
Y8297500D01*
X8771899Y8285795D01*
X8778530Y8275871D01*
X8788453Y8269241D01*
X8800158Y8266913D01*
X8990080D01*
X9001785Y8269241D01*
X9011709Y8275871D01*
X9018339Y8285795D01*
X9020668Y8297500D01*
Y8485460D01*
X9018339Y8497166D01*
X9011709Y8507089D01*
X9001785Y8513720D01*
X8990080Y8516048D01*
D02*
G37*
G36*
X1267520Y8383880D02*
X1244109Y8379224D01*
X1224263Y8365962D01*
X1211001Y8346116D01*
X1206345Y8322705D01*
X1211001Y8299294D01*
X1224263Y8279448D01*
X1244109Y8266186D01*
X1267520Y8261530D01*
X1290931Y8266186D01*
X1310778Y8279448D01*
X1324039Y8299294D01*
X1328696Y8322705D01*
X1324039Y8346116D01*
X1310778Y8365962D01*
X1290931Y8379224D01*
X1267520Y8383880D01*
D02*
G37*
G36*
X1139580Y8380523D02*
X1017020D01*
X1005315Y8378195D01*
X995391Y8371564D01*
X988761Y8361641D01*
X986432Y8349935D01*
Y8228015D01*
X988761Y8216310D01*
X995391Y8206386D01*
X1005315Y8199756D01*
X1017020Y8197428D01*
X1139580D01*
X1151286Y8199756D01*
X1161209Y8206386D01*
X1167840Y8216310D01*
X1170168Y8228015D01*
Y8349935D01*
X1167840Y8361641D01*
X1161209Y8371564D01*
X1151286Y8378195D01*
X1139580Y8380523D01*
D02*
G37*
G36*
X6820375Y8152169D02*
X6820112Y8152117D01*
X6760638D01*
X6760375Y8152169D01*
X6760112Y8152117D01*
X6728935D01*
X6717230Y8149789D01*
X6707306Y8143158D01*
X6700676Y8133235D01*
X6698348Y8121529D01*
Y7999609D01*
X6700676Y7987904D01*
X6707306Y7977980D01*
X6717230Y7971350D01*
X6728935Y7969022D01*
X6851496D01*
X6863201Y7971350D01*
X6873124Y7977980D01*
X6879755Y7987904D01*
X6882083Y7999609D01*
Y8121529D01*
X6879755Y8133235D01*
X6873124Y8143158D01*
X6863201Y8149789D01*
X6851496Y8152117D01*
X6820638D01*
X6820375Y8152169D01*
D02*
G37*
G36*
X7351762Y8225752D02*
X7229842D01*
X7218137Y8223424D01*
X7208213Y8216794D01*
X7201583Y8206870D01*
X7199255Y8195165D01*
Y8072604D01*
X7201583Y8060899D01*
X7208213Y8050976D01*
X7218137Y8044345D01*
X7229842Y8042017D01*
X7351762D01*
X7363468Y8044345D01*
X7373391Y8050976D01*
X7380022Y8060899D01*
X7382350Y8072604D01*
Y8103462D01*
X7382402Y8103725D01*
X7382350Y8103988D01*
Y8163462D01*
X7382402Y8163725D01*
X7382350Y8163988D01*
Y8195165D01*
X7380022Y8206870D01*
X7373391Y8216794D01*
X7363468Y8223424D01*
X7351762Y8225752D01*
D02*
G37*
G36*
X8641606Y8148210D02*
X8623333Y8145804D01*
X8606304Y8138751D01*
X8591682Y8127531D01*
X8580461Y8112908D01*
X8573408Y8095880D01*
X8571002Y8077606D01*
Y8017606D01*
X8573408Y7999333D01*
X8580461Y7982304D01*
X8591682Y7967682D01*
X8606304Y7956462D01*
X8623333Y7949408D01*
X8641606Y7947002D01*
X8659880Y7949408D01*
X8676908Y7956462D01*
X8691530Y7967682D01*
X8702751Y7982304D01*
X8709804Y7999333D01*
X8712210Y8017606D01*
Y8077606D01*
X8709804Y8095880D01*
X8702751Y8112908D01*
X8691530Y8127531D01*
X8676908Y8138751D01*
X8659880Y8145804D01*
X8641606Y8148210D01*
D02*
G37*
G36*
X1981444Y7920606D02*
X1956443D01*
Y7814485D01*
X2109275D01*
X2108098Y7823421D01*
X2094999Y7855045D01*
X2074161Y7882201D01*
X2047005Y7903039D01*
X2015381Y7916138D01*
X1981444Y7920606D01*
D02*
G37*
G36*
X1906443D02*
X1881445D01*
X1847508Y7916138D01*
X1815884Y7903039D01*
X1788727Y7882201D01*
X1767890Y7855045D01*
X1754791Y7823421D01*
X1753614Y7814485D01*
X1906443D01*
Y7920606D01*
D02*
G37*
G36*
X4453148Y8011475D02*
X4429737Y8006819D01*
X4409891Y7993558D01*
X4396629Y7973711D01*
X4391973Y7950300D01*
X4396629Y7926889D01*
X4406703Y7911812D01*
X4407351Y7896970D01*
X4394089Y7877124D01*
X4389433Y7853713D01*
X4394089Y7830302D01*
X4407351Y7810456D01*
X4427197Y7797194D01*
X4450608Y7792538D01*
X4474019Y7797194D01*
X4493866Y7810456D01*
X4507127Y7830302D01*
X4511783Y7853713D01*
X4507127Y7877124D01*
X4497053Y7892201D01*
X4496406Y7907043D01*
X4509667Y7926889D01*
X4514323Y7950300D01*
X4509667Y7973711D01*
X4496406Y7993558D01*
X4476559Y8006819D01*
X4453148Y8011475D01*
D02*
G37*
G36*
X6598836Y7940337D02*
X6476275D01*
X6464570Y7938009D01*
X6454646Y7931378D01*
X6448016Y7921455D01*
X6445688Y7909749D01*
Y7787829D01*
X6448016Y7776124D01*
X6454646Y7766200D01*
X6464570Y7759570D01*
X6476275Y7757242D01*
X6598836D01*
X6610541Y7759570D01*
X6620465Y7766200D01*
X6627095Y7776124D01*
X6629423Y7787829D01*
Y7909749D01*
X6627095Y7921455D01*
X6620465Y7931378D01*
X6610541Y7938009D01*
X6598836Y7940337D01*
D02*
G37*
G36*
X6253876D02*
X6131315D01*
X6119610Y7938009D01*
X6109687Y7931378D01*
X6103056Y7921455D01*
X6100728Y7909749D01*
Y7787829D01*
X6103056Y7776124D01*
X6109687Y7766200D01*
X6119610Y7759570D01*
X6131315Y7757242D01*
X6253876D01*
X6265581Y7759570D01*
X6275505Y7766200D01*
X6282135Y7776124D01*
X6284463Y7787829D01*
Y7909749D01*
X6282135Y7921455D01*
X6275505Y7931378D01*
X6265581Y7938009D01*
X6253876Y7940337D01*
D02*
G37*
G36*
X5908916D02*
X5786355D01*
X5774650Y7938009D01*
X5764727Y7931378D01*
X5758096Y7921455D01*
X5755768Y7909749D01*
Y7787829D01*
X5758096Y7776124D01*
X5764727Y7766200D01*
X5774650Y7759570D01*
X5786355Y7757242D01*
X5908916D01*
X5920621Y7759570D01*
X5930545Y7766200D01*
X5937175Y7776124D01*
X5939503Y7787829D01*
Y7909749D01*
X5937175Y7921455D01*
X5930545Y7931378D01*
X5920621Y7938009D01*
X5908916Y7940337D01*
D02*
G37*
G36*
X258920Y7682756D02*
X235510Y7678099D01*
X215663Y7664838D01*
X202402Y7644992D01*
X197745Y7621581D01*
X202402Y7598170D01*
X215663Y7578323D01*
X235510Y7565062D01*
X258920Y7560405D01*
X282331Y7565062D01*
X302178Y7578323D01*
X315439Y7598170D01*
X320096Y7621581D01*
X315439Y7644992D01*
X302178Y7664838D01*
X282331Y7678099D01*
X258920Y7682756D01*
D02*
G37*
G36*
X1031360Y7682416D02*
X1007949Y7677759D01*
X988103Y7664498D01*
X974841Y7644651D01*
X970185Y7621241D01*
X974841Y7597830D01*
X988103Y7577983D01*
X1007949Y7564722D01*
X1031360Y7560065D01*
X1054771Y7564722D01*
X1074618Y7577983D01*
X1087879Y7597830D01*
X1092536Y7621241D01*
X1087879Y7644651D01*
X1074618Y7664498D01*
X1054771Y7677759D01*
X1031360Y7682416D01*
D02*
G37*
G36*
X379880Y7568056D02*
X356469Y7563399D01*
X336623Y7550138D01*
X323362Y7530291D01*
X318705Y7506880D01*
X323362Y7483469D01*
X336623Y7463623D01*
X356469Y7450362D01*
X379880Y7445705D01*
X403291Y7450362D01*
X423138Y7463623D01*
X436399Y7483469D01*
X441056Y7506880D01*
X436399Y7530291D01*
X423138Y7550138D01*
X403291Y7563399D01*
X379880Y7568056D01*
D02*
G37*
G36*
X8868878Y7645482D02*
X8850605Y7643076D01*
X8833576Y7636023D01*
X8818954Y7624803D01*
X8807734Y7610180D01*
X8800680Y7593152D01*
X8798275Y7574878D01*
Y7514878D01*
X8800680Y7496605D01*
X8807734Y7479576D01*
X8818954Y7464954D01*
X8833576Y7453734D01*
X8850605Y7446680D01*
X8868878Y7444274D01*
X8887152Y7446680D01*
X8904180Y7453734D01*
X8918803Y7464954D01*
X8930023Y7479576D01*
X8937076Y7496605D01*
X8939482Y7514878D01*
Y7574878D01*
X8937076Y7593152D01*
X8930023Y7610180D01*
X8918803Y7624803D01*
X8904180Y7636023D01*
X8887152Y7643076D01*
X8868878Y7645482D01*
D02*
G37*
G36*
X916660Y7561456D02*
X893249Y7556799D01*
X873402Y7543538D01*
X860141Y7523692D01*
X855484Y7500281D01*
X860141Y7476870D01*
X873402Y7457023D01*
X893249Y7443762D01*
X916660Y7439105D01*
X940071Y7443762D01*
X959917Y7457023D01*
X973179Y7476870D01*
X977835Y7500281D01*
X973179Y7523692D01*
X959917Y7543538D01*
X940071Y7556799D01*
X916660Y7561456D01*
D02*
G37*
G36*
X2109275Y7764485D02*
X1931443D01*
X1753614D01*
X1754791Y7755547D01*
X1767890Y7723923D01*
X1788727Y7696767D01*
X1815884Y7675929D01*
X1831750Y7669357D01*
Y7655611D01*
X1815884Y7649039D01*
X1788727Y7628201D01*
X1767890Y7601045D01*
X1754791Y7569421D01*
X1750323Y7535484D01*
X1754791Y7501547D01*
X1767890Y7469923D01*
X1788727Y7442767D01*
X1815884Y7421929D01*
X1847508Y7408830D01*
X1881445Y7404362D01*
X1981444D01*
X2015381Y7408830D01*
X2047005Y7421929D01*
X2074161Y7442767D01*
X2094999Y7469923D01*
X2108098Y7501547D01*
X2112566Y7535484D01*
X2108098Y7569421D01*
X2094999Y7601045D01*
X2074161Y7628201D01*
X2047005Y7649039D01*
X2031139Y7655611D01*
Y7669357D01*
X2047005Y7675929D01*
X2074161Y7696767D01*
X2094999Y7723923D01*
X2108098Y7755547D01*
X2109275Y7764485D01*
D02*
G37*
G36*
X7711649Y7531304D02*
X7653229D01*
X7634956Y7528898D01*
X7617927Y7521845D01*
X7603305Y7510625D01*
X7592085Y7496002D01*
X7585031Y7478974D01*
X7582625Y7460700D01*
X7585031Y7442427D01*
X7592085Y7425398D01*
X7603305Y7410776D01*
X7617927Y7399555D01*
X7634956Y7392502D01*
X7653229Y7390096D01*
X7711649D01*
X7729923Y7392502D01*
X7746951Y7399555D01*
X7761574Y7410776D01*
X7772794Y7425398D01*
X7779847Y7442427D01*
X7782253Y7460700D01*
X7779847Y7478974D01*
X7772794Y7496002D01*
X7761574Y7510625D01*
X7746951Y7521845D01*
X7729923Y7528898D01*
X7711649Y7531304D01*
D02*
G37*
G36*
X3604573Y7468408D02*
X3581162Y7463751D01*
X3561316Y7450490D01*
X3548054Y7430643D01*
X3543398Y7407232D01*
X3548054Y7383821D01*
X3561316Y7363975D01*
X3581162Y7350714D01*
X3604573Y7346057D01*
X3627984Y7350714D01*
X3647830Y7363975D01*
X3660326Y7359816D01*
X3677749Y7348174D01*
X3701160Y7343517D01*
X3724571Y7348174D01*
X3744418Y7361435D01*
X3757679Y7381281D01*
X3762336Y7404692D01*
X3757679Y7428103D01*
X3744418Y7447950D01*
X3724571Y7461211D01*
X3701160Y7465868D01*
X3677749Y7461211D01*
X3657903Y7447950D01*
X3645407Y7452109D01*
X3627984Y7463751D01*
X3604573Y7468408D01*
D02*
G37*
G36*
X5301729Y7412635D02*
X5241729D01*
X5218318Y7407979D01*
X5198472Y7394717D01*
X5185210Y7374871D01*
X5180554Y7351460D01*
X5185210Y7328049D01*
X5198472Y7308203D01*
X5218318Y7294941D01*
X5241729Y7290285D01*
X5301729D01*
X5325140Y7294941D01*
X5344987Y7308203D01*
X5358248Y7328049D01*
X5362904Y7351460D01*
X5358248Y7374871D01*
X5344987Y7394717D01*
X5325140Y7407979D01*
X5301729Y7412635D01*
D02*
G37*
G36*
X5809701Y7524560D02*
X5709701D01*
X5675764Y7520092D01*
X5644140Y7506993D01*
X5616984Y7486156D01*
X5596146Y7458999D01*
X5583047Y7427375D01*
X5578579Y7393439D01*
X5583047Y7359502D01*
X5596146Y7327878D01*
X5616984Y7300721D01*
X5644140Y7279884D01*
X5660006Y7273312D01*
Y7259565D01*
X5644140Y7252993D01*
X5616984Y7232156D01*
X5596146Y7204999D01*
X5583047Y7173375D01*
X5581871Y7164440D01*
X5759703D01*
X5937531D01*
X5936355Y7173375D01*
X5923256Y7204999D01*
X5902418Y7232156D01*
X5875262Y7252993D01*
X5859395Y7259565D01*
Y7273312D01*
X5875262Y7279884D01*
X5902418Y7300721D01*
X5923256Y7327878D01*
X5936355Y7359502D01*
X5940823Y7393439D01*
X5936355Y7427375D01*
X5923256Y7458999D01*
X5902418Y7486156D01*
X5875262Y7506993D01*
X5843638Y7520092D01*
X5809701Y7524560D01*
D02*
G37*
G36*
X4103120Y7345216D02*
X4079709Y7340559D01*
X4059863Y7327298D01*
X4046601Y7307451D01*
X4041945Y7284040D01*
X4046601Y7260629D01*
X4059863Y7240783D01*
X4079709Y7227521D01*
X4103120Y7222865D01*
X4126531Y7227521D01*
X4142450Y7238159D01*
X4911501D01*
X4986413Y7163248D01*
X4990148Y7144469D01*
X5003409Y7124623D01*
X5023256Y7111361D01*
X5046667Y7106705D01*
X5070077Y7111361D01*
X5089924Y7124623D01*
X5103185Y7144469D01*
X5107842Y7167880D01*
X5103185Y7191291D01*
X5089924Y7211137D01*
X5070077Y7224399D01*
X5051299Y7228134D01*
X4962949Y7316483D01*
X4948065Y7326429D01*
X4930506Y7329922D01*
X4142450D01*
X4126531Y7340559D01*
X4103120Y7345216D01*
D02*
G37*
G36*
X4130580Y7131856D02*
X4107169Y7127199D01*
X4087322Y7113938D01*
X4074061Y7094091D01*
X4069404Y7070680D01*
X4074061Y7047269D01*
X4087322Y7027423D01*
X4107169Y7014161D01*
X4130580Y7009505D01*
X4153991Y7014161D01*
X4173837Y7027423D01*
X4187099Y7047269D01*
X4191755Y7070680D01*
X4187099Y7094091D01*
X4173837Y7113938D01*
X4153991Y7127199D01*
X4130580Y7131856D01*
D02*
G37*
G36*
X4357120Y6857536D02*
X4333709Y6852879D01*
X4313863Y6839618D01*
X4300601Y6819771D01*
X4295945Y6796360D01*
X4300601Y6772949D01*
X4313863Y6753103D01*
X4333709Y6739841D01*
X4357120Y6735185D01*
X4380531Y6739841D01*
X4400378Y6753103D01*
X4413639Y6772949D01*
X4418295Y6796360D01*
X4413639Y6819771D01*
X4400378Y6839618D01*
X4380531Y6852879D01*
X4357120Y6857536D01*
D02*
G37*
G36*
X4097332D02*
X4073921Y6852879D01*
X4054075Y6839618D01*
X4040813Y6819771D01*
X4036157Y6796360D01*
X4040813Y6772949D01*
X4054075Y6753103D01*
X4073921Y6739841D01*
X4097332Y6735185D01*
X4120743Y6739841D01*
X4140590Y6753103D01*
X4153851Y6772949D01*
X4158508Y6796360D01*
X4153851Y6819771D01*
X4140590Y6839618D01*
X4120743Y6852879D01*
X4097332Y6857536D01*
D02*
G37*
G36*
X3844292D02*
X3820881Y6852879D01*
X3801035Y6839618D01*
X3787773Y6819771D01*
X3783117Y6796360D01*
X3787773Y6772949D01*
X3801035Y6753103D01*
X3820881Y6739841D01*
X3844292Y6735185D01*
X3867703Y6739841D01*
X3887550Y6753103D01*
X3900811Y6772949D01*
X3905468Y6796360D01*
X3900811Y6819771D01*
X3887550Y6839618D01*
X3867703Y6852879D01*
X3844292Y6857536D01*
D02*
G37*
G36*
X3140880Y7554784D02*
X3109554Y7550660D01*
X3080362Y7538568D01*
X3055295Y7519333D01*
X3036060Y7494266D01*
X3023969Y7465075D01*
X3019845Y7433749D01*
X3023969Y7402422D01*
X3036060Y7373231D01*
X3055295Y7348164D01*
X3080362Y7328929D01*
X3089901Y7324978D01*
Y6892519D01*
X3080363Y6888568D01*
X3055295Y6869333D01*
X3036060Y6844266D01*
X3023969Y6815075D01*
X3019845Y6783749D01*
X3023969Y6752422D01*
X3036060Y6723231D01*
X3055295Y6698164D01*
X3080363Y6678929D01*
X3109554Y6666838D01*
X3140880Y6662713D01*
X3172207Y6666838D01*
X3201398Y6678929D01*
X3226465Y6698164D01*
X3245700Y6723231D01*
X3257791Y6752422D01*
X3261915Y6783749D01*
X3257791Y6815075D01*
X3245700Y6844266D01*
X3226465Y6869333D01*
X3201398Y6888568D01*
X3191860Y6892519D01*
Y7324978D01*
X3201398Y7328929D01*
X3226465Y7348164D01*
X3245700Y7373231D01*
X3257791Y7402422D01*
X3261915Y7433749D01*
X3257791Y7465075D01*
X3245700Y7494266D01*
X3226465Y7519333D01*
X3201398Y7538568D01*
X3172207Y7550660D01*
X3140880Y7554784D01*
D02*
G37*
G36*
X2690880D02*
X2659554Y7550660D01*
X2630362Y7538568D01*
X2605295Y7519333D01*
X2586060Y7494266D01*
X2573969Y7465075D01*
X2569845Y7433749D01*
X2573969Y7402422D01*
X2586060Y7373231D01*
X2605295Y7348164D01*
X2630362Y7328929D01*
X2639900Y7324978D01*
Y6892519D01*
X2630363Y6888568D01*
X2605295Y6869333D01*
X2586060Y6844266D01*
X2573969Y6815075D01*
X2569845Y6783749D01*
X2573969Y6752422D01*
X2586060Y6723231D01*
X2605295Y6698164D01*
X2630363Y6678929D01*
X2659554Y6666838D01*
X2690880Y6662713D01*
X2722206Y6666838D01*
X2751398Y6678929D01*
X2776465Y6698164D01*
X2795700Y6723231D01*
X2807791Y6752422D01*
X2811915Y6783749D01*
X2807791Y6815075D01*
X2795700Y6844266D01*
X2776465Y6869333D01*
X2751398Y6888568D01*
X2741860Y6892519D01*
Y7324978D01*
X2751398Y7328929D01*
X2776465Y7348164D01*
X2795700Y7373231D01*
X2807791Y7402422D01*
X2811915Y7433749D01*
X2807791Y7465075D01*
X2795700Y7494266D01*
X2776465Y7519333D01*
X2751398Y7538568D01*
X2722206Y7550660D01*
X2690880Y7554784D01*
D02*
G37*
G36*
X8929050Y6533287D02*
X8788409D01*
X8776704Y6530959D01*
X8766780Y6524329D01*
X8763256Y6519054D01*
X8755406Y6524299D01*
X8743701Y6526628D01*
X8603060D01*
X8591354Y6524299D01*
X8581431Y6517669D01*
X8574800Y6507745D01*
X8572472Y6496040D01*
Y6302413D01*
X8574800Y6290707D01*
X8581431Y6280784D01*
X8591354Y6274153D01*
X8603060Y6271825D01*
X8743701D01*
X8755406Y6274153D01*
X8765330Y6280784D01*
X8768854Y6286058D01*
X8776704Y6280813D01*
X8788409Y6278485D01*
X8929050D01*
X8940756Y6280813D01*
X8950679Y6287444D01*
X8957309Y6297367D01*
X8959638Y6309072D01*
Y6502700D01*
X8957309Y6514405D01*
X8950679Y6524329D01*
X8940756Y6530959D01*
X8929050Y6533287D01*
D02*
G37*
G36*
X2269240Y6567976D02*
X2245829Y6563319D01*
X2225983Y6550058D01*
X2212721Y6530211D01*
X2208065Y6506800D01*
X2212721Y6483389D01*
X2225983Y6463543D01*
X2245829Y6450281D01*
X2269240Y6445625D01*
X2292651Y6450281D01*
X2312498Y6463543D01*
X2325759Y6483389D01*
X2330415Y6506800D01*
X2325759Y6530211D01*
X2312498Y6550058D01*
X2292651Y6563319D01*
X2269240Y6567976D01*
D02*
G37*
G36*
X7745481Y6581756D02*
X7604839D01*
X7593134Y6579427D01*
X7583210Y6572797D01*
X7576580Y6562873D01*
X7574252Y6551168D01*
Y6357541D01*
X7576580Y6345835D01*
X7583210Y6335912D01*
X7593134Y6329281D01*
X7604839Y6326953D01*
X7745481D01*
X7757186Y6329281D01*
X7767109Y6335912D01*
X7773740Y6345835D01*
X7776068Y6357541D01*
Y6551168D01*
X7773740Y6562873D01*
X7767109Y6572797D01*
X7757186Y6579427D01*
X7745481Y6581756D01*
D02*
G37*
G36*
X5340100Y6446335D02*
X5316689Y6441679D01*
X5296842Y6428418D01*
X5251123Y6382698D01*
X5237861Y6362851D01*
X5233205Y6339440D01*
X5237861Y6316029D01*
X5251123Y6296183D01*
X5270969Y6282921D01*
X5294380Y6278265D01*
X5317791Y6282921D01*
X5337638Y6296183D01*
X5383358Y6341902D01*
X5396619Y6361749D01*
X5401275Y6385160D01*
X5396619Y6408571D01*
X5383358Y6428418D01*
X5363511Y6441679D01*
X5340100Y6446335D01*
D02*
G37*
G36*
X5937531Y7114440D02*
X5759703D01*
X5581870D01*
X5583047Y7105502D01*
X5596146Y7073878D01*
X5616984Y7046721D01*
X5644140Y7025884D01*
X5660006Y7019312D01*
Y7005565D01*
X5644140Y6998993D01*
X5616984Y6978156D01*
X5596146Y6950999D01*
X5583047Y6919375D01*
X5578579Y6885439D01*
X5583047Y6851502D01*
X5596146Y6819878D01*
X5616984Y6792721D01*
X5644140Y6771884D01*
X5660006Y6765312D01*
Y6751565D01*
X5644140Y6744993D01*
X5616984Y6724156D01*
X5596146Y6696999D01*
X5583047Y6665375D01*
X5578579Y6631439D01*
X5583047Y6597502D01*
X5596146Y6565878D01*
X5616984Y6538721D01*
X5644140Y6517884D01*
X5660006Y6511312D01*
Y6497565D01*
X5644140Y6490993D01*
X5616984Y6470156D01*
X5596146Y6442999D01*
X5583047Y6411375D01*
X5578579Y6377439D01*
X5583047Y6343502D01*
X5596146Y6311878D01*
X5616984Y6284721D01*
X5644140Y6263884D01*
X5675764Y6250785D01*
X5709701Y6246317D01*
X5809701D01*
X5843638Y6250785D01*
X5875262Y6263884D01*
X5902418Y6284721D01*
X5923256Y6311878D01*
X5936355Y6343502D01*
X5940823Y6377439D01*
X5936355Y6411375D01*
X5923256Y6442999D01*
X5902418Y6470156D01*
X5875262Y6490993D01*
X5859395Y6497565D01*
Y6511312D01*
X5875262Y6517884D01*
X5902418Y6538721D01*
X5923256Y6565878D01*
X5936355Y6597502D01*
X5940823Y6631439D01*
X5936355Y6665375D01*
X5923256Y6696999D01*
X5902418Y6724156D01*
X5875262Y6744993D01*
X5859395Y6751565D01*
Y6765312D01*
X5875262Y6771884D01*
X5902418Y6792721D01*
X5923256Y6819878D01*
X5936355Y6851502D01*
X5940823Y6885439D01*
X5936355Y6919375D01*
X5923256Y6950999D01*
X5902418Y6978156D01*
X5875262Y6998993D01*
X5859395Y7005565D01*
Y7019312D01*
X5875262Y7025884D01*
X5902418Y7046721D01*
X5923256Y7073878D01*
X5936355Y7105502D01*
X5937531Y7114440D01*
D02*
G37*
G36*
X2271780Y6329216D02*
X2248369Y6324559D01*
X2228523Y6311298D01*
X2215261Y6291451D01*
X2210605Y6268040D01*
X2215261Y6244629D01*
X2228523Y6224783D01*
X2248369Y6211521D01*
X2271780Y6206865D01*
X2295191Y6211521D01*
X2315038Y6224783D01*
X2328299Y6244629D01*
X2332955Y6268040D01*
X2328299Y6291451D01*
X2315038Y6311298D01*
X2295191Y6324559D01*
X2271780Y6329216D01*
D02*
G37*
G36*
X421221Y6288305D02*
X397810Y6283648D01*
X377963Y6270387D01*
X364702Y6250540D01*
X360046Y6227129D01*
X364702Y6203718D01*
X369105Y6197129D01*
X364702Y6190540D01*
X360046Y6167129D01*
X364702Y6143718D01*
X377963Y6123872D01*
X397810Y6110611D01*
X421221Y6105954D01*
X444632Y6110611D01*
X464478Y6123872D01*
X477740Y6143718D01*
X482396Y6167129D01*
X477740Y6190540D01*
X473337Y6197129D01*
X477740Y6203718D01*
X482396Y6227129D01*
X477740Y6250540D01*
X464478Y6270387D01*
X444632Y6283648D01*
X421221Y6288305D01*
D02*
G37*
G36*
X8033799Y6336836D02*
X8010388Y6332179D01*
X7990541Y6318918D01*
X7977280Y6299071D01*
X7972623Y6275660D01*
X7977280Y6252249D01*
X7990541Y6232403D01*
X8010388Y6219141D01*
X8020167Y6217196D01*
X8142531Y6094832D01*
X8159070Y6083781D01*
X8178579Y6079901D01*
X9171585D01*
X9179875Y6074361D01*
X9203286Y6069705D01*
X9226697Y6074361D01*
X9246544Y6087623D01*
X9259805Y6107469D01*
X9264462Y6130880D01*
X9259805Y6154291D01*
X9246544Y6174138D01*
X9226697Y6187399D01*
X9203286Y6192056D01*
X9179875Y6187399D01*
X9171585Y6181860D01*
X8199695D01*
X8092262Y6289292D01*
X8090317Y6299071D01*
X8077056Y6318918D01*
X8057209Y6332179D01*
X8033799Y6336836D01*
D02*
G37*
G36*
X7086880Y6142375D02*
X7068607Y6139969D01*
X7051578Y6132916D01*
X7036956Y6121696D01*
X7025736Y6107073D01*
X7018682Y6090045D01*
X7016276Y6071771D01*
Y6011771D01*
X7018682Y5993498D01*
X7025736Y5976469D01*
X7036956Y5961847D01*
X7051578Y5950627D01*
X7068607Y5943573D01*
X7086880Y5941167D01*
X7105154Y5943573D01*
X7122182Y5950627D01*
X7136805Y5961847D01*
X7148025Y5976469D01*
X7155078Y5993498D01*
X7157484Y6011771D01*
Y6071771D01*
X7155078Y6090045D01*
X7148025Y6107073D01*
X7136805Y6121696D01*
X7122182Y6132916D01*
X7105154Y6139969D01*
X7086880Y6142375D01*
D02*
G37*
G36*
X3650311Y5946664D02*
X3590311D01*
X3566900Y5942007D01*
X3547054Y5928746D01*
X3533792Y5908900D01*
X3529136Y5885489D01*
X3533792Y5862078D01*
X3547054Y5842231D01*
X3566900Y5828970D01*
X3590311Y5824313D01*
X3650311D01*
X3673722Y5828970D01*
X3693568Y5842231D01*
X3706830Y5862078D01*
X3711486Y5885489D01*
X3706830Y5908900D01*
X3693568Y5928746D01*
X3673722Y5942007D01*
X3650311Y5946664D01*
D02*
G37*
G36*
X875720Y5718285D02*
X838050Y5713326D01*
X802947Y5698786D01*
X772804Y5675656D01*
X749674Y5645513D01*
X735134Y5610410D01*
X730175Y5572740D01*
X735134Y5535071D01*
X749674Y5499968D01*
X772804Y5469824D01*
X802947Y5446695D01*
X838050Y5432155D01*
X875720Y5427195D01*
X913390Y5432155D01*
X948492Y5446695D01*
X978636Y5469824D01*
X1001766Y5499968D01*
X1016306Y5535071D01*
X1021265Y5572740D01*
X1016306Y5610410D01*
X1001766Y5645513D01*
X978636Y5675656D01*
X948492Y5698786D01*
X913390Y5713326D01*
X875720Y5718285D01*
D02*
G37*
G36*
X5284220Y5524036D02*
X5260809Y5519379D01*
X5240963Y5506118D01*
X5227701Y5486271D01*
X5223045Y5462860D01*
X5227701Y5439449D01*
X5240963Y5419603D01*
X5260809Y5406341D01*
X5284220Y5401685D01*
X5307631Y5406341D01*
X5327478Y5419603D01*
X5340739Y5439449D01*
X5345395Y5462860D01*
X5340739Y5486271D01*
X5327478Y5506118D01*
X5307631Y5519379D01*
X5284220Y5524036D01*
D02*
G37*
G36*
X8804660Y5599335D02*
X8786387Y5596929D01*
X8769358Y5589876D01*
X8754736Y5578656D01*
X8743515Y5564033D01*
X8736462Y5547005D01*
X8734056Y5528731D01*
Y5468732D01*
X8736462Y5450458D01*
X8743515Y5433430D01*
X8754736Y5418807D01*
X8769358Y5407587D01*
X8786387Y5400534D01*
X8804660Y5398128D01*
X8822934Y5400534D01*
X8839962Y5407587D01*
X8854585Y5418807D01*
X8865805Y5433430D01*
X8872858Y5450458D01*
X8875264Y5468732D01*
Y5528731D01*
X8872858Y5547005D01*
X8865805Y5564033D01*
X8854585Y5578656D01*
X8839962Y5589876D01*
X8822934Y5596929D01*
X8804660Y5599335D01*
D02*
G37*
G36*
X9628598Y5659528D02*
X9431100D01*
X9419395Y5657200D01*
X9409471Y5650569D01*
X9402841Y5640646D01*
X9400512Y5628940D01*
Y5377060D01*
X9402841Y5365355D01*
X9409471Y5355432D01*
X9419395Y5348801D01*
X9431100Y5346473D01*
X9627638D01*
X9627640Y5346472D01*
X9808920D01*
X9820626Y5348801D01*
X9830549Y5355431D01*
X9837179Y5365355D01*
X9839508Y5377060D01*
Y5628940D01*
X9837179Y5640645D01*
X9830549Y5650569D01*
X9820626Y5657199D01*
X9808920Y5659528D01*
X9628599D01*
X9628598Y5659528D01*
D02*
G37*
G36*
X3412240Y7489996D02*
X3388829Y7485339D01*
X3368983Y7472078D01*
X3355721Y7452231D01*
X3351065Y7428820D01*
X3355721Y7405409D01*
X3366359Y7389490D01*
Y6712629D01*
X3369851Y6695070D01*
X3379797Y6680186D01*
X3758579Y6301404D01*
Y5637060D01*
X3762071Y5619502D01*
X3772017Y5604617D01*
X4065866Y5310768D01*
X4069601Y5291989D01*
X4082863Y5272143D01*
X4102709Y5258882D01*
X4126120Y5254225D01*
X4149531Y5258882D01*
X4169377Y5272143D01*
X4182639Y5291989D01*
X4187295Y5315400D01*
X4182639Y5338811D01*
X4169377Y5358658D01*
X4149531Y5371919D01*
X4130752Y5375654D01*
X3850342Y5656065D01*
Y6320408D01*
X3846849Y6337967D01*
X3836903Y6352852D01*
X3458122Y6731633D01*
Y7389490D01*
X3468759Y7405409D01*
X3473415Y7428820D01*
X3468759Y7452231D01*
X3455498Y7472078D01*
X3435651Y7485339D01*
X3412240Y7489996D01*
D02*
G37*
G36*
X2203940Y5346576D02*
X2180529Y5341919D01*
X2160682Y5328658D01*
X2147421Y5308811D01*
X2142764Y5285400D01*
X2147421Y5261989D01*
X2160682Y5242143D01*
X2180529Y5228882D01*
X2203940Y5224225D01*
X2227351Y5228882D01*
X2243270Y5239519D01*
X3919814D01*
X3985886Y5173447D01*
X3989621Y5154668D01*
X4002883Y5134822D01*
X4022729Y5121560D01*
X4046140Y5116904D01*
X4069551Y5121560D01*
X4089397Y5134822D01*
X4102659Y5154668D01*
X4107315Y5178079D01*
X4102659Y5201490D01*
X4089397Y5221337D01*
X4069551Y5234598D01*
X4050772Y5238333D01*
X3971262Y5317844D01*
X3956377Y5327789D01*
X3938819Y5331282D01*
X2243270D01*
X2227351Y5341919D01*
X2203940Y5346576D01*
D02*
G37*
G36*
X4887291Y5198916D02*
X4827291D01*
X4803880Y5194259D01*
X4784034Y5180998D01*
X4770772Y5161151D01*
X4766116Y5137740D01*
X4770772Y5114329D01*
X4784034Y5094483D01*
X4803880Y5081221D01*
X4827291Y5076565D01*
X4887291D01*
X4910702Y5081221D01*
X4930548Y5094483D01*
X4943810Y5114329D01*
X4948466Y5137740D01*
X4943810Y5161151D01*
X4930548Y5180998D01*
X4910702Y5194259D01*
X4887291Y5198916D01*
D02*
G37*
G36*
X7243945Y4858467D02*
X7122025D01*
X7110320Y4856139D01*
X7100397Y4849508D01*
X7093766Y4839585D01*
X7091982Y4830616D01*
X7024120D01*
X7000709Y4825959D01*
X6980862Y4812698D01*
X6897181Y4729016D01*
X4291080D01*
X4267669Y4724359D01*
X4247823Y4711098D01*
X3455481Y3918756D01*
X2845952Y3918755D01*
X2843426Y3931455D01*
X2857042Y3937096D01*
X2871665Y3948316D01*
X2882885Y3962938D01*
X2889938Y3979967D01*
X2892344Y3998240D01*
Y4073341D01*
X2889938Y4091614D01*
X2882885Y4108643D01*
X2871665Y4123265D01*
X2857042Y4134485D01*
X2840014Y4141539D01*
X2821740Y4143944D01*
X2803467Y4141539D01*
X2786438Y4134485D01*
X2771816Y4123265D01*
X2760596Y4108643D01*
X2753542Y4091614D01*
X2751136Y4073341D01*
Y3998240D01*
X2753542Y3979967D01*
X2760596Y3962938D01*
X2771816Y3948316D01*
X2786438Y3937096D01*
X2800055Y3931455D01*
X2797529Y3918755D01*
X2662940D01*
X1898400D01*
X1874989Y3914099D01*
X1855142Y3900838D01*
X1710501Y3756196D01*
X1294759D01*
X1288874Y3768896D01*
X1293135Y3790321D01*
X1288479Y3813732D01*
X1275217Y3833578D01*
X1255371Y3846839D01*
X1231960Y3851496D01*
X1208549Y3846839D01*
X1194410Y3837392D01*
X1180271Y3846839D01*
X1156860Y3851496D01*
X1133449Y3846839D01*
X1113602Y3833578D01*
X1100341Y3813732D01*
X1095684Y3790321D01*
X1099946Y3768896D01*
X1094061Y3756196D01*
X877320D01*
X853909Y3751539D01*
X834063Y3738278D01*
X795740Y3699956D01*
X574660D01*
X551249Y3695299D01*
X531403Y3682038D01*
X518141Y3662191D01*
X513485Y3638780D01*
X518141Y3615369D01*
X531403Y3595523D01*
X551249Y3582261D01*
X574660Y3577605D01*
X821080D01*
X844491Y3582261D01*
X864337Y3595523D01*
X902660Y3633845D01*
X1735840D01*
X1759251Y3638501D01*
X1779098Y3651763D01*
X1923739Y3796405D01*
X2599225D01*
Y3737065D01*
X2588584Y3732658D01*
X2573961Y3721438D01*
X2562741Y3706815D01*
X2555688Y3689787D01*
X2553282Y3671513D01*
X2555688Y3653240D01*
X2562741Y3636211D01*
X2573961Y3621589D01*
X2588584Y3610368D01*
X2605612Y3603315D01*
X2623886Y3600909D01*
X2698986D01*
X2717259Y3603315D01*
X2734288Y3610368D01*
X2748910Y3621589D01*
X2760130Y3636211D01*
X2767184Y3653240D01*
X2769590Y3671513D01*
X2767184Y3689787D01*
X2760130Y3706815D01*
X2748910Y3721438D01*
X2734288Y3732658D01*
X2721575Y3737923D01*
Y3791678D01*
X2726302Y3796405D01*
X3480820Y3796405D01*
X3504231Y3801061D01*
X3524078Y3814323D01*
X4316420Y4606665D01*
X6922520D01*
X6945931Y4611321D01*
X6965778Y4624583D01*
X7049460Y4708265D01*
X7091438D01*
Y4705319D01*
X7093766Y4693614D01*
X7100397Y4683690D01*
X7110320Y4677060D01*
X7122025Y4674732D01*
X7243945D01*
X7255651Y4677060D01*
X7265574Y4683690D01*
X7272205Y4693614D01*
X7274533Y4705319D01*
Y4827880D01*
X7272205Y4839585D01*
X7265574Y4849508D01*
X7255651Y4856139D01*
X7243945Y4858467D01*
D02*
G37*
G36*
X875720Y4956285D02*
X838050Y4951326D01*
X802947Y4936786D01*
X772804Y4913656D01*
X749674Y4883513D01*
X735134Y4848410D01*
X730175Y4810740D01*
X735134Y4773070D01*
X749674Y4737968D01*
X772804Y4707824D01*
X802947Y4684694D01*
X838050Y4670154D01*
X875720Y4665195D01*
X913390Y4670154D01*
X948492Y4684694D01*
X978636Y4707824D01*
X1001766Y4737968D01*
X1016306Y4773070D01*
X1021265Y4810740D01*
X1016306Y4848410D01*
X1001766Y4883513D01*
X978636Y4913656D01*
X948492Y4936786D01*
X913390Y4951326D01*
X875720Y4956285D01*
D02*
G37*
G36*
X9095197Y4619088D02*
X8897700D01*
X8885994Y4616759D01*
X8876071Y4610129D01*
X8869440Y4600205D01*
X8867112Y4588500D01*
Y4403671D01*
X8854412Y4397501D01*
X8849386Y4400859D01*
X8837681Y4403188D01*
X8697040D01*
X8685334Y4400859D01*
X8675411Y4394229D01*
X8672699Y4390169D01*
X8665406Y4390591D01*
X8658765Y4392175D01*
X8652969Y4400850D01*
X8643045Y4407480D01*
X8631340Y4409809D01*
X8379460D01*
X8367755Y4407480D01*
X8357831Y4400850D01*
X8351201Y4390926D01*
X8348872Y4379221D01*
Y4181723D01*
X8351201Y4170018D01*
X8357831Y4160094D01*
X8367755Y4153464D01*
X8379460Y4151135D01*
X8631340D01*
X8643045Y4153464D01*
X8652969Y4160094D01*
X8656274Y4165042D01*
X8660506Y4165795D01*
X8670503Y4164690D01*
X8675411Y4157344D01*
X8685334Y4150713D01*
X8697040Y4148385D01*
X8837681D01*
X8849386Y4150713D01*
X8859310Y4157344D01*
X8865940Y4167267D01*
X8868269Y4178973D01*
Y4305548D01*
X8880969Y4311719D01*
X8885994Y4308361D01*
X8897700Y4306032D01*
X9095197D01*
X9106903Y4308361D01*
X9116826Y4314991D01*
X9123457Y4324915D01*
X9125785Y4336620D01*
Y4588500D01*
X9123457Y4600205D01*
X9116826Y4610129D01*
X9106903Y4616759D01*
X9095197Y4619088D01*
D02*
G37*
G36*
X1362460Y7401096D02*
X1339049Y7396439D01*
X1319203Y7383178D01*
X1305941Y7363331D01*
X1301285Y7339920D01*
X1305941Y7316509D01*
X1316579Y7300590D01*
Y5241880D01*
X1320071Y5224322D01*
X1330017Y5209437D01*
X2135197Y4404257D01*
X2150082Y4394311D01*
X2167640Y4390819D01*
X3165760D01*
X3174474Y4392552D01*
X3183175Y4394252D01*
X3183241Y4394296D01*
X3183318Y4394311D01*
X3190708Y4399249D01*
X3198093Y4404148D01*
X3673927Y4876779D01*
X3692941Y4880561D01*
X3712787Y4893823D01*
X3726048Y4913669D01*
X3730705Y4937080D01*
X3726048Y4960491D01*
X3712787Y4980338D01*
X3692941Y4993599D01*
X3669530Y4998256D01*
X3646119Y4993599D01*
X3626272Y4980338D01*
X3613011Y4960491D01*
X3609322Y4941946D01*
X3146846Y4482582D01*
X2392591D01*
X2385802Y4495282D01*
X2394099Y4507698D01*
X2398756Y4531109D01*
X2394099Y4554520D01*
X2383217Y4570806D01*
X2395039Y4588498D01*
X2399696Y4611909D01*
X2395039Y4635320D01*
X2381778Y4655167D01*
X2361931Y4668428D01*
X2338520Y4673085D01*
X2315109Y4668428D01*
X2295263Y4655167D01*
X2282002Y4635320D01*
X2277345Y4611909D01*
X2282002Y4588498D01*
X2292883Y4572213D01*
X2281061Y4554520D01*
X2276405Y4531109D01*
X2281061Y4507698D01*
X2289358Y4495282D01*
X2282570Y4482582D01*
X2186645D01*
X1408342Y5260885D01*
Y7300590D01*
X1418979Y7316509D01*
X1423635Y7339920D01*
X1418979Y7363331D01*
X1405718Y7383178D01*
X1385871Y7396439D01*
X1362460Y7401096D01*
D02*
G37*
G36*
X767720Y4540256D02*
X744309Y4535599D01*
X724463Y4522338D01*
X711201Y4502491D01*
X706545Y4479080D01*
X711201Y4455670D01*
X722083Y4439384D01*
X710261Y4421691D01*
X705605Y4398281D01*
X710261Y4374870D01*
X723523Y4355023D01*
X743369Y4341762D01*
X766780Y4337105D01*
X790191Y4341762D01*
X810037Y4355023D01*
X823299Y4374870D01*
X827955Y4398281D01*
X823299Y4421691D01*
X812417Y4437977D01*
X824239Y4455670D01*
X828895Y4479080D01*
X824239Y4502491D01*
X810978Y4522338D01*
X791131Y4535599D01*
X767720Y4540256D01*
D02*
G37*
G36*
X7685160Y4456257D02*
X7544519D01*
X7532814Y4453929D01*
X7522890Y4447298D01*
X7516260Y4437375D01*
X7513931Y4425670D01*
Y4232042D01*
X7516260Y4220337D01*
X7522890Y4210413D01*
X7532814Y4203783D01*
X7544519Y4201455D01*
X7685160D01*
X7696866Y4203783D01*
X7706789Y4210413D01*
X7713420Y4220337D01*
X7715748Y4232042D01*
Y4425670D01*
X7713420Y4437375D01*
X7706789Y4447298D01*
X7696866Y4453929D01*
X7685160Y4456257D01*
D02*
G37*
G36*
X5616640Y4231908D02*
X5593229Y4227251D01*
X5573383Y4213990D01*
X5560121Y4194143D01*
X5555465Y4170732D01*
X5560121Y4147321D01*
X5573383Y4127475D01*
X5593229Y4114214D01*
X5616640Y4109557D01*
X5640051Y4114214D01*
X5656337Y4125095D01*
X5674029Y4113273D01*
X5697440Y4108617D01*
X5720851Y4113273D01*
X5740698Y4126535D01*
X5753959Y4146381D01*
X5758616Y4169792D01*
X5753959Y4193203D01*
X5740698Y4213050D01*
X5720851Y4226311D01*
X5697440Y4230968D01*
X5674029Y4226311D01*
X5657744Y4215429D01*
X5640051Y4227251D01*
X5616640Y4231908D01*
D02*
G37*
G36*
X5098480D02*
X5075069Y4227251D01*
X5055223Y4213990D01*
X5041961Y4194143D01*
X5037305Y4170732D01*
X5041961Y4147321D01*
X5055223Y4127475D01*
X5075069Y4114214D01*
X5098480Y4109557D01*
X5121891Y4114214D01*
X5138177Y4125095D01*
X5155869Y4113273D01*
X5179280Y4108617D01*
X5202691Y4113273D01*
X5222538Y4126535D01*
X5235799Y4146381D01*
X5240456Y4169792D01*
X5235799Y4193203D01*
X5222538Y4213050D01*
X5202691Y4226311D01*
X5179280Y4230968D01*
X5155869Y4226311D01*
X5139584Y4215429D01*
X5121891Y4227251D01*
X5098480Y4231908D01*
D02*
G37*
G36*
X4580687D02*
X4557276Y4227251D01*
X4537429Y4213990D01*
X4524168Y4194143D01*
X4519511Y4170732D01*
X4524168Y4147321D01*
X4537429Y4127475D01*
X4557276Y4114214D01*
X4580687Y4109557D01*
X4604097Y4114214D01*
X4620383Y4125095D01*
X4638076Y4113273D01*
X4661486Y4108617D01*
X4684897Y4113273D01*
X4704744Y4126535D01*
X4718005Y4146381D01*
X4722662Y4169792D01*
X4718005Y4193203D01*
X4704744Y4213050D01*
X4684897Y4226311D01*
X4661486Y4230968D01*
X4638076Y4226311D01*
X4621790Y4215429D01*
X4604097Y4227251D01*
X4580687Y4231908D01*
D02*
G37*
G36*
X7973380Y4212817D02*
X7949969Y4208160D01*
X7930123Y4194899D01*
X7916861Y4175052D01*
X7912205Y4151641D01*
X7916861Y4128230D01*
X7930123Y4108384D01*
X7949969Y4095122D01*
X7959748Y4093177D01*
X8005912Y4047013D01*
X8022451Y4035962D01*
X8041960Y4032082D01*
X9430279D01*
X9438569Y4026542D01*
X9461980Y4021886D01*
X9485391Y4026542D01*
X9505237Y4039804D01*
X9518499Y4059650D01*
X9523155Y4083061D01*
X9518499Y4106472D01*
X9505237Y4126319D01*
X9485391Y4139580D01*
X9461980Y4144237D01*
X9438569Y4139580D01*
X9430279Y4134041D01*
X8063077D01*
X8031844Y4165273D01*
X8029899Y4175052D01*
X8016638Y4194899D01*
X7996791Y4208160D01*
X7973380Y4212817D01*
D02*
G37*
G36*
X712448Y4226804D02*
X694174Y4224398D01*
X677146Y4217345D01*
X662523Y4206125D01*
X651303Y4191502D01*
X644250Y4174474D01*
X641844Y4156200D01*
Y4081100D01*
X644250Y4062827D01*
X651303Y4045798D01*
X662523Y4031176D01*
X677146Y4019956D01*
X694174Y4012902D01*
X712448Y4010496D01*
X730721Y4012902D01*
X747750Y4019956D01*
X762372Y4031176D01*
X773593Y4045798D01*
X780646Y4062827D01*
X783052Y4081100D01*
Y4156200D01*
X780646Y4174474D01*
X773593Y4191502D01*
X762372Y4206125D01*
X747750Y4217345D01*
X730721Y4224398D01*
X712448Y4226804D01*
D02*
G37*
G36*
X3341252Y3768636D02*
X3317841Y3763980D01*
X3303702Y3754532D01*
X3289563Y3763980D01*
X3266152Y3768636D01*
X3242741Y3763980D01*
X3222895Y3750718D01*
X3209633Y3730872D01*
X3204977Y3707461D01*
X3209633Y3684050D01*
X3222895Y3664203D01*
X3242741Y3650942D01*
X3266152Y3646285D01*
X3289563Y3650942D01*
X3303702Y3660390D01*
X3317841Y3650942D01*
X3341252Y3646285D01*
X3364663Y3650942D01*
X3384510Y3664203D01*
X3397771Y3684050D01*
X3402428Y3707461D01*
X3397771Y3730872D01*
X3384510Y3750718D01*
X3364663Y3763980D01*
X3341252Y3768636D01*
D02*
G37*
G36*
X5180200Y3927071D02*
X5156789Y3922414D01*
X5136942Y3909153D01*
X5123681Y3889306D01*
X5119024Y3865895D01*
X5123681Y3842485D01*
X5128084Y3835896D01*
X5123681Y3829307D01*
X5119024Y3805896D01*
X5123681Y3782485D01*
X5136942Y3762638D01*
X5156789Y3749377D01*
X5180200Y3744720D01*
X5203611Y3749377D01*
X5223457Y3762638D01*
X5236719Y3782485D01*
X5241375Y3805896D01*
X5236719Y3829307D01*
X5232316Y3835896D01*
X5236719Y3842485D01*
X5241375Y3865895D01*
X5236719Y3889306D01*
X5223457Y3909153D01*
X5203611Y3922414D01*
X5180200Y3927071D01*
D02*
G37*
G36*
X7148371Y3463836D02*
X7088371D01*
X7070098Y3461430D01*
X7053069Y3454376D01*
X7038447Y3443156D01*
X7027226Y3428534D01*
X7020173Y3411505D01*
X7017767Y3393232D01*
X7020173Y3374958D01*
X7027226Y3357930D01*
X7038447Y3343307D01*
X7053069Y3332087D01*
X7070098Y3325034D01*
X7088371Y3322628D01*
X7148371D01*
X7166645Y3325034D01*
X7183673Y3332087D01*
X7198295Y3343307D01*
X7209516Y3357930D01*
X7216569Y3374958D01*
X7218975Y3393232D01*
X7216569Y3411505D01*
X7209516Y3428534D01*
X7198295Y3443156D01*
X7183673Y3454376D01*
X7166645Y3461430D01*
X7148371Y3463836D01*
D02*
G37*
G36*
X7506120Y3273468D02*
X7189220D01*
X7177515Y3271140D01*
X7167591Y3264510D01*
X7160961Y3254586D01*
X7158633Y3242881D01*
Y3045383D01*
X7160961Y3033678D01*
X7167591Y3023754D01*
X7177515Y3017124D01*
X7189220Y3014795D01*
X7506120D01*
X7517826Y3017124D01*
X7527749Y3023754D01*
X7534380Y3033678D01*
X7536708Y3045383D01*
Y3242881D01*
X7534380Y3254586D01*
X7527749Y3264510D01*
X7517826Y3271140D01*
X7506120Y3273468D01*
D02*
G37*
G36*
X9628131Y2660926D02*
X9568131D01*
X9549857Y2658520D01*
X9532829Y2651467D01*
X9518207Y2640247D01*
X9506986Y2625624D01*
X9499933Y2608596D01*
X9497527Y2590322D01*
X9499933Y2572049D01*
X9506986Y2555021D01*
X9518207Y2540398D01*
X9532829Y2529178D01*
X9549857Y2522124D01*
X9568131Y2519719D01*
X9628131D01*
X9646404Y2522124D01*
X9663433Y2529178D01*
X9678055Y2540398D01*
X9689276Y2555021D01*
X9696329Y2572049D01*
X9698735Y2590322D01*
X9696329Y2608596D01*
X9689276Y2625624D01*
X9678055Y2640247D01*
X9663433Y2651467D01*
X9646404Y2658520D01*
X9628131Y2660926D01*
D02*
G37*
G36*
X4206980Y2587815D02*
X4183569Y2583159D01*
X4163722Y2569898D01*
X4150461Y2550051D01*
X4145805Y2526640D01*
X4150461Y2503229D01*
X4161343Y2486943D01*
X4149521Y2469251D01*
X4144864Y2445840D01*
X4149521Y2422429D01*
X4162782Y2402583D01*
X4182629Y2389321D01*
X4206040Y2384665D01*
X4229451Y2389321D01*
X4249297Y2402583D01*
X4262559Y2422429D01*
X4267215Y2445840D01*
X4262559Y2469251D01*
X4251677Y2485537D01*
X4263499Y2503229D01*
X4268155Y2526640D01*
X4263499Y2550051D01*
X4250237Y2569898D01*
X4230391Y2583159D01*
X4206980Y2587815D01*
D02*
G37*
G36*
X1979200Y2564936D02*
X1955789Y2560279D01*
X1935942Y2547018D01*
X1922681Y2527171D01*
X1918024Y2503760D01*
X1922681Y2480349D01*
X1935042Y2461850D01*
X1922681Y2443351D01*
X1918024Y2419940D01*
X1922681Y2396529D01*
X1935942Y2376683D01*
X1955789Y2363421D01*
X1979200Y2358765D01*
X2002611Y2363421D01*
X2022457Y2376683D01*
X2035719Y2396529D01*
X2040375Y2419940D01*
X2035719Y2443351D01*
X2023358Y2461850D01*
X2035719Y2480349D01*
X2040375Y2503760D01*
X2035719Y2527171D01*
X2022457Y2547018D01*
X2002611Y2560279D01*
X1979200Y2564936D01*
D02*
G37*
G36*
X7915660Y2475613D02*
X7594600D01*
X7582895Y2473285D01*
X7572971Y2466654D01*
X7566341Y2456731D01*
X7564012Y2445025D01*
Y2222500D01*
X7566341Y2210795D01*
X7572971Y2200871D01*
X7582895Y2194241D01*
X7594600Y2191912D01*
X7915660D01*
X7927365Y2194241D01*
X7937289Y2200871D01*
X7943919Y2210795D01*
X7946248Y2222500D01*
Y2445025D01*
X7943919Y2456731D01*
X7937289Y2466654D01*
X7927365Y2473285D01*
X7915660Y2475613D01*
D02*
G37*
G36*
X9747001Y2108608D02*
X9370039D01*
X9358334Y2106280D01*
X9348410Y2099649D01*
X9341780Y2089726D01*
X9339451Y2078020D01*
Y1826140D01*
X9341780Y1814435D01*
X9348410Y1804512D01*
X9358334Y1797881D01*
X9370039Y1795553D01*
X9747001D01*
X9758706Y1797881D01*
X9768629Y1804512D01*
X9775260Y1814435D01*
X9777588Y1826140D01*
Y2078020D01*
X9775260Y2089726D01*
X9768629Y2099649D01*
X9758706Y2106280D01*
X9747001Y2108608D01*
D02*
G37*
G36*
X6908260Y2193348D02*
X6656380D01*
X6644675Y2191020D01*
X6634751Y2184389D01*
X6628121Y2174466D01*
X6625792Y2162760D01*
Y1966222D01*
X6625792Y1966221D01*
Y1784940D01*
X6628121Y1773235D01*
X6634751Y1763311D01*
X6644675Y1756681D01*
X6656380Y1754353D01*
X6908260D01*
X6919965Y1756681D01*
X6929889Y1763311D01*
X6936519Y1773235D01*
X6938847Y1784940D01*
Y1965262D01*
X6938848Y1965263D01*
Y2162760D01*
X6936519Y2174466D01*
X6929889Y2184389D01*
X6919965Y2191020D01*
X6908260Y2193348D01*
D02*
G37*
G36*
X978780Y1928525D02*
X955369Y1923868D01*
X935523Y1910607D01*
X922261Y1890760D01*
X917605Y1867349D01*
X922261Y1843938D01*
X926664Y1837349D01*
X922261Y1830760D01*
X917605Y1807349D01*
X922261Y1783939D01*
X935523Y1764092D01*
X955369Y1750831D01*
X978780Y1746174D01*
X1002191Y1750831D01*
X1022038Y1764092D01*
X1035299Y1783939D01*
X1039956Y1807349D01*
X1035299Y1830760D01*
X1030896Y1837349D01*
X1035299Y1843938D01*
X1039956Y1867349D01*
X1035299Y1890760D01*
X1022038Y1910607D01*
X1002191Y1923868D01*
X978780Y1928525D01*
D02*
G37*
G36*
X3178179Y1927923D02*
X3154768Y1923266D01*
X3134921Y1910005D01*
X3121660Y1890159D01*
X3117003Y1866748D01*
X3121660Y1843337D01*
X3126063Y1836748D01*
X3121660Y1830159D01*
X3117003Y1806748D01*
X3121660Y1783337D01*
X3134921Y1763490D01*
X3154768Y1750229D01*
X3178179Y1745572D01*
X3201589Y1750229D01*
X3221436Y1763490D01*
X3234697Y1783337D01*
X3239354Y1806748D01*
X3234697Y1830159D01*
X3230295Y1836748D01*
X3234697Y1843337D01*
X3239354Y1866748D01*
X3234697Y1890159D01*
X3221436Y1910005D01*
X3201589Y1923266D01*
X3178179Y1927923D01*
D02*
G37*
G36*
X5682033Y1530196D02*
X5681768Y1530143D01*
X5622297D01*
X5622033Y1530196D01*
X5621768Y1530143D01*
X5590593D01*
X5578887Y1527815D01*
X5568964Y1521184D01*
X5562333Y1511261D01*
X5560005Y1499555D01*
Y1377635D01*
X5562333Y1365930D01*
X5568964Y1356006D01*
X5578887Y1349376D01*
X5590593Y1347048D01*
X5713153D01*
X5724858Y1349376D01*
X5734782Y1356006D01*
X5741412Y1365930D01*
X5743741Y1377635D01*
Y1499555D01*
X5741412Y1511261D01*
X5734782Y1521184D01*
X5724858Y1527815D01*
X5713153Y1530143D01*
X5682297D01*
X5682033Y1530196D01*
D02*
G37*
G36*
X1105717Y1673691D02*
Y1520860D01*
X1211840D01*
Y1545861D01*
X1207372Y1579797D01*
X1194273Y1611421D01*
X1173436Y1638578D01*
X1146279Y1659415D01*
X1114655Y1672514D01*
X1105717Y1673691D01*
D02*
G37*
G36*
X3305718Y1673691D02*
Y1520858D01*
X3411840D01*
Y1545861D01*
X3407372Y1579797D01*
X3394273Y1611421D01*
X3373436Y1638578D01*
X3346279Y1659415D01*
X3314655Y1672514D01*
X3305718Y1673691D01*
D02*
G37*
G36*
X7361941Y1704507D02*
X6983500D01*
X6971795Y1702179D01*
X6961871Y1695549D01*
X6955241Y1685625D01*
X6952912Y1673920D01*
Y1422040D01*
X6955241Y1410334D01*
X6961871Y1400411D01*
X6971795Y1393781D01*
X6983500Y1391452D01*
X7361941D01*
X7373646Y1393781D01*
X7383569Y1400411D01*
X7390200Y1410334D01*
X7392528Y1422040D01*
Y1673920D01*
X7390200Y1685625D01*
X7383569Y1695549D01*
X7373646Y1702179D01*
X7361941Y1704507D01*
D02*
G37*
G36*
X826718Y1676982D02*
X792782Y1672514D01*
X761158Y1659415D01*
X734001Y1638578D01*
X713164Y1611421D01*
X700065Y1579797D01*
X695597Y1545861D01*
Y1445861D01*
X700065Y1411924D01*
X713164Y1380300D01*
X734001Y1353144D01*
X761158Y1332306D01*
X792782Y1319207D01*
X826718Y1314739D01*
X860655Y1319207D01*
X892279Y1332306D01*
X919436Y1353144D01*
X940273Y1380300D01*
X946845Y1396166D01*
X960592D01*
X967164Y1380300D01*
X988001Y1353144D01*
X1015158Y1332306D01*
X1046782Y1319207D01*
X1055717Y1318031D01*
Y1495860D01*
Y1673691D01*
X1046782Y1672514D01*
X1015158Y1659415D01*
X988001Y1638578D01*
X967164Y1611421D01*
X960592Y1595555D01*
X946845D01*
X940273Y1611421D01*
X919436Y1638578D01*
X892279Y1659415D01*
X860655Y1672514D01*
X826718Y1676982D01*
D02*
G37*
G36*
X3026719D02*
X2992782Y1672514D01*
X2961158Y1659415D01*
X2934001Y1638578D01*
X2913164Y1611421D01*
X2900065Y1579797D01*
X2895597Y1545861D01*
Y1445861D01*
X2900065Y1411924D01*
X2913164Y1380300D01*
X2934001Y1353144D01*
X2961158Y1332306D01*
X2992782Y1319207D01*
X3026719Y1314739D01*
X3060655Y1319207D01*
X3092279Y1332306D01*
X3119436Y1353144D01*
X3140273Y1380300D01*
X3146845Y1396166D01*
X3160592D01*
X3167164Y1380300D01*
X3188001Y1353144D01*
X3215158Y1332306D01*
X3246782Y1319207D01*
X3255718Y1318030D01*
Y1495858D01*
Y1673691D01*
X3246782Y1672514D01*
X3215158Y1659415D01*
X3188001Y1638578D01*
X3167164Y1611421D01*
X3160592Y1595555D01*
X3146845D01*
X3140273Y1611421D01*
X3119436Y1638578D01*
X3092279Y1659415D01*
X3060655Y1672514D01*
X3026719Y1676982D01*
D02*
G37*
G36*
X3411840Y1470858D02*
X3305718D01*
Y1318030D01*
X3314655Y1319207D01*
X3346279Y1332306D01*
X3373436Y1353144D01*
X3394273Y1380300D01*
X3407372Y1411924D01*
X3411840Y1445861D01*
Y1470858D01*
D02*
G37*
G36*
X1211840Y1470860D02*
X1105717D01*
Y1318030D01*
X1114655Y1319207D01*
X1146279Y1332306D01*
X1173436Y1353144D01*
X1194273Y1380300D01*
X1207372Y1411924D01*
X1211840Y1445861D01*
Y1470860D01*
D02*
G37*
G36*
X5297560Y1464103D02*
X5175000D01*
X5163295Y1461775D01*
X5153371Y1455144D01*
X5146741Y1445221D01*
X5144412Y1433515D01*
Y1311595D01*
X5146741Y1299890D01*
X5153371Y1289966D01*
X5163295Y1283336D01*
X5175000Y1281008D01*
X5297560D01*
X5309266Y1283336D01*
X5319189Y1289966D01*
X5325820Y1299890D01*
X5328148Y1311595D01*
Y1433515D01*
X5325820Y1445221D01*
X5319189Y1455144D01*
X5309266Y1461775D01*
X5297560Y1464103D01*
D02*
G37*
G36*
X7938520Y1307528D02*
X7659120D01*
X7647415Y1305200D01*
X7637491Y1298569D01*
X7630861Y1288646D01*
X7628532Y1276940D01*
Y1068660D01*
X7630861Y1056955D01*
X7637491Y1047031D01*
X7647415Y1040401D01*
X7659120Y1038073D01*
X7938520D01*
X7950225Y1040401D01*
X7960149Y1047031D01*
X7966779Y1056955D01*
X7969108Y1068660D01*
Y1276940D01*
X7966779Y1288646D01*
X7960149Y1298569D01*
X7950225Y1305200D01*
X7938520Y1307528D01*
D02*
G37*
G36*
X6788540Y1203388D02*
X6665980D01*
X6654275Y1201060D01*
X6644351Y1194429D01*
X6637721Y1184506D01*
X6635392Y1172800D01*
Y1050880D01*
X6637721Y1039175D01*
X6644351Y1029251D01*
X6654275Y1022621D01*
X6665980Y1020293D01*
X6788540D01*
X6800246Y1022621D01*
X6810169Y1029251D01*
X6816800Y1039175D01*
X6819128Y1050880D01*
Y1172800D01*
X6816800Y1184506D01*
X6810169Y1194429D01*
X6800246Y1201060D01*
X6788540Y1203388D01*
D02*
G37*
G36*
X6501520Y1202483D02*
X6378960D01*
X6367255Y1200155D01*
X6357331Y1193524D01*
X6350701Y1183601D01*
X6348372Y1171895D01*
Y1049975D01*
X6350701Y1038270D01*
X6357331Y1028346D01*
X6367255Y1021716D01*
X6378960Y1019388D01*
X6501520D01*
X6513226Y1021716D01*
X6523149Y1028346D01*
X6529780Y1038270D01*
X6532108Y1049975D01*
Y1171895D01*
X6529780Y1183601D01*
X6523149Y1193524D01*
X6513226Y1200155D01*
X6501520Y1202483D01*
D02*
G37*
G36*
X8351721Y1069098D02*
X8101721D01*
X8067785Y1064630D01*
X8036160Y1051531D01*
X8009004Y1030693D01*
X7988167Y1003537D01*
X7975068Y971913D01*
X7970600Y937976D01*
X7975068Y904039D01*
X7988167Y872415D01*
X8009004Y845259D01*
X8036160Y824421D01*
X8067785Y811322D01*
X8101721Y806854D01*
X8351721D01*
X8385658Y811322D01*
X8417282Y824421D01*
X8444439Y845259D01*
X8465276Y872415D01*
X8478375Y904039D01*
X8482843Y937976D01*
X8478375Y971913D01*
X8465276Y1003537D01*
X8444439Y1030693D01*
X8417282Y1051531D01*
X8385658Y1064630D01*
X8351721Y1069098D01*
D02*
G37*
G36*
X3534719Y1183804D02*
X3496492Y1180039D01*
X3459734Y1168889D01*
X3425858Y1150782D01*
X3396166Y1126414D01*
X3371798Y1096721D01*
X3353691Y1062845D01*
X3342540Y1026087D01*
X3338775Y987861D01*
X3342540Y949634D01*
X3353691Y912876D01*
X3371798Y879000D01*
X3396166Y849308D01*
X3425858Y824940D01*
X3459734Y806833D01*
X3496492Y795682D01*
X3534719Y791917D01*
X3572945Y795682D01*
X3609703Y806833D01*
X3643579Y824940D01*
X3673272Y849308D01*
X3697640Y879000D01*
X3715747Y912876D01*
X3726897Y949634D01*
X3730662Y987861D01*
X3726897Y1026087D01*
X3715747Y1062845D01*
X3697640Y1096721D01*
X3673272Y1126414D01*
X3643579Y1150782D01*
X3609703Y1168889D01*
X3572945Y1180039D01*
X3534719Y1183804D01*
D02*
G37*
G36*
X2518719D02*
X2480492Y1180039D01*
X2443734Y1168889D01*
X2409858Y1150782D01*
X2380166Y1126414D01*
X2355798Y1096721D01*
X2337691Y1062845D01*
X2326540Y1026087D01*
X2322775Y987861D01*
X2326540Y949634D01*
X2337691Y912876D01*
X2355798Y879000D01*
X2380166Y849308D01*
X2409858Y824940D01*
X2443734Y806833D01*
X2480492Y795682D01*
X2518719Y791917D01*
X2556945Y795682D01*
X2593703Y806833D01*
X2627579Y824940D01*
X2657272Y849308D01*
X2681640Y879000D01*
X2699747Y912876D01*
X2710897Y949634D01*
X2714662Y987861D01*
X2710897Y1026087D01*
X2699747Y1062845D01*
X2681640Y1096721D01*
X2657272Y1126414D01*
X2627579Y1150782D01*
X2593703Y1168889D01*
X2556945Y1180039D01*
X2518719Y1183804D01*
D02*
G37*
G36*
X1334718D02*
X1296492Y1180039D01*
X1259734Y1168889D01*
X1225858Y1150782D01*
X1196166Y1126414D01*
X1171798Y1096721D01*
X1153690Y1062845D01*
X1142540Y1026087D01*
X1138775Y987861D01*
X1142540Y949634D01*
X1153690Y912876D01*
X1171798Y879000D01*
X1196166Y849308D01*
X1225858Y824940D01*
X1259734Y806833D01*
X1296492Y795682D01*
X1334718Y791917D01*
X1372945Y795682D01*
X1409703Y806833D01*
X1443579Y824940D01*
X1473271Y849308D01*
X1497639Y879000D01*
X1515747Y912876D01*
X1526897Y949634D01*
X1530662Y987861D01*
X1526897Y1026087D01*
X1515747Y1062845D01*
X1497639Y1096721D01*
X1473271Y1126414D01*
X1443579Y1150782D01*
X1409703Y1168889D01*
X1372945Y1180039D01*
X1334718Y1183804D01*
D02*
G37*
G36*
X318718D02*
X280492Y1180039D01*
X243734Y1168889D01*
X209858Y1150782D01*
X180166Y1126414D01*
X155798Y1096721D01*
X137690Y1062845D01*
X126540Y1026087D01*
X122775Y987861D01*
X126540Y949634D01*
X137690Y912876D01*
X155798Y879000D01*
X180166Y849308D01*
X209858Y824940D01*
X243734Y806833D01*
X280492Y795682D01*
X318718Y791917D01*
X356945Y795682D01*
X393703Y806833D01*
X427579Y824940D01*
X457271Y849308D01*
X481639Y879000D01*
X499747Y912876D01*
X510897Y949634D01*
X514662Y987861D01*
X510897Y1026087D01*
X499747Y1062845D01*
X481639Y1096721D01*
X457271Y1126414D01*
X427579Y1150782D01*
X393703Y1168889D01*
X356945Y1180039D01*
X318718Y1183804D01*
D02*
G37*
G36*
X5405702Y878596D02*
Y775765D01*
X5508534D01*
X5507357Y784702D01*
X5494258Y816326D01*
X5473420Y843482D01*
X5446264Y864320D01*
X5414640Y877419D01*
X5405702Y878596D01*
D02*
G37*
G36*
X5355702Y878595D02*
X5346767Y877419D01*
X5315143Y864320D01*
X5287986Y843482D01*
X5267148Y816326D01*
X5254049Y784702D01*
X5252873Y775765D01*
X5355702D01*
Y878595D01*
D02*
G37*
G36*
X9216461Y992628D02*
X9018963D01*
X9007258Y990300D01*
X8997334Y983669D01*
X8990704Y973746D01*
X8988375Y962040D01*
Y710161D01*
X8990704Y698455D01*
X8997334Y688532D01*
X9007258Y681901D01*
X9018963Y679573D01*
X9216461D01*
X9228166Y681901D01*
X9238089Y688532D01*
X9244720Y698455D01*
X9247048Y710161D01*
Y962040D01*
X9244720Y973746D01*
X9238089Y983669D01*
X9228166Y990300D01*
X9216461Y992628D01*
D02*
G37*
G36*
X4433203Y937818D02*
Y633765D01*
X4737256D01*
X4735148Y660548D01*
X4723022Y711056D01*
X4703145Y759045D01*
X4676004Y803334D01*
X4642270Y842832D01*
X4602772Y876566D01*
X4558483Y903707D01*
X4510494Y923584D01*
X4459986Y935710D01*
X4433203Y937818D01*
D02*
G37*
G36*
X6932200Y937818D02*
Y633765D01*
X7236256D01*
X7234148Y660548D01*
X7222022Y711056D01*
X7202144Y759045D01*
X7175004Y803334D01*
X7141270Y842832D01*
X7101772Y876566D01*
X7057483Y903707D01*
X7009494Y923584D01*
X6958986Y935710D01*
X6932200Y937818D01*
D02*
G37*
G36*
X6882200Y937818D02*
X6855420Y935710D01*
X6804912Y923584D01*
X6756923Y903707D01*
X6712634Y876566D01*
X6673137Y842832D01*
X6639402Y803334D01*
X6612262Y759045D01*
X6592384Y711056D01*
X6580258Y660548D01*
X6578150Y633765D01*
X6882200D01*
Y937818D01*
D02*
G37*
G36*
X4383203Y937818D02*
X4356420Y935710D01*
X4305912Y923584D01*
X4257923Y903707D01*
X4213634Y876566D01*
X4174137Y842832D01*
X4140402Y803334D01*
X4113262Y759045D01*
X4093384Y711056D01*
X4081259Y660548D01*
X4079151Y633765D01*
X4383203D01*
Y937818D01*
D02*
G37*
G36*
X5355702Y725765D02*
X5252873D01*
X5254049Y716829D01*
X5267148Y685204D01*
X5287986Y658048D01*
X5315143Y637211D01*
X5346767Y624112D01*
X5355702Y622935D01*
Y725765D01*
D02*
G37*
G36*
X5508534D02*
X5405702D01*
Y622935D01*
X5414640Y624112D01*
X5446264Y637211D01*
X5473420Y658048D01*
X5494258Y685204D01*
X5507357Y716829D01*
X5508534Y725765D01*
D02*
G37*
G36*
X6341703Y880765D02*
X6081703D01*
Y620765D01*
X6341703D01*
Y880765D01*
D02*
G37*
G36*
X5934703Y881887D02*
X5900766Y877419D01*
X5869142Y864320D01*
X5841986Y843482D01*
X5821148Y816326D01*
X5808049Y784702D01*
X5803581Y750765D01*
X5808049Y716829D01*
X5821148Y685204D01*
X5841986Y658048D01*
X5869142Y637211D01*
X5900766Y624112D01*
X5934703Y619644D01*
X5968640Y624112D01*
X6000264Y637211D01*
X6027420Y658048D01*
X6048258Y685204D01*
X6061357Y716829D01*
X6065825Y750765D01*
X6061357Y784702D01*
X6048258Y816326D01*
X6027420Y843482D01*
X6000264Y864320D01*
X5968640Y877419D01*
X5934703Y881887D01*
D02*
G37*
G36*
X5657703D02*
X5623767Y877419D01*
X5592142Y864320D01*
X5564986Y843482D01*
X5544148Y816326D01*
X5531049Y784702D01*
X5526582Y750765D01*
X5531049Y716829D01*
X5544148Y685205D01*
X5564986Y658048D01*
X5592142Y637211D01*
X5623767Y624112D01*
X5657703Y619644D01*
X5691640Y624112D01*
X5723264Y637211D01*
X5750420Y658048D01*
X5771258Y685205D01*
X5784357Y716829D01*
X5788825Y750765D01*
X5784357Y784702D01*
X5771258Y816326D01*
X5750420Y843482D01*
X5723264Y864320D01*
X5691640Y877419D01*
X5657703Y881887D01*
D02*
G37*
G36*
X5103703D02*
X5069767Y877419D01*
X5038143Y864320D01*
X5010986Y843482D01*
X4990149Y816326D01*
X4977049Y784702D01*
X4972582Y750765D01*
X4977049Y716829D01*
X4990149Y685205D01*
X5010986Y658048D01*
X5038143Y637211D01*
X5069767Y624112D01*
X5103703Y619644D01*
X5137640Y624112D01*
X5169264Y637211D01*
X5196420Y658048D01*
X5217258Y685205D01*
X5230357Y716829D01*
X5234825Y750765D01*
X5230357Y784702D01*
X5217258Y816326D01*
X5196420Y843482D01*
X5169264Y864320D01*
X5137640Y877419D01*
X5103703Y881887D01*
D02*
G37*
G36*
X8351721Y489098D02*
X8266721D01*
Y397976D01*
X8475864D01*
X8465276Y423537D01*
X8444439Y450693D01*
X8417282Y471531D01*
X8385658Y484630D01*
X8351721Y489098D01*
D02*
G37*
G36*
X8186721D02*
X8101721D01*
X8067785Y484630D01*
X8036160Y471531D01*
X8009004Y450693D01*
X7988167Y423537D01*
X7977579Y397976D01*
X8186721D01*
Y489098D01*
D02*
G37*
G36*
X8706721Y894098D02*
X8672785Y889630D01*
X8641161Y876531D01*
X8614004Y855693D01*
X8593167Y828537D01*
X8580068Y796913D01*
X8575600Y762976D01*
Y512976D01*
X8580068Y479039D01*
X8593167Y447415D01*
X8614004Y420259D01*
X8641161Y399421D01*
X8672785Y386322D01*
X8706721Y381854D01*
X8740658Y386322D01*
X8772282Y399421D01*
X8799439Y420259D01*
X8820276Y447415D01*
X8833375Y479039D01*
X8837843Y512976D01*
Y762976D01*
X8833375Y796913D01*
X8820276Y828537D01*
X8799439Y855693D01*
X8772282Y876531D01*
X8740658Y889630D01*
X8706721Y894098D01*
D02*
G37*
G36*
X6073203Y597887D02*
X6039267Y593419D01*
X6007642Y580320D01*
X5980486Y559482D01*
X5959648Y532326D01*
X5946549Y500702D01*
X5942082Y466765D01*
X5946549Y432828D01*
X5959648Y401204D01*
X5980486Y374048D01*
X6007642Y353210D01*
X6039267Y340111D01*
X6073203Y335643D01*
X6107140Y340111D01*
X6138764Y353210D01*
X6165920Y374048D01*
X6186758Y401204D01*
X6199857Y432828D01*
X6204325Y466765D01*
X6199857Y500702D01*
X6186758Y532326D01*
X6165920Y559482D01*
X6138764Y580320D01*
X6107140Y593419D01*
X6073203Y597887D01*
D02*
G37*
G36*
X5796203D02*
X5762267Y593419D01*
X5730642Y580320D01*
X5703486Y559482D01*
X5682649Y532326D01*
X5669549Y500702D01*
X5665082Y466765D01*
X5669549Y432828D01*
X5682649Y401204D01*
X5703486Y374048D01*
X5730642Y353210D01*
X5762267Y340111D01*
X5796203Y335643D01*
X5830140Y340111D01*
X5861764Y353210D01*
X5888920Y374048D01*
X5909758Y401204D01*
X5922857Y432828D01*
X5927325Y466765D01*
X5922857Y500702D01*
X5909758Y532326D01*
X5888920Y559482D01*
X5861764Y580320D01*
X5830140Y593419D01*
X5796203Y597887D01*
D02*
G37*
G36*
X5519203D02*
X5485266Y593419D01*
X5453642Y580320D01*
X5426486Y559482D01*
X5405648Y532326D01*
X5392549Y500702D01*
X5388081Y466765D01*
X5392549Y432828D01*
X5405648Y401204D01*
X5426486Y374048D01*
X5453642Y353210D01*
X5485266Y340111D01*
X5519203Y335643D01*
X5553140Y340111D01*
X5584764Y353210D01*
X5611920Y374048D01*
X5632758Y401204D01*
X5645857Y432828D01*
X5650325Y466765D01*
X5645857Y500702D01*
X5632758Y532326D01*
X5611920Y559482D01*
X5584764Y580320D01*
X5553140Y593419D01*
X5519203Y597887D01*
D02*
G37*
G36*
X5242203D02*
X5208266Y593419D01*
X5176642Y580320D01*
X5149486Y559482D01*
X5128648Y532326D01*
X5115549Y500702D01*
X5111081Y466765D01*
X5115549Y432828D01*
X5128648Y401204D01*
X5149486Y374048D01*
X5176642Y353210D01*
X5208266Y340111D01*
X5242203Y335643D01*
X5276140Y340111D01*
X5307764Y353210D01*
X5334920Y374048D01*
X5355758Y401204D01*
X5368857Y432828D01*
X5373325Y466765D01*
X5368857Y500702D01*
X5355758Y532326D01*
X5334920Y559482D01*
X5307764Y580320D01*
X5276140Y593419D01*
X5242203Y597887D01*
D02*
G37*
G36*
X6882200Y583765D02*
X6578150D01*
X6580258Y556982D01*
X6592384Y506474D01*
X6612262Y458485D01*
X6639402Y414197D01*
X6673137Y374699D01*
X6712634Y340965D01*
X6756923Y313824D01*
X6804912Y293947D01*
X6855420Y281821D01*
X6882200Y279713D01*
Y583765D01*
D02*
G37*
G36*
X4737256D02*
X4433203D01*
Y279713D01*
X4459986Y281821D01*
X4510494Y293947D01*
X4558483Y313824D01*
X4602772Y340965D01*
X4642270Y374699D01*
X4676004Y414197D01*
X4703145Y458485D01*
X4723022Y506474D01*
X4735148Y556982D01*
X4737256Y583765D01*
D02*
G37*
G36*
X4383203D02*
X4079151D01*
X4081259Y556982D01*
X4093384Y506474D01*
X4113262Y458485D01*
X4140402Y414197D01*
X4174137Y374699D01*
X4213634Y340965D01*
X4257923Y313824D01*
X4305912Y293947D01*
X4356420Y281821D01*
X4383203Y279713D01*
Y583765D01*
D02*
G37*
G36*
X7236256D02*
X6932200D01*
Y279712D01*
X6958986Y281821D01*
X7009494Y293947D01*
X7057483Y313824D01*
X7101772Y340965D01*
X7141270Y374699D01*
X7175004Y414197D01*
X7202144Y458485D01*
X7222022Y506474D01*
X7234148Y556982D01*
X7236256Y583765D01*
D02*
G37*
G36*
X8475864Y317976D02*
X8266721D01*
Y226854D01*
X8351721D01*
X8385658Y231322D01*
X8417282Y244421D01*
X8444439Y265259D01*
X8465276Y292415D01*
X8475864Y317976D01*
D02*
G37*
G36*
X8186721D02*
X7977579D01*
X7988167Y292415D01*
X8009004Y265259D01*
X8036160Y244421D01*
X8067785Y231322D01*
X8101721Y226854D01*
X8186721D01*
Y317976D01*
D02*
G37*
G36*
X9701719Y609184D02*
X9665171Y604372D01*
X9631115Y590266D01*
X9601870Y567825D01*
X9579429Y538580D01*
X9565322Y504523D01*
X9560511Y467976D01*
Y287976D01*
X9565322Y251429D01*
X9579429Y217372D01*
X9601870Y188127D01*
X9631115Y165686D01*
X9665171Y151580D01*
X9701719Y146768D01*
X9738266Y151580D01*
X9772323Y165686D01*
X9801568Y188127D01*
X9824009Y217372D01*
X9838115Y251429D01*
X9842927Y287976D01*
Y467976D01*
X9838115Y504523D01*
X9824009Y538580D01*
X9801568Y567825D01*
X9772323Y590266D01*
X9738266Y604372D01*
X9701719Y609184D01*
D02*
G37*
G36*
X9351769D02*
X9315221Y604372D01*
X9281165Y590266D01*
X9251920Y567825D01*
X9229479Y538580D01*
X9215372Y504523D01*
X9210561Y467976D01*
Y287976D01*
X9215372Y251429D01*
X9229479Y217372D01*
X9251920Y188127D01*
X9281165Y165686D01*
X9315221Y151580D01*
X9351769Y146768D01*
X9388316Y151580D01*
X9422373Y165686D01*
X9451618Y188127D01*
X9474059Y217372D01*
X9488165Y251429D01*
X9492977Y287976D01*
Y467976D01*
X9488165Y504523D01*
X9474059Y538580D01*
X9451618Y567825D01*
X9422373Y590266D01*
X9388316Y604372D01*
X9351769Y609184D01*
D02*
G37*
%LPD*%
G36*
X2721360Y3834720D02*
X2673100Y3786460D01*
X2660400D01*
X2657860Y3783920D01*
X2604520Y3837260D01*
Y3857580D01*
X2721360Y3834720D01*
D02*
G37*
D10*
X3804460Y5637060D02*
X4126120Y5315400D01*
X3804460Y5637060D02*
Y6320408D01*
X3938819Y5285400D02*
X4046140Y5178079D01*
X2203940Y5285400D02*
X3938819D01*
X4103120Y7284040D02*
X4930506D01*
X3412240Y6712629D02*
X3804460Y6320408D01*
X3412240Y6712629D02*
Y7428820D01*
X2167640Y4436700D02*
X3165760D01*
X1362460Y5241880D02*
X2167640Y4436700D01*
X1362460Y5241880D02*
Y7339920D01*
X3165760Y4436700D02*
X3669530Y4937080D01*
X4930506Y7284040D02*
X5046667Y7167880D01*
D38*
X2821740Y3998240D02*
Y4073341D01*
X712448Y4081100D02*
Y4156200D01*
X7086880Y6011771D02*
Y6071771D01*
X8804660Y5468732D02*
Y5528731D01*
X9568131Y2590322D02*
X9628131D01*
X7088371Y3393232D02*
X7148371D01*
X8868878Y7514878D02*
Y7574878D01*
X2660400Y3671513D02*
X2698986D01*
X2623886D02*
X2660400D01*
X7653229Y7460700D02*
X7711649D01*
X8641606Y8017606D02*
Y8077606D01*
D41*
X1898400Y3857580D02*
X2662940D01*
X1735840Y3695020D02*
X1898400Y3857580D01*
X2660400Y3855040D02*
X2662940Y3857580D01*
X8868878Y7514878D02*
Y7574878D01*
X3590311Y5885489D02*
X3650311D01*
X4827291Y5137740D02*
X4887291D01*
X5241729Y7351460D02*
X5301729D01*
X2660400Y3671513D02*
Y3855040D01*
X2662940Y3857580D02*
X3480820Y3857580D01*
X7024120Y4769440D02*
X7181600D01*
X649760Y3638780D02*
X821080D01*
X574660D02*
X649760D01*
X821080D02*
X877320Y3695020D01*
X1735840D01*
X3480820Y3857580D02*
X4291080Y4667840D01*
X6922520D01*
X7024120Y4769440D01*
X5294380Y6339440D02*
X5340100Y6385160D01*
D42*
X8041960Y4083061D02*
X9461980D01*
X7973380Y4151641D02*
X8041960Y4083061D01*
X2690880Y6783749D02*
Y7433749D01*
X3140880Y6783749D02*
Y7433749D01*
X8178579Y6130880D02*
X9203286D01*
X8033799Y6275660D02*
X8178579Y6130880D01*
D59*
X7172720Y1547980D02*
D03*
D62*
X7182985Y4766599D02*
D03*
X7290802Y8133885D02*
D03*
D63*
X7798820Y1172800D02*
D03*
D66*
X6790215Y8060569D02*
D03*
X6537555Y7848789D02*
D03*
X6192595D02*
D03*
X5847635D02*
D03*
X4101790Y8525851D02*
D03*
X1078300Y8288975D02*
D03*
X2429021Y8860475D02*
D03*
X2845369Y9242965D02*
D03*
X4301560Y9048435D02*
D03*
X5651873Y1438595D02*
D03*
X5236280Y1372555D02*
D03*
X6440240Y1110935D02*
D03*
X6727260Y1111840D02*
D03*
D69*
X8895119Y8391480D02*
D03*
D70*
X9718280Y5503000D02*
D03*
D71*
X9529849Y5503000D02*
D03*
X8996448Y4462560D02*
D03*
X9117712Y836100D02*
D03*
D76*
X8505400Y4280472D02*
D03*
X6782320Y2064011D02*
D03*
D81*
X767601Y8694118D02*
D03*
X640601Y8948118D02*
D03*
X1402601D02*
D03*
X1275601Y8694118D02*
D03*
X513601D02*
D03*
X1021601D02*
D03*
X1148601Y8948118D02*
D03*
X894601D02*
D03*
X6318606D02*
D03*
X6572606D02*
D03*
X6445606Y8694118D02*
D03*
X5937606D02*
D03*
X6699606D02*
D03*
X6826606Y8948118D02*
D03*
X6064606D02*
D03*
X6191606Y8694118D02*
D03*
X8715606D02*
D03*
X8588606Y8948118D02*
D03*
X9350606D02*
D03*
X9223606Y8694118D02*
D03*
X8461606D02*
D03*
X8969606D02*
D03*
X9096606Y8948118D02*
D03*
X8842606D02*
D03*
X5103703Y750765D02*
D03*
X5242203Y466765D02*
D03*
X5380703Y750765D02*
D03*
X5519203Y466765D02*
D03*
X5657703Y750765D02*
D03*
X5796203Y466765D02*
D03*
X5934703Y750765D02*
D03*
X6073203Y466765D02*
D03*
D82*
X1529601Y9583118D02*
D03*
X386601D02*
D03*
X5810606D02*
D03*
X6953606D02*
D03*
X9477606D02*
D03*
X8334606D02*
D03*
D83*
X8226721Y357976D02*
D03*
Y937976D02*
D03*
D84*
X8706721Y637976D02*
D03*
D85*
X9701719Y377976D02*
D03*
X9351769D02*
D03*
X4144106Y9575619D02*
D03*
X4494056D02*
D03*
X4844056D02*
D03*
X3194051D02*
D03*
X2844051D02*
D03*
X2494101D02*
D03*
D86*
X6211703Y750765D02*
D03*
D87*
X6907203Y608765D02*
D03*
X4408203D02*
D03*
D88*
X3140880Y7433749D02*
D03*
Y6783749D02*
D03*
X2690880D02*
D03*
Y7433749D02*
D03*
D89*
X875720Y5572740D02*
D03*
Y4810740D02*
D03*
D90*
X3026719Y1495861D02*
D03*
X3280719D02*
D03*
X1080718D02*
D03*
X826718D02*
D03*
D91*
X3534719Y987861D02*
D03*
X2518719D02*
D03*
X318718D02*
D03*
X1334718D02*
D03*
D92*
X5759701Y7393439D02*
D03*
Y7139439D02*
D03*
Y6885439D02*
D03*
Y6631439D02*
D03*
Y6377439D02*
D03*
X1931444Y7789484D02*
D03*
Y7535484D02*
D03*
D93*
X7500000Y9250000D02*
D03*
X2000000Y750000D02*
D03*
Y9250000D02*
D03*
X7500000Y750000D02*
D03*
D94*
X7644520Y4329542D02*
D03*
X1153160Y3345180D02*
D03*
X914400Y3452230D02*
D03*
X911860Y3512820D02*
D03*
X903433Y3324860D02*
D03*
X6365240Y9545320D02*
D03*
X924560Y9469120D02*
D03*
X5369560Y8986520D02*
D03*
X8647180Y8534400D02*
D03*
X8905289Y5549900D02*
D03*
X9022080Y5412740D02*
D03*
X8709660Y5171440D02*
D03*
X8647180Y5176520D02*
D03*
X9017000Y5219928D02*
D03*
X9023678Y4941732D02*
D03*
X9066599Y7249160D02*
D03*
X9068820Y7031891D02*
D03*
X8673310Y7239000D02*
D03*
X8529320Y7086600D02*
D03*
X7971740Y7101840D02*
D03*
X7973060Y7228840D02*
D03*
X7985760Y7368540D02*
D03*
X8112760Y7426960D02*
D03*
X8589878Y5511800D02*
D03*
X8089900Y4634277D02*
D03*
X8153400Y4639240D02*
D03*
X8219494Y4638040D02*
D03*
X8293100D02*
D03*
X8369300Y4640580D02*
D03*
X8435340Y4641705D02*
D03*
X8496300Y4664578D02*
D03*
X8558360Y4671060D02*
D03*
X8525658Y4726260D02*
D03*
X8458200Y4719320D02*
D03*
X8399780Y4699000D02*
D03*
X8327717Y4693920D02*
D03*
X8259348Y4696460D02*
D03*
X8191805Y4699000D02*
D03*
X8125460D02*
D03*
X8059420Y4700645D02*
D03*
X876300Y5377180D02*
D03*
X752183Y3134360D02*
D03*
X2578100Y4838700D02*
D03*
X3858260Y6377940D02*
D03*
X8900160Y9588500D02*
D03*
X7884160Y9542780D02*
D03*
X6995160Y8907100D02*
D03*
X6822440Y9288780D02*
D03*
X5674360Y9286240D02*
D03*
X7015480Y1742440D02*
D03*
X6220460Y2214880D02*
D03*
X6045200Y2354580D02*
D03*
X5499100Y1241907D02*
D03*
X5786844Y2440600D02*
D03*
X5273040Y2446020D02*
D03*
X5003800Y2443480D02*
D03*
X4752340Y2446020D02*
D03*
X4493260D02*
D03*
X7396480Y1334115D02*
D03*
X7004878Y1280160D02*
D03*
X9212580Y3797300D02*
D03*
X8397240Y3839230D02*
D03*
X9570720Y2479040D02*
D03*
X8962032Y1569720D02*
D03*
X8963660Y1010920D02*
D03*
X9701719Y1378744D02*
D03*
X9253220Y1374140D02*
D03*
X8962032Y1816100D02*
D03*
X9421400Y2984500D02*
D03*
X9278620Y2860040D02*
D03*
X9156700Y3017520D02*
D03*
X8967720Y2753360D02*
D03*
X8948420Y3002280D02*
D03*
X9179560Y3248660D02*
D03*
X9268460Y2550160D02*
D03*
X9486900Y3987800D02*
D03*
X9578340Y4351811D02*
D03*
X9462320Y4772890D02*
D03*
X9580880Y4634277D02*
D03*
X8864600Y4722547D02*
D03*
X8804789Y4684963D02*
D03*
X8829125Y4619088D02*
D03*
X8882380Y4663440D02*
D03*
X8942320Y4674732D02*
D03*
X8989200Y4617720D02*
D03*
X8917720Y4607560D02*
D03*
X8867112Y4569460D02*
D03*
X8905240Y4215429D02*
D03*
X9156700Y4198764D02*
D03*
X9166860Y4549140D02*
D03*
X9169538Y4345940D02*
D03*
X8241740Y767080D02*
D03*
X7946248Y853851D02*
D03*
X8778240Y2625680D02*
D03*
X8364440Y2743200D02*
D03*
X8051800Y3037268D02*
D03*
X8044180Y2522220D02*
D03*
X6412657Y3888740D02*
D03*
X6439732Y3802311D02*
D03*
X7034280Y4234180D02*
D03*
X7576820Y3688080D02*
D03*
X8361680Y3461980D02*
D03*
X8859309Y6683807D02*
D03*
X8902700Y6644640D02*
D03*
X8896100Y6732668D02*
D03*
X8856051Y6611620D02*
D03*
X8904045Y6555740D02*
D03*
X8845838Y6530959D02*
D03*
X8469718Y6794500D02*
D03*
X8397240Y6796360D02*
D03*
X8323404Y6792721D02*
D03*
X8260080Y6788412D02*
D03*
X8469718Y6863080D02*
D03*
X8404860Y6860540D02*
D03*
X8334426D02*
D03*
X8266732D02*
D03*
X9370060Y7358380D02*
D03*
X9408160Y6446647D02*
D03*
X9395460Y5696540D02*
D03*
X9273942Y5235975D02*
D03*
X8935720Y3241040D02*
D03*
X8699500Y3246120D02*
D03*
X8369300Y3291039D02*
D03*
X7703820Y3335020D02*
D03*
X7320280Y3713480D02*
D03*
X7579360Y3088640D02*
D03*
X7221220Y3314700D02*
D03*
X6207760Y1689100D02*
D03*
X6408738Y2357120D02*
D03*
X7076440Y2339340D02*
D03*
X6652260Y2600960D02*
D03*
X7053580Y2948740D02*
D03*
X6761480Y2913380D02*
D03*
X6426200Y2862580D02*
D03*
X7203440Y2635520D02*
D03*
X7355840Y2448350D02*
D03*
X7353300Y2255520D02*
D03*
X7627620Y2258923D02*
D03*
X7490460Y2118360D02*
D03*
X7962900Y1520780D02*
D03*
X7592975Y1517040D02*
D03*
X7782560Y1688540D02*
D03*
X8041640Y1968500D02*
D03*
Y1709420D02*
D03*
X8041642Y1334115D02*
D03*
X8542020Y934720D02*
D03*
X8445303Y1526540D02*
D03*
X8341360Y2105239D02*
D03*
X8775700Y2110740D02*
D03*
X9316720Y937260D02*
D03*
X9526577Y589280D02*
D03*
X9199880Y590266D02*
D03*
X6325480Y489098D02*
D03*
X5770880Y1318260D02*
D03*
X5753100Y895940D02*
D03*
X5877795Y1757680D02*
D03*
X5514340Y2440940D02*
D03*
X4955540Y1871411D02*
D03*
X5212080Y1866748D02*
D03*
X5781040Y3264510D02*
D03*
X4188460Y3257522D02*
D03*
X1412240Y513080D02*
D03*
X586740Y482600D02*
D03*
X2108200Y1394460D02*
D03*
X1488440Y1638578D02*
D03*
X2600960Y1785620D02*
D03*
X3221436Y642620D02*
D03*
X2621280Y536950D02*
D03*
X3848100Y652780D02*
D03*
X3802809Y1536700D02*
D03*
X4702848Y832348D02*
D03*
X4378960Y1117600D02*
D03*
X4290060Y1714500D02*
D03*
X4010660Y1945640D02*
D03*
X4276667Y2372360D02*
D03*
X4445000Y2052320D02*
D03*
X4759960Y1932940D02*
D03*
X4607560Y1130526D02*
D03*
X4450080Y1295563D02*
D03*
X4498340Y2931240D02*
D03*
X4747260Y2928620D02*
D03*
X5005140D02*
D03*
X5265420D02*
D03*
X5532120Y2921000D02*
D03*
X3697640Y3451860D02*
D03*
X4088080Y2636520D02*
D03*
X6410101Y2621519D02*
D03*
X6258560Y3114040D02*
D03*
X6438900Y4051657D02*
D03*
X6662420Y3815080D02*
D03*
X6802120Y3346279D02*
D03*
X6273800Y4761381D02*
D03*
X4718005Y4759960D02*
D03*
X5547360D02*
D03*
X6147820Y4490720D02*
D03*
X5788660Y3792220D02*
D03*
X4425839Y3563620D02*
D03*
X4366140D02*
D03*
X4884420Y3568700D02*
D03*
X5498506Y4169792D02*
D03*
X6017260Y4384040D02*
D03*
X5166360Y4574540D02*
D03*
X3012980Y9377680D02*
D03*
X2710180Y9382760D02*
D03*
X2651760Y9380220D02*
D03*
X4343400D02*
D03*
X4283280Y9377680D02*
D03*
X4481100Y9299989D02*
D03*
X4622800Y9159240D02*
D03*
X4488180Y9006840D02*
D03*
X4279900Y8569960D02*
D03*
X4399280Y8702320D02*
D03*
X4277360Y8839200D02*
D03*
X1960880Y8326030D02*
D03*
X2294564Y8694420D02*
D03*
X2550160Y8006819D02*
D03*
X1569720Y8771256D02*
D03*
X2123440Y7663180D02*
D03*
X1457960Y7244080D02*
D03*
X1719580Y7863137D02*
D03*
X1727200Y7660640D02*
D03*
X1407160Y7503160D02*
D03*
X891540Y7277100D02*
D03*
X1054771Y6936740D02*
D03*
X1203960Y6545580D02*
D03*
X1846580D02*
D03*
X1684020Y4792980D02*
D03*
X2316480Y4721860D02*
D03*
Y5135880D02*
D03*
X1833391Y5191760D02*
D03*
X1582420Y5379306D02*
D03*
X2936240Y4347301D02*
D03*
X2364740Y4287520D02*
D03*
X1838217Y4297680D02*
D03*
X627380Y4394200D02*
D03*
X773142Y4587240D02*
D03*
X457200Y3652520D02*
D03*
X495300Y3202880D02*
D03*
X635000Y2962100D02*
D03*
X347980Y2082800D02*
D03*
X734001Y2037220D02*
D03*
X954320Y1332306D02*
D03*
X678180Y1351280D02*
D03*
X726440Y1689100D02*
D03*
X922020Y1699260D02*
D03*
X3160592Y1666240D02*
D03*
X3149600Y1318260D02*
D03*
X2882176Y1346200D02*
D03*
X1818640Y1922780D02*
D03*
X2395649Y2110740D02*
D03*
X2956560Y1714500D02*
D03*
X2969928Y2070100D02*
D03*
X2326640Y2471420D02*
D03*
X2011680Y3429000D02*
D03*
X2509520Y3468195D02*
D03*
X1656080Y2804160D02*
D03*
X1457960Y3489960D02*
D03*
X5403436Y3573780D02*
D03*
X3815080Y4056380D02*
D03*
X3613333Y3680460D02*
D03*
X3868420Y2819400D02*
D03*
X2733040Y3249205D02*
D03*
X2872740Y2994660D02*
D03*
X3703058Y3098800D02*
D03*
X3200778Y3543812D02*
D03*
X3200400Y3351552D02*
D03*
X3140880Y3352800D02*
D03*
X3139440Y3543812D02*
D03*
X3023340Y3677920D02*
D03*
X3443942Y4015740D02*
D03*
X3680286Y4215429D02*
D03*
X3464560Y4611909D02*
D03*
X5123681Y4264660D02*
D03*
X4998720Y4118401D02*
D03*
X4488180Y3980180D02*
D03*
X4077099Y4282440D02*
D03*
X4305300Y4363720D02*
D03*
X4345580Y4566920D02*
D03*
X5709920Y8531860D02*
D03*
X8102600Y8064500D02*
D03*
X7975199Y8208490D02*
D03*
X7977280Y8401638D02*
D03*
X8102600Y8549640D02*
D03*
X8185846Y8877300D02*
D03*
X8844280Y9128760D02*
D03*
X9217660Y9112560D02*
D03*
X9596120Y8836838D02*
D03*
Y8237220D02*
D03*
X8976479Y7533640D02*
D03*
X9384543Y7820660D02*
D03*
X9110873Y8280940D02*
D03*
X8798560Y8094980D02*
D03*
X9165751D02*
D03*
X8976360Y7920610D02*
D03*
X9286240Y6174138D02*
D03*
X8031509Y6159500D02*
D03*
X9076749Y6047740D02*
D03*
X8619885D02*
D03*
X8491220Y6220460D02*
D03*
X8148320Y6293440D02*
D03*
X7983220Y7506880D02*
D03*
X8414460Y7561082D02*
D03*
X8248575Y7424420D02*
D03*
X7957820Y6985000D02*
D03*
X7886700Y6543732D02*
D03*
X6477000Y5779411D02*
D03*
X6906880Y5765800D02*
D03*
X6788620Y5897880D02*
D03*
X7218137Y5938520D02*
D03*
X7236460Y5594940D02*
D03*
X7292340Y5171440D02*
D03*
X7076440D02*
D03*
X6395596Y5387340D02*
D03*
X6393000Y5489406D02*
D03*
X6462960Y5433060D02*
D03*
X6492658Y4782820D02*
D03*
X5933440Y4921951D02*
D03*
X5252720Y4919980D02*
D03*
X4839720Y5034280D02*
D03*
X4986413Y5185488D02*
D03*
X5562600Y5209540D02*
D03*
X5915660Y5569540D02*
D03*
X6362700Y6007100D02*
D03*
X6489700Y6565361D02*
D03*
X6794500Y6956651D02*
D03*
X7081520Y7252993D02*
D03*
X7508240Y7419340D02*
D03*
X7381625Y7819140D02*
D03*
X7565328Y8023860D02*
D03*
X7805420Y8318300D02*
D03*
X7678420Y8442960D02*
D03*
X7469309Y8285795D02*
D03*
X7467600Y8520357D02*
D03*
X7326884Y8404860D02*
D03*
X6975537Y8582660D02*
D03*
X7089140Y8453120D02*
D03*
X6938440Y8239760D02*
D03*
X7058660Y8089900D02*
D03*
X7175640Y8242300D02*
D03*
X6852063Y7924800D02*
D03*
X6535960Y8178693D02*
D03*
X6672580Y8529122D02*
D03*
X4584700Y6482080D02*
D03*
X3815080Y7389490D02*
D03*
X4077099Y8049260D02*
D03*
X4192800Y7813320D02*
D03*
X3876140Y7669357D02*
D03*
X3651328Y7665720D02*
D03*
X3502660Y7780020D02*
D03*
X3649980Y7896278D02*
D03*
X3878580Y7899400D02*
D03*
X2383678Y5800680D02*
D03*
X1841703Y5465400D02*
D03*
X3040380Y6520180D02*
D03*
X2908300Y6398807D02*
D03*
X2861475Y6218807D02*
D03*
X2910840Y5800680D02*
D03*
X2489200Y5462860D02*
D03*
X2766060Y5476240D02*
D03*
X2562897Y6139180D02*
D03*
X1473200Y6001324D02*
D03*
X2534920Y6662713D02*
D03*
X3306653Y6780843D02*
D03*
X2928278Y6883400D02*
D03*
X2551167D02*
D03*
X1640840D02*
D03*
X728980Y6818003D02*
D03*
X1465580Y6977380D02*
D03*
X1097820Y6723231D02*
D03*
X1465580Y6206865D02*
D03*
X1155474Y6141720D02*
D03*
X988060Y5753100D02*
D03*
X769620Y5742940D02*
D03*
X881380Y5009866D02*
D03*
X1055520Y4574540D02*
D03*
X1177039Y4439920D02*
D03*
X1056640Y4307840D02*
D03*
X1366520Y3809876D02*
D03*
X716280Y3940441D02*
D03*
X833120Y3830320D02*
D03*
X1016000Y3799840D02*
D03*
X1480820Y3078869D02*
D03*
X1212191Y2935667D02*
D03*
X701522Y3209685D02*
D03*
X4702848Y7363460D02*
D03*
X4478020D02*
D03*
X7555431Y6316980D02*
D03*
X2555240Y8783269D02*
D03*
X2580640Y9136380D02*
D03*
X2894076Y8827007D02*
D03*
X3047406Y8978279D02*
D03*
X3014980Y9110359D02*
D03*
X3186923Y9105900D02*
D03*
X3182620Y8633460D02*
D03*
X3186923Y8222198D02*
D03*
X4025900Y8397048D02*
D03*
X3970020Y8735060D02*
D03*
X3982720Y9133840D02*
D03*
X3973177Y9558020D02*
D03*
X3366909Y9583118D02*
D03*
X3414426Y9153539D02*
D03*
X3421380Y8626273D02*
D03*
X3401060Y8223822D02*
D03*
X3500120Y7691327D02*
D03*
X3505200Y7373620D02*
D03*
X3263267Y7729220D02*
D03*
X3291840Y7373620D02*
D03*
X2636520Y7584108D02*
D03*
X2986511Y7413701D02*
D03*
X2596617Y7254240D02*
D03*
X2944845Y7226300D02*
D03*
X3705860Y7200900D02*
D03*
X4149141Y6873520D02*
D03*
X3790088Y6878320D02*
D03*
X3705860Y6659682D02*
D03*
X3517900Y7064200D02*
D03*
X2581499Y7053580D02*
D03*
X2904232Y7051040D02*
D03*
X3289300Y7059280D02*
D03*
X5458460Y7668060D02*
D03*
X4954597Y7842364D02*
D03*
X5133340Y7792538D02*
D03*
X5305680Y7739729D02*
D03*
X4934960Y7368540D02*
D03*
X4799082Y7205980D02*
D03*
X4593905Y7203440D02*
D03*
X4363720D02*
D03*
X4150360Y7162800D02*
D03*
X4419600Y7542519D02*
D03*
X4676667Y7809760D02*
D03*
X4800600Y8338820D02*
D03*
X4805680Y9013679D02*
D03*
X4735199Y9334500D02*
D03*
X4955540Y9335377D02*
D03*
X4960361Y9017000D02*
D03*
X4966346Y8542020D02*
D03*
X5702300Y8354060D02*
D03*
X5214706Y8303260D02*
D03*
X5445760Y8196580D02*
D03*
X4358640Y6891020D02*
D03*
X5969000Y7139439D02*
D03*
X5949701Y6784340D02*
D03*
X5948680Y6507480D02*
D03*
X4122679Y5549900D02*
D03*
X3926840Y5178079D02*
D03*
X4267260Y5204460D02*
D03*
X4126120Y5315400D02*
D03*
X4124960Y5747556D02*
D03*
X3947160Y5372100D02*
D03*
X4370379Y5473874D02*
D03*
X4357939Y5742940D02*
D03*
X3442469Y3230880D02*
D03*
X3447520Y2941320D02*
D03*
X3051468Y4198620D02*
D03*
X2372360Y4116598D02*
D03*
X1902460Y4117340D02*
D03*
X1569720Y3786460D02*
D03*
X5440680Y5348638D02*
D03*
X5893644Y5788660D02*
D03*
X6305665Y6192520D02*
D03*
X6308517Y6723380D02*
D03*
X6631940Y7042740D02*
D03*
X6972494Y7391400D02*
D03*
X7326884Y7470140D02*
D03*
X7053580Y7664829D02*
D03*
Y7819214D02*
D03*
X6654800Y7411720D02*
D03*
X6305119Y7066280D02*
D03*
X6116320Y6621559D02*
D03*
X6014343Y6164580D02*
D03*
X5695524Y5852160D02*
D03*
X5383104Y5543168D02*
D03*
X5328920Y6078220D02*
D03*
X5321238Y5740400D02*
D03*
X4922520Y5659120D02*
D03*
X4645660Y5534660D02*
D03*
X5759701Y6210300D02*
D03*
X5520100Y6412579D02*
D03*
X5558540Y7484111D02*
D03*
X5730240Y7843520D02*
D03*
X6019800Y8110940D02*
D03*
X5588000Y8114620D02*
D03*
X5079561Y7259807D02*
D03*
X5316220Y7258149D02*
D03*
X5241729Y7084060D02*
D03*
X5556025Y7070680D02*
D03*
X5513632Y6824980D02*
D03*
X5245100Y6852879D02*
D03*
X5027866Y7077773D02*
D03*
X5181694Y6624320D02*
D03*
X4986020Y6476326D02*
D03*
X5087620Y6309360D02*
D03*
X4724400Y6169660D02*
D03*
X4719320Y5930900D02*
D03*
X4791243Y6488813D02*
D03*
X3881658Y5681300D02*
D03*
X3883969Y5745480D02*
D03*
X4277360Y4846320D02*
D03*
X4091940Y4905051D02*
D03*
X3970020Y4688840D02*
D03*
X3883969Y4533900D02*
D03*
X3726180Y4859020D02*
D03*
X3812540Y5189220D02*
D03*
X4470400Y5847080D02*
D03*
X5008880Y5989866D02*
D03*
X4767580Y5750560D02*
D03*
X72140Y437960D02*
D03*
Y937960D02*
D03*
Y1437960D02*
D03*
Y1937960D02*
D03*
Y2437960D02*
D03*
Y2937960D02*
D03*
Y3437960D02*
D03*
Y3937960D02*
D03*
Y4437960D02*
D03*
Y4937960D02*
D03*
Y5437960D02*
D03*
Y5937960D02*
D03*
Y6437960D02*
D03*
Y6937960D02*
D03*
Y7437960D02*
D03*
Y7937960D02*
D03*
Y8437960D02*
D03*
Y8937960D02*
D03*
Y9437960D02*
D03*
Y9927800D02*
D03*
X434960D02*
D03*
X934960D02*
D03*
X1434960D02*
D03*
X1934960D02*
D03*
X2434960D02*
D03*
X2934960D02*
D03*
X3434960D02*
D03*
X3934960D02*
D03*
X4434960D02*
D03*
X4934960D02*
D03*
X5434960D02*
D03*
X5934960D02*
D03*
X6434960D02*
D03*
X6934960D02*
D03*
X7434960D02*
D03*
X7934960D02*
D03*
X8434960D02*
D03*
X8934960D02*
D03*
X9434960D02*
D03*
X9924800D02*
D03*
X9927360Y9565361D02*
D03*
Y9065361D02*
D03*
Y8565361D02*
D03*
Y8065361D02*
D03*
Y7565361D02*
D03*
Y7065361D02*
D03*
Y6565361D02*
D03*
Y6065360D02*
D03*
Y5565360D02*
D03*
Y5065360D02*
D03*
Y4565360D02*
D03*
Y4065360D02*
D03*
Y3565360D02*
D03*
Y3065360D02*
D03*
Y2565360D02*
D03*
Y2065360D02*
D03*
Y1565360D02*
D03*
Y1065360D02*
D03*
Y565360D02*
D03*
Y72980D02*
D03*
X9564520D02*
D03*
X9064520D02*
D03*
X8564520D02*
D03*
X8064520D02*
D03*
X7564520D02*
D03*
X7064520D02*
D03*
X6564520D02*
D03*
X6064520D02*
D03*
X5564520D02*
D03*
X5064520D02*
D03*
X4564520D02*
D03*
X4064520D02*
D03*
X3564520D02*
D03*
X3064520D02*
D03*
X2564520D02*
D03*
X2064520D02*
D03*
X1564520D02*
D03*
X1064520D02*
D03*
X564520D02*
D03*
X72140D02*
D03*
X2821740Y3998240D02*
D03*
X5616640Y4170732D02*
D03*
X5697440Y4169792D02*
D03*
X5098480Y4170732D02*
D03*
X5179280Y4169792D02*
D03*
X4580687Y4170732D02*
D03*
X4661486Y4169792D02*
D03*
X7204800Y1517040D02*
D03*
X7264800D02*
D03*
X7324800D02*
D03*
X7204800Y1457040D02*
D03*
X7324800D02*
D03*
X7264800D02*
D03*
Y1576420D02*
D03*
X7324800D02*
D03*
X7204800D02*
D03*
X7324800Y1636420D02*
D03*
X7264800D02*
D03*
X7204800D02*
D03*
X7023500Y1517040D02*
D03*
X7083500D02*
D03*
X7143500D02*
D03*
X7023500Y1457040D02*
D03*
X7143500D02*
D03*
X7083500D02*
D03*
Y1576420D02*
D03*
X7143500D02*
D03*
X7023500D02*
D03*
X7143500Y1636420D02*
D03*
X7083500D02*
D03*
X7023500D02*
D03*
X6644189Y4351811D02*
D03*
X6522640Y4477640D02*
D03*
X3701160Y7404692D02*
D03*
X3604573Y7407232D02*
D03*
X4453148Y7950300D02*
D03*
X4450608Y7853713D02*
D03*
X4130580Y7070680D02*
D03*
X3178179Y1866748D02*
D03*
Y1806748D02*
D03*
X4206040Y2445840D02*
D03*
X4206980Y2526640D02*
D03*
X2338520Y4611909D02*
D03*
X2337580Y4531109D02*
D03*
X2203940Y5285400D02*
D03*
X2698986Y3671513D02*
D03*
X2623886D02*
D03*
X649760Y3638780D02*
D03*
X574660D02*
D03*
X1231960Y3790321D02*
D03*
X1156860D02*
D03*
X712448Y4081100D02*
D03*
Y4156200D02*
D03*
X2821740Y4073341D02*
D03*
X3266152Y3707461D02*
D03*
X3341252D02*
D03*
X3086152D02*
D03*
X3161253D02*
D03*
X2904232Y3734441D02*
D03*
X2979333D02*
D03*
X3507958Y1985600D02*
D03*
X3392858Y1901121D02*
D03*
X3389058Y3629780D02*
D03*
X3270159Y3510881D02*
D03*
X2454378Y2948740D02*
D03*
X2339300Y2871674D02*
D03*
X2336760Y2789216D02*
D03*
X3157118Y3267820D02*
D03*
X2998539Y3166220D02*
D03*
X4068038Y2247700D02*
D03*
X3268878Y3247500D02*
D03*
X3352698D02*
D03*
X105222Y2841194D02*
D03*
X102682Y2758736D02*
D03*
X923040Y3237340D02*
D03*
X1118620Y3217020D02*
D03*
X1034800D02*
D03*
X7212560Y4796759D02*
D03*
X7152560D02*
D03*
Y4736759D02*
D03*
X7212560D02*
D03*
X7229860Y3142880D02*
D03*
Y3082880D02*
D03*
Y3202880D02*
D03*
X7349240D02*
D03*
Y3142880D02*
D03*
Y3082880D02*
D03*
X7289240Y3202880D02*
D03*
Y3082880D02*
D03*
Y3142880D02*
D03*
X7408620D02*
D03*
Y3082880D02*
D03*
Y3202880D02*
D03*
X7468620Y3082880D02*
D03*
Y3142880D02*
D03*
Y3202880D02*
D03*
X7584520Y4269542D02*
D03*
X7644520D02*
D03*
X7584520Y4329542D02*
D03*
X7644520Y4388922D02*
D03*
X7584520D02*
D03*
X8643060Y6458540D02*
D03*
X8703060D02*
D03*
X8643060Y6398540D02*
D03*
X8703060D02*
D03*
Y6339160D02*
D03*
X8643060D02*
D03*
X8741878Y7514878D02*
D03*
Y7574878D02*
D03*
X8868878D02*
D03*
Y7514878D02*
D03*
X3317780Y4782140D02*
D03*
X3198880Y4901040D02*
D03*
X3079980Y4782140D02*
D03*
X3198880Y4663241D02*
D03*
X2726440Y8900701D02*
D03*
X2666280D02*
D03*
X7261227Y8103725D02*
D03*
X7321227D02*
D03*
Y8163725D02*
D03*
X7261227D02*
D03*
X6820375Y8030994D02*
D03*
Y8090994D02*
D03*
X6760375D02*
D03*
Y8030994D02*
D03*
X6567715Y7819214D02*
D03*
Y7879214D02*
D03*
X6507715D02*
D03*
Y7819214D02*
D03*
X6222755D02*
D03*
Y7879214D02*
D03*
X6162755D02*
D03*
Y7819214D02*
D03*
X5877795D02*
D03*
Y7879214D02*
D03*
X5817795D02*
D03*
Y7819214D02*
D03*
X4131950Y8496276D02*
D03*
Y8556276D02*
D03*
X4071950D02*
D03*
Y8496276D02*
D03*
X379880Y7506880D02*
D03*
X258920Y7621581D02*
D03*
X1031360Y7621241D02*
D03*
X916660Y7500281D02*
D03*
X917840Y7941900D02*
D03*
X1038300Y7818060D02*
D03*
X379880Y7934280D02*
D03*
X265180Y7813320D02*
D03*
X638560Y7967989D02*
D03*
Y8027989D02*
D03*
X421221Y6167129D02*
D03*
Y6227129D02*
D03*
X799368Y6316873D02*
D03*
X801908Y6413460D02*
D03*
X715068Y6575860D02*
D03*
X1096391Y7169740D02*
D03*
X1036391D02*
D03*
X2932180Y4846260D02*
D03*
Y4786260D02*
D03*
Y4726260D02*
D03*
X2871220Y4846260D02*
D03*
Y4786260D02*
D03*
Y4726260D02*
D03*
X978780Y1807349D02*
D03*
Y1867349D02*
D03*
X7644840Y6514420D02*
D03*
X7704840D02*
D03*
Y6455040D02*
D03*
X7644840D02*
D03*
X7704840Y6395040D02*
D03*
X7644840D02*
D03*
X8889050Y6345820D02*
D03*
X8829049D02*
D03*
Y6405200D02*
D03*
X8889050D02*
D03*
X8829049Y6465200D02*
D03*
X8889050D02*
D03*
X8492240Y6364560D02*
D03*
X8432240D02*
D03*
Y6423940D02*
D03*
X8492240D02*
D03*
X8432240Y6483940D02*
D03*
X8492240D02*
D03*
X7653229Y7460700D02*
D03*
X7711649D02*
D03*
X6595810Y5168060D02*
D03*
X6676610Y5167120D02*
D03*
X6676940Y4830800D02*
D03*
X6596140Y4831740D02*
D03*
X766780Y4398281D02*
D03*
X767720Y4479080D02*
D03*
X2853120Y9112560D02*
D03*
X2933920Y9111620D02*
D03*
X5241729Y7351460D02*
D03*
X5301729D02*
D03*
X5241729Y7171460D02*
D03*
X5301729D02*
D03*
X8641606Y8017606D02*
D03*
Y8077606D02*
D03*
X8835140Y8331480D02*
D03*
Y8391480D02*
D03*
Y8451480D02*
D03*
X8895140Y8331480D02*
D03*
Y8451480D02*
D03*
Y8391480D02*
D03*
X8954520Y8451480D02*
D03*
Y8391480D02*
D03*
Y8331480D02*
D03*
X9471100Y5591440D02*
D03*
X9531100D02*
D03*
X9591100D02*
D03*
X9471100Y5531440D02*
D03*
X9591100D02*
D03*
X9531100D02*
D03*
Y5412060D02*
D03*
X9591100D02*
D03*
X9471100D02*
D03*
X9591100Y5472060D02*
D03*
X9531100D02*
D03*
X9471100D02*
D03*
X9652400Y5591440D02*
D03*
X9712400D02*
D03*
X9772400D02*
D03*
X9652400Y5531440D02*
D03*
X9772400D02*
D03*
X9712400D02*
D03*
Y5412060D02*
D03*
X9772400D02*
D03*
X9652400D02*
D03*
X9772400Y5472060D02*
D03*
X9712400D02*
D03*
X9652400D02*
D03*
X7532600Y1894160D02*
D03*
X7770400D02*
D03*
X7651500Y2013060D02*
D03*
Y1775261D02*
D03*
X6460100Y3236821D02*
D03*
Y3296821D02*
D03*
X8967720Y2433912D02*
D03*
Y2493911D02*
D03*
X8661069Y3003762D02*
D03*
X8721069D02*
D03*
X9297920Y3378722D02*
D03*
X7222240Y4288761D02*
D03*
Y4526560D02*
D03*
X7341140Y4407661D02*
D03*
X7103340D02*
D03*
X6920460Y6575380D02*
D03*
X7039360Y6694280D02*
D03*
X7158260Y6575380D02*
D03*
X7039360Y6456481D02*
D03*
X1979200Y2419940D02*
D03*
Y2503760D02*
D03*
X1833960Y2217220D02*
D03*
X1273880Y1955120D02*
D03*
X1158780Y1870641D02*
D03*
X220300Y2918260D02*
D03*
X1154980Y3599300D02*
D03*
X1036080Y3480401D02*
D03*
X5180200Y3865895D02*
D03*
Y3805896D02*
D03*
X6815840Y5338520D02*
D03*
X6875840D02*
D03*
Y5278520D02*
D03*
X6815840D02*
D03*
Y5397900D02*
D03*
X6875840D02*
D03*
Y5457900D02*
D03*
X6815840D02*
D03*
X6906880Y6071771D02*
D03*
Y6011771D02*
D03*
X7086880Y6071771D02*
D03*
Y6011771D02*
D03*
X6815840Y5708280D02*
D03*
X6875840D02*
D03*
Y5648280D02*
D03*
X6815840D02*
D03*
Y5528900D02*
D03*
X6875840D02*
D03*
Y5588900D02*
D03*
X6815840D02*
D03*
X6213449Y3806672D02*
D03*
X6153449D02*
D03*
X7088371Y3393232D02*
D03*
X7148371D02*
D03*
X9568131Y2590322D02*
D03*
X9628131D02*
D03*
X9565511Y2860322D02*
D03*
X9625511D02*
D03*
X7088371Y3663232D02*
D03*
X7148371D02*
D03*
X9281971Y4844360D02*
D03*
X9341971D02*
D03*
X8804660Y5468732D02*
D03*
Y5528731D02*
D03*
X8677660D02*
D03*
Y5468732D02*
D03*
X9322820Y6873520D02*
D03*
X9325360Y6684600D02*
D03*
X7538952Y6209167D02*
D03*
X2627380Y5002332D02*
D03*
X2629060Y4688948D02*
D03*
X2733988Y4572069D02*
D03*
Y5121329D02*
D03*
X2976148Y5084400D02*
D03*
X2897340Y4979881D02*
D03*
X3175780Y5038301D02*
D03*
X3367860D02*
D03*
X3087672Y5505489D02*
D03*
X1108460Y8259400D02*
D03*
Y8319400D02*
D03*
X1048460D02*
D03*
Y8259400D02*
D03*
X2399181Y8830900D02*
D03*
Y8890900D02*
D03*
X2459181D02*
D03*
Y8830900D02*
D03*
X2815529Y9213390D02*
D03*
Y9273390D02*
D03*
X2875529D02*
D03*
Y9213390D02*
D03*
X4271720Y9018860D02*
D03*
Y9078860D02*
D03*
X4331720D02*
D03*
Y9018860D02*
D03*
X3010443Y8475300D02*
D03*
X2881380Y8345760D02*
D03*
X1380100Y8447393D02*
D03*
X1267520Y8322705D02*
D03*
X1566244Y8002860D02*
D03*
X1426544Y7865700D02*
D03*
X2963480Y7789500D02*
D03*
X2850900Y7664812D02*
D03*
X1982220Y5904820D02*
D03*
Y5846400D02*
D03*
X1997072Y5668600D02*
D03*
X2271780Y6268040D02*
D03*
X2269240Y6506800D02*
D03*
X3404620Y6409886D02*
D03*
X3270180Y6511619D02*
D03*
X3844292Y6796360D02*
D03*
X4097332D02*
D03*
X4357120D02*
D03*
X5284220Y5462860D02*
D03*
X9410039Y2040520D02*
D03*
X9470039D02*
D03*
X9530039D02*
D03*
X9410039Y1980520D02*
D03*
X9530039D02*
D03*
X9470039D02*
D03*
Y1861140D02*
D03*
X9530039D02*
D03*
X9410039D02*
D03*
X9530039Y1921140D02*
D03*
X9470039D02*
D03*
X9410039D02*
D03*
X9591339Y2040520D02*
D03*
X9651339D02*
D03*
X9711339D02*
D03*
X9591339Y1980520D02*
D03*
X9711339D02*
D03*
X9651339D02*
D03*
Y1861140D02*
D03*
X9711339D02*
D03*
X9591339D02*
D03*
X9711339Y1921140D02*
D03*
X9651339D02*
D03*
X9591339D02*
D03*
X5622033Y1409020D02*
D03*
Y1469020D02*
D03*
X5682033D02*
D03*
Y1409020D02*
D03*
X4887291Y5137740D02*
D03*
X4827291D02*
D03*
X3650311Y5885489D02*
D03*
X3590311D02*
D03*
X3546860Y6424831D02*
D03*
Y6364831D02*
D03*
X4829831Y4954860D02*
D03*
X4889831D02*
D03*
X4180009Y3700264D02*
D03*
X4240009D02*
D03*
X4888144Y3869876D02*
D03*
Y3809876D02*
D03*
X8042928Y2214308D02*
D03*
Y2274308D02*
D03*
X7873600Y1839783D02*
D03*
X7933600D02*
D03*
X5652396Y2273650D02*
D03*
Y2333649D02*
D03*
X5136736Y2273650D02*
D03*
Y2333649D02*
D03*
X4618943Y2263490D02*
D03*
Y2323489D02*
D03*
X5406140Y3809876D02*
D03*
Y3869876D02*
D03*
X4725900Y1309341D02*
D03*
Y1369340D02*
D03*
X4965140D02*
D03*
Y1309341D02*
D03*
X5266440Y1342980D02*
D03*
X5206440Y1402980D02*
D03*
Y1342980D02*
D03*
X5266440Y1402980D02*
D03*
X6410400Y1081360D02*
D03*
Y1141360D02*
D03*
X6470400D02*
D03*
Y1081360D02*
D03*
X6757420Y1082265D02*
D03*
Y1142265D02*
D03*
X6697420D02*
D03*
Y1082265D02*
D03*
X8464300Y5564233D02*
D03*
X8229600Y5560060D02*
D03*
X7971732Y5559380D02*
D03*
X7696200Y5554980D02*
D03*
X7609840Y5389880D02*
D03*
Y5100320D02*
D03*
X7610146Y4841240D02*
D03*
X7683500Y4588601D02*
D03*
X7745282Y4402770D02*
D03*
X8937700Y4431620D02*
D03*
X8997700D02*
D03*
X9057700D02*
D03*
X8937700Y4371620D02*
D03*
X9057700D02*
D03*
X8997700D02*
D03*
Y4491000D02*
D03*
X9057700D02*
D03*
X8937700D02*
D03*
X9057700Y4551000D02*
D03*
X8997700D02*
D03*
X8937700D02*
D03*
X8737040Y4215720D02*
D03*
X8797040D02*
D03*
Y4275100D02*
D03*
X8737040D02*
D03*
X8797040Y4335100D02*
D03*
X8737040D02*
D03*
X8474460Y4339220D02*
D03*
Y4279220D02*
D03*
Y4219220D02*
D03*
X8414460Y4339220D02*
D03*
Y4219220D02*
D03*
Y4279220D02*
D03*
X8533840D02*
D03*
Y4219220D02*
D03*
Y4339220D02*
D03*
X8593840Y4219220D02*
D03*
Y4279220D02*
D03*
Y4339220D02*
D03*
X6751380Y1941460D02*
D03*
Y1881460D02*
D03*
Y1821460D02*
D03*
X6691380Y1941460D02*
D03*
Y1821460D02*
D03*
Y1881460D02*
D03*
X6810760D02*
D03*
Y1821460D02*
D03*
Y1941460D02*
D03*
X6870760Y1821460D02*
D03*
Y1881460D02*
D03*
Y1941460D02*
D03*
X6751380Y2122760D02*
D03*
Y2062760D02*
D03*
Y2002760D02*
D03*
X6691380Y2122760D02*
D03*
Y2002760D02*
D03*
Y2062760D02*
D03*
X6810760D02*
D03*
Y2002760D02*
D03*
Y2122760D02*
D03*
X6870760Y2002760D02*
D03*
Y2062760D02*
D03*
Y2122760D02*
D03*
X9176460Y747660D02*
D03*
X9116460D02*
D03*
X9056460D02*
D03*
X9176460Y807660D02*
D03*
X9056460D02*
D03*
X9116460D02*
D03*
Y927040D02*
D03*
X9056460D02*
D03*
X9176460D02*
D03*
X9056460Y867040D02*
D03*
X9116460D02*
D03*
X9176460D02*
D03*
X7690560Y2280240D02*
D03*
Y2340240D02*
D03*
Y2400240D02*
D03*
X7750560Y2280240D02*
D03*
Y2400240D02*
D03*
Y2340240D02*
D03*
X7869940D02*
D03*
Y2400240D02*
D03*
Y2280240D02*
D03*
X7809940Y2400240D02*
D03*
Y2340240D02*
D03*
Y2280240D02*
D03*
X7825180Y1114380D02*
D03*
Y1174380D02*
D03*
Y1234380D02*
D03*
X7885180Y1114380D02*
D03*
Y1234380D02*
D03*
Y1174380D02*
D03*
X7765800D02*
D03*
Y1234380D02*
D03*
Y1114380D02*
D03*
X7705800Y1234380D02*
D03*
Y1174380D02*
D03*
Y1114380D02*
D03*
X4046140Y5178079D02*
D03*
X1362460Y7339920D02*
D03*
X3669530Y4937080D02*
D03*
X5294380Y6339440D02*
D03*
X5340100Y6385160D02*
D03*
X4103120Y7284040D02*
D03*
X3412240Y7428820D02*
D03*
X5046667Y7167880D02*
D03*
X3422400Y6334080D02*
D03*
Y6273120D02*
D03*
Y6214700D02*
D03*
Y6153740D02*
D03*
X9203286Y6130880D02*
D03*
X8033799Y6275660D02*
D03*
X9461980Y4083061D02*
D03*
X7973380Y4151641D02*
D03*
X7675000Y9250000D02*
D03*
X7327500Y9242500D02*
D03*
X7500000Y9075000D02*
D03*
Y9425000D02*
D03*
X7376256Y9373744D02*
D03*
X7623744Y9126257D02*
D03*
X7383327Y9122721D02*
D03*
X7623744Y9373744D02*
D03*
X2175000Y750000D02*
D03*
X1827500Y742500D02*
D03*
X2000000Y575000D02*
D03*
Y925000D02*
D03*
X1876256Y873744D02*
D03*
X2123744Y626257D02*
D03*
X1883327Y622721D02*
D03*
X2123744Y873744D02*
D03*
X2175000Y9250000D02*
D03*
X1827500Y9242500D02*
D03*
X2000000Y9075000D02*
D03*
Y9425000D02*
D03*
X1876256Y9373744D02*
D03*
X2123744Y9126257D02*
D03*
X1883327Y9122721D02*
D03*
X2123744Y9373744D02*
D03*
X7623744Y873744D02*
D03*
X7383327Y622721D02*
D03*
X7623744Y626257D02*
D03*
X7376256Y873744D02*
D03*
X7500000Y925000D02*
D03*
Y575000D02*
D03*
X7327500Y742500D02*
D03*
X7675000Y750000D02*
D03*
D95*
X7755130Y2333763D02*
D03*
D96*
X7347670Y3144132D02*
D03*
D97*
X7614840Y4328856D02*
D03*
X8673380Y6399226D02*
D03*
X7675160Y6454354D02*
D03*
X8858730Y6405886D02*
D03*
X8767360Y4275786D02*
D03*
D98*
X9558520Y1952080D02*
D03*
D99*
X6782320Y1875580D02*
D03*
%TF.MD5,a7867849610494fcab32dd2fd27c5e08*%
M02*
