%TF.GenerationSoftware,Altium Limited,Altium Designer,19.0.10 (269)*%
G04 Layer_Physical_Order=3*
G04 Layer_Color=128*
%FSLAX45Y45*%
%MOMM*%
%TF.FileFunction,Copper,L3,Inr,Plane*%
%TF.Part,Single*%
G01*
G75*
%TA.AperFunction,ComponentPad*%
%ADD82C,1.80000*%
%TA.AperFunction,NonConductor*%
%ADD96C,1.00000*%
%ADD97C,1.01600*%
%TA.AperFunction,ComponentPad*%
%ADD105C,1.60000*%
%ADD106C,1.40000*%
%ADD107C,3.90000*%
%ADD108C,2.60000*%
%ADD109O,3.80000X1.40000*%
%ADD110O,1.40000X3.60000*%
%TA.AperFunction,ViaPad*%
%ADD111C,0.90000*%
%TA.AperFunction,NonConductor*%
%ADD112C,0.30000*%
%ADD113C,0.60000*%
%ADD114R,2.69236X3.91160*%
%ADD115R,1.54853X2.15900*%
%ADD116R,1.75260X1.82880*%
%ADD117R,3.37820X2.31140*%
D82*
X4144106Y9575619D02*
D03*
X4844056D02*
D03*
X3194051D02*
D03*
X2494101D02*
D03*
X9351769Y377976D02*
D03*
X9701719D02*
D03*
D96*
X3412240Y7428820D02*
X3467440Y7373620D01*
X3505200D01*
X4829831Y4954860D02*
X4889831D01*
X3669530Y4937080D02*
X3726180Y4880430D01*
Y4859020D02*
Y4880430D01*
X3669530Y4915670D02*
X3726180Y4859020D01*
X3669530Y4915670D02*
Y4937080D01*
X6393000Y5489406D02*
X6395596Y5486810D01*
Y5387340D02*
Y5486810D01*
Y5387340D02*
X6441316Y5433060D01*
X6462960D01*
X6406614Y5489406D02*
X6462960Y5433060D01*
X6393000Y5489406D02*
X6406614D01*
X5294380Y6339440D02*
X5340100Y6385160D01*
X3546860Y6364831D02*
Y6424831D01*
X3422400Y6153740D02*
Y6392106D01*
X3404620Y6409886D02*
X3422400Y6392106D01*
X5027866Y7208113D02*
X5079561Y7259807D01*
X5027866Y7077773D02*
Y7208113D01*
X5241729Y7084060D02*
Y7171460D01*
X5301729D01*
X5316220Y7185951D01*
Y7258149D01*
X801908Y6319413D02*
Y6413460D01*
X1036391Y7169740D02*
X1096391D01*
X2666280Y8900701D02*
X2726440D01*
X5817795Y7879214D02*
X5877795Y7819214D01*
X5782101Y7843520D02*
X5817795Y7879214D01*
X5730240Y7843520D02*
X5782101D01*
X5730240D02*
X5754546Y7819214D01*
X5877795D01*
X8954520Y8450860D02*
Y8451480D01*
X8835140Y8331480D02*
X8954520Y8450860D01*
X8835140Y8331480D02*
X8954520D01*
Y8451480D01*
X8741878Y7514878D02*
Y7574878D01*
X9242983Y6130880D02*
X9286240Y6174138D01*
X9203286Y6130880D02*
X9242983D01*
X8845838Y6682406D02*
X8896100Y6732668D01*
X8845838Y6530959D02*
Y6682406D01*
X8829049Y6514170D02*
X8845838Y6530959D01*
X8829049Y6345820D02*
Y6514170D01*
Y6345820D02*
X8889050D01*
X8896100Y6352871D01*
Y6732668D01*
X7653229Y7460700D02*
X7711649D01*
X7824777Y1839783D02*
X7873600D01*
X7770400Y1894160D02*
X7824777Y1839783D01*
X7873600D02*
X7933600D01*
X8042928Y2214308D02*
Y2274308D01*
X8661069Y3003762D02*
X8721069D01*
X8967720Y2433912D02*
Y2493911D01*
X9565511Y2860322D02*
X9625511D01*
X9461980Y4012720D02*
X9486900Y3987800D01*
X9461980Y4012720D02*
Y4083061D01*
X9113210Y4427131D02*
Y4549140D01*
X9057700Y4371620D02*
X9143858D01*
X9059560Y4549140D02*
X9166860D01*
X9169538Y4345940D02*
Y4546462D01*
X9281971Y4844360D02*
X9341971D01*
X9057700Y4371620D02*
Y4551000D01*
X8937700Y4371620D02*
X9057700D01*
X6153449Y3806672D02*
X6213449D01*
X6439732Y3802311D02*
Y3861665D01*
X6412657Y3888740D02*
X6439732Y3861665D01*
X5180200Y3805896D02*
Y3865895D01*
X5406140Y3809876D02*
Y3869876D01*
X2623886Y3671513D02*
X2698986D01*
D97*
X0Y0D02*
X10000000Y1D01*
X9999999Y10000000D02*
X10000000Y1D01*
X-1Y10000000D02*
X9999999D01*
X-1D02*
X0Y0D01*
D105*
X3140880Y7433749D02*
D03*
Y6783749D02*
D03*
X2690880D02*
D03*
Y7433749D02*
D03*
X5103703Y750765D02*
D03*
X5242203Y466765D02*
D03*
X5519203D02*
D03*
X5657703Y750765D02*
D03*
X5796203Y466765D02*
D03*
X5934703Y750765D02*
D03*
X6073203Y466765D02*
D03*
X6211703Y750765D02*
D03*
X513601Y8694118D02*
D03*
X767601D02*
D03*
X1402601Y8948118D02*
D03*
X1275601Y8694118D02*
D03*
X6445606D02*
D03*
X5937606D02*
D03*
X6699606D02*
D03*
X6826606Y8948118D02*
D03*
X6191606Y8694118D02*
D03*
X8588606Y8948118D02*
D03*
X8461606Y8694118D02*
D03*
X8969606D02*
D03*
X5759701Y7393439D02*
D03*
Y7139439D02*
D03*
Y6885439D02*
D03*
Y6631439D02*
D03*
Y6377439D02*
D03*
X1931444Y7535484D02*
D03*
X826718Y1495861D02*
D03*
X3026719D02*
D03*
D106*
X875720Y5572740D02*
D03*
Y4810740D02*
D03*
D107*
X1529601Y9583118D02*
D03*
X386601D02*
D03*
X5810606D02*
D03*
X6953606D02*
D03*
X9477606D02*
D03*
X8334606D02*
D03*
D108*
X1334718Y987861D02*
D03*
X318718D02*
D03*
X2518719D02*
D03*
X3534719D02*
D03*
D109*
X8226721Y937976D02*
D03*
D110*
X8706721Y637976D02*
D03*
D111*
X2793945Y6656249D02*
D03*
X2548635Y6380480D02*
D03*
X641100Y7035800D02*
D03*
X431023Y7429500D02*
D03*
X536480Y7236460D02*
D03*
X734060Y7213600D02*
D03*
X630940Y7968669D02*
D03*
X3517900Y7064200D02*
D03*
X670158Y6152560D02*
D03*
X845820Y6360840D02*
D03*
X787400Y6363380D02*
D03*
X670158Y6213520D02*
D03*
X3281680Y1717168D02*
D03*
X1153160Y3345180D02*
D03*
X5369560Y8986520D02*
D03*
X8905289Y5549900D02*
D03*
X9022080Y5412740D02*
D03*
X9017000Y5219928D02*
D03*
X9023678Y4941732D02*
D03*
X9066599Y7249160D02*
D03*
X9068820Y7031891D02*
D03*
X8673310Y7239000D02*
D03*
X7971740Y7101840D02*
D03*
X7973060Y7228840D02*
D03*
X7985760Y7368540D02*
D03*
X2578100Y4838700D02*
D03*
X3858260Y6377940D02*
D03*
X7015480Y1742440D02*
D03*
X6045200Y2354580D02*
D03*
X7396480Y1334115D02*
D03*
X9212580Y3797300D02*
D03*
X9570720Y2479040D02*
D03*
X8962032Y1569720D02*
D03*
X8963660Y1010920D02*
D03*
X9253220Y1374140D02*
D03*
X8962032Y1816100D02*
D03*
X9421400Y2984500D02*
D03*
X9278620Y2860040D02*
D03*
X9156700Y3017520D02*
D03*
X8967720Y2753360D02*
D03*
X8948420Y3002280D02*
D03*
X9179560Y3248660D02*
D03*
X9268460Y2550160D02*
D03*
X9486900Y3987800D02*
D03*
X9578340Y4351811D02*
D03*
X9462320Y4772890D02*
D03*
X9580880Y4634277D02*
D03*
X8905240Y4215429D02*
D03*
X9156700Y4198764D02*
D03*
X9166860Y4549140D02*
D03*
X9169538Y4345940D02*
D03*
X8778240Y2625680D02*
D03*
X8364440Y2743200D02*
D03*
X8051800Y3037268D02*
D03*
X8044180Y2522220D02*
D03*
X6412657Y3888740D02*
D03*
X6439732Y3802311D02*
D03*
X7034280Y4234180D02*
D03*
X8361680Y3461980D02*
D03*
X8859309Y6683807D02*
D03*
X8902700Y6644640D02*
D03*
X8896100Y6732668D02*
D03*
X8856051Y6611620D02*
D03*
X8904045Y6555740D02*
D03*
X8845838Y6530959D02*
D03*
X9370060Y7358380D02*
D03*
X9408160Y6446647D02*
D03*
X9395460Y5696540D02*
D03*
X9273942Y5235975D02*
D03*
X8935720Y3241040D02*
D03*
X8699500Y3246120D02*
D03*
X8369300Y3291039D02*
D03*
X7703820Y3335020D02*
D03*
X7579360Y3088640D02*
D03*
X7221220Y3314700D02*
D03*
X7076440Y2339340D02*
D03*
X7053580Y2948740D02*
D03*
X7203440Y2635520D02*
D03*
X7355840Y2448350D02*
D03*
X7353300Y2255520D02*
D03*
X7627620Y2258923D02*
D03*
X7490460Y2118360D02*
D03*
X7962900Y1520780D02*
D03*
X7592975Y1517040D02*
D03*
X7782560Y1688540D02*
D03*
X8041640Y1968500D02*
D03*
Y1709420D02*
D03*
X8041642Y1334115D02*
D03*
X8445303Y1526540D02*
D03*
X8341360Y2105239D02*
D03*
X8775700Y2110740D02*
D03*
X9316720Y937260D02*
D03*
X4276667Y2372360D02*
D03*
X3697640Y3451860D02*
D03*
X4088080Y2636520D02*
D03*
X6438900Y4051657D02*
D03*
X6662420Y3815080D02*
D03*
X4718005Y4759960D02*
D03*
X5547360D02*
D03*
X5788660Y3792220D02*
D03*
X5498506Y4169792D02*
D03*
X5166360Y4574540D02*
D03*
X4488180Y9006840D02*
D03*
X4279900Y8569960D02*
D03*
X4277360Y8839200D02*
D03*
X868680Y7277780D02*
D03*
X1031911Y6937420D02*
D03*
X1684020Y4792980D02*
D03*
X2316480Y4721860D02*
D03*
X1833391Y5191760D02*
D03*
X1582420Y5379306D02*
D03*
X2936240Y4347301D02*
D03*
X2364740Y4287520D02*
D03*
X1838217Y4297680D02*
D03*
X773142Y4587240D02*
D03*
X1656080Y2804160D02*
D03*
X1457960Y3489960D02*
D03*
X3815080Y4056380D02*
D03*
X3613333Y3680460D02*
D03*
X3868420Y2819400D02*
D03*
X3703058Y3098800D02*
D03*
X3443942Y4015740D02*
D03*
X3680286Y4215429D02*
D03*
X3464560Y4611909D02*
D03*
X5123681Y4264660D02*
D03*
X4998720Y4118401D02*
D03*
X4488180Y3980180D02*
D03*
X4077099Y4282440D02*
D03*
X4305300Y4363720D02*
D03*
X4345580Y4566920D02*
D03*
X5709920Y8531860D02*
D03*
X9596120Y8836838D02*
D03*
Y8237220D02*
D03*
X8976479Y7533640D02*
D03*
X9384543Y7820660D02*
D03*
X9110873Y8280940D02*
D03*
X8798560Y8094980D02*
D03*
X9165751D02*
D03*
X8976360Y7920610D02*
D03*
X9286240Y6174138D02*
D03*
X8031509Y6159500D02*
D03*
X9076749Y6047740D02*
D03*
X8619885D02*
D03*
X7983220Y7506880D02*
D03*
X7957820Y6985000D02*
D03*
X7886700Y6543732D02*
D03*
X6477000Y5779411D02*
D03*
X7218137Y5938520D02*
D03*
X6395596Y5387340D02*
D03*
X6393000Y5489406D02*
D03*
X6462960Y5433060D02*
D03*
X5933440Y4921951D02*
D03*
X5252720Y4919980D02*
D03*
X4986413Y5185488D02*
D03*
X5562600Y5209540D02*
D03*
X5915660Y5569540D02*
D03*
X6362700Y6007100D02*
D03*
X6489700Y6565361D02*
D03*
X6794500Y6956651D02*
D03*
X7081520Y7252993D02*
D03*
X7508240Y7419340D02*
D03*
X7381625Y7819140D02*
D03*
X7565328Y8023860D02*
D03*
X7678420Y8442960D02*
D03*
X7469309Y8285795D02*
D03*
X7467600Y8520357D02*
D03*
X7326884Y8404860D02*
D03*
X6975537Y8582660D02*
D03*
X7089140Y8453120D02*
D03*
X6938440Y8239760D02*
D03*
X7175640Y8242300D02*
D03*
X6535960Y8178693D02*
D03*
X4584700Y6482080D02*
D03*
X3815080Y7389490D02*
D03*
X3040380Y6520180D02*
D03*
X2908300Y6398807D02*
D03*
X2861475Y6218807D02*
D03*
X2910840Y5800680D02*
D03*
X2562897Y6139180D02*
D03*
X2534920Y6662713D02*
D03*
X3306653Y6780843D02*
D03*
X706120Y6818683D02*
D03*
X1074960Y6723911D02*
D03*
X988060Y5753100D02*
D03*
X769620Y5742940D02*
D03*
X1055520Y4574540D02*
D03*
X1177039Y4439920D02*
D03*
X1056640Y4307840D02*
D03*
X1480820Y3078869D02*
D03*
X1212191Y2935667D02*
D03*
X4702848Y7363460D02*
D03*
X4478020D02*
D03*
X7555431Y6316980D02*
D03*
X2555240Y8783269D02*
D03*
X2894076Y8827007D02*
D03*
X3047406Y8978279D02*
D03*
X4025900Y8397048D02*
D03*
X3970020Y8735060D02*
D03*
X3505200Y7373620D02*
D03*
X3705860Y7200900D02*
D03*
X4149141Y6873520D02*
D03*
X3790088Y6878320D02*
D03*
X3705860Y6659682D02*
D03*
X3289300Y7059280D02*
D03*
X5458460Y7668060D02*
D03*
X4954597Y7842364D02*
D03*
X5305680Y7739729D02*
D03*
X4934960Y7368540D02*
D03*
X4799082Y7205980D02*
D03*
X4593905Y7203440D02*
D03*
X4363720D02*
D03*
X4150360Y7162800D02*
D03*
X4676667Y7809760D02*
D03*
X4800600Y8338820D02*
D03*
X4805680Y9013679D02*
D03*
X4960361Y9017000D02*
D03*
X5214706Y8303260D02*
D03*
X5445760Y8196580D02*
D03*
X4358640Y6891020D02*
D03*
X5969000Y7139439D02*
D03*
X5949701Y6784340D02*
D03*
X5948680Y6507480D02*
D03*
X4122679Y5549900D02*
D03*
X4126120Y5315400D02*
D03*
X4124960Y5747556D02*
D03*
X4370379Y5473874D02*
D03*
X4357939Y5742940D02*
D03*
X3442469Y3230880D02*
D03*
X3447520Y2941320D02*
D03*
X3051468Y4198620D02*
D03*
X2372360Y4116598D02*
D03*
X1902460Y4117340D02*
D03*
X5893644Y5788660D02*
D03*
X6305665Y6192520D02*
D03*
X6308517Y6723380D02*
D03*
X6631940Y7042740D02*
D03*
X6972494Y7391400D02*
D03*
X7326884Y7470140D02*
D03*
X7053580Y7664829D02*
D03*
Y7819214D02*
D03*
X6654800Y7411720D02*
D03*
X6305119Y7066280D02*
D03*
X6116320Y6621559D02*
D03*
X6014343Y6164580D02*
D03*
X5383104Y5543168D02*
D03*
X5328920Y6078220D02*
D03*
X5321238Y5740400D02*
D03*
X4922520Y5659120D02*
D03*
X4645660Y5534660D02*
D03*
X5759701Y6210300D02*
D03*
X5730240Y7843520D02*
D03*
X5588000Y8114620D02*
D03*
X5079561Y7259807D02*
D03*
X5316220Y7258149D02*
D03*
X5241729Y7084060D02*
D03*
X5245100Y6852879D02*
D03*
X5027866Y7077773D02*
D03*
X5181694Y6624320D02*
D03*
X4986020Y6476326D02*
D03*
X5087620Y6309360D02*
D03*
X4724400Y6169660D02*
D03*
X4719320Y5930900D02*
D03*
X4791243Y6488813D02*
D03*
X3883969Y5745480D02*
D03*
X4277360Y4846320D02*
D03*
X4091940Y4905051D02*
D03*
X3970020Y4688840D02*
D03*
X3883969Y4533900D02*
D03*
X3726180Y4859020D02*
D03*
X4470400Y5847080D02*
D03*
X5008880Y5989866D02*
D03*
X4767580Y5750560D02*
D03*
X2203940Y5285400D02*
D03*
X2698986Y3671513D02*
D03*
X2623886D02*
D03*
X649760Y3638780D02*
D03*
X574660D02*
D03*
X3161253Y3707461D02*
D03*
X3507958Y1985600D02*
D03*
X3392858Y1901121D02*
D03*
X3389058Y3629780D02*
D03*
X3270159Y3510881D02*
D03*
X4068038Y2247700D02*
D03*
X3268878Y3247500D02*
D03*
X3352698D02*
D03*
X1118620Y3217020D02*
D03*
X7212560Y4796759D02*
D03*
X7152560D02*
D03*
Y4736759D02*
D03*
X7212560D02*
D03*
X8741878Y7514878D02*
D03*
Y7574878D02*
D03*
X3317780Y4782140D02*
D03*
X3198880Y4901040D02*
D03*
X3079980Y4782140D02*
D03*
X3198880Y4663241D02*
D03*
X2726440Y8900701D02*
D03*
X2666280D02*
D03*
X5877795Y7819214D02*
D03*
X5817795Y7879214D02*
D03*
Y7819214D02*
D03*
X910220Y7942580D02*
D03*
X1030680Y7818740D02*
D03*
X372260Y7934960D02*
D03*
X257560Y7814000D02*
D03*
X692208Y6576540D02*
D03*
X1073531Y7170420D02*
D03*
X1013531D02*
D03*
X2932180Y4846260D02*
D03*
Y4786260D02*
D03*
Y4726260D02*
D03*
X2871220Y4846260D02*
D03*
Y4786260D02*
D03*
Y4726260D02*
D03*
X8889050Y6345820D02*
D03*
X8829049D02*
D03*
Y6405200D02*
D03*
X8889050D02*
D03*
X8829049Y6465200D02*
D03*
X8889050D02*
D03*
X7653229Y7460700D02*
D03*
X7711649D02*
D03*
X5241729Y7171460D02*
D03*
X5301729D02*
D03*
X8835140Y8331480D02*
D03*
X8895140D02*
D03*
Y8391480D02*
D03*
X8954520Y8451480D02*
D03*
Y8391480D02*
D03*
Y8331480D02*
D03*
X7532600Y1894160D02*
D03*
X7770400D02*
D03*
X7651500Y2013060D02*
D03*
Y1775261D02*
D03*
X8967720Y2433912D02*
D03*
Y2493911D02*
D03*
X8661069Y3003762D02*
D03*
X8721069D02*
D03*
X9297920Y3378722D02*
D03*
X7222240Y4288761D02*
D03*
X7341140Y4407661D02*
D03*
X6920460Y6575380D02*
D03*
X7039360Y6694280D02*
D03*
X7158260Y6575380D02*
D03*
X7039360Y6456481D02*
D03*
X1833960Y2217220D02*
D03*
X1273880Y1955120D02*
D03*
X1158780Y1870641D02*
D03*
X1154980Y3599300D02*
D03*
X5180200Y3865895D02*
D03*
Y3805896D02*
D03*
X6213449Y3806672D02*
D03*
X6153449D02*
D03*
X9565511Y2860322D02*
D03*
X9625511D02*
D03*
X9281971Y4844360D02*
D03*
X9341971D02*
D03*
X9322820Y6873520D02*
D03*
X9325360Y6684600D02*
D03*
X7538952Y6209167D02*
D03*
X2629060Y4688948D02*
D03*
X2733988Y4572069D02*
D03*
X1108460Y8259400D02*
D03*
Y8319400D02*
D03*
X1048460D02*
D03*
Y8259400D02*
D03*
X4271720Y9018860D02*
D03*
X4331720D02*
D03*
X3404620Y6409886D02*
D03*
X3270180Y6511619D02*
D03*
X3546860Y6424831D02*
D03*
Y6364831D02*
D03*
X4829831Y4954860D02*
D03*
X4889831D02*
D03*
X4888144Y3869876D02*
D03*
X8042928Y2214308D02*
D03*
Y2274308D02*
D03*
X7873600Y1839783D02*
D03*
X7933600D02*
D03*
X5406140Y3809876D02*
D03*
Y3869876D02*
D03*
X7696200Y5554980D02*
D03*
X7609840Y5389880D02*
D03*
Y5100320D02*
D03*
X7610146Y4841240D02*
D03*
X7683500Y4588601D02*
D03*
X7745282Y4402770D02*
D03*
X9057700Y4431620D02*
D03*
X8937700Y4371620D02*
D03*
X9057700D02*
D03*
X8997700D02*
D03*
X9057700Y4491000D02*
D03*
Y4551000D02*
D03*
X7690560Y2280240D02*
D03*
Y2340240D02*
D03*
Y2400240D02*
D03*
X7750560Y2280240D02*
D03*
Y2400240D02*
D03*
Y2340240D02*
D03*
X7869940D02*
D03*
Y2400240D02*
D03*
Y2280240D02*
D03*
X7809940Y2400240D02*
D03*
Y2340240D02*
D03*
Y2280240D02*
D03*
X4046140Y5178079D02*
D03*
X1362460Y7339920D02*
D03*
X3669530Y4937080D02*
D03*
X5294380Y6339440D02*
D03*
X5340100Y6385160D02*
D03*
X4103120Y7284040D02*
D03*
X3412240Y7428820D02*
D03*
X5046667Y7167880D02*
D03*
X3422400Y6334080D02*
D03*
Y6273120D02*
D03*
Y6214700D02*
D03*
Y6153740D02*
D03*
X9203286Y6130880D02*
D03*
X8033799Y6275660D02*
D03*
X9461980Y4083061D02*
D03*
X7973380Y4151641D02*
D03*
D112*
X4660900Y7809760D02*
X4693503Y7842364D01*
X4377500Y7809760D02*
X4660900D01*
X4313940Y7873320D02*
X4377500Y7809760D01*
X5377349Y7668060D02*
X5485079D01*
X5203045Y7842364D02*
X5377349Y7668060D01*
X3615969Y5745480D02*
X3927099D01*
X3560769Y5800680D02*
X3615969Y5745480D01*
X2627380Y5800680D02*
X3048910D01*
X3505200Y7373620D02*
X3606120Y7474540D01*
X3505200Y7275180D02*
Y7373620D01*
X2935054Y6783749D02*
X3107752Y6956447D01*
X3186467D01*
X5426460Y5805067D02*
Y5972765D01*
X5383104Y5456764D02*
Y5654884D01*
X5426460Y5698240D01*
Y6880815D02*
Y7334840D01*
Y5698240D02*
Y5805067D01*
X769620Y5678840D02*
X1138940Y5309520D01*
X769620Y5678840D02*
Y5742940D01*
X326140Y6186420D02*
X593440Y5919120D01*
X1054771Y6934977D02*
X1097280Y6892469D01*
X1054771Y6934977D02*
Y7134462D01*
X1097280Y6078560D02*
Y6363063D01*
X5267474Y9018860D02*
X5299814Y8986520D01*
X5645204D01*
X4271720Y9018860D02*
X4607006D01*
X3802215D02*
X4271720D01*
X3761634Y8978279D02*
X3802215Y9018860D01*
X2393700D02*
X2863205D01*
X2903786Y8978279D01*
X4074160Y8839200D02*
X4292980D01*
X3970020Y8735060D02*
X4074160Y8839200D01*
X2345440Y8785180D02*
X2553329D01*
X2603449Y8735060D01*
X5321386Y8196580D02*
X5500429D01*
X5908144Y7788865D02*
X6125949Y7571060D01*
X5075686Y8442280D02*
X5321386Y8196580D01*
X694440Y4246200D02*
X758620Y4310380D01*
X870380D01*
X1393437D02*
X1406137Y4297680D01*
X2837860Y4246200D02*
X3000030D01*
X2786380Y4297680D02*
X2837860Y4246200D01*
X870380Y4310380D02*
X1393437D01*
X3680286Y4215429D02*
X3833831D01*
X3663476Y4198620D02*
X3680286Y4215429D01*
X3047610Y4198620D02*
X3263868D01*
X3663476D01*
X3833831Y4215429D02*
X3930859Y4118401D01*
X5230921D01*
X5280660Y4168140D01*
X5500158D01*
X5573818Y4094480D01*
X5711620D01*
X7745282Y4402770D02*
X7818120Y4475609D01*
X8033799Y6282812D02*
X8069580Y6318593D01*
Y7059425D02*
Y7429840D01*
X8033799Y5912396D02*
Y6282812D01*
X9316720Y1750270D02*
Y2077720D01*
X9253220Y1686770D02*
X9316720Y1750270D01*
Y767920D02*
Y1095370D01*
X9253220Y1158870D02*
X9316720Y1095370D01*
X5406140Y3809876D02*
Y3869876D01*
Y3809876D02*
X5855720Y3360296D01*
X5808836Y4234180D02*
X7167659D01*
X4667405Y3869876D02*
X5406140D01*
X2805585D02*
X4667405D01*
X3499713Y3794080D02*
X4280920Y3012873D01*
Y2328500D02*
Y3012873D01*
X3669587Y1717168D02*
X4280920Y2328500D01*
X3167593Y1717168D02*
X3669587D01*
X3107440Y1777320D02*
X3167593Y1717168D01*
X3107440Y1777320D02*
Y2909235D01*
X3267453Y3069248D01*
Y3374673D01*
Y3601260D01*
X3164433Y3704280D02*
X3267453Y3601260D01*
X3164433Y3704280D02*
Y3771928D01*
X3186585Y3794080D01*
X3499713D01*
X1103515Y3856773D02*
X1225300D01*
X1051960Y3805218D02*
X1103515Y3856773D01*
X1051960Y3702321D02*
Y3805218D01*
Y3702321D02*
X1154980Y3599300D01*
Y3386566D02*
Y3599300D01*
X1118620Y3350206D02*
X1154980Y3386566D01*
X1118620Y3044780D02*
Y3350206D01*
X902720Y2828880D02*
X1118620Y3044780D01*
X902720Y1800180D02*
Y2828880D01*
Y1800180D02*
X973840Y1729060D01*
X1345800D01*
X2045720Y2428981D01*
Y3070180D01*
X1259127Y3856773D02*
X2045720Y3070180D01*
X1225300Y3856773D02*
X1259127D01*
X5855720Y2127840D02*
Y3360296D01*
X5545840Y1817960D02*
X5855720Y2127840D01*
X6778420Y3921760D02*
X7436280D01*
X6058920Y3202260D02*
X6778420Y3921760D01*
X6058920Y2061800D02*
Y3202260D01*
X5754120Y1757000D02*
X6058920Y2061800D01*
X5754120Y1381080D02*
Y1757000D01*
X5705860Y1332820D02*
X5754120Y1381080D01*
X5591560Y1332820D02*
X5705860D01*
X5545840Y1378540D02*
X5591560Y1332820D01*
X5545840Y1378540D02*
Y1817960D01*
X6940980Y8242300D02*
X7175640D01*
X6940980Y8099220D02*
Y8242300D01*
X6830060Y7988300D02*
X6940980Y8099220D01*
X6515100Y7988300D02*
X6830060D01*
X6310040Y8193360D02*
X6515100Y7988300D01*
X6048420Y8193360D02*
X6310040D01*
X5499780Y8742000D02*
X6048420Y8193360D01*
X4390180Y8742000D02*
X5499780D01*
X4292980Y8839200D02*
X4390180Y8742000D01*
X2603449Y8735060D02*
X3970020D01*
X2309880Y8820740D02*
X2345440Y8785180D01*
X2309880Y8820740D02*
Y8935040D01*
X2393700Y9018860D01*
X2903786Y8978279D02*
X3761634D01*
X4607006Y9018860D02*
X5267474D01*
X5645204Y8986520D02*
X6156651Y8475073D01*
X6703529D01*
X6927276Y8698820D01*
X7289136D01*
X7471937Y8516020D01*
X7605360D01*
X7678420Y8442960D01*
Y7821000D02*
Y8442960D01*
Y7821000D02*
X8069580Y7429840D01*
Y6318593D02*
Y7059425D01*
X7818120Y5696718D02*
X8033799Y5912396D01*
X7818120Y4475609D02*
Y5696718D01*
X7745282Y4230762D02*
Y4402770D01*
X7039360Y5869260D02*
Y6209620D01*
Y5869260D02*
X7339080Y5569540D01*
Y4405601D02*
Y5569540D01*
X7167659Y4234180D02*
X7339080Y4405601D01*
X7436280Y3921760D02*
X7745282Y4230762D01*
X2680720Y3994740D02*
X2805585Y3869876D01*
X679200Y3994740D02*
X2680720D01*
X638560Y4035380D02*
X679200Y3994740D01*
X638560Y4035380D02*
Y4190320D01*
X694440Y4246200D01*
X6699227Y5991407D02*
X6916987Y6209167D01*
X3927099Y5745480D02*
X4590719Y5081860D01*
X3048910Y5800680D02*
X3560769D01*
X2193040Y6235020D02*
X2627380Y5800680D01*
X2193040Y6235020D02*
Y6560140D01*
X2416648Y6783749D01*
X2935054D01*
X3186467Y6956447D02*
X3505200Y7275180D01*
X3606120Y7474540D02*
X5286760D01*
X5426460Y7334840D01*
Y5972765D02*
Y6880815D01*
X5008200Y5081860D02*
X5383104Y5456764D01*
X4923540Y5081860D02*
X5008200D01*
X4590719D02*
X4923540D01*
X5942080Y4770800D02*
X6699227Y5527947D01*
X7765800Y6557600D02*
Y7406549D01*
X7711649Y7460700D02*
X7765800Y7406549D01*
X7653229Y7460700D02*
X7711649D01*
X7415280Y7698649D02*
X7653229Y7460700D01*
X7415280Y7698649D02*
Y8133382D01*
X7306362Y8242300D02*
X7415280Y8133382D01*
X7175640Y8242300D02*
X7306362D01*
X7175640Y7941274D02*
Y8242300D01*
X6805426Y7571060D02*
X7175640Y7941274D01*
X6125949Y7571060D02*
X6805426D01*
X5500429Y8196580D02*
X5908144Y7788865D01*
X4407580Y8442280D02*
X5075686D01*
X4236720Y8613140D02*
X4407580Y8442280D01*
X4067060Y8613140D02*
X4236720D01*
X3986280Y8532360D02*
X4067060Y8613140D01*
X3986280Y8442280D02*
Y8532360D01*
Y8442280D02*
X4313940Y8114620D01*
Y7873320D02*
Y8114620D01*
X4693503Y7842364D02*
X5203045D01*
X5485079Y7668060D02*
X5759701Y7393439D01*
Y5623381D02*
Y7393439D01*
X5073400Y4937080D02*
X5759701Y5623381D01*
X3234920Y4937080D02*
X5073400D01*
X3198880Y4901040D02*
X3234920Y4937080D01*
X2987580Y4901040D02*
X3198880D01*
X2932800Y4846260D02*
X2987580Y4901040D01*
X2329580Y4846260D02*
X2932800D01*
X1097280Y6078560D02*
X2329580Y4846260D01*
X1097280Y6363063D02*
Y6892469D01*
X1054771Y7134462D02*
X1093220Y7172911D01*
Y7659960D01*
X1038300Y7714880D02*
X1093220Y7659960D01*
X1038300Y7714880D02*
Y7818060D01*
Y7899680D01*
X1502160Y8363540D01*
Y8462600D01*
X1428500Y8536260D02*
X1502160Y8462600D01*
X1325320Y8536260D02*
X1428500D01*
X1108460Y8319400D02*
X1325320Y8536260D01*
X989971Y8319400D02*
X1108460D01*
X598591Y7928021D02*
X989971Y8319400D01*
X379880Y7928021D02*
X598591D01*
X186440Y7734580D02*
X379880Y7928021D01*
X186440Y7517720D02*
Y7734580D01*
Y7517720D02*
X326140Y7378020D01*
Y6186420D02*
Y7378020D01*
X593440Y5919120D02*
X769620Y5742940D01*
X1138940Y4819400D02*
Y5309520D01*
X906780Y4587240D02*
X1138940Y4819400D01*
X776400Y4587240D02*
X906780D01*
X712220Y4523060D02*
X776400Y4587240D01*
X712220Y4340180D02*
Y4523060D01*
Y4340180D02*
X750320Y4302080D01*
X1406137Y4297680D02*
X2786380D01*
X3000030Y4246200D02*
X3047610Y4198620D01*
X5711620Y4094480D02*
X5808836Y4191696D01*
Y4293296D01*
X5942080Y4426540D01*
Y4770800D01*
X6699227Y5527947D02*
Y5991407D01*
X6916987Y6209167D02*
X7658667D01*
X7765800Y6316300D01*
Y6557600D01*
X8835140Y8332100D02*
X8954520Y8451480D01*
X8835140Y8331480D02*
Y8332100D01*
X8954520Y8451480D02*
X8969606Y8466566D01*
Y8694118D01*
X8954520Y8451480D02*
X8969606Y8466566D01*
X8694480Y8190820D02*
X8835140Y8331480D01*
X8969606Y8694118D02*
Y8978066D01*
X9061200Y9069660D01*
X9363298D01*
X9843518Y8589440D01*
X8583680Y8190820D02*
X8694480D01*
X8515100Y8122240D02*
X8583680Y8190820D01*
X8515100Y7441520D02*
Y8122240D01*
Y7441520D02*
X8577580Y7379040D01*
Y6090045D02*
Y7379040D01*
Y6090045D02*
X8738620Y5929005D01*
X9057700Y4371620D02*
Y4551000D01*
X8738620Y5226790D02*
Y5929005D01*
Y5226790D02*
X9057700Y4907710D01*
Y4551000D02*
Y4907710D01*
X8867200Y4371620D02*
X9057700D01*
X8819845Y4418976D02*
X8867200Y4371620D01*
X8695495Y4418976D02*
X8819845D01*
X8664960Y4388440D02*
X8695495Y4418976D01*
X8664960Y3959180D02*
Y4388440D01*
X8172200Y3466420D02*
X8664960Y3959180D01*
X7001260Y3466420D02*
X8172200D01*
X6929120Y3394280D02*
X7001260Y3466420D01*
X6929120Y1443060D02*
Y3394280D01*
Y1443060D02*
X7039360Y1332820D01*
X8339840D01*
X9000240Y672420D01*
X9221220D01*
X9316720Y767920D01*
X9253220Y1158870D02*
Y1686770D01*
X9316720Y2077720D02*
X9843520Y2604520D01*
X9843518Y8589440D02*
X9843520Y2604520D01*
D113*
X3268878Y3247500D02*
X3425849D01*
D114*
X3489962Y6286500D02*
D03*
D115*
X2901906Y4786630D02*
D03*
D116*
X3702050Y4897120D02*
D03*
D117*
X7750810Y2327910D02*
D03*
%TF.MD5,a245482bee5e4891d3a4d532bc0771c6*%
M02*
